<?xml version="1.0" encoding="UTF-8" standalone="no"?>
<svg
   xmlns:dc="http://purl.org/dc/elements/1.1/"
   xmlns:cc="http://creativecommons.org/ns#"
   xmlns:rdf="http://www.w3.org/1999/02/22-rdf-syntax-ns#"
   xmlns:svg="http://www.w3.org/2000/svg"
   xmlns="http://www.w3.org/2000/svg"
   viewBox="0 0 625 625"
   height="625"
   width="625"
   xml:space="preserve"
   version="1.1"
   id="svg2"><metadata
     id="metadata8"><rdf:RDF><cc:Work
         rdf:about=""><dc:format>image/svg+xml</dc:format><dc:type
           rdf:resource="http://purl.org/dc/dcmitype/StillImage" /></cc:Work></rdf:RDF></metadata><defs
     id="defs6"><clipPath
       id="clipPath18"
       clipPathUnits="userSpaceOnUse"><path
         id="path20"
         d="M 0,500 500,500 500,0 0,0 0,500 Z" /></clipPath><clipPath
       id="clipPath26"
       clipPathUnits="userSpaceOnUse"><path
         id="path28"
         d="m 133.844,362.739 366.156,0 0,-363.82872 -366.156,0 0,363.82872 z" /></clipPath><clipPath
       id="clipPath30"
       clipPathUnits="userSpaceOnUse"><path
         id="path32"
         d="M 133.844,339.999 159.89,362.739 500,147.252 500,-1.09 l -219.643,0 -146.513,341.089 z" /></clipPath><clipPath
       id="clipPath34"
       clipPathUnits="userSpaceOnUse"><path
         id="path36"
         d="m -32768,32767 65535,0 0,-65535 -65535,0 0,65535 z" /></clipPath><linearGradient
       id="linearGradient38"
       spreadMethod="pad"
       gradientTransform="matrix(-347.19937,359.40118,359.40118,347.19937,480.2569,-20.162538)"
       gradientUnits="userSpaceOnUse"
       y2="0"
       x2="1"
       y1="0"
       x1="0"><stop
         id="stop40"
         offset="0"
         style="stop-opacity:0;stop-color:#ffffff" /><stop
         id="stop42"
         offset="0.25"
         style="stop-opacity:0;stop-color:#ffffff" /><stop
         id="stop44"
         offset="1"
         style="stop-opacity:1;stop-color:#ffffff" /></linearGradient><mask
       id="mask46"
       height="1"
       width="1"
       y="0"
       x="0"
       maskUnits="userSpaceOnUse"><g
         id="g48"><g
           id="g50"
           clip-path="url(#clipPath34)"><g
             id="g52"><g
               id="g54"><path
                 id="path56"
                 style="fill:url(#linearGradient38);stroke:none"
                 d="m -32768,32767 65535,0 0,-65535 -65535,0 0,65535 z" /></g></g></g></g></mask><linearGradient
       id="linearGradient58"
       spreadMethod="pad"
       gradientTransform="matrix(-347.19937,359.40118,359.40118,347.19937,480.2569,-20.162538)"
       gradientUnits="userSpaceOnUse"
       y2="0"
       x2="1"
       y1="0"
       x1="0"><stop
         id="stop60"
         offset="0"
         style="stop-opacity:1;stop-color:#ffffff" /><stop
         id="stop62"
         offset="0.25"
         style="stop-opacity:1;stop-color:#ffffff" /><stop
         id="stop64"
         offset="1"
         style="stop-opacity:1;stop-color:#ffffff" /></linearGradient><clipPath
       id="clipPath88"
       clipPathUnits="userSpaceOnUse"><path
         id="path90"
         d="M 0,500 500,500 500,0 0,0 0,500 Z" /></clipPath><clipPath
       id="clipPath222"
       clipPathUnits="userSpaceOnUse"><path
         id="path224"
         d="m 156.999,227.491 5.911,0 0,-19.795 -5.911,0 0,19.795 z" /></clipPath><clipPath
       id="clipPath238"
       clipPathUnits="userSpaceOnUse"><path
         id="path240"
         d="m 163.956,239.943 8.204,0 0,-32.247 -8.204,0 0,32.247 z" /></clipPath><clipPath
       id="clipPath594"
       clipPathUnits="userSpaceOnUse"><path
         id="path596"
         d="M 0,500 500,500 500,0 0,0 0,500 Z" /></clipPath></defs><g
     transform="matrix(1.25,0,0,-1.25,0,625)"
     id="g10"><path
       id="path12"
       style="fill:#151c64;fill-opacity:1;fill-rule:nonzero;stroke:none"
       d="M 0,0 500,0 500,500 0,500 0,0 Z" /><g
       id="g14"><g
         clip-path="url(#clipPath18)"
         id="g16"><g
           id="g22"><g
             id="g24" /><g
             id="g66"><g
               style="opacity:0.80000299"
               id="g68"
               clip-path="url(#clipPath26)"><g
                 id="g70"><g
                   id="g72"
                   clip-path="url(#clipPath30)"><g
                     id="g74"><g
                       id="g76" /><g
                       id="g78"
                       mask="url(#mask46)"><g
                         id="g80"><path
                           id="path82"
                           style="fill:url(#linearGradient58);stroke:none"
                           d="M 133.844,339.999 159.89,362.739 500,147.252 500,-1.09 l -219.643,0 -146.513,341.089 z" /></g></g></g></g></g></g></g></g></g></g><g
       id="g84"><g
         clip-path="url(#clipPath88)"
         id="g86"><g
           transform="translate(378.1484,69.166)"
           id="g92"><path
             id="path94"
             style="fill:#121754;fill-opacity:1;fill-rule:nonzero;stroke:none"
             d="m 0,0 c 0,-4.918 -57.32,-8.905 -128.028,-8.905 -70.708,0 -128.028,3.987 -128.028,8.905 0,4.919 57.32,8.907 128.028,8.907 C -57.32,8.907 0,4.919 0,0" /></g><g
           transform="translate(132.3306,363.3252)"
           id="g96"><path
             id="path98"
             style="fill:#c2185b;fill-opacity:1;fill-rule:nonzero;stroke:none"
             d="m 0,0 c -5.246,4.745 -10.833,8.681 -16.156,11.382 -11.274,5.723 -27.883,4.095 -28.05,4.078 l -0.603,5.812 c 0.749,0.078 18.472,1.832 31.298,-4.679 C -7.65,13.619 -1.786,9.495 3.92,4.334 L 0,0 Z" /></g><g
           transform="translate(91.1357,384.8696)"
           id="g100"><path
             id="path102"
             style="fill:#ec407a;fill-opacity:1;fill-rule:nonzero;stroke:none"
             d="m 0,0 c 6.804,0.223 13.677,-0.294 20.28,-2.049 3.288,-0.911 6.472,-2.214 9.437,-3.899 2.98,-1.657 5.834,-3.534 8.564,-5.574 l -0.056,-0.076 c -1.474,0.869 -2.909,1.779 -4.402,2.59 -1.463,0.856 -2.948,1.668 -4.459,2.42 -1.528,0.732 -3.009,1.5 -4.568,2.088 -1.544,0.633 -3.154,1.098 -4.765,1.543 -3.218,0.931 -6.543,1.496 -9.887,1.942 -1.672,0.244 -3.357,0.401 -5.047,0.538 -1.69,0.186 -3.388,0.258 -5.094,0.383 L 0,0 Z" /></g><g
           transform="translate(87.9136,380.8208)"
           id="g104"><path
             id="path106"
             style="fill:#ad1457;fill-opacity:1;fill-rule:nonzero;stroke:none"
             d="m 0,0 0.211,-2.036 c 0.167,0.017 16.776,1.646 28.05,-4.077 5.323,-2.702 10.91,-6.637 16.156,-11.383 l 1.455,1.609 C 40.587,-11.277 35.181,-7.544 29.775,-4.801 18.961,0.688 4.669,0.303 0,0" /></g><g
           transform="translate(151.2334,361.0605)"
           id="g108"><path
             id="path110"
             style="fill:#fff3e0;fill-opacity:1;fill-rule:nonzero;stroke:none"
             d="m 0,0 c -3.51,4.021 -9.614,4.434 -13.635,0.924 -4.02,-3.51 -4.433,-9.615 -0.923,-13.635 3.51,-4.02 9.614,-4.434 13.635,-0.924 C 3.097,-10.125 3.51,-4.02 0,0" /></g><g
           transform="translate(140.0898,351.7954)"
           id="g112"><path
             id="path114"
             style="fill:#ffe0b2;fill-opacity:1;fill-rule:nonzero;stroke:none"
             d="m 0,0 c -2.797,3.204 -3.095,7.729 -1.068,11.212 -0.495,-0.295 -0.974,-0.63 -1.423,-1.023 -4.02,-3.51 -4.434,-9.615 -0.924,-13.635 3.51,-4.02 9.615,-4.433 13.635,-0.924 0.816,0.713 1.476,1.537 1.992,2.424 C 8.279,-4.289 3.118,-3.571 0,0" /></g><g
           transform="translate(159.8901,362.7393)"
           id="g116"><path
             id="path118"
             style="fill:#ec407a;fill-opacity:1;fill-rule:nonzero;stroke:none"
             d="m 0,0 c 0.502,0.439 0.504,1.22 0.003,1.661 l -9.469,8.332 c -7.43,5.943 -14.467,6.35 -22.006,-0.233 -7.54,-6.582 -8.085,-13.61 -3.199,-21.773 l 6.979,-10.507 c 0.369,-0.556 1.144,-0.66 1.646,-0.221 L 0,0 Z" /></g><g
           transform="translate(159.856,364.3579)"
           id="g120"><path
             id="path122"
             style="fill:#ff80ab;fill-opacity:1;fill-rule:nonzero;stroke:none"
             d="m 0,0 c -1.208,0.772 -2.333,1.638 -3.5,2.452 l -3.363,2.602 c -1.134,0.846 -2.197,1.795 -3.299,2.662 -1.077,0.806 -2.213,1.587 -3.396,2.239 -2.349,1.318 -4.918,2.184 -7.583,2.174 -2.675,0.03 -5.334,-0.915 -7.884,-2.175 l -0.064,0.093 c 1.179,0.793 2.421,1.497 3.742,2.032 1.329,0.512 2.732,0.839 4.156,0.926 2.868,0.211 5.699,-0.699 8.184,-2.063 1.238,-0.707 2.406,-1.523 3.525,-2.405 L -6.292,5.725 0.075,0.085 0,0 Z" /></g><path
           id="path124"
           style="fill:#f57f17;fill-opacity:1;fill-rule:nonzero;stroke:none"
           d="m 84.511,362.684 6.626,0 0,30.371 -6.626,0 0,-30.371 z" /><g
           transform="translate(91.0918,371.2686)"
           id="g126"><path
             id="path128"
             style="fill:#ffab91;fill-opacity:1;fill-rule:nonzero;stroke:none"
             d="m 0,0 c -0.23,1.815 -0.401,3.631 -0.493,5.446 l -0.158,2.723 -0.054,2.724 c -0.04,1.815 -0.086,3.631 -0.022,5.446 0.056,1.816 0.024,3.631 0.166,5.447 l 0.606,-0.606 -1.656,0.098 c -0.553,0.038 -1.105,0.053 -1.657,0.111 -1.104,0.116 -2.209,0.191 -3.313,0.352 l 0,0.09 6.626,0.021 0.066,0.001 0.001,-0.067 C 0.155,14.524 0.111,7.262 0.091,0 L 0,0 Z" /></g><g
           transform="translate(88.6582,371.6455)"
           id="g130"><path
             id="path132"
             style="fill:#ff6e40;fill-opacity:1;fill-rule:nonzero;stroke:none"
             d="m 0,0 c -1.724,1.1 -3.078,3.323 -4.147,6.068 l 0,-15.03 6.626,0 0,8.335 C 1.581,-0.658 0.744,-0.475 0,0" /></g><g
           transform="translate(130.0332,356.0605)"
           id="g134"><path
             id="path136"
             style="fill:#d81b60;fill-opacity:1;fill-rule:nonzero;stroke:none"
             d="M 0,0 C -4.173,6.743 -2.196,13.445 0.173,17.862 -0.42,17.426 -1.016,16.962 -1.615,16.439 -9.155,9.857 -9.7,2.829 -4.814,-5.334 l 6.979,-10.507 c 0.369,-0.556 1.144,-0.66 1.646,-0.221 L 17.336,-4.253 C 10.755,-6.003 3.705,-5.986 0,0" /></g><g
           transform="translate(284.2861,82.4561)"
           id="g138"><path
             id="path140"
             style="fill:#000000;fill-opacity:1;fill-rule:nonzero;stroke:none"
             d="m 0,0 c 0,0 2.5,-3.572 2.5,-7.5 l 0,-6.928 -41.109,0 0,1.154 c 0,6.772 5.49,12.261 12.262,12.261 l 7.537,0 L -18.055,0 0,0 Z" /></g><g
           transform="translate(287.0732,68.0283)"
           id="g142"><path
             id="path144"
             style="fill:#c8e6c9;fill-opacity:1;fill-rule:nonzero;stroke:none"
             d="m 0,0 -41.684,0 0,1.153 c 0,0.641 0.05,1.27 0.146,1.884 L 0,3.037 0,0 Z" /></g><g
           transform="translate(294.0723,138.2295)"
           id="g146"><path
             id="path148"
             style="fill:#004d40;fill-opacity:1;fill-rule:nonzero;stroke:none"
             d="m 0,0 c -7.595,-0.328 -15.293,-1.165 -21.295,-1.528 1.541,-3.513 5.356,-12.868 8.413,-25.794 3.929,-16.607 5.536,-29.464 5.536,-29.464 l -21.25,0 c 0,0 -3.927,23.571 -13.214,46.606 -4.708,11.68 -6.586,18.929 -3.392,23.572 4.576,6.653 34.514,11.071 45.202,11.607 L 0,0 Z" /></g><g
           transform="translate(205.4302,247.082)"
           id="g150"><path
             id="path152"
             style="fill:#616161;fill-opacity:1;fill-rule:nonzero;stroke:none"
             d="m 0,0 c 0,0 -18.571,2.041 -26.641,-17.78 -4.005,-9.838 -10.412,-42.322 -10.412,-42.322 l 16.875,0 c 0,0 2.402,32.647 6.785,42.322 C -8.214,-6.353 0,-7.781 0,-7.781 L 0,0 Z" /></g><g
           transform="translate(199.6572,246.7178)"
           id="g154"><path
             id="path156"
             style="fill:#757575;fill-opacity:1;fill-rule:nonzero;stroke:none"
             d="m 0,0 c -2.18,-0.599 -4.305,-1.315 -6.271,-2.35 -1.985,-0.978 -3.831,-2.207 -5.477,-3.648 -3.28,-2.89 -5.912,-6.49 -7.614,-10.542 -1.874,-3.946 -2.945,-8.378 -4.269,-12.663 -0.651,-2.156 -1.268,-4.324 -1.887,-6.494 -0.676,-2.157 -1.275,-4.333 -1.982,-6.488 l -0.11,0.025 c 0.984,4.406 2.007,8.804 3.13,13.177 0.563,2.186 1.15,4.367 1.795,6.532 0.656,2.158 1.324,4.329 2.294,6.378 0.432,1.049 1.013,2.023 1.537,3.026 0.609,0.954 1.178,1.937 1.881,2.826 1.349,1.817 2.904,3.488 4.67,4.908 3.525,2.859 7.825,4.685 12.284,5.425 L 0,0 Z" /></g><g
           transform="translate(199.604,246.7627)"
           id="g158"><path
             id="path160"
             style="fill:#455a64;fill-opacity:1;fill-rule:nonzero;stroke:none"
             d="m 0,0 0.617,-4.943 c 0,0 -6.047,-0.849 -10.477,-7.918 -4.431,-7.071 -7.541,-31.41 -7.541,-31.41 0,0 -0.802,1.886 -3.441,1.886 l -6.697,0 c -2.094,-9.319 -3.688,-17.397 -3.688,-17.397 l 16.875,0 c 0,0 2.402,32.646 6.786,42.321 5.178,11.428 13.392,9.999 13.392,9.999 l 0,7.781 C 5.826,0.319 3.434,0.577 0,0" /></g><g
           transform="translate(210.4438,209.9531)"
           id="g162"><path
             id="path164"
             style="fill:#9e9e9e;fill-opacity:1;fill-rule:nonzero;stroke:none"
             d="M 0,0 5.759,1.016 C 6.922,1.221 7.698,2.329 7.494,3.492 L -5.828,79.04 c -0.205,1.163 -1.314,1.939 -2.476,1.734 l -5.759,-1.016 c -1.163,-0.205 -1.939,-1.314 -1.734,-2.476 L -2.477,1.734 C -2.271,0.571 -1.163,-0.205 0,0" /></g><g
           transform="translate(202.1528,290.6528)"
           id="g166"><path
             id="path168"
             style="fill:#9e9e9e;fill-opacity:1;fill-rule:nonzero;stroke:none"
             d="m 0,0 c -1.486,-0.403 -2.976,-0.784 -4.471,-1.133 l -1.12,-0.271 c -0.336,-0.075 -0.567,-0.209 -0.785,-0.402 -0.421,-0.391 -0.577,-0.987 -0.437,-1.486 l 1.949,-8.997 c 0.686,-2.992 1.183,-6.019 1.775,-9.028 l 1.71,-9.04 1.483,-9.081 c 0.476,-3.03 1.037,-6.045 1.417,-9.092 l 1.247,-9.122 c 0.324,-3.056 0.733,-6.098 0.982,-9.169 l -0.149,-0.025 -6.464,36.227 -3.158,18.127 -1.579,9.063 c -0.142,0.792 0.187,1.641 0.822,2.133 0.314,0.245 0.7,0.403 1.087,0.458 l 1.133,0.197 4.532,0.789 L 0,0 Z" /></g><g
           transform="translate(154.6558,180.9062)"
           id="g170"><path
             id="path172"
             style="fill:#9e9e9e;fill-opacity:1;fill-rule:nonzero;stroke:none"
             d="m 0,0 44.318,0 c 1.181,0 2.138,0.957 2.138,2.138 l 0,1.799 c 0,1.18 -0.957,2.137 -2.138,2.137 L 0,6.074 c -1.181,0 -2.138,-0.957 -2.138,-2.137 l 0,-1.799 C -2.138,0.957 -1.181,0 0,0" /></g><g
           transform="translate(217.9375,213.4453)"
           id="g174"><path
             id="path176"
             style="fill:#78909c;fill-opacity:1;fill-rule:nonzero;stroke:none"
             d="M 0,0 -4.893,27.745 C -5.097,21.036 -6.006,15.437 -8.021,12.192 -9.129,10.408 -10.447,9.476 -11.904,9.208 L -9.97,-1.758 c 0.205,-1.163 1.314,-1.939 2.476,-1.734 l 5.76,1.015 C -0.571,-2.271 0.205,-1.163 0,0" /></g><g
           transform="translate(198.9736,186.9805)"
           id="g178"><path
             id="path180"
             style="fill:#78909c;fill-opacity:1;fill-rule:nonzero;stroke:none"
             d="m 0,0 -3.373,0 c -0.488,-0.706 -1.051,-1.694 -1.521,-3.037 l -14.894,0 c 0,0 1.094,1.295 2.096,3.037 l -26.292,0 c 0.083,-1.076 0.576,-3.663 3.286,-6.074 l 40.698,0 c 1.181,0 2.138,0.957 2.138,2.137 l 0,1.799 C 2.138,-0.957 1.181,0 0,0" /></g><g
           transform="translate(229.5371,180.9062)"
           id="g182"><path
             id="path184"
             style="fill:#263238;fill-opacity:1;fill-rule:nonzero;stroke:none"
             d="M 0,0 C 0,0 -4.329,9.777 -14.624,12.206 -24.919,14.635 -33.333,7.023 -33.333,0 L 0,0 Z" /></g><g
           transform="translate(204.7002,187.2402)"
           id="g186"><path
             id="path188"
             style="fill:#212121;fill-opacity:1;fill-rule:nonzero;stroke:none"
             d="m 0,0 c 4.839,1.257 10.998,-0.251 13.826,-4.839 0.309,-0.503 0.523,-1.002 0.68,-1.495 l 10.331,0 c 0,0 -4.329,9.777 -14.624,12.206 C 3.161,7.535 -3.007,4.487 -6.194,0.146 -4.782,-0.324 -2.637,-0.686 0,0" /></g><g
           transform="translate(151.2886,190.4902)"
           id="g190"><path
             id="path192"
             style="fill:#ffa726;fill-opacity:1;fill-rule:nonzero;stroke:none"
             d="M 0,0 C 0.331,0 0.66,0.037 0.983,0.114 2.318,0.432 3.329,1.385 3.687,2.665 L 1.665,3.229 C 1.514,2.688 1.088,2.297 0.498,2.156 -0.462,1.929 -1.576,2.387 -2.482,3.382 -3.532,4.533 -3.937,6.338 -3.466,7.77 -3.264,8.387 -2.813,9.165 -1.82,9.363 -0.877,9.552 -0.037,9.385 0.677,8.865 1.249,8.45 1.539,7.952 1.542,7.947 L 1.538,7.955 3.375,8.969 C 2.762,10.083 0.799,12.028 -2.232,11.422 -3.759,11.116 -4.936,10.023 -5.461,8.425 -6.167,6.274 -5.593,3.68 -4.034,1.968 -2.875,0.696 -1.422,0 0,0" /></g><g
           transform="translate(152.8301,199.1924)"
           id="g194"><path
             id="path196"
             style="fill:#f9a825;fill-opacity:1;fill-rule:nonzero;stroke:none"
             d="m 0,0 c -0.002,0.005 -0.292,0.502 -0.865,0.918 -0.714,0.519 -1.554,0.686 -2.497,0.497 -0.993,-0.198 -1.443,-0.977 -1.646,-1.594 -0.173,-0.528 -0.226,-1.107 -0.173,-1.685 0.025,0.32 0.076,0.635 0.173,0.931 0.203,0.618 0.653,1.396 1.646,1.594 0.943,0.189 1.783,0.022 2.497,-0.498 C -0.292,-0.252 -0.002,-0.75 0,-0.755 l -0.004,0.008 1.838,1.014 C 1.742,0.435 1.615,0.622 1.462,0.816 L -0.004,0.008 0,0 Z" /></g><g
           transform="translate(152.2715,191.3584)"
           id="g198"><path
             id="path200"
             style="fill:#f9a825;fill-opacity:1;fill-rule:nonzero;stroke:none"
             d="m 0,0 c -0.323,-0.076 -0.652,-0.114 -0.983,-0.114 -1.422,0 -2.875,0.696 -4.034,1.968 -1.035,1.136 -1.624,2.661 -1.704,4.187 -0.11,-1.767 0.498,-3.617 1.704,-4.941 1.159,-1.272 2.612,-1.968 4.034,-1.968 0.331,0 0.66,0.037 0.983,0.114 1.335,0.317 2.346,1.271 2.704,2.551 L 2.43,1.873 C 1.95,0.941 1.085,0.258 0,0" /></g><g
           transform="translate(180.1011,194.1357)"
           id="g202"><path
             id="path204"
             style="fill:#ffca28;fill-opacity:1;fill-rule:nonzero;stroke:none"
             d="m 0,0 c 0,-7.342 -6.269,-13.294 -14.173,-13.294 -7.904,0 -14.173,5.952 -14.173,13.294 l 0,7.849 c 0,0.558 0.453,1.011 1.013,1.011 l 26.32,0 C -0.453,8.86 0,8.407 0,7.849 L 0,0 Z" /></g><g
           transform="translate(169.4297,186.3447)"
           id="g206"><path
             id="path208"
             style="fill:#fbc02d;fill-opacity:1;fill-rule:nonzero;stroke:none"
             d="m 0,0 c -6.478,-2.249 -12.317,-1.338 -16.074,1.641 2.349,-4.244 7.059,-7.144 12.572,-7.144 7.904,0 14.173,5.952 14.173,13.294 l 0,6.323 C 9.506,9.097 6.71,2.33 0,0" /></g><g
           transform="translate(153.5776,201.6562)"
           id="g210"><path
             id="path212"
             style="fill:#ffe0b2;fill-opacity:1;fill-rule:nonzero;stroke:none"
             d="M 0,0 C 0.157,0.745 1.397,0.745 2.419,0.544 2.935,0.442 3.483,0.17 4.007,0.125 4.578,0.075 5.105,0.222 5.659,0.33 6.752,0.545 7.883,0.621 8.987,0.448 9.224,0.411 10.669,0.241 10.652,-0.113 10.638,-0.391 9.552,-0.717 8.468,-0.802 7.379,-0.888 6.221,-0.531 5.16,-0.331 4.045,-0.119 2.983,-0.653 1.901,-0.779 0.817,-0.904 -0.103,-0.489 0,0" /></g><g
           transform="translate(148.6509,201.2344)"
           id="g214"><path
             id="path216"
             style="fill:#ffcc80;fill-opacity:1;fill-rule:nonzero;stroke:none"
             d="M 0,0 C 0.275,-0.696 -1.193,-0.608 -1.542,-1.279 -1.764,-1.706 -2.046,-2.912 -2.508,-2.698 -3,-2.471 -1.941,-1.46 -1.496,-0.772 -1.138,-0.22 -0.23,0.581 0,0" /></g><g
           id="g218"><g
             id="g220" /><g
             id="g226"><g
               style="opacity:0.64999402"
               id="g228"
               clip-path="url(#clipPath222)"><g
                 id="g230"
                 transform="translate(161.5586,227.4912)"><path
                   id="path232"
                   style="fill:#ffffff;fill-opacity:1;fill-rule:nonzero;stroke:none"
                   d="m 0,0 c 0,0 -0.141,-0.342 -0.338,-0.901 -0.104,-0.277 -0.201,-0.623 -0.312,-0.997 -0.11,-0.377 -0.213,-0.797 -0.301,-1.243 -0.078,-0.447 -0.162,-0.915 -0.184,-1.401 -0.048,-0.481 -0.023,-0.979 -0.002,-1.476 0.03,-0.246 0.06,-0.496 0.09,-0.749 0.061,-0.245 0.088,-0.513 0.148,-0.741 0.069,-0.309 0.149,-0.667 0.216,-0.902 0.064,-0.257 0.133,-0.525 0.227,-0.818 0.147,-0.576 0.351,-1.156 0.521,-1.747 0.191,-0.588 0.367,-1.186 0.539,-1.782 0.341,-1.191 0.611,-2.39 0.704,-3.467 0.05,-0.533 0.055,-1.039 0.025,-1.482 -0.021,-0.443 -0.101,-0.832 -0.169,-1.142 -0.05,-0.308 -0.172,-0.549 -0.218,-0.707 -0.064,-0.157 -0.098,-0.241 -0.098,-0.241 0,0 -0.156,0.316 -0.43,0.866 -0.133,0.265 -0.308,0.573 -0.509,0.915 -0.199,0.344 -0.423,0.72 -0.683,1.128 -0.255,0.409 -0.531,0.854 -0.822,1.324 -0.286,0.474 -0.597,0.987 -0.895,1.537 -0.601,1.096 -1.189,2.371 -1.59,3.767 -0.191,0.671 -0.368,1.546 -0.417,2.129 -0.099,0.806 -0.073,1.573 0.033,2.318 0.128,0.738 0.325,1.431 0.609,2.038 0.263,0.615 0.612,1.137 0.95,1.587 0.352,0.444 0.71,0.81 1.054,1.099 0.341,0.292 0.67,0.505 0.944,0.668 0.265,0.169 0.509,0.262 0.66,0.331 C -0.089,-0.022 0,0 0,0" /></g></g></g></g><g
           id="g234"><g
             id="g236" /><g
             id="g242"><g
               style="opacity:0.64999402"
               id="g244"
               clip-path="url(#clipPath238)"><g
                 id="g246"
                 transform="translate(169.5952,207.6953)"><path
                   id="path248"
                   style="fill:#ffffff;fill-opacity:1;fill-rule:nonzero;stroke:none"
                   d="m 0,0 c 0,0 -0.061,0.133 -0.149,0.382 -0.083,0.257 -0.248,0.602 -0.441,1.005 -0.233,0.408 -0.475,0.886 -0.849,1.4 -0.379,0.519 -0.806,1.104 -1.271,1.741 -0.479,0.659 -1,1.417 -1.485,2.315 -0.476,0.897 -0.897,1.939 -1.159,3.073 l -0.091,0.429 -0.022,0.107 -0.006,0.027 -0.012,0.094 -0.007,0.048 -0.025,0.191 -0.052,0.383 c -0.018,0.12 -0.035,0.258 -0.042,0.435 -0.05,0.676 -0.031,1.297 0.03,1.926 0.12,1.265 0.507,2.531 1.046,3.661 0.545,1.126 1.259,2.128 1.869,2.942 l 0.407,0.571 0.403,0.623 c 0.256,0.412 0.496,0.824 0.724,1.232 0.902,1.637 1.496,3.254 1.677,4.702 0.188,1.444 -0.046,2.72 -0.357,3.59 -0.148,0.437 -0.297,0.782 -0.409,1.013 -0.112,0.233 -0.173,0.357 -0.173,0.357 0,0 0.111,-0.084 0.318,-0.243 0.199,-0.17 0.495,-0.422 0.823,-0.801 0.322,-0.38 0.694,-0.88 1.012,-1.53 C 2.08,29.025 2.336,28.229 2.469,27.332 2.598,26.436 2.598,25.444 2.458,24.427 2.318,23.408 2.049,22.364 1.671,21.335 1.487,20.817 1.273,20.305 1.035,19.8 0.914,19.552 0.792,19.302 0.67,19.05 0.537,18.783 0.38,18.505 0.241,18.271 -0.321,17.313 -0.805,16.508 -1.16,15.665 c -0.368,-0.83 -0.574,-1.67 -0.689,-2.518 -0.056,-0.428 -0.059,-0.864 -0.061,-1.229 -0.007,-0.084 -0.002,-0.205 0.011,-0.342 l 0.029,-0.387 0.014,-0.191 0.003,-0.048 10e-4,-0.012 c 0.002,-0.019 -0.015,0.124 -0.006,0.058 l 0.002,-0.02 0.011,-0.08 0.043,-0.324 C -1.699,9.714 -1.51,8.885 -1.267,8.071 -1.033,7.256 -0.741,6.457 -0.48,5.674 -0.221,4.89 0.014,4.125 0.135,3.417 0.272,2.717 0.312,2.076 0.285,1.563 0.259,1.036 0.191,0.644 0.111,0.395 0.047,0.138 0,0 0,0" /></g></g></g></g><g
           transform="translate(153.1821,68.1191)"
           id="g250"><path
             id="path252"
             style="fill:#f57f17;fill-opacity:1;fill-rule:nonzero;stroke:none"
             d="m 0,0 c 0.44,0 0.875,0.202 1.154,0.586 l 69.853,95.668 c 0.465,0.637 0.326,1.53 -0.312,1.996 -0.636,0.465 -1.53,0.326 -1.996,-0.312 L -1.153,2.271 C -1.618,1.633 -1.479,0.739 -0.841,0.274 -0.587,0.089 -0.292,0 0,0" /></g><g
           transform="translate(223.0361,68.1191)"
           id="g254"><path
             id="path256"
             style="fill:#f57f17;fill-opacity:1;fill-rule:nonzero;stroke:none"
             d="M 0,0 C 0.292,0 0.587,0.089 0.841,0.274 1.479,0.739 1.618,1.633 1.153,2.271 L -68.7,97.938 c -0.465,0.638 -1.359,0.777 -1.995,0.312 -0.638,-0.466 -0.777,-1.359 -0.312,-1.996 L -1.155,0.586 C -0.875,0.202 -0.44,0 0,0" /></g><g
           transform="translate(186.3862,117.3477)"
           id="g258"><path
             id="path260"
             style="fill:#ff9e80;fill-opacity:1;fill-rule:nonzero;stroke:none"
             d="m 0,0 c -1.254,-2.086 -2.608,-4.1 -3.908,-6.151 l -4.072,-6.033 c -2.736,-4.006 -5.602,-7.918 -8.4,-11.878 -2.924,-3.869 -5.772,-7.793 -8.759,-11.616 l -4.505,-5.716 c -1.558,-1.865 -3.063,-3.767 -4.668,-5.597 l -0.091,0.066 17.111,23.529 L -0.091,0.066 0,0 Z" /></g><g
           transform="translate(188.1548,114.9922)"
           id="g262"><path
             id="path264"
             style="fill:#ff9e80;fill-opacity:1;fill-rule:nonzero;stroke:none"
             d="m 0,0 c 1.583,-1.799 3.066,-3.671 4.602,-5.504 l 4.439,-5.623 c 2.938,-3.765 5.746,-7.624 8.621,-11.434 2.749,-3.902 5.575,-7.748 8.262,-11.695 l 4.005,-5.939 c 1.279,-2.022 2.611,-4.004 3.843,-6.059 L 33.681,-46.32 16.75,-23.227 -0.091,-0.066 0,0 Z" /></g><g
           transform="translate(200.748,132.2686)"
           id="g266"><path
             id="path268"
             style="fill:#ff6e40;fill-opacity:1;fill-rule:nonzero;stroke:none"
             d="m 0,0 23.441,32.104 c 0.465,0.637 0.326,1.531 -0.312,1.997 -0.636,0.464 -1.53,0.326 -1.996,-0.312 L -2.023,2.074 C -1.341,1.402 -0.667,0.711 0,0" /></g><g
           transform="translate(158.665,155.2842)"
           id="g270"><path
             id="path272"
             style="fill:#ff6e40;fill-opacity:1;fill-rule:nonzero;stroke:none"
             d="M 0,0 C 1.392,-0.306 2.831,-0.656 4.307,-1.053 L -4.329,10.773 C -4.793,11.411 -5.688,11.55 -6.324,11.085 -6.961,10.619 -7.101,9.726 -6.636,9.089 L 0,0 Z" /></g><path
           id="path274"
           style="fill:#f57f17;fill-opacity:1;fill-rule:nonzero;stroke:none"
           d="m 132.43,166.733 111.359,0 0,14.173 -111.359,0 0,-14.173 z" /><g
           transform="translate(234.4072,180.8496)"
           id="g276"><path
             id="path278"
             style="fill:#ff9e80;fill-opacity:1;fill-rule:nonzero;stroke:none"
             d="m 0,0 c -4.25,-0.204 -8.499,-0.297 -12.748,-0.445 l -12.747,-0.262 c -4.249,-0.105 -8.498,-0.131 -12.747,-0.152 l -12.747,-0.082 c -8.498,-0.026 -16.996,0.087 -25.494,0.124 -8.498,0.161 -16.996,0.258 -25.495,0.571 l 0.303,0.303 c -0.061,-2.183 -0.148,-4.367 -0.246,-6.549 l -0.113,0 -0.007,6.549 0,0.063 0.063,0 L 0,0.113 0,0 Z" /></g><path
           id="path280"
           style="fill:#ff5722;fill-opacity:1;fill-rule:nonzero;stroke:none"
           d="m 221.517,68.028 12.148,0 0,98.705 -12.148,0 0,-98.705 z" /><path
           id="path282"
           style="fill:#ff5722;fill-opacity:1;fill-rule:nonzero;stroke:none"
           d="m 142.553,68.028 12.148,0 0,98.705 -12.148,0 0,-98.705 z" /><g
           transform="translate(221.5732,140.2588)"
           id="g284"><path
             id="path286"
             style="fill:#ff8a80;fill-opacity:1;fill-rule:nonzero;stroke:none"
             d="M 0,0 C 0.348,-6.02 0.546,-12.038 0.682,-18.058 0.89,-24.077 0.844,-30.096 0.924,-36.115 L 0.96,-40.63 0.921,-45.144 0.844,-54.173 c -0.006,-3.01 -0.085,-6.018 -0.169,-9.028 -0.089,-3.01 -0.131,-6.02 -0.259,-9.029 l -0.472,0.472 c 4.049,-0.135 8.098,-0.226 12.148,-0.416 l 0,-0.113 -12.148,-0.012 -0.069,0 0,0.069 -0.039,36.115 L -0.113,0 0,0 Z" /></g><g
           transform="translate(142.6284,154.4365)"
           id="g288"><path
             id="path290"
             style="fill:#ff8a80;fill-opacity:1;fill-rule:nonzero;stroke:none"
             d="m 0,0 c 0.463,-7.201 0.728,-14.401 0.909,-21.603 l 0.157,-5.4 0.062,-5.4 0.104,-10.801 0.048,-5.4 -0.052,-5.401 -0.103,-10.801 c -0.007,-3.6 -0.113,-7.201 -0.225,-10.8 -0.119,-3.601 -0.174,-7.202 -0.346,-10.802 l -0.629,0.63 c 4.049,-0.18 8.098,-0.303 12.148,-0.555 l 0,-0.15 -12.148,-0.017 -0.092,0 0,0.092 -0.051,43.204 L -0.151,0 0,0 Z" /></g><g
           transform="translate(235.272,180.9062)"
           id="g292"><path
             id="path294"
             style="fill:#ff6e40;fill-opacity:1;fill-rule:nonzero;stroke:none"
             d="m 0,0 c 0,0 0.787,-4.035 -5.121,-6.298 -5.907,-2.262 -18.601,-5.781 -46.754,-5.781 -26.474,0 -48.439,4.413 -50.967,4.94 l 0,-7.034 111.359,0 L 8.517,0 0,0 Z" /></g><g
           transform="translate(151.7544,130.4932)"
           id="g296"><path
             id="path298"
             style="fill:#f4511e;fill-opacity:1;fill-rule:nonzero;stroke:none"
             d="m 0,0 c 1.084,-8.466 2.098,-16.288 2.947,-22.8 l 0,59.04 -12.148,0 0,-8.811 C -5.968,22.343 -1.722,13.439 0,0" /></g><g
           transform="translate(233.665,98.8203)"
           id="g300"><path
             id="path302"
             style="fill:#f4511e;fill-opacity:1;fill-rule:nonzero;stroke:none"
             d="m 0,0 0,67.913 -12.148,0 0,-21.347 C -7.536,38.393 -2.759,20.109 0,0" /></g><g
           transform="translate(330.9639,126.7998)"
           id="g304"><path
             id="path306"
             style="fill:#16181c;fill-opacity:1;fill-rule:nonzero;stroke:none"
             d="m 0,0 10.123,0 c 7.711,0 13.983,6.273 13.983,13.983 l 0,21.552 -5.356,0 0,-21.552 c 0,-4.755 -3.87,-8.626 -8.627,-8.626 L 0,5.357 0,0 Z" /></g><g
           transform="translate(346.9854,128.1582)"
           id="g308"><path
             id="path310"
             style="fill:#263238;fill-opacity:1;fill-rule:nonzero;stroke:none"
             d="m 0,0 c 1.067,0.702 2.073,1.453 2.922,2.36 0.881,0.864 1.644,1.833 2.255,2.882 1.24,2.078 2.004,4.427 2.04,6.824 0.109,2.47 0.066,5.065 0.208,7.591 l 0.222,3.814 c 0.133,1.27 0.21,2.542 0.391,3.812 l 0.095,0 0.023,-7.626 C 8.154,17.113 8.193,14.576 8.157,12.026 8.048,9.471 7.218,6.951 5.787,4.834 4.363,2.712 2.354,0.991 0.04,-0.086 L 0,0 Z" /></g><g
           transform="translate(351.25,139.7314)"
           id="g312"><path
             id="path314"
             style="fill:#0d0e11;fill-opacity:1;fill-rule:nonzero;stroke:none"
             d="m 0,0 c -0.252,2.388 -1.536,16.413 -1.536,16.413 l 0,-15.361 c 0,-3.935 -2.651,-7.255 -6.259,-8.288 l 0,-0.007 C -2.77,-7.243 0.251,-2.389 0,0" /></g><g
           transform="translate(340.2939,130.5762)"
           id="g316"><path
             id="path318"
             style="fill:#0d0e11;fill-opacity:1;fill-rule:nonzero;stroke:none"
             d="m 0,0 c -0.185,0.569 -0.439,1.102 -0.717,1.581 l -8.613,0 0,-5.357 10.123,0 c 1.687,0 3.299,0.316 4.797,0.866 C 2.719,-2.867 0.493,-1.521 0,0" /></g><g
           transform="translate(345.6064,156.1445)"
           id="g320"><path
             id="path322"
             style="fill:#16181c;fill-opacity:1;fill-rule:nonzero;stroke:none"
             d="m 0,0 6.802,0 c 4.071,0 7.371,3.301 7.371,7.372 l 0,10.565 c 0,4.072 -3.3,7.373 -7.371,7.373 L 0,25.31 0,0 Z" /></g><g
           transform="translate(353.9521,165.1826)"
           id="g324"><path
             id="path326"
             style="fill:#0d0e11;fill-opacity:1;fill-rule:nonzero;stroke:none"
             d="m 0,0 c -0.61,4.646 0.742,12.132 1.467,15.624 -0.92,0.412 -1.938,0.647 -3.011,0.647 l -6.802,0 0,-25.309 6.802,0 c 3.187,0 5.893,2.026 6.922,4.857 C 2.822,-5.824 0.506,-3.855 0,0" /></g><g
           transform="translate(289.29,94.5889)"
           id="g328"><path
             id="path330"
             style="fill:#16181c;fill-opacity:1;fill-rule:nonzero;stroke:none"
             d="m 0,0 19.531,7.11 0,24.852 c 0,1.479 1.199,2.679 2.679,2.679 1.479,0 2.679,-1.2 2.679,-2.679 L 24.889,7.11 44.42,0 c 4.16,-1.515 6.956,-5.507 6.956,-9.936 l 0,-3.757 c 0,-1.48 -1.199,-2.678 -2.679,-2.678 -1.478,0 -2.677,1.198 -2.677,2.678 l 0,3.757 c 0,2.185 -1.379,4.155 -3.433,4.902 l -17.698,6.443 0,-20.298 c 0,-1.479 -1.2,-2.678 -2.679,-2.678 -1.48,0 -2.679,1.199 -2.679,2.678 l 0,20.298 L 1.832,-5.034 C -0.221,-5.781 -1.6,-7.751 -1.6,-9.936 l 0,-3.757 c 0,-1.48 -1.199,-2.678 -2.678,-2.678 -1.479,0 -2.678,1.198 -2.678,2.678 l 0,3.757 C -6.956,-5.507 -4.16,-1.515 0,0" /></g><g
           transform="translate(314.2158,95.998)"
           id="g332"><path
             id="path334"
             style="fill:#263238;fill-opacity:1;fill-rule:nonzero;stroke:none"
             d="M 0,0 0.038,-5.32 0,-10.641 l -0.075,0 c -0.504,1.774 -0.62,3.547 -0.641,5.321 0.019,1.773 0.134,3.547 0.641,5.32 L 0,0 Z" /></g><g
           transform="translate(314.2256,121.708)"
           id="g336"><path
             id="path338"
             style="fill:#263238;fill-opacity:1;fill-rule:nonzero;stroke:none"
             d="m 0,0 0.04,-20.009 -0.058,0.082 15.828,-5.775 3.953,-1.458 c 1.313,-0.52 2.524,-1.299 3.525,-2.296 2.034,-1.968 3.199,-4.775 3.2,-7.598 l -0.094,0 c -0.118,1.395 -0.457,2.756 -1.054,3.988 -0.597,1.233 -1.437,2.323 -2.426,3.227 -0.982,0.916 -2.149,1.612 -3.396,2.058 l -3.982,1.329 -7.944,2.803 -3.971,1.404 -3.943,1.48 -0.537,0.202 0.006,0.554 0.063,5.003 c 0.002,1.667 0.089,3.334 0.146,5.002 0.074,1.667 0.101,3.334 0.211,5.002 0.109,1.667 0.186,3.335 0.338,5.002 L 0,0 Z" /></g><g
           transform="translate(285.0127,85.2588)"
           id="g340"><path
             id="path342"
             style="fill:#0d0e11;fill-opacity:1;fill-rule:nonzero;stroke:none"
             d="M 0,0 C -2.011,0 -0.851,7.463 6.655,10.196 L 4.277,9.33 C 0.117,7.815 -2.679,3.823 -2.679,-0.605 l 0,-3.758 c 0,-1.48 1.199,-2.678 2.678,-2.678 1.48,0 2.679,1.198 2.679,2.678 l 0,3.758 c 0,0.085 0.015,0.168 0.02,0.253 C 1.856,-0.165 0.869,0 0,0" /></g><g
           transform="translate(314.1787,121.5254)"
           id="g344"><path
             id="path346"
             style="fill:#0d0e11;fill-opacity:1;fill-rule:nonzero;stroke:none"
             d="m 0,0 0,5.025 c 0,1.48 -1.199,2.679 -2.679,2.679 -1.479,0 -2.678,-1.199 -2.678,-2.679 l 0,-10.088 C -3.954,-2.785 -2.177,-0.803 0,0" /></g><g
           transform="translate(311.5,85.5732)"
           id="g348"><path
             id="path350"
             style="fill:#0d0e11;fill-opacity:1;fill-rule:nonzero;stroke:none"
             d="m 0,0 c -1.011,0 -1.902,-0.126 -2.679,-0.314 l 0,-9.559 c 0,-1.48 1.2,-2.679 2.679,-2.679 1.479,0 2.679,1.199 2.679,2.679 l 0,9.625 C 1.873,-0.1 0.977,0 0,0" /></g><g
           transform="translate(336.9844,85.3848)"
           id="g352"><path
             id="path354"
             style="fill:#0d0e11;fill-opacity:1;fill-rule:nonzero;stroke:none"
             d="M 0,0 C 0,0 0.022,2.134 -1.257,3.519 -2.97,5.373 -11.656,7.965 -22.806,10.613 L -5.107,4.17 c 2.053,-0.747 3.432,-2.717 3.432,-4.901 l 0,-3.758 c 0,-1.48 1.199,-2.678 2.678,-2.678 1.479,0 2.679,1.198 2.679,2.678 l 0,3.758 c 0,0.155 -0.011,0.308 -0.018,0.462 C 2.459,-0.101 1.23,0 0,0" /></g><g
           transform="translate(283.6602,124.8359)"
           id="g356"><path
             id="path358"
             style="fill:#c2185b;fill-opacity:1;fill-rule:nonzero;stroke:none"
             d="m 0,0 55.68,0 c 0,7.269 -5.893,15.423 -13.161,15.423 l -29.359,0 C 5.893,15.423 0,7.269 0,0" /></g><g
           transform="translate(324.29,126.7998)"
           id="g360"><path
             id="path362"
             style="fill:#ad1457;fill-opacity:1;fill-rule:nonzero;stroke:none"
             d="m 0,0 c -15.836,0 -25.93,6.349 -17.297,8.55 4.969,1.266 8.424,3.213 10.711,4.909 l -20.884,0 c -7.267,0 -13.16,-8.154 -13.16,-15.423 l 55.68,0 c 0,1.096 -0.137,2.212 -0.389,3.318 C 10.687,0.488 5.892,0 0,0" /></g><g
           transform="translate(367.5703,220.7275)"
           id="g364"><path
             id="path366"
             style="fill:#ec407a;fill-opacity:1;fill-rule:nonzero;stroke:none"
             d="m 0,0 c 0,0 -18.035,-43.143 -21.071,-82.731 0,0 -6.715,0.732 -9.107,21.303 -2.678,23.035 1.234,48.928 14.358,61.235 C -9.768,5.481 -1.25,3.035 0,0" /></g><g
           transform="translate(337.3174,159.291)"
           id="g368"><path
             id="path370"
             style="fill:#ff80ab;fill-opacity:1;fill-rule:nonzero;stroke:none"
             d="m 0,0 c -0.785,6.847 -1.004,13.76 -0.607,20.644 0.383,6.879 1.45,13.741 3.416,20.359 1.954,6.598 4.977,12.991 9.528,18.211 l 1.794,1.87 c 0.282,0.328 0.652,0.57 0.974,0.859 0.323,0.293 0.685,0.533 1.052,0.764 1.449,0.951 3.102,1.594 4.815,1.868 1.711,0.276 3.479,0.198 5.156,-0.243 0.833,-0.236 1.656,-0.539 2.393,-1.007 0.728,-0.454 1.451,-1.027 1.802,-1.86 l -0.139,-0.058 c -0.389,0.753 -1.118,1.245 -1.845,1.621 -0.727,0.4 -1.532,0.646 -2.34,0.823 -1.629,0.327 -3.313,0.295 -4.9,-0.06 -1.592,-0.33 -3.1,-0.978 -4.403,-1.908 -0.33,-0.227 -0.656,-0.458 -0.942,-0.741 -0.291,-0.285 -0.609,-0.5 -0.877,-0.836 L 13.213,58.438 C 8.998,53.264 6.055,47.075 4.251,40.569 4.014,39.759 3.747,38.957 3.52,38.143 L 2.907,35.678 C 2.457,34.043 2.215,32.357 1.861,30.697 1.585,29.022 1.33,27.34 1.112,25.653 L 0.84,23.113 C 0.719,22.27 0.628,21.422 0.565,20.571 0.411,18.872 0.255,17.17 0.198,15.462 0.161,14.607 0.105,13.754 0.084,12.898 L 0.052,10.331 C -0.034,8.616 0.021,6.902 0.017,5.182 L 0.15,0.018 0,0 Z" /></g><g
           transform="translate(346.0869,75.7002)"
           id="g372"><path
             id="path374"
             style="fill:#37474f;fill-opacity:1;fill-rule:nonzero;stroke:none"
             d="m 0,0 c 0,4.473 -3.626,8.099 -8.1,8.099 -4.472,0 -8.098,-3.626 -8.098,-8.099 0,-4.474 3.626,-8.1 8.098,-8.1 4.474,0 8.1,3.626 8.1,8.1" /></g><g
           transform="translate(276.9131,75.7002)"
           id="g376"><path
             id="path378"
             style="fill:#37474f;fill-opacity:1;fill-rule:nonzero;stroke:none"
             d="m 0,0 c 0,4.473 3.626,8.099 8.1,8.099 4.472,0 8.098,-3.626 8.098,-8.099 0,-4.474 -3.626,-8.1 -8.098,-8.1 C 3.626,-8.1 0,-4.474 0,0" /></g><g
           transform="translate(303.4014,75.7002)"
           id="g380"><path
             id="path382"
             style="fill:#37474f;fill-opacity:1;fill-rule:nonzero;stroke:none"
             d="m 0,0 c 0,4.473 3.626,8.099 8.099,8.099 4.472,0 8.098,-3.626 8.098,-8.099 0,-4.474 -3.626,-8.1 -8.098,-8.1 C 3.626,-8.1 0,-4.474 0,0" /></g><g
           transform="translate(346.0488,75.7002)"
           id="g384"><path
             id="path386"
             style="fill:#37474f;fill-opacity:1;fill-rule:nonzero;stroke:none"
             d="M 0,0 C -0.276,1.624 -0.884,3.109 -1.845,4.31 -2.804,5.495 -4.028,6.473 -5.462,6.942 -6.849,7.531 -8.42,7.6 -9.919,7.337 -10.677,7.212 -11.416,6.954 -12.117,6.602 -12.843,6.279 -13.493,5.81 -14.139,5.295 l -0.057,0.05 c 1.075,1.245 2.536,2.154 4.133,2.559 1.594,0.402 3.321,0.33 4.866,-0.257 C -3.646,7.076 -2.303,5.994 -1.362,4.645 -0.901,3.962 -0.537,3.216 -0.285,2.432 -0.053,1.642 0.063,0.822 0.075,0 L 0,0 Z" /></g><g
           transform="translate(319.5615,75.7002)"
           id="g388"><path
             id="path390"
             style="fill:#37474f;fill-opacity:1;fill-rule:nonzero;stroke:none"
             d="M 0,0 C -0.276,1.624 -0.884,3.109 -1.845,4.31 -2.804,5.495 -4.028,6.473 -5.462,6.942 -6.849,7.531 -8.421,7.6 -9.92,7.337 -10.677,7.212 -11.417,6.954 -12.118,6.602 -12.843,6.279 -13.494,5.81 -14.14,5.295 l -0.056,0.05 c 1.075,1.244 2.535,2.154 4.133,2.559 1.594,0.402 3.321,0.33 4.865,-0.257 C -3.646,7.076 -2.303,5.994 -1.362,4.645 -0.901,3.962 -0.538,3.216 -0.285,2.432 -0.054,1.642 0.063,0.822 0.075,0 L 0,0 Z" /></g><g
           transform="translate(293.0732,75.7002)"
           id="g392"><path
             id="path394"
             style="fill:#37474f;fill-opacity:1;fill-rule:nonzero;stroke:none"
             d="M 0,0 C -0.276,1.624 -0.884,3.109 -1.845,4.31 -2.803,5.495 -4.028,6.473 -5.462,6.942 -6.848,7.531 -8.42,7.6 -9.919,7.337 -10.677,7.212 -11.416,6.954 -12.117,6.602 -12.843,6.279 -13.493,5.81 -14.139,5.295 l -0.056,0.05 c 1.074,1.244 2.535,2.154 4.132,2.559 1.594,0.402 3.322,0.33 4.866,-0.256 C -3.646,7.076 -2.302,5.994 -1.362,4.645 -0.901,3.962 -0.537,3.216 -0.285,2.432 -0.053,1.642 0.063,0.822 0.075,0 L 0,0 Z" /></g><g
           transform="translate(339.4961,70.6172)"
           id="g396"><path
             id="path398"
             style="fill:#263238;fill-opacity:1;fill-rule:nonzero;stroke:none"
             d="m 0,0 c -4.473,0 -8.099,3.626 -8.099,8.1 0,0.705 0.099,1.385 0.269,2.038 -1.109,-1.386 -1.777,-3.142 -1.777,-5.055 0,-4.474 3.626,-8.1 8.098,-8.1 3.768,0 6.925,2.577 7.83,6.061 C 4.837,1.19 2.559,0 0,0" /></g><g
           transform="translate(286.5205,70.6172)"
           id="g400"><path
             id="path402"
             style="fill:#263238;fill-opacity:1;fill-rule:nonzero;stroke:none"
             d="m 0,0 c -4.473,0 -8.099,3.626 -8.099,8.1 0,0.705 0.1,1.385 0.269,2.038 -1.109,-1.386 -1.777,-3.142 -1.777,-5.055 0,-4.474 3.626,-8.1 8.099,-8.1 3.767,0 6.924,2.577 7.829,6.061 C 4.837,1.19 2.56,0 0,0" /></g><g
           transform="translate(313.0078,70.6172)"
           id="g404"><path
             id="path406"
             style="fill:#263238;fill-opacity:1;fill-rule:nonzero;stroke:none"
             d="m 0,0 c -4.473,0 -8.099,3.626 -8.099,8.1 0,0.705 0.1,1.385 0.27,2.038 -1.11,-1.386 -1.777,-3.142 -1.777,-5.055 0,-4.474 3.626,-8.1 8.098,-8.1 3.768,0 6.925,2.577 7.83,6.061 C 4.838,1.19 2.56,0 0,0" /></g><g
           transform="translate(342.2627,75.7002)"
           id="g408"><path
             id="path410"
             style="fill:#212121;fill-opacity:1;fill-rule:nonzero;stroke:none"
             d="m 0,0 c 0,2.361 -1.914,4.275 -4.275,4.275 -2.362,0 -4.276,-1.914 -4.276,-4.275 0,-2.361 1.914,-4.275 4.276,-4.275 C -1.914,-4.275 0,-2.361 0,0" /></g><g
           transform="translate(342.2627,75.7002)"
           id="g412"><path
             id="path414"
             style="fill:none;stroke:#0e1419;stroke-width:0.56599998;stroke-linecap:butt;stroke-linejoin:miter;stroke-miterlimit:10;stroke-dasharray:none;stroke-opacity:1"
             d="m 0,0 c 0,2.361 -1.914,4.275 -4.275,4.275 -2.362,0 -4.276,-1.914 -4.276,-4.275 0,-2.361 1.914,-4.275 4.276,-4.275 C -1.914,-4.275 0,-2.361 0,0 Z" /></g><g
           transform="translate(280.7373,75.7002)"
           id="g416"><path
             id="path418"
             style="fill:#212121;fill-opacity:1;fill-rule:nonzero;stroke:none"
             d="M 0,0 C 0,2.361 1.914,4.275 4.275,4.275 6.636,4.275 8.551,2.361 8.551,0 8.551,-2.361 6.636,-4.275 4.275,-4.275 1.914,-4.275 0,-2.361 0,0" /></g><g
           transform="translate(280.7373,75.7002)"
           id="g420"><path
             id="path422"
             style="fill:none;stroke:#0e1419;stroke-width:0.56599998;stroke-linecap:butt;stroke-linejoin:miter;stroke-miterlimit:10;stroke-dasharray:none;stroke-opacity:1"
             d="M 0,0 C 0,2.361 1.914,4.275 4.275,4.275 6.636,4.275 8.551,2.361 8.551,0 8.551,-2.361 6.636,-4.275 4.275,-4.275 1.914,-4.275 0,-2.361 0,0 Z" /></g><g
           transform="translate(307.2246,75.7002)"
           id="g424"><path
             id="path426"
             style="fill:#212121;fill-opacity:1;fill-rule:nonzero;stroke:none"
             d="M 0,0 C 0,2.361 1.914,4.275 4.275,4.275 6.637,4.275 8.551,2.361 8.551,0 8.551,-2.361 6.637,-4.275 4.275,-4.275 1.914,-4.275 0,-2.361 0,0" /></g><g
           transform="translate(307.2246,75.7002)"
           id="g428"><path
             id="path430"
             style="fill:none;stroke:#0e1419;stroke-width:0.56599998;stroke-linecap:butt;stroke-linejoin:miter;stroke-miterlimit:10;stroke-dasharray:none;stroke-opacity:1"
             d="M 0,0 C 0,2.361 1.914,4.275 4.275,4.275 6.637,4.275 8.551,2.361 8.551,0 8.551,-2.361 6.637,-4.275 4.275,-4.275 1.914,-4.275 0,-2.361 0,0 Z" /></g><g
           transform="translate(340.001,161.1602)"
           id="g432"><path
             id="path434"
             style="fill:#d81b60;fill-opacity:1;fill-rule:nonzero;stroke:none"
             d="m 0,0 c -0.908,-0.756 -1.779,-1.336 -2.618,-1.772 0.004,-0.03 0.006,-0.059 0.01,-0.088 2.391,-20.572 9.106,-21.304 9.106,-21.304 C 9.534,16.425 27.569,59.567 27.569,59.567 4.865,46.487 0,0 0,0" /></g><g
           transform="translate(304.0596,241.501)"
           id="g436"><path
             id="path438"
             style="fill:#ffccbc;fill-opacity:1;fill-rule:nonzero;stroke:none"
             d="m 0,0 -3.669,-1.36 c 0,0 0.574,-4.236 1.884,-7.33 l -14.644,0 c 0,0 0.117,3.981 -1.235,6.951 L -21.904,0 0,0 Z" /></g><g
           transform="translate(304.0596,241.501)"
           id="g440"><path
             id="path442"
             style="fill:#ffcc80;fill-opacity:1;fill-rule:nonzero;stroke:none"
             d="m 0,0 -14.1,0 1.259,-1.739 c 0,0 2.816,-0.772 4.824,-3.127 1.1,-1.289 1.864,-2.609 2.4,-3.824 l 3.832,0 c -1.31,3.094 -1.884,7.33 -1.884,7.33 L 0,0 Z" /></g><g
           transform="translate(260.7939,258.6899)"
           id="g444"><path
             id="path446"
             style="fill:#ffccbc;fill-opacity:1;fill-rule:nonzero;stroke:none"
             d="m 0,0 c -1.307,0.132 -3.708,1.845 -3.708,3.192 0,0.891 1.482,1.625 2.6,3.783 l 0.015,0 L 0,0 Z" /></g><g
           transform="translate(295.7363,239.7617)"
           id="g448"><path
             id="path450"
             style="fill:#ffccbc;fill-opacity:1;fill-rule:nonzero;stroke:none"
             d="m 0,0 -13.745,0 c -12.319,0 -22.306,9.987 -22.306,22.306 l 0,27.862 c 0,15.702 12.729,28.431 28.431,28.431 l 7.62,0 c 15.758,0 28.531,-12.774 28.531,-28.532 l 0,-21.535 C 28.531,12.774 15.758,0 0,0" /></g><g
           transform="translate(259.9541,258.9512)"
           id="g452"><path
             id="path454"
             style="fill:#fbe9e7;fill-opacity:1;fill-rule:nonzero;stroke:none"
             d="m 0,0 c 0.208,-0.64 0.401,-1.273 0.573,-1.907 l 0.705,-1.84 0.799,-1.78 0.948,-1.694 c 1.341,-2.203 2.969,-4.226 4.946,-5.86 1.892,-1.732 4.127,-3.053 6.491,-4.076 0.601,-0.231 1.197,-0.492 1.81,-0.701 0.623,-0.178 1.245,-0.376 1.875,-0.541 0.635,-0.145 1.274,-0.308 1.921,-0.441 0.652,-0.082 1.306,-0.185 1.969,-0.302 l 0,-0.094 c -5.334,-0.028 -10.651,1.936 -14.683,5.445 -4.04,3.5 -6.735,8.492 -7.447,13.778 L 0,0 Z" /></g><g
           transform="translate(260.4512,296.3027)"
           id="g456"><path
             id="path458"
             style="fill:#fbe9e7;fill-opacity:1;fill-rule:nonzero;stroke:none"
             d="m 0,0 c -0.309,-2.563 -0.323,-5.06 -0.16,-7.611 0.167,-2.558 0.147,-5.117 0.205,-7.676 0.082,-2.558 -0.027,-5.117 -0.051,-7.675 -0.002,-2.559 -0.2,-5.117 -0.307,-7.676 l -0.006,-0.134 -0.045,-0.074 c -0.425,-0.694 -0.948,-1.319 -1.509,-1.873 l -0.84,-0.804 c -0.268,-0.262 -0.55,-0.53 -0.605,-0.898 l -0.094,0 c 0.014,0.422 0.289,0.748 0.529,1.043 l 0.767,0.869 c 0.503,0.583 0.944,1.216 1.298,1.898 l -0.007,-0.027 -0.029,15.351 0.021,7.676 c -0.049,2.557 0.149,5.137 0.741,7.632 L 0,0 Z" /></g><g
           transform="translate(295.7363,318.3604)"
           id="g460"><path
             id="path462"
             style="fill:#ffcc80;fill-opacity:1;fill-rule:nonzero;stroke:none"
             d="m 0,0 -7.62,0 c -11.24,0 -20.954,-6.524 -25.568,-15.991 l 8.828,-0.272 c 0,0 15.648,-0.892 18.993,-10.601 2.54,-7.372 1.133,-12.82 -1.412,-16.591 -2.546,-3.77 -0.846,-9.685 4.101,-9.485 l 2.324,1.126 c 0,0 2.002,1.151 3.09,3.436 0,0 0.139,-1.639 1.038,-2.811 0.9,-1.173 0.287,-3.2 -1.928,-4.143 0,0 3.918,-1.119 4.763,3.518 0.845,4.636 2.468,5.092 3.872,4.039 0,0 -0.57,1.768 -2.976,2.125 0,0 4.781,1.821 6.607,-2.728 0,0 1.309,-5.429 -3.852,-10.362 -5.162,-4.934 -8.948,-4.92 -8.948,-4.92 0,0 -0.864,-2.606 -0.024,-6.424 0,0 -0.801,-2.263 -0.663,-4.854 0.137,-2.593 -5.143,-3.661 -5.143,-3.661 l 4.518,0 c 15.758,0 28.531,12.775 28.531,28.533 l 0,21.535 C 28.531,-12.774 15.758,0 0,0" /></g><g
           transform="translate(272.2744,82.4561)"
           id="g464"><path
             id="path466"
             style="fill:#16181c;fill-opacity:1;fill-rule:nonzero;stroke:none"
             d="m 0,0 c 0,0 2.5,-3.572 2.5,-7.5 l 0,-6.928 -41.109,0 0,1.154 c 0,6.772 5.49,12.261 12.262,12.261 l 7.537,0 L -18.055,0 0,0 Z" /></g><g
           transform="translate(263.8936,82.4561)"
           id="g468"><path
             id="path470"
             style="fill:#0d0f11;fill-opacity:1;fill-rule:nonzero;stroke:none"
             d="m 0,0 -0.198,-1.013 c 0,0 1.019,-4.492 -5.642,-7.697 -5.389,-2.593 -19.245,-3.458 -24.345,-3.694 -0.02,-0.288 -0.044,-0.576 -0.044,-0.87 l 0,-1.154 41.11,0 0,6.928 c 0,3.928 -2.5,7.5 -2.5,7.5 L 0,0 Z" /></g><g
           transform="translate(275.0615,68.0283)"
           id="g472"><path
             id="path474"
             style="fill:#ffffff;fill-opacity:1;fill-rule:nonzero;stroke:none"
             d="m 0,0 -41.684,0 0,1.153 c 0,0.641 0.05,1.27 0.146,1.884 L 0,3.037 0,0 Z" /></g><g
           transform="translate(324.8926,166.7334)"
           id="g476"><path
             id="path478"
             style="fill:#004d40;fill-opacity:1;fill-rule:nonzero;stroke:none"
             d="m 0,0 c 0,0 2.321,-14.398 -3.75,-20.647 -6.071,-6.25 -15.178,-7.858 -26.071,-7.858 l -34.999,0 c 0,0 5.178,-10.714 9.107,-27.321 3.928,-16.607 5.535,-29.464 5.535,-29.464 l -21.25,0 c 0,0 -3.928,23.571 -13.214,46.606 -4.708,11.68 -6.586,18.929 -3.392,23.572 4.576,6.653 34.513,11.071 45.202,11.607 L -42.832,0 0,0 Z" /></g><g
           transform="translate(324.8926,166.7334)"
           id="g480"><path
             id="path482"
             style="fill:#004d40;fill-opacity:1;fill-rule:nonzero;stroke:none"
             d="m 0,0 -42.832,0 0,-3.505 c -2.142,-0.107 -5.064,-0.373 -8.392,-0.779 2.286,-1.101 6.385,-3.436 10.032,-7.421 3.975,-4.345 8.917,-7.693 15.453,-9.956 0,0 -15.334,1.881 -25.138,-0.505 -9.804,-2.386 -16.968,-4.271 -22.246,-4.522 0,0 9.175,-13.197 12.945,-26.771 2.736,-9.847 0.446,-24.514 -1.019,-31.831 l 11.019,0 c 0,0 -1.607,12.857 -5.535,29.464 -3.929,16.607 -9.107,27.321 -9.107,27.321 l 34.999,0 c 10.892,0 20,1.608 26.071,7.858 C 2.321,-14.398 0,0 0,0" /></g><g
           transform="translate(312.6699,243.3984)"
           id="g484"><path
             id="path486"
             style="fill:#16181c;fill-opacity:1;fill-rule:nonzero;stroke:none"
             d="m 0,0 c 7.842,4.606 13.106,13.129 13.106,22.882 l 0,25.562 c 0,3.496 -0.676,6.834 -1.906,9.891 3.364,-0.334 8.523,1.046 8.523,1.046 C 12.312,69.648 0.681,71.84 0.681,71.84 l 5.292,3.122 c -9.911,7.456 -23.749,4.151 -23.749,4.151 1.918,1.807 3.035,5.892 3.035,5.892 -14.732,1.072 -20.803,-8.213 -20.803,-8.213 -3.716,2.309 -6.697,5.356 -6.697,5.356 -7.232,-5.267 -7.41,-13.035 -7.41,-13.035 -4.841,0.441 -9.018,3.304 -9.018,3.304 -1.25,-4.911 2.232,-10.357 2.232,-10.357 -6.696,-2.411 -7.887,-8.959 -7.887,-8.959 5.119,1.429 12.049,-0.195 12.049,-0.195 0,0 5.797,4.995 8.308,5.672 1.534,0.412 14.739,-0.111 18.51,-2.75 3.781,-2.647 8.768,-6.655 8.768,-16.248 0,-6.498 -6.41,-7.566 -6.587,-12.997 -0.14,-4.27 3.375,-5.057 4.984,-4.316 2.226,1.023 1.247,4.316 1.247,4.316 0,0 1.691,8.724 9.886,6.281 6.222,-1.854 5.602,-12.689 -0.718,-16.072 -3.972,-2.125 -7.388,-0.089 -7.388,-0.089 0,0 -1.362,-6.688 1.068,-11.587 -0.891,-2.579 -0.343,-6.904 1.918,-8.374 0,0 1.032,-3.812 3.947,-4.213 3.236,1.533 2.104,4.666 2.104,4.666 1.249,-1.932 4.785,-3.747 7.892,-3.024 0,0 0.828,3.566 -1.664,5.829" /></g><g
           transform="translate(306.2178,270.5854)"
           id="g488"><path
             id="path490"
             style="fill:#e57373;fill-opacity:1;fill-rule:nonzero;stroke:none"
             d="M 0,0 C -0.525,0.659 -1.161,1.08 -1.842,1.337 -2.525,1.584 -3.251,1.684 -3.96,1.607 -4.671,1.549 -5.359,1.313 -5.993,0.94 -6.627,0.561 -7.187,0.03 -7.745,-0.604 c 0.151,0.823 0.587,1.619 1.25,2.213 0.656,0.605 1.534,0.973 2.434,1.064 C -3.16,2.749 -2.23,2.561 -1.467,2.081 -0.703,1.619 -0.109,0.842 0,0" /></g><g
           transform="translate(266.0713,280.8418)"
           id="g492"><path
             id="path494"
             style="fill:#000000;fill-opacity:1;fill-rule:nonzero;stroke:none"
             d="m 0,0 c -0.578,0.757 -0.489,2.938 2.849,3.561 2.575,0.481 5.518,-1.068 6.854,-4.451 0,0 -1.869,1.887 -4.543,1.887 C 3.321,0.997 1.157,-1.513 0,0" /></g><g
           transform="translate(270.251,266.5459)"
           id="g496"><path
             id="path498"
             style="fill:#000000;fill-opacity:1;fill-rule:nonzero;stroke:none"
             d="m 0,0 0,0 c 0.698,0 1.265,0.567 1.265,1.266 l 0,7.592 c 0,0.699 -0.567,1.266 -1.265,1.266 -0.699,0 -1.266,-0.567 -1.266,-1.266 l 0,-7.592 C -1.266,0.567 -0.699,0 0,0" /></g><g
           transform="translate(303.1963,235.1016)"
           id="g500"><path
             id="path502"
             style="fill:#c0ca33;fill-opacity:1;fill-rule:nonzero;stroke:none"
             d="m 0,0 c 0,0 -5.148,-1.458 -16.964,-1.458 0,0 -5.915,-24.881 -6.034,-44.345 0,0 -3.071,-13.009 -3.26,-22.565 -1.02,-1.32 -1.104,-2.339 -1.014,-4.023 0,0 8.435,-3.528 13.254,-5.732 8.215,-3.758 18.929,-5.715 43.214,-1.965 0,0 -2.243,26.371 -9.464,48.035 C 12.411,-10.089 0,0 0,0" /></g><g
           transform="translate(325.752,193.458)"
           id="g504"><path
             id="path506"
             style="fill:#afb42b;fill-opacity:1;fill-rule:nonzero;stroke:none"
             d="m 0,0 c 4.061,-36.101 -18.115,-39.195 -25.813,-35.628 -7.73,3.582 -13.48,10.274 -13.48,10.274 -9.05,-0.188 -5.656,9.898 -3.582,13.952 2.073,4.053 3.864,7.918 3.864,7.918 3.753,-0.601 8.013,-1.288 8.013,-1.288 0,0 3.143,13.071 4.273,22.875 1.131,9.803 -1.447,14.077 -1.447,14.077 l -13.051,0 c -1.756,-8.926 -4.254,-23.759 -4.331,-36.339 0,0 -3.071,-13.009 -3.259,-22.566 -1.021,-1.319 -1.105,-2.338 -1.015,-4.022 0,0 8.435,-3.528 13.255,-5.732 8.215,-3.758 18.928,-5.715 43.214,-1.965 0,0 -1.645,19.301 -6.641,38.444" /></g><g
           transform="translate(294.2471,231.4365)"
           id="g508"><path
             id="path510"
             style="fill:#9e9d24;fill-opacity:1;fill-rule:nonzero;stroke:none"
             d="M 0,0 C 1.493,0.436 2.994,0.677 4.499,0.901 6.008,1.108 7.504,1.282 9.054,1.374 7.644,0.702 6.118,0.384 4.604,0.155 3.083,-0.047 1.549,-0.154 0,0" /></g><g
           transform="translate(277.1553,216.8584)"
           id="g512"><path
             id="path514"
             style="fill:#ffccbc;fill-opacity:1;fill-rule:nonzero;stroke:none"
             d="m 0,0 -10.833,-23.185 c 0,0 -19.652,-0.372 -31.19,-1.052 0,0 -11.435,8.415 -13.09,8.688 -1.171,0.194 -9.646,-0.673 -10.628,-1.03 -0.982,-0.357 -7.578,-3.705 -8.923,-5.233 -1.1,-1.25 -4.09,-5.806 -2.881,-6.612 1.225,-0.817 3.613,0.911 5.82,4.346 5.319,0.618 9.199,1.907 9.199,1.907 0,0 2.676,-1.371 6.515,-7.085 2.24,-3.335 7.589,-6.25 13.928,-4.375 0,0 21.607,-5.089 27.5,-6.25 5.893,-1.16 10.893,-1.606 15.446,5 4.847,7.033 15.089,29.196 15.089,29.196 L 0,0 Z" /></g><g
           transform="translate(266.3232,193.6172)"
           id="g516"><path
             id="path518"
             style="fill:#fbe9e7;fill-opacity:1;fill-rule:nonzero;stroke:none"
             d="m 0,0 c -2.596,-0.25 -5.193,-0.404 -7.789,-0.614 l -7.788,-0.482 -3.892,-0.248 -3.892,-0.186 c -2.594,-0.134 -5.186,-0.278 -7.772,-0.455 l -0.34,-0.023 -0.305,0.214 c -2.5,1.754 -4.945,3.606 -7.452,5.342 -1.25,0.869 -2.511,1.739 -3.782,2.516 -0.314,0.181 -0.64,0.39 -0.938,0.532 -0.157,0.086 -0.315,0.162 -0.38,0.177 -0.083,0.054 -0.186,0.055 -0.341,0.063 -0.687,0.011 -1.464,-0.027 -2.215,-0.051 -1.516,-0.063 -3.043,-0.164 -4.561,-0.291 -0.759,-0.064 -1.518,-0.136 -2.264,-0.225 -0.354,-0.047 -0.781,-0.1 -1.018,-0.167 -0.305,-0.107 -0.673,-0.273 -1.012,-0.42 -1.389,-0.613 -2.783,-1.249 -4.145,-1.94 -0.681,-0.346 -1.354,-0.705 -2.015,-1.084 -0.659,-0.38 -1.328,-0.759 -1.888,-1.266 l -0.085,0.075 c 1.115,1.092 2.479,1.828 3.794,2.615 1.333,0.762 2.688,1.484 4.067,2.16 0.348,0.165 0.69,0.336 1.054,0.48 0.381,0.124 0.759,0.17 1.139,0.236 0.76,0.118 1.522,0.215 2.284,0.305 1.525,0.176 3.052,0.328 4.584,0.443 0.766,0.055 1.531,0.107 2.306,0.102 0.394,0.013 0.797,-0.149 1.129,-0.327 0.353,-0.165 0.678,-0.369 1.015,-0.557 1.322,-0.787 2.595,-1.645 3.866,-2.506 2.535,-1.73 5.038,-3.506 7.509,-5.327 l -0.07,0.021 c 10.392,0.553 20.794,0.79 31.195,1.001 L 0,0 Z" /></g><g
           transform="translate(264.4336,253.709)"
           id="g520"><path
             id="path522"
             style="fill:none;stroke:#e57373;stroke-width:1.08200002;stroke-linecap:round;stroke-linejoin:round;stroke-miterlimit:10;stroke-dasharray:none;stroke-opacity:1"
             d="M 0,0 C 0,0 2.84,0 5.29,1.983" /></g><g
           transform="translate(245.8091,71.0654)"
           id="g524"><path
             id="path526"
             style="fill:#e0f2f1;fill-opacity:1;fill-rule:nonzero;stroke:none"
             d="m 0,0 c 0,0 1.149,-1.097 1.942,-3.037 l 27.31,0 0,3.037 L 0,0 Z" /></g><g
           transform="translate(299.7031,289.2344)"
           id="g528"><path
             id="path530"
             style="fill:#0d0f11;fill-opacity:1;fill-rule:nonzero;stroke:none"
             d="m 0,0 c -1.132,4.572 -7.589,14.563 -11.265,16.308 -3.676,1.743 -18.57,0.659 -20.833,0 -2.261,-0.661 -5.259,-3.591 -5.259,-3.591 -7.241,1.122 -14,-5.452 -14,-5.452 5.119,1.429 12.048,-0.195 12.048,-0.195 0,0 5.798,4.995 8.309,5.672 1.534,0.412 14.739,-0.111 18.51,-2.75 3.781,-2.647 8.767,-6.655 8.767,-16.248 0,-2.345 -0.838,-3.978 -1.913,-5.369 l 0.005,0 c 0,0 6.762,7.053 5.631,11.625" /></g><g
           transform="translate(293.0723,271.207)"
           id="g532"><path
             id="path534"
             style="fill:#0d0f11;fill-opacity:1;fill-rule:nonzero;stroke:none"
             d="m 0,0 c -3.067,-1.587 -2.711,-4.46 -2.703,-4.52 1.13,-1.333 2.967,-1.501 4.009,-1.022 2.225,1.023 1.247,4.317 1.247,4.317 0,0 1.243,6.39 6.744,6.695 C 9.289,5.471 9.281,5.474 9.273,5.475 2.064,6.308 0,0 0,0" /></g><g
           transform="translate(310.7393,244.0215)"
           id="g536"><path
             id="path538"
             style="fill:#0d0f11;fill-opacity:1;fill-rule:nonzero;stroke:none"
             d="m 0,0 c 3.024,-1.144 2.727,-4.417 0.652,-4.26 -2.074,0.158 -3.204,2.855 -3.204,2.855 -5.42,1.644 -4.886,6.367 -4.886,6.367 -3.708,2.875 -2.656,6.928 -2.656,6.928 3.064,1.226 6.269,3.63 7.659,7.715 0.002,0.004 0.003,0.008 0.004,0.011 -0.842,-1.421 -2.016,-2.645 -3.515,-3.447 -3.972,-2.126 -7.388,-0.089 -7.388,-0.089 0,0 -1.362,-6.688 1.067,-11.587 -0.89,-2.579 -0.342,-6.904 1.918,-8.374 0,0 1.033,-3.812 3.948,-4.213 3.236,1.532 2.104,4.666 2.104,4.666 1.249,-1.932 4.784,-3.747 7.892,-3.024 0,0 0.828,3.566 -1.664,5.829 C 7.826,2.84 12.263,8.517 14.104,15.265 11.667,7.393 0,0 0,0" /></g><g
           transform="translate(323.8701,301.7334)"
           id="g540"><path
             id="path542"
             style="fill:#0d0f11;fill-opacity:1;fill-rule:nonzero;stroke:none"
             d="M 0,0 C 3.364,-0.334 8.522,1.046 8.522,1.046 7.826,2.011 7.092,2.905 6.334,3.732 5.309,3.872 -1.461,4.899 -6.682,8.239 -6.682,8.239 -3.028,5.901 0,0" /></g><g
           transform="translate(295.9658,271.1626)"
           id="g544"><path
             id="path546"
             style="fill:#c2185b;fill-opacity:1;fill-rule:nonzero;stroke:none"
             d="m 0,0 -35.268,-0.857 0,3.367 L 0.727,1.635 C 0.402,1.04 0.166,0.471 0,0" /></g><g
           transform="translate(294.3105,272.8555)"
           id="g548"><path
             id="path550"
             style="fill:#ad1457;fill-opacity:1;fill-rule:nonzero;stroke:none"
             d="m 0,0 c -0.207,-0.522 -0.238,-0.867 -0.238,-0.867 0,0 -6.106,-0.476 -16.506,-0.381 -6.165,0.057 -9.998,1.104 -12.109,1.95 l -4.759,0.115 0,-3.367 35.267,0.857 c 0.166,0.471 0.403,1.04 0.727,1.635 L 0,0 Z" /></g><g
           transform="translate(260.708,262.5229)"
           id="g552"><path
             id="path554"
             style="fill:#ec407a;fill-opacity:1;fill-rule:nonzero;stroke:none"
             d="m 0,0 0,0 c 1.033,0 1.87,0.837 1.87,1.871 l 0,14.428 c 0,1.034 -0.837,1.871 -1.87,1.871 -1.033,0 -1.871,-0.837 -1.871,-1.871 l 0,-14.428 C -1.871,0.837 -1.033,0 0,0" /></g><g
           transform="translate(262.0127,280.1597)"
           id="g556"><path
             id="path558"
             style="fill:#d81b60;fill-opacity:1;fill-rule:nonzero;stroke:none"
             d="m 0,0 0,-14.239 c 0,-1.033 -0.838,-1.871 -1.87,-1.871 -0.509,0 -0.968,0.205 -1.306,0.534 l 0,-0.19 c 0,-1.033 0.838,-1.871 1.871,-1.871 1.034,0 1.87,0.838 1.87,1.871 l 0,14.429 C 0.565,-0.812 0.348,-0.34 0,0" /></g><g
           transform="translate(277.3467,317.3877)"
           id="g560"><path
             id="path562"
             style="fill:#263238;fill-opacity:1;fill-rule:nonzero;stroke:none"
             d="m 0,0 c -1.604,-0.729 -3.104,-1.611 -4.481,-2.602 -0.69,-0.496 -1.324,-1.051 -1.927,-1.612 -0.604,-0.566 -1.113,-1.203 -1.583,-1.844 l -0.807,1.692 c 0.777,0.057 1.618,0.161 2.421,0.291 0.811,0.128 1.609,0.305 2.402,0.473 0.794,0.172 1.568,0.396 2.324,0.644 0.757,0.246 1.471,0.567 2.171,0.884 l 1.822,0.826 0.234,-1.985 c 0.034,-0.29 0.056,-0.533 0.075,-0.799 l 0.041,-0.79 C 2.705,-5.357 2.699,-5.9 2.607,-6.518 l -2.309,1.475 c 1.075,0.687 2.05,1.189 3.121,1.659 1.055,0.459 2.125,0.878 3.227,1.199 2.189,0.685 4.469,1.041 6.746,1.203 l 1.47,0.104 -0.065,-1.385 C 14.781,-2.596 14.748,-2.712 14.71,-2.91 14.669,-3.087 14.62,-3.251 14.569,-3.414 14.464,-3.736 14.339,-4.037 14.203,-4.328 13.929,-4.906 13.608,-5.439 13.257,-5.937 l -0.709,1.684 c 0.833,-0.205 1.81,-0.367 2.74,-0.499 0.945,-0.131 1.9,-0.196 2.863,-0.262 1.927,-0.111 3.875,-0.067 5.855,0.049 -0.929,-0.344 -1.88,-0.645 -2.851,-0.871 -0.968,-0.256 -1.958,-0.399 -2.953,-0.544 -0.996,-0.144 -2.003,-0.184 -3.016,-0.212 -1.027,-0.021 -2.005,0.004 -3.1,0.162 l -1.518,0.22 0.809,1.464 c 0.244,0.44 0.448,0.892 0.602,1.338 0.076,0.223 0.139,0.446 0.183,0.659 0.02,0.106 0.039,0.211 0.048,0.308 0.014,0.074 0.021,0.234 0.016,0.179 l 1.404,-1.28 C 12.595,-3.693 11.563,-3.862 10.55,-4.12 9.535,-4.362 8.535,-4.663 7.547,-4.989 6.561,-5.323 5.59,-5.704 4.646,-6.129 3.721,-6.553 2.735,-7.038 1.964,-7.526 l -2.813,-1.777 0.503,3.252 c 0.053,0.338 0.077,0.763 0.081,1.194 l -0.011,0.658 -0.038,0.645 2.057,-1.159 c -1.716,-0.74 -3.481,-1.16 -5.235,-1.44 -0.877,-0.144 -1.761,-0.213 -2.641,-0.263 -0.888,-0.044 -1.743,-0.06 -2.665,-0.027 l -2.342,0.084 1.535,1.608 c 1.318,1.382 2.848,2.46 4.496,3.214 C -3.477,-0.765 -1.752,-0.235 0,0" /></g><g
           transform="translate(302.3457,283.9287)"
           id="g564"><path
             id="path566"
             style="fill:#263238;fill-opacity:1;fill-rule:nonzero;stroke:none"
             d="M 0,0 C 0.324,0.625 0.451,1.312 0.556,1.977 0.642,2.65 0.658,3.326 0.632,3.995 0.606,4.665 0.512,5.331 0.421,5.991 0.312,6.652 0.154,7.304 -0.007,7.953 L -0.537,10.081 1.4,8.879 C 2.009,8.501 2.521,8.124 3.05,7.699 3.564,7.274 4.074,6.829 4.53,6.322 5.443,5.314 6.263,4.139 6.753,2.717 L 4.661,3.258 c 0.257,0.263 0.548,0.588 0.807,0.895 0.262,0.314 0.514,0.635 0.75,0.961 0.471,0.647 0.853,1.34 1.108,1.959 L 8.164,9.116 9.533,7.503 c 0.501,-0.589 0.877,-1.124 1.264,-1.717 0.377,-0.585 0.719,-1.194 1.026,-1.826 0.59,-1.274 1.006,-2.667 1.124,-4.133 l -1.616,0.897 c 0.374,0.177 0.855,0.425 1.264,0.687 0.422,0.265 0.826,0.56 1.209,0.878 0.767,0.635 1.467,1.355 2.005,2.194 l 0.485,0.758 0.551,-0.54 c 0.372,-0.365 0.654,-0.73 0.946,-1.116 0.282,-0.386 0.548,-0.783 0.774,-1.202 0.457,-0.834 0.782,-1.749 0.866,-2.671 -0.378,0.844 -0.905,1.572 -1.5,2.222 -0.302,0.322 -0.608,0.636 -0.939,0.924 -0.322,0.286 -0.686,0.565 -1.008,0.789 l 1.037,0.218 C 16.553,2.788 15.906,1.774 15.097,0.928 14.694,0.501 14.266,0.102 13.811,-0.269 c -0.469,-0.37 -0.903,-0.708 -1.489,-1.03 l -1.361,-0.748 -0.255,1.646 C 10.534,0.704 10.12,1.799 9.558,2.836 9.286,3.359 8.982,3.872 8.647,4.366 8.319,4.849 7.93,5.36 7.585,5.747 l 2.207,0.43 C 9.426,5.15 8.866,4.342 8.303,3.575 8.015,3.196 7.716,2.833 7.406,2.481 7.091,2.125 6.789,1.801 6.424,1.445 L 4.883,-0.054 4.332,1.986 C 4.067,2.969 3.521,3.957 2.81,4.857 2.448,5.303 2.08,5.758 1.667,6.179 1.265,6.596 0.807,7.019 0.384,7.358 L 1.791,8.284 C 1.868,7.56 1.905,6.832 1.906,6.103 1.896,5.372 1.857,4.643 1.721,3.921 1.6,3.202 1.427,2.489 1.143,1.817 0.868,1.148 0.502,0.501 0,0" /></g><g
           transform="translate(277.1553,216.8584)"
           id="g568"><path
             id="path570"
             style="fill:#ffcc80;fill-opacity:1;fill-rule:nonzero;stroke:none"
             d="m 0,0 -8.295,-17.753 c 1.707,-1.377 4.917,-3.741 8.926,-5.63 0,0 -2.357,-7.791 -8.248,-10.713 -5.892,-2.922 -20.974,-1.272 -28.052,0.738 -3.414,0.968 -6.543,2.844 -6.543,2.844 0,0 -2.074,-1.932 -6.504,-0.518 -4.43,1.414 -5.069,4.524 -8.661,7.606 -2.656,2.279 -4.815,2.158 -4.815,2.158 0,0 -5.644,-1.28 -10.043,-1.186 0,0 -2.664,-4.313 -4.647,-5.031 -0.453,-0.164 -0.697,0.062 -0.807,0.506 -0.197,-0.676 -0.201,-1.215 0.144,-1.445 1.225,-0.817 3.613,0.911 5.82,4.346 5.319,0.618 9.199,1.907 9.199,1.907 0,0 2.676,-1.371 6.515,-7.085 2.24,-3.335 7.589,-6.25 13.928,-4.375 0,0 21.607,-5.089 27.5,-6.25 5.893,-1.16 10.893,-1.606 15.446,5 4.847,7.033 15.089,29.196 15.089,29.196 L 0,0 Z" /></g><g
           transform="translate(278.4307,196.4766)"
           id="g572"><path
             id="path574"
             style="fill:#afb42b;fill-opacity:1;fill-rule:nonzero;stroke:none"
             d="m 0,0 c -7.266,2.656 -12.567,6.679 -12.567,6.679 0,0 5.486,12.003 7.798,16.828 2.313,4.824 9.844,15.913 18.079,12.902 8.234,-3.01 6.838,-16.341 5.495,-21.519 C 17.461,9.711 13.912,-3.001 13.912,-3.001 13.912,-3.001 7.266,-2.655 0,0" /></g><g
           transform="translate(296.0693,229.291)"
           id="g576"><path
             id="path578"
             style="fill:#9e9d24;fill-opacity:1;fill-rule:nonzero;stroke:none"
             d="m 0,0 c 0.766,-7.334 0.048,-17.317 -7.726,-23.292 -8.07,-6.204 -15.921,-2.949 -20.893,0.619 -0.942,-2.05 -1.587,-3.463 -1.587,-3.463 0,0 5.302,-4.022 12.567,-6.678 7.266,-2.656 13.912,-3.001 13.912,-3.001 0,0 3.549,12.711 4.893,17.89 C 2.194,-13.963 3.247,-5.233 0,0" /></g><g
           transform="translate(259.9453,279.0977)"
           id="g580"><path
             id="path582"
             style="fill:#f48fb1;fill-opacity:1;fill-rule:nonzero;stroke:none"
             d="m 0,0 c 0.944,0.097 0.015,-1.916 0.206,-2.917 0.052,-0.27 0.312,-2.8 -0.281,-2.657 -0.27,0.065 -0.359,1.188 -0.363,1.445 -0.013,0.562 0.184,1.059 0.258,1.603 C -0.088,-1.853 -0.708,-0.073 0,0" /></g></g></g><text
       id="text584"
       style="font-variant:normal;font-weight:bold;font-stretch:normal;font-size:25px;font-family:'League Spartan';-inkscape-font-specification:LeagueSpartan-Bold;writing-mode:lr-tb;fill:#ffffff;fill-opacity:1;fill-rule:nonzero;stroke:none"
       transform="matrix(1,0,0,-1,203.1631,446.7549)"><tspan
         id="tspan586"
         y="0"
         x="0 19.049999 36.125 53.200001 70.275002 86.099998">Happy </tspan><tspan
         id="tspan588"
         y="30"
         x="-83.675003 -57.400002 -40.924999 -28.475 -21.049999 -3.9749999 2.8499999 23.575001 35.825001 52.900002 69.974998 86.5 94.050003 106.225 118.525 125.35 143.8 160.77499">World Graphics Day</tspan></text>
<g
       id="g590"><g
         clip-path="url(#clipPath594)"
         id="g592"><g
           transform="translate(177.1196,28.0576)"
           id="g598"><path
             id="path600"
             style="fill:#ffffff;fill-opacity:1;fill-rule:nonzero;stroke:none"
             d="m 0,0 c 0,-0.439 0.068,-0.813 0.205,-1.122 0.137,-0.309 0.323,-0.541 0.561,-0.696 0.237,-0.158 0.497,-0.237 0.777,-0.237 0.286,0 0.545,0.076 0.781,0.224 0.236,0.147 0.424,0.376 0.564,0.682 0.141,0.307 0.211,0.691 0.211,1.149 0,0.432 -0.07,0.803 -0.211,1.114 -0.14,0.31 -0.33,0.547 -0.57,0.712 C 2.079,1.99 1.816,2.071 1.532,2.071 1.235,2.071 0.97,1.987 0.736,1.819 0.503,1.651 0.322,1.41 0.193,1.096 0.064,0.78 0,0.416 0,0 m 3.188,-2.381 0,0.161 C 2.97,-2.469 2.755,-2.672 2.544,-2.828 2.332,-2.984 2.103,-3.104 1.855,-3.185 1.608,-3.267 1.338,-3.307 1.045,-3.307 c -0.388,0 -0.747,0.082 -1.078,0.246 -0.33,0.165 -0.616,0.4 -0.857,0.705 -0.242,0.304 -0.425,0.662 -0.549,1.074 -0.125,0.412 -0.187,0.856 -0.187,1.335 0,1.013 0.247,1.803 0.742,2.37 C -0.39,2.987 0.261,3.271 1.069,3.271 1.536,3.271 1.93,3.19 2.25,3.031 2.571,2.87 2.883,2.623 3.188,2.292 l 0,2.392 c 0,0.333 0.066,0.584 0.199,0.753 0.132,0.17 0.321,0.255 0.567,0.255 0.245,0 0.434,-0.078 0.567,-0.234 C 4.653,5.302 4.719,5.072 4.719,4.767 l 0,-7.148 c 0,-0.308 -0.071,-0.54 -0.213,-0.694 -0.143,-0.154 -0.326,-0.232 -0.552,-0.232 -0.222,0 -0.405,0.08 -0.55,0.241 -0.144,0.161 -0.216,0.389 -0.216,0.685" /></g><g
           transform="translate(184.2842,28.5684)"
           id="g602"><path
             id="path604"
             style="fill:#ffffff;fill-opacity:1;fill-rule:nonzero;stroke:none"
             d="M 0,0 2.938,0 C 2.899,0.554 2.749,0.969 2.49,1.243 2.23,1.519 1.89,1.656 1.466,1.656 1.062,1.656 0.731,1.517 0.472,1.238 0.212,0.959 0.056,0.546 0,0 m 3.169,-0.921 -3.169,0 c 0.004,-0.367 0.078,-0.692 0.223,-0.973 0.144,-0.281 0.336,-0.493 0.575,-0.635 0.24,-0.143 0.504,-0.213 0.793,-0.213 0.194,0 0.37,0.022 0.531,0.067 0.161,0.046 0.316,0.116 0.466,0.214 0.151,0.097 0.289,0.201 0.416,0.312 0.126,0.111 0.29,0.262 0.492,0.452 0.083,0.071 0.202,0.106 0.357,0.106 0.166,0 0.3,-0.046 0.403,-0.137 0.103,-0.091 0.155,-0.219 0.155,-0.385 0,-0.147 -0.058,-0.318 -0.172,-0.514 C 4.123,-2.823 3.95,-3.011 3.719,-3.19 3.487,-3.371 3.197,-3.52 2.846,-3.639 2.496,-3.758 2.093,-3.817 1.638,-3.817 c -1.04,0 -1.85,0.297 -2.428,0.89 -0.577,0.594 -0.866,1.4 -0.866,2.416 0,0.48 0.071,0.924 0.214,1.332 0.142,0.41 0.35,0.762 0.623,1.055 0.273,0.293 0.609,0.517 1.009,0.674 0.399,0.156 0.843,0.233 1.33,0.233 0.633,0 1.176,-0.133 1.628,-0.4 C 3.602,2.116 3.942,1.771 4.167,1.348 4.392,0.924 4.505,0.492 4.505,0.054 4.505,-0.354 4.389,-0.618 4.155,-0.739 3.922,-0.859 3.593,-0.921 3.169,-0.921" /></g><g
           transform="translate(194.8379,26.8711)"
           id="g606"><path
             id="path608"
             style="fill:#ffffff;fill-opacity:1;fill-rule:nonzero;stroke:none"
             d="M 0,0 C 0,-0.447 -0.108,-0.831 -0.327,-1.149 -0.543,-1.468 -0.865,-1.71 -1.291,-1.874 -1.716,-2.038 -2.234,-2.12 -2.843,-2.12 c -0.582,0 -1.08,0.09 -1.496,0.267 -0.415,0.178 -0.723,0.402 -0.92,0.667 -0.198,0.269 -0.297,0.536 -0.297,0.806 0,0.178 0.063,0.33 0.19,0.456 0.127,0.126 0.287,0.19 0.481,0.19 0.17,0 0.3,-0.041 0.391,-0.124 0.092,-0.083 0.179,-0.201 0.261,-0.35 0.167,-0.29 0.366,-0.504 0.597,-0.647 0.232,-0.143 0.547,-0.214 0.948,-0.214 0.324,0 0.59,0.072 0.798,0.216 0.207,0.146 0.311,0.31 0.311,0.497 0,0.285 -0.108,0.492 -0.323,0.622 -0.216,0.13 -0.571,0.255 -1.066,0.375 -0.558,0.137 -1.012,0.284 -1.362,0.436 -0.351,0.152 -0.63,0.353 -0.84,0.602 -0.21,0.25 -0.315,0.556 -0.315,0.921 0,0.324 0.097,0.63 0.291,0.92 0.194,0.288 0.48,0.519 0.859,0.691 0.377,0.173 0.833,0.259 1.367,0.259 0.42,0 0.797,-0.043 1.131,-0.131 C -1.502,4.252 -1.223,4.135 -1,3.988 -0.776,3.842 -0.606,3.68 -0.49,3.502 -0.373,3.324 -0.315,3.15 -0.315,2.979 -0.315,2.794 -0.377,2.641 -0.501,2.521 -0.626,2.404 -0.803,2.344 -1.033,2.344 c -0.166,0 -0.307,0.048 -0.424,0.143 -0.117,0.095 -0.251,0.237 -0.401,0.427 -0.122,0.158 -0.266,0.285 -0.433,0.38 -0.166,0.096 -0.392,0.143 -0.677,0.143 -0.293,0 -0.536,-0.062 -0.73,-0.188 -0.194,-0.124 -0.291,-0.279 -0.291,-0.465 0,-0.171 0.071,-0.31 0.214,-0.419 0.142,-0.109 0.334,-0.2 0.576,-0.27 C -2.958,2.023 -2.626,1.937 -2.202,1.834 -1.7,1.711 -1.289,1.564 -0.97,1.395 -0.652,1.225 -0.411,1.023 -0.246,0.792 -0.082,0.561 0,0.297 0,0" /></g><g
           transform="translate(197.2954,30.4199)"
           id="g610"><path
             id="path612"
             style="fill:#ffffff;fill-opacity:1;fill-rule:nonzero;stroke:none"
             d="m 0,0 0,-4.683 c 0,-0.325 -0.077,-0.571 -0.232,-0.737 -0.155,-0.166 -0.35,-0.249 -0.587,-0.249 -0.238,0 -0.431,0.085 -0.579,0.256 -0.149,0.17 -0.223,0.413 -0.223,0.73 l 0,4.636 c 0,0.32 0.074,0.562 0.223,0.725 0.148,0.162 0.341,0.243 0.579,0.243 0.237,0 0.432,-0.081 0.587,-0.243 C -0.077,0.515 0,0.289 0,0 m -0.802,1.674 c -0.225,0 -0.418,0.069 -0.578,0.208 -0.161,0.138 -0.241,0.334 -0.241,0.588 0,0.23 0.082,0.418 0.246,0.567 0.165,0.149 0.356,0.223 0.573,0.223 0.21,0 0.396,-0.068 0.558,-0.202 C -0.082,2.923 0,2.728 0,2.47 0,2.221 -0.08,2.025 -0.238,1.885 -0.396,1.745 -0.584,1.674 -0.802,1.674" /></g><g
           transform="translate(199.6987,28.0986)"
           id="g614"><path
             id="path616"
             style="fill:#ffffff;fill-opacity:1;fill-rule:nonzero;stroke:none"
             d="m 0,0 c 0,-0.656 0.143,-1.153 0.43,-1.489 0.287,-0.337 0.658,-0.505 1.113,-0.505 0.269,0 0.523,0.072 0.763,0.217 0.239,0.144 0.434,0.362 0.585,0.653 0.15,0.291 0.226,0.644 0.226,1.06 0,0.66 -0.146,1.174 -0.437,1.543 C 2.389,1.847 2.006,2.03 1.531,2.03 1.068,2.03 0.697,1.854 0.418,1.502 0.139,1.15 0,0.649 0,0 m 4.696,2.055 0,-4.707 c 0,-0.539 -0.058,-1.002 -0.173,-1.39 C 4.409,-4.43 4.225,-4.75 3.971,-5.004 3.718,-5.257 3.386,-5.445 2.977,-5.567 2.567,-5.69 2.058,-5.751 1.448,-5.751 c -0.558,0 -1.056,0.078 -1.496,0.233 -0.439,0.158 -0.777,0.359 -1.015,0.606 -0.237,0.248 -0.356,0.502 -0.356,0.764 0,0.197 0.067,0.359 0.202,0.483 0.134,0.125 0.297,0.187 0.487,0.187 0.237,0 0.445,-0.105 0.623,-0.314 0.086,-0.107 0.177,-0.216 0.27,-0.324 0.093,-0.11 0.196,-0.202 0.309,-0.28 0.112,-0.076 0.248,-0.133 0.406,-0.171 0.159,-0.037 0.341,-0.056 0.546,-0.056 0.42,0 0.745,0.058 0.977,0.175 0.232,0.116 0.394,0.28 0.487,0.49 0.093,0.208 0.147,0.433 0.163,0.673 0.016,0.24 0.028,0.625 0.035,1.155 C 2.837,-2.479 2.55,-2.744 2.223,-2.926 1.896,-3.108 1.507,-3.199 1.057,-3.199 c -0.543,0 -1.016,0.138 -1.422,0.416 -0.406,0.277 -0.718,0.665 -0.935,1.163 -0.218,0.499 -0.326,1.074 -0.326,1.727 0,0.487 0.065,0.927 0.198,1.318 0.133,0.392 0.322,0.722 0.567,0.992 0.246,0.27 0.528,0.472 0.849,0.608 0.321,0.136 0.673,0.204 1.056,0.204 0.459,0 0.857,-0.087 1.194,-0.263 C 2.574,2.789 2.887,2.514 3.176,2.138 l 0,0.219 c 0,0.282 0.069,0.498 0.207,0.654 C 3.522,3.165 3.7,3.242 3.918,3.242 4.23,3.242 4.438,3.14 4.541,2.937 4.644,2.732 4.696,2.438 4.696,2.055" /></g><g
           transform="translate(206.9697,30.4443)"
           id="g618"><path
             id="path620"
             style="fill:#ffffff;fill-opacity:1;fill-rule:nonzero;stroke:none"
             d="M 0,0 0,-0.196 C 0.285,0.18 0.597,0.456 0.935,0.632 1.273,0.808 1.662,0.896 2.102,0.896 2.529,0.896 2.911,0.803 3.247,0.617 3.583,0.431 3.835,0.168 4.001,-0.172 4.108,-0.37 4.177,-0.584 4.208,-0.813 4.24,-1.043 4.257,-1.336 4.257,-1.692 l 0,-3.015 c 0,-0.325 -0.075,-0.571 -0.223,-0.737 -0.149,-0.166 -0.342,-0.249 -0.579,-0.249 -0.242,0 -0.437,0.085 -0.588,0.256 -0.15,0.169 -0.225,0.413 -0.225,0.73 l 0,2.7 c 0,0.534 -0.075,0.944 -0.223,1.226 -0.148,0.283 -0.444,0.425 -0.888,0.425 -0.288,0 -0.552,-0.086 -0.789,-0.258 C 0.505,-0.787 0.331,-1.023 0.22,-1.324 0.141,-1.565 0.101,-2.017 0.101,-2.677 l 0,-2.03 c 0,-0.328 -0.077,-0.576 -0.228,-0.74 -0.153,-0.164 -0.35,-0.246 -0.591,-0.246 -0.234,0 -0.426,0.085 -0.576,0.256 -0.15,0.169 -0.226,0.413 -0.226,0.73 l 0,4.683 c 0,0.309 0.067,0.54 0.202,0.692 0.135,0.152 0.319,0.228 0.552,0.228 0.143,0 0.271,-0.034 0.387,-0.101 C -0.265,0.728 -0.173,0.627 -0.104,0.493 -0.034,0.358 0,0.193 0,0" /></g><g
           transform="translate(213.6592,28.5684)"
           id="g622"><path
             id="path624"
             style="fill:#ffffff;fill-opacity:1;fill-rule:nonzero;stroke:none"
             d="M 0,0 2.938,0 C 2.899,0.554 2.75,0.969 2.49,1.243 2.231,1.519 1.89,1.656 1.467,1.656 1.062,1.656 0.731,1.517 0.472,1.238 0.212,0.959 0.056,0.546 0,0 m 3.17,-0.921 -3.17,0 c 0.004,-0.367 0.078,-0.692 0.223,-0.973 0.144,-0.281 0.336,-0.493 0.576,-0.635 0.239,-0.143 0.503,-0.213 0.792,-0.213 0.194,0 0.371,0.022 0.532,0.067 0.159,0.046 0.315,0.116 0.466,0.214 0.15,0.097 0.288,0.201 0.415,0.312 0.126,0.111 0.29,0.262 0.493,0.452 0.083,0.071 0.201,0.106 0.356,0.106 0.166,0 0.301,-0.046 0.403,-0.137 0.103,-0.091 0.155,-0.219 0.155,-0.385 0,-0.147 -0.057,-0.318 -0.173,-0.514 C 4.124,-2.823 3.95,-3.011 3.719,-3.19 3.487,-3.371 3.197,-3.52 2.847,-3.639 2.496,-3.758 2.093,-3.817 1.638,-3.817 c -1.04,0 -1.849,0.297 -2.428,0.89 -0.577,0.594 -0.866,1.4 -0.866,2.416 0,0.48 0.071,0.924 0.214,1.332 0.142,0.41 0.35,0.762 0.623,1.055 0.273,0.293 0.61,0.517 1.009,0.674 0.399,0.156 0.843,0.233 1.33,0.233 0.633,0 1.175,-0.133 1.629,-0.4 C 3.602,2.116 3.941,1.771 4.167,1.348 4.393,0.924 4.506,0.492 4.506,0.054 4.506,-0.354 4.389,-0.618 4.155,-0.739 3.922,-0.859 3.594,-0.921 3.17,-0.921" /></g><g
           transform="translate(220.2476,28.0576)"
           id="g626"><path
             id="path628"
             style="fill:#ffffff;fill-opacity:1;fill-rule:nonzero;stroke:none"
             d="m 0,0 c 0,-0.439 0.068,-0.813 0.205,-1.122 0.136,-0.309 0.323,-0.541 0.561,-0.696 0.237,-0.158 0.497,-0.237 0.777,-0.237 0.286,0 0.546,0.076 0.781,0.224 0.236,0.147 0.424,0.376 0.564,0.682 0.14,0.307 0.211,0.691 0.211,1.149 0,0.432 -0.071,0.803 -0.211,1.114 -0.14,0.31 -0.33,0.547 -0.57,0.712 C 2.078,1.99 1.816,2.071 1.531,2.071 1.235,2.071 0.97,1.987 0.736,1.819 0.503,1.651 0.322,1.41 0.193,1.096 0.064,0.78 0,0.416 0,0 m 3.188,-2.381 0,0.161 C 2.97,-2.469 2.755,-2.672 2.543,-2.828 2.332,-2.984 2.103,-3.104 1.855,-3.185 1.608,-3.267 1.338,-3.307 1.045,-3.307 c -0.388,0 -0.747,0.082 -1.077,0.246 -0.331,0.165 -0.617,0.4 -0.858,0.705 -0.242,0.304 -0.425,0.662 -0.549,1.074 -0.125,0.412 -0.187,0.856 -0.187,1.335 0,1.013 0.247,1.803 0.742,2.37 C -0.39,2.987 0.262,3.271 1.069,3.271 1.536,3.271 1.93,3.19 2.25,3.031 2.57,2.87 2.883,2.623 3.188,2.292 l 0,2.392 c 0,0.333 0.066,0.584 0.199,0.753 0.132,0.17 0.321,0.255 0.567,0.255 0.245,0 0.434,-0.078 0.567,-0.234 C 4.653,5.302 4.72,5.072 4.72,4.767 l 0,-7.148 c 0,-0.308 -0.072,-0.54 -0.214,-0.694 -0.143,-0.154 -0.326,-0.232 -0.552,-0.232 -0.222,0 -0.405,0.08 -0.55,0.241 -0.144,0.161 -0.216,0.389 -0.216,0.685" /></g><g
           transform="translate(230.1362,28.0098)"
           id="g630"><path
             id="path632"
             style="fill:#ffffff;fill-opacity:1;fill-rule:nonzero;stroke:none"
             d="m 0,0 c 0,-0.645 0.147,-1.14 0.442,-1.486 0.295,-0.347 0.682,-0.521 1.161,-0.521 0.407,0 0.759,0.178 1.053,0.532 0.295,0.355 0.442,0.862 0.442,1.523 0,0.428 -0.06,0.796 -0.183,1.104 C 2.792,1.461 2.618,1.699 2.393,1.867 2.167,2.035 1.903,2.119 1.603,2.119 1.294,2.119 1.019,2.035 0.777,1.867 0.536,1.699 0.346,1.456 0.208,1.138 0.069,0.819 0,0.439 0,0 m -0.077,4.814 0,-2.474 C 0.227,2.656 0.538,2.898 0.855,3.066 1.171,3.234 1.563,3.318 2.03,3.318 2.568,3.318 3.04,3.191 3.446,2.937 3.851,2.681 4.166,2.311 4.39,1.826 4.613,1.342 4.726,0.767 4.726,0.101 4.726,-0.39 4.663,-0.839 4.539,-1.249 4.414,-1.658 4.232,-2.014 3.995,-2.314 3.757,-2.615 3.47,-2.849 3.132,-3.013 2.793,-3.177 2.42,-3.259 2.013,-3.259 c -0.25,0 -0.485,0.03 -0.704,0.09 -0.22,0.059 -0.407,0.137 -0.561,0.234 -0.154,0.096 -0.286,0.197 -0.394,0.299 -0.11,0.103 -0.253,0.258 -0.431,0.464 l 0,-0.161 c 0,-0.304 -0.073,-0.535 -0.22,-0.691 -0.146,-0.157 -0.332,-0.235 -0.558,-0.235 -0.229,0 -0.413,0.078 -0.549,0.235 -0.137,0.156 -0.204,0.387 -0.204,0.691 l 0,7.077 c 0,0.328 0.066,0.576 0.198,0.744 0.133,0.168 0.318,0.252 0.555,0.252 0.25,0 0.441,-0.08 0.576,-0.239 0.134,-0.161 0.202,-0.389 0.202,-0.687" /></g><g
           transform="translate(236.9629,24.5488)"
           id="g634"><path
             id="path636"
             style="fill:#ffffff;fill-opacity:1;fill-rule:nonzero;stroke:none"
             d="m 0,0 0.148,0.363 -1.995,5.022 c -0.122,0.288 -0.184,0.499 -0.184,0.63 0,0.138 0.036,0.266 0.107,0.384 0.071,0.12 0.169,0.214 0.294,0.286 0.125,0.072 0.255,0.107 0.389,0.107 0.233,0 0.409,-0.074 0.529,-0.223 0.119,-0.148 0.223,-0.361 0.314,-0.637 l 1.371,-3.99 1.3,3.71 c 0.103,0.3 0.196,0.536 0.279,0.706 0.083,0.171 0.171,0.286 0.264,0.344 0.093,0.06 0.225,0.09 0.395,0.09 0.123,0 0.241,-0.032 0.353,-0.099 C 3.677,6.628 3.764,6.54 3.825,6.43 3.887,6.319 3.918,6.202 3.918,6.079 3.901,6.005 3.876,5.897 3.84,5.759 3.804,5.62 3.761,5.479 3.71,5.337 L 1.597,-0.195 C 1.414,-0.682 1.236,-1.063 1.062,-1.341 0.888,-1.617 0.658,-1.831 0.371,-1.979 0.083,-2.128 -0.303,-2.201 -0.79,-2.201 c -0.475,0 -0.831,0.051 -1.068,0.153 -0.238,0.104 -0.356,0.292 -0.356,0.565 0,0.185 0.056,0.33 0.169,0.43 0.112,0.101 0.28,0.152 0.501,0.152 0.087,0 0.172,-0.012 0.255,-0.036 0.103,-0.024 0.192,-0.036 0.268,-0.036 0.185,0 0.332,0.028 0.439,0.083 0.106,0.056 0.203,0.152 0.288,0.288 C -0.209,-0.466 -0.111,-0.265 0,0" /></g><g
           transform="translate(260.4395,31.2002)"
           id="g638"><path
             id="path640"
             style="fill:#ffffff;fill-opacity:1;fill-rule:nonzero;stroke:none"
             d="m 0,0 0.387,0 0,0.486 c 0,0.509 0.061,0.911 0.191,1.211 0.127,0.3 0.347,0.517 0.654,0.654 0.307,0.135 0.727,0.204 1.26,0.204 0.95,0 1.421,-0.23 1.421,-0.697 C 3.913,1.709 3.863,1.58 3.763,1.474 3.666,1.368 3.549,1.313 3.414,1.313 3.352,1.313 3.24,1.325 3.085,1.351 2.937,1.372 2.802,1.386 2.695,1.386 2.403,1.386 2.216,1.298 2.13,1.126 2.05,0.954 2.008,0.708 2.008,0.386 L 2.008,0 2.403,0 C 3.022,0 3.329,-0.186 3.329,-0.56 3.329,-0.821 3.25,-0.991 3.083,-1.062 2.92,-1.134 2.693,-1.169 2.403,-1.169 l -0.395,0 0,-4.295 c 0,-0.319 -0.075,-0.562 -0.232,-0.729 -0.15,-0.171 -0.345,-0.254 -0.589,-0.254 -0.229,0 -0.418,0.083 -0.573,0.254 -0.153,0.167 -0.227,0.41 -0.227,0.729 l 0,4.295 -0.447,0 c -0.243,0 -0.426,0.052 -0.558,0.163 -0.131,0.108 -0.197,0.25 -0.197,0.424 C -0.815,-0.192 -0.543,0 0,0" /></g><g
           transform="translate(265.7451,27.0918)"
           id="g642"><path
             id="path644"
             style="fill:#ffffff;fill-opacity:1;fill-rule:nonzero;stroke:none"
             d="m 0,0 0,-1.355 c 0,-0.328 -0.083,-0.575 -0.233,-0.738 -0.155,-0.166 -0.35,-0.246 -0.586,-0.246 -0.24,0 -0.43,0.081 -0.58,0.25 -0.148,0.165 -0.225,0.41 -0.225,0.734 l 0,4.514 c 0,0.729 0.263,1.093 0.788,1.093 0.271,0 0.464,-0.084 0.583,-0.255 C -0.134,3.826 -0.068,3.576 -0.055,3.242 0.138,3.576 0.336,3.826 0.538,3.997 0.746,4.168 1.015,4.252 1.356,4.252 1.7,4.252 2.027,4.168 2.348,3.997 2.67,3.826 2.829,3.599 2.829,3.318 2.829,3.122 2.761,2.956 2.626,2.83 2.488,2.7 2.342,2.636 2.185,2.636 2.122,2.636 1.978,2.675 1.752,2.748 1.523,2.819 1.321,2.856 1.149,2.856 0.912,2.856 0.717,2.792 0.567,2.67 0.416,2.542 0.299,2.359 0.215,2.115 0.134,1.869 0.078,1.575 0.045,1.238 0.014,0.899 0,0.486 0,0" /></g><g
           transform="translate(270.0244,28.5713)"
           id="g646"><path
             id="path648"
             style="fill:#ffffff;fill-opacity:1;fill-rule:nonzero;stroke:none"
             d="M 0,0 2.938,0 C 2.899,0.553 2.752,0.968 2.492,1.241 2.23,1.518 1.893,1.653 1.467,1.653 1.063,1.653 0.731,1.517 0.472,1.235 0.213,0.957 0.054,0.545 0,0 m 3.171,-0.922 -3.171,0 c 0.006,-0.367 0.077,-0.694 0.222,-0.974 0.146,-0.279 0.337,-0.492 0.578,-0.635 0.24,-0.143 0.502,-0.213 0.792,-0.213 0.194,0 0.371,0.021 0.531,0.07 0.159,0.043 0.315,0.115 0.466,0.213 0.151,0.095 0.288,0.198 0.415,0.313 0.127,0.108 0.292,0.259 0.494,0.449 0.084,0.07 0.202,0.108 0.355,0.108 0.168,0 0.301,-0.047 0.406,-0.138 0.103,-0.092 0.152,-0.219 0.152,-0.386 0,-0.148 -0.056,-0.318 -0.167,-0.512 C 4.127,-2.826 3.954,-3.013 3.721,-3.193 3.487,-3.372 3.197,-3.523 2.848,-3.64 2.498,-3.759 2.094,-3.818 1.641,-3.818 c -1.045,0 -1.853,0.295 -2.43,0.888 -0.577,0.595 -0.869,1.402 -0.869,2.417 0,0.48 0.073,0.924 0.217,1.334 0.14,0.412 0.348,0.761 0.625,1.055 0.272,0.295 0.605,0.519 1.006,0.675 0.4,0.155 0.842,0.233 1.331,0.233 0.631,0 1.175,-0.134 1.628,-0.403 C 3.603,2.116 3.946,1.771 4.168,1.347 4.394,0.921 4.507,0.491 4.507,0.051 4.507,-0.355 4.389,-0.618 4.156,-0.741 3.923,-0.861 3.595,-0.922 3.171,-0.922" /></g><g
           transform="translate(276.7666,28.5713)"
           id="g650"><path
             id="path652"
             style="fill:#ffffff;fill-opacity:1;fill-rule:nonzero;stroke:none"
             d="M 0,0 2.938,0 C 2.898,0.553 2.749,0.968 2.491,1.241 2.229,1.518 1.891,1.653 1.465,1.653 1.062,1.653 0.73,1.517 0.47,1.235 0.212,0.957 0.053,0.545 0,0 m 3.171,-0.922 -3.171,0 c 0.004,-0.367 0.078,-0.694 0.222,-0.974 0.144,-0.279 0.337,-0.492 0.576,-0.635 0.239,-0.143 0.503,-0.213 0.794,-0.213 0.192,0 0.371,0.021 0.528,0.07 0.162,0.043 0.317,0.115 0.469,0.213 0.151,0.095 0.287,0.198 0.415,0.313 0.124,0.108 0.29,0.259 0.492,0.449 0.085,0.07 0.204,0.108 0.356,0.108 0.168,0 0.301,-0.047 0.406,-0.138 0.103,-0.092 0.15,-0.219 0.15,-0.386 0,-0.148 -0.054,-0.318 -0.171,-0.512 C 4.127,-2.826 3.953,-3.013 3.719,-3.193 3.487,-3.372 3.193,-3.523 2.847,-3.64 2.498,-3.759 2.092,-3.818 1.637,-3.818 c -1.041,0 -1.849,0.295 -2.429,0.888 -0.577,0.595 -0.868,1.402 -0.868,2.417 0,0.48 0.073,0.924 0.218,1.334 0.141,0.412 0.348,0.761 0.622,1.055 0.272,0.295 0.608,0.519 1.008,0.675 C 0.587,2.706 1.033,2.784 1.52,2.784 2.149,2.784 2.693,2.65 3.152,2.381 3.603,2.116 3.943,1.771 4.166,1.347 4.391,0.921 4.507,0.491 4.507,0.051 4.507,-0.355 4.387,-0.618 4.155,-0.741 3.921,-0.861 3.594,-0.922 3.171,-0.922" /></g><g
           transform="translate(286.665,28.0771)"
           id="g654"><path
             id="path656"
             style="fill:#ffffff;fill-opacity:1;fill-rule:nonzero;stroke:none"
             d="m 0,0 c 0,0.428 -0.066,0.796 -0.196,1.102 -0.131,0.307 -0.313,0.542 -0.542,0.705 -0.23,0.164 -0.489,0.248 -0.77,0.248 -0.446,0 -0.824,-0.178 -1.131,-0.528 -0.307,-0.354 -0.462,-0.872 -0.462,-1.558 0,-0.642 0.153,-1.146 0.46,-1.504 0.304,-0.359 0.678,-0.536 1.133,-0.536 0.268,0 0.519,0.078 0.748,0.232 0.232,0.158 0.415,0.392 0.552,0.704 C -0.069,-0.821 0,-0.442 0,0 m -3.178,2.354 0,-0.193 c 0.304,0.375 0.621,0.651 0.953,0.827 0.325,0.178 0.699,0.267 1.114,0.267 0.497,0 0.96,-0.13 1.38,-0.386 C 0.687,2.61 1.018,2.234 1.262,1.74 1.505,1.243 1.628,0.659 1.628,-0.019 c 0,-0.497 -0.07,-0.957 -0.21,-1.376 -0.14,-0.417 -0.336,-0.766 -0.581,-1.049 -0.245,-0.282 -0.534,-0.501 -0.868,-0.654 -0.339,-0.15 -0.695,-0.226 -1.08,-0.226 -0.461,0 -0.853,0.093 -1.165,0.279 -0.315,0.183 -0.615,0.458 -0.902,0.816 l 0,-2.433 c 0,-0.71 -0.26,-1.068 -0.777,-1.068 -0.307,0 -0.506,0.091 -0.607,0.274 -0.095,0.186 -0.146,0.452 -0.146,0.807 l 0,6.996 c 0,0.309 0.066,0.537 0.2,0.692 0.134,0.149 0.32,0.228 0.553,0.228 0.23,0 0.416,-0.079 0.559,-0.234 0.148,-0.159 0.218,-0.382 0.218,-0.679" /></g><g
           transform="translate(290.7275,30.4238)"
           id="g658"><path
             id="path660"
             style="fill:#ffffff;fill-opacity:1;fill-rule:nonzero;stroke:none"
             d="m 0,0 0,-4.688 c 0,-0.323 -0.077,-0.568 -0.231,-0.733 -0.157,-0.169 -0.351,-0.25 -0.588,-0.25 -0.239,0 -0.428,0.083 -0.58,0.254 -0.147,0.173 -0.223,0.415 -0.223,0.729 l 0,4.642 c 0,0.318 0.076,0.559 0.223,0.721 0.152,0.166 0.341,0.245 0.58,0.245 0.237,0 0.431,-0.079 0.588,-0.245 C -0.077,0.513 0,0.286 0,0 m -0.803,1.675 c -0.226,0 -0.418,0.071 -0.577,0.209 -0.162,0.138 -0.242,0.333 -0.242,0.585 0,0.23 0.082,0.419 0.248,0.569 0.163,0.147 0.353,0.222 0.571,0.222 0.212,0 0.398,-0.067 0.559,-0.199 C -0.082,2.924 0,2.727 0,2.469 0,2.22 -0.079,2.024 -0.236,1.884 -0.396,1.746 -0.583,1.675 -0.803,1.675" /></g><g
           transform="translate(295.9521,25.4922)"
           id="g662"><path
             id="path664"
             style="fill:#ffffff;fill-opacity:1;fill-rule:nonzero;stroke:none"
             d="m 0,0 -1.428,2.354 -0.88,-0.831 0,-1.291 c 0,-0.311 -0.083,-0.55 -0.248,-0.717 -0.16,-0.171 -0.353,-0.254 -0.566,-0.254 -0.249,0 -0.447,0.081 -0.588,0.25 -0.142,0.165 -0.215,0.41 -0.215,0.733 l 0,6.915 c 0,0.359 0.071,0.632 0.207,0.82 0.14,0.191 0.341,0.284 0.596,0.284 0.25,0 0.445,-0.086 0.594,-0.257 0.145,-0.17 0.22,-0.422 0.22,-0.752 l 0,-3.933 1.823,1.914 c 0.226,0.235 0.395,0.401 0.516,0.487 0.119,0.087 0.262,0.13 0.432,0.13 0.203,0 0.371,-0.065 0.509,-0.193 C 1.104,5.53 1.172,5.367 1.172,5.176 1.172,4.938 0.951,4.62 0.513,4.225 L -0.348,3.436 1.314,0.821 C 1.436,0.625 1.526,0.481 1.579,0.38 1.632,0.28 1.66,0.181 1.66,0.091 1.66,-0.167 1.589,-0.368 1.447,-0.519 1.308,-0.666 1.12,-0.739 0.894,-0.739 0.696,-0.739 0.542,-0.689 0.436,-0.58 0.329,-0.472 0.181,-0.277 0,0" /></g><g
           transform="translate(299.4746,24.7529)"
           id="g666"><path
             id="path668"
             style="fill:#ffffff;fill-opacity:1;fill-rule:nonzero;stroke:none"
             d="m 0,0 c -0.245,0 -0.455,0.078 -0.634,0.237 -0.178,0.157 -0.267,0.379 -0.267,0.666 0,0.242 0.086,0.45 0.255,0.622 0.172,0.174 0.38,0.262 0.63,0.262 0.248,0 0.46,-0.088 0.64,-0.258 C 0.798,1.357 0.887,1.146 0.887,0.903 0.887,0.62 0.798,0.398 0.624,0.241 0.444,0.078 0.236,0 0,0" /></g><g
           transform="translate(307.5361,26.7588)"
           id="g670"><path
             id="path672"
             style="fill:#ffffff;fill-opacity:1;fill-rule:nonzero;stroke:none"
             d="m 0,0 c 0,-0.2 -0.061,-0.418 -0.183,-0.646 -0.119,-0.232 -0.304,-0.449 -0.552,-0.657 -0.247,-0.207 -0.558,-0.376 -0.935,-0.502 -0.376,-0.126 -0.801,-0.191 -1.269,-0.191 -1.004,0 -1.787,0.293 -2.349,0.876 -0.56,0.584 -0.841,1.368 -0.841,2.349 0,0.667 0.128,1.254 0.387,1.765 0.255,0.509 0.628,0.904 1.113,1.184 0.487,0.28 1.073,0.419 1.746,0.419 0.422,0 0.806,-0.062 1.158,-0.185 0.351,-0.122 0.646,-0.282 0.891,-0.474 0.242,-0.197 0.429,-0.402 0.556,-0.62 0.13,-0.22 0.192,-0.425 0.192,-0.617 0,-0.192 -0.07,-0.357 -0.214,-0.492 -0.147,-0.135 -0.322,-0.203 -0.524,-0.203 -0.137,0 -0.248,0.036 -0.338,0.104 -0.09,0.071 -0.191,0.181 -0.3,0.338 -0.198,0.3 -0.403,0.527 -0.622,0.675 -0.214,0.152 -0.487,0.227 -0.821,0.227 -0.476,0 -0.865,-0.187 -1.158,-0.561 -0.292,-0.373 -0.44,-0.888 -0.44,-1.534 0,-0.305 0.039,-0.587 0.114,-0.842 0.074,-0.255 0.182,-0.473 0.326,-0.653 0.144,-0.179 0.315,-0.316 0.516,-0.408 0.202,-0.096 0.426,-0.142 0.664,-0.142 0.326,0 0.605,0.075 0.836,0.226 0.235,0.15 0.44,0.379 0.616,0.688 0.1,0.183 0.205,0.324 0.319,0.428 0.114,0.101 0.256,0.155 0.422,0.155 0.198,0 0.363,-0.076 0.492,-0.227 C -0.066,0.331 0,0.169 0,0" /></g><g
           transform="translate(312.9023,28.0469)"
           id="g674"><path
             id="path676"
             style="fill:#ffffff;fill-opacity:1;fill-rule:nonzero;stroke:none"
             d="m 0,0 c 0,0.661 -0.146,1.176 -0.437,1.543 -0.289,0.372 -0.68,0.555 -1.17,0.555 -0.318,0 -0.597,-0.083 -0.839,-0.246 C -2.688,1.688 -2.872,1.445 -3.003,1.124 -3.133,0.803 -3.199,0.429 -3.199,0 c 0,-0.425 0.063,-0.792 0.193,-1.108 0.13,-0.32 0.314,-0.562 0.553,-0.729 0.241,-0.167 0.522,-0.253 0.846,-0.253 0.49,0 0.881,0.185 1.17,0.557 C -0.146,-1.164 0,-0.65 0,0 M 1.628,0 C 1.628,-0.481 1.552,-0.928 1.405,-1.337 1.251,-1.745 1.036,-2.095 0.749,-2.386 0.465,-2.679 0.123,-2.903 -0.271,-3.062 -0.67,-3.216 -1.114,-3.296 -1.607,-3.296 c -0.491,0 -0.934,0.08 -1.326,0.239 -0.389,0.157 -0.732,0.384 -1.016,0.677 -0.288,0.298 -0.505,0.647 -0.657,1.048 -0.144,0.402 -0.219,0.847 -0.219,1.332 0,0.491 0.077,0.941 0.223,1.349 0.152,0.409 0.369,0.757 0.65,1.046 0.282,0.288 0.62,0.51 1.019,0.668 0.403,0.156 0.844,0.234 1.326,0.234 0.49,0 0.936,-0.078 1.336,-0.238 C 0.128,2.901 0.469,2.675 0.757,2.384 1.043,2.087 1.259,1.74 1.406,1.339 1.553,0.932 1.628,0.488 1.628,0" /></g><g
           transform="translate(320.7119,27.9277)"
           id="g678"><path
             id="path680"
             style="fill:#ffffff;fill-opacity:1;fill-rule:nonzero;stroke:none"
             d="m 0,0 0,-2.154 c 0,-0.342 -0.075,-0.594 -0.23,-0.767 -0.157,-0.171 -0.358,-0.256 -0.612,-0.256 -0.245,0 -0.446,0.085 -0.594,0.256 -0.154,0.173 -0.232,0.425 -0.232,0.767 l 0,2.582 c 0,0.408 -0.014,0.726 -0.04,0.953 -0.028,0.221 -0.105,0.409 -0.227,0.552 -0.123,0.146 -0.318,0.219 -0.582,0.219 -0.531,0 -0.879,-0.181 -1.047,-0.55 C -3.731,1.241 -3.818,0.719 -3.818,0.034 l 0,-2.188 c 0,-0.336 -0.077,-0.591 -0.226,-0.765 -0.155,-0.171 -0.354,-0.258 -0.602,-0.258 -0.249,0 -0.449,0.087 -0.605,0.258 -0.157,0.174 -0.235,0.429 -0.235,0.765 l 0,4.636 c 0,0.306 0.069,0.539 0.21,0.696 0.142,0.16 0.328,0.238 0.555,0.238 0.223,0 0.408,-0.077 0.558,-0.222 0.147,-0.149 0.221,-0.354 0.221,-0.615 l 0,-0.153 c 0.283,0.334 0.584,0.582 0.903,0.737 0.322,0.162 0.676,0.241 1.07,0.241 0.407,0 0.757,-0.082 1.049,-0.243 0.293,-0.163 0.533,-0.41 0.725,-0.735 0.274,0.33 0.568,0.576 0.882,0.737 0.312,0.161 0.658,0.241 1.038,0.241 0.441,0 0.826,-0.089 1.146,-0.261 C 3.19,2.969 3.43,2.718 3.589,2.396 3.727,2.101 3.795,1.64 3.795,1.01 l 0,-3.164 c 0,-0.342 -0.076,-0.594 -0.23,-0.767 -0.154,-0.171 -0.359,-0.256 -0.612,-0.256 -0.246,0 -0.446,0.087 -0.603,0.258 -0.156,0.174 -0.235,0.429 -0.235,0.765 l 0,2.725 c 0,0.35 -0.014,0.627 -0.044,0.837 C 2.042,1.618 1.961,1.796 1.833,1.937 1.7,2.079 1.501,2.152 1.237,2.152 1.023,2.152 0.82,2.086 0.628,1.96 0.437,1.836 0.286,1.662 0.178,1.452 0.062,1.178 0,0.694 0,0" /></g><g
           transform="translate(245.272,28.4395)"
           id="g682"><path
             id="path684"
             style="fill:#ffffff;fill-opacity:1;fill-rule:nonzero;stroke:none"
             d="M 0,0 C -0.001,0.003 -0.001,0.006 -0.001,0.011 -0.001,0.006 -0.001,0.003 0,0" /></g><g
           transform="translate(245.3535,27.9209)"
           id="g686"><path
             id="path688"
             style="fill:#ffffff;fill-opacity:1;fill-rule:nonzero;stroke:none"
             d="M 0,0 0.001,0 C -0.029,0.147 -0.053,0.294 -0.072,0.438 -0.053,0.293 -0.029,0.146 0,0" /></g><g
           transform="translate(245.8901,26.417)"
           id="g690"><path
             id="path692"
             style="fill:#ffffff;fill-opacity:1;fill-rule:nonzero;stroke:none"
             d="M 0,0 C -0.003,0.006 -0.007,0.014 -0.011,0.021 -0.007,0.014 -0.003,0.006 0,0" /></g><g
           transform="translate(245.8389,26.5176)"
           id="g694"><path
             id="path696"
             style="fill:#ffffff;fill-opacity:1;fill-rule:nonzero;stroke:none"
             d="M 0,0 C -0.014,0.027 -0.027,0.056 -0.041,0.083 -0.027,0.054 -0.014,0.027 0,0" /></g><g
           transform="translate(245.5044,27.3418)"
           id="g698"><path
             id="path700"
             style="fill:#ffffff;fill-opacity:1;fill-rule:nonzero;stroke:none"
             d="M 0,0 C 0.08,-0.25 0.175,-0.493 0.286,-0.724 0.173,-0.488 0.08,-0.245 0.002,0 L 0,0 Z" /></g><g
           transform="translate(251.5449,34.6494)"
           id="g702"><path
             id="path704"
             style="fill:#ffffff;fill-opacity:1;fill-rule:nonzero;stroke:none"
             d="m 0,0 c 0.313,0 0.545,-0.025 0.81,-0.069 l 0.075,0.476 c 0,0 -0.732,0.225 -1.694,0.147 l -0.076,0.258 c 0.299,0.064 0.524,0.33 0.524,0.647 0,0.364 -0.297,0.659 -0.661,0.659 -0.364,0 -0.66,-0.295 -0.66,-0.659 0,-0.317 0.224,-0.583 0.523,-0.647 L -1.076,0.523 C -2.097,0.383 -2.91,-0.016 -2.91,-0.016 l 0.144,-0.44 c 0.618,0.206 1.154,0.331 1.64,0.384 C -0.65,-0.022 -0.292,0 0,0" /></g><g
           transform="translate(245.8779,32.2383)"
           id="g706"><path
             id="path708"
             style="fill:#ffffff;fill-opacity:1;fill-rule:nonzero;stroke:none"
             d="m 0,0 0.004,0.005 c 0.024,0.03 0.047,0.059 0.07,0.089 l -0.195,0.14 -0.305,0.223 c -0.017,-0.023 -0.497,-0.465 -0.876,-1.279 -0.016,0.025 -0.034,0.051 -0.056,0.074 -0.114,0.124 -0.272,0.187 -0.474,0.184 l -0.009,0 c -0.125,0 -0.211,0.042 -0.267,0.091 0.056,0.072 0.089,0.161 0.089,0.259 0,0.231 -0.187,0.418 -0.418,0.418 -0.23,0 -0.417,-0.187 -0.417,-0.418 0,-0.231 0.187,-0.418 0.417,-0.418 0.037,0 0.071,0.006 0.104,0.013 0.104,-0.114 0.267,-0.214 0.505,-0.209 0.123,0.001 0.213,-0.03 0.274,-0.097 0.069,-0.076 0.093,-0.185 0.099,-0.267 0,-0.001 0,-0.003 -10e-4,-0.003 -0.273,-0.743 -0.195,-1.669 -0.195,-1.669 l 0.661,-0.027 c 0.013,0.337 0.062,0.927 0.232,1.395 C -0.429,-0.591 -0.017,-0.024 0,0" /></g><g
           transform="translate(257.2949,34.0967)"
           id="g710"><path
             id="path712"
             style="fill:#ffffff;fill-opacity:1;fill-rule:nonzero;stroke:none"
             d="m 0,0 c -0.23,0 -0.418,-0.187 -0.418,-0.418 0,-0.036 0.005,-0.07 0.015,-0.103 -0.116,-0.104 -0.215,-0.267 -0.211,-0.506 0.002,-0.123 -0.03,-0.213 -0.097,-0.273 -0.053,-0.048 -0.119,-0.072 -0.185,-0.088 -0.492,0.689 -1.097,1.11 -1.097,1.11 l -0.474,-0.509 c 0.359,-0.326 0.724,-0.734 1.08,-1.244 0.246,-0.352 0.499,-0.806 0.71,-1.259 l 0.64,0.304 c 0,0 -0.292,0.722 -0.703,1.37 0.071,0.024 0.143,0.063 0.207,0.12 0.125,0.113 0.186,0.272 0.182,0.474 -0.001,0.129 0.042,0.217 0.093,0.275 0.071,-0.054 0.161,-0.089 0.258,-0.089 0.231,0 0.419,0.188 0.419,0.418 C 0.419,-0.187 0.231,0 0,0" /></g><g
           transform="translate(255.6338,28.3457)"
           id="g714"><path
             id="path716"
             style="fill:#ffffff;fill-opacity:1;fill-rule:nonzero;stroke:none"
             d="m 0,0 c -0.881,-0.429 -2.33,-0.996 -4.238,-1.262 -0.749,-0.104 -1.474,-0.142 -2.142,-0.142 -0.87,0 -1.638,0.064 -2.227,0.138 -0.673,0.085 -1.199,0.189 -1.52,0.262 0.077,-0.245 0.17,-0.488 0.283,-0.724 0.002,-0.006 0.005,-0.012 0.008,-0.017 0.014,-0.027 0.027,-0.056 0.041,-0.083 0.013,-0.028 0.027,-0.055 0.041,-0.08 0.004,-0.007 0.007,-0.015 0.01,-0.021 0.19,-0.356 0.417,-0.684 0.676,-0.967 0.9,-0.985 1.817,-1.141 1.825,-1.142 l 0.014,-0.002 0.014,-0.005 c 0.008,-0.003 0.821,-0.266 2.057,-0.266 1.216,0 2.409,0.247 3.547,0.73 0.841,0.431 1.638,1.085 2.033,1.669 0.306,0.451 0.525,0.933 0.656,1.433 C 1.147,-0.213 1.202,0.214 1.17,0.662 0.923,0.495 0.53,0.258 0,0" /></g><g
           transform="translate(248.6782,32.4893)"
           id="g718"><path
             id="path720"
             style="fill:#ffffff;fill-opacity:1;fill-rule:nonzero;stroke:none"
             d="M 0,0 C 0.973,0 1.76,-0.788 1.76,-1.761 1.76,-2.733 0.973,-3.52 0,-3.52 c -0.972,0 -1.76,0.787 -1.76,1.759 C -1.76,-0.788 -0.972,0 0,0 m 5.151,-0.043 c 0.6,0 1.09,-0.488 1.09,-1.09 0,-0.6 -0.49,-1.09 -1.09,-1.09 -0.601,0 -1.089,0.49 -1.089,1.09 0,0.602 0.488,1.09 1.089,1.09 M -2.518,-0.46 C -2.543,-0.497 -2.925,-1.038 -3.227,-1.868 -3.453,-2.49 -3.443,-3.396 -3.443,-3.405 l 0,-0.002 c 0,-0.213 0.012,-0.423 0.035,-0.632 0,-0.005 0,-0.008 0.002,-0.011 0.002,-0.027 0.007,-0.053 0.009,-0.08 0.019,-0.144 0.043,-0.291 0.074,-0.438 0.438,-0.112 3.049,-0.72 5.968,-0.314 1.829,0.254 3.218,0.795 4.062,1.204 0.701,0.34 1.151,0.648 1.325,0.774 -0.173,0.642 -0.652,1.65 -1.09,2.279 C 5.689,1.166 4.338,1.625 3.644,1.739 3.379,1.783 3.167,1.808 2.867,1.808 2.587,1.808 2.241,1.785 1.777,1.736 1.313,1.688 0.795,1.566 0.195,1.364 -0.647,1.082 -1.41,0.64 -2.009,0.084 L -2.03,0.065 C -2.119,-0.017 -2.304,-0.188 -2.518,-0.46" /></g></g></g></g></svg>