<?xml version="1.0" encoding="UTF-8" standalone="no"?>
<svg
   xmlns:dc="http://purl.org/dc/elements/1.1/"
   xmlns:cc="http://creativecommons.org/ns#"
   xmlns:rdf="http://www.w3.org/1999/02/22-rdf-syntax-ns#"
   xmlns:svg="http://www.w3.org/2000/svg"
   xmlns="http://www.w3.org/2000/svg"
   viewBox="0 0 1066.6667 1066.6667"
   height="1066.6667"
   width="1066.6667"
   xml:space="preserve"
   id="svg2"
   version="1.1"><metadata
     id="metadata8"><rdf:RDF><cc:Work
         rdf:about=""><dc:format>image/svg+xml</dc:format><dc:type
           rdf:resource="http://purl.org/dc/dcmitype/StillImage" /></cc:Work></rdf:RDF></metadata><defs
     id="defs6"><clipPath
       id="clipPath20"
       clipPathUnits="userSpaceOnUse"><path
         id="path18"
         d="M 0,800 H 800 V 0 H 0 Z" /></clipPath></defs><g
     transform="matrix(1.3333333,0,0,-1.3333333,0,1066.6667)"
     id="g10"><path
       id="path12"
       style="fill:#ffffff;fill-opacity:1;fill-rule:nonzero;stroke:none"
       d="M 0,0 H 800 V 800 H 0 Z" /><g
       id="g14"><g
         clip-path="url(#clipPath20)"
         id="g16"><g
           transform="translate(283.3916,22.2012)"
           id="g22"><path
             id="path24"
             style="fill:#abadad;fill-opacity:1;fill-rule:nonzero;stroke:none"
             d="m 0,0 c 0,-0.703 0.109,-1.301 0.328,-1.795 0.218,-0.494 0.517,-0.865 0.897,-1.115 0.38,-0.25 0.795,-0.377 1.244,-0.377 0.456,0 0.872,0.119 1.25,0.357 0.376,0.237 0.677,0.602 0.902,1.092 0.225,0.49 0.337,1.106 0.337,1.838 0,0.691 -0.112,1.285 -0.337,1.783 C 4.396,2.279 4.092,2.658 3.709,2.922 3.326,3.184 2.906,3.314 2.451,3.314 1.976,3.314 1.552,3.18 1.178,2.912 0.804,2.643 0.515,2.258 0.309,1.754 0.103,1.25 0,0.666 0,0 m 5.101,-3.809 v 0.258 C 4.752,-3.949 4.409,-4.275 4.07,-4.523 3.731,-4.775 3.364,-4.965 2.968,-5.094 2.572,-5.227 2.141,-5.289 1.672,-5.289 c -0.621,0 -1.196,0.131 -1.725,0.393 -0.528,0.263 -0.986,0.638 -1.371,1.126 -0.388,0.487 -0.68,1.059 -0.879,1.719 -0.199,0.658 -0.3,1.371 -0.3,2.137 0,1.621 0.396,2.885 1.188,3.791 C -0.624,4.781 0.418,5.234 1.71,5.234 2.457,5.234 3.087,5.105 3.6,4.85 4.113,4.594 4.613,4.197 5.101,3.668 v 3.826 c 0,0.533 0.105,0.934 0.318,1.207 C 5.63,8.973 5.933,9.109 6.326,9.109 6.718,9.109 7.02,8.984 7.232,8.734 7.445,8.482 7.551,8.115 7.551,7.627 V -3.809 c 0,-0.494 -0.114,-0.863 -0.342,-1.111 -0.228,-0.246 -0.522,-0.369 -0.883,-0.369 -0.355,0 -0.648,0.127 -0.879,0.383 -0.231,0.258 -0.346,0.623 -0.346,1.097" /></g><g
           transform="translate(294.8545,23.0176)"
           id="g26"><path
             id="path28"
             style="fill:#abadad;fill-opacity:1;fill-rule:nonzero;stroke:none"
             d="M 0,0 H 4.702 C 4.639,0.887 4.398,1.551 3.984,1.99 3.569,2.432 3.024,2.65 2.346,2.65 1.7,2.65 1.169,2.428 0.755,1.982 0.34,1.535 0.089,0.875 0,0 M 5.071,-1.473 H 0 c 0.006,-0.588 0.125,-1.107 0.356,-1.556 0.231,-0.45 0.539,-0.789 0.921,-1.016 0.384,-0.228 0.806,-0.342 1.268,-0.342 0.31,0 0.594,0.035 0.851,0.108 0.256,0.074 0.504,0.187 0.746,0.343 0.24,0.155 0.462,0.321 0.664,0.498 0.202,0.178 0.465,0.42 0.788,0.723 0.133,0.113 0.323,0.172 0.571,0.172 0.266,0 0.481,-0.074 0.645,-0.221 0.164,-0.146 0.248,-0.349 0.248,-0.617 0,-0.234 -0.093,-0.506 -0.276,-0.82 C 6.597,-4.516 6.32,-4.816 5.951,-5.104 5.579,-5.393 5.115,-5.631 4.554,-5.82 3.994,-6.012 3.35,-6.105 2.621,-6.105 c -1.664,0 -2.96,0.474 -3.884,1.423 -0.925,0.95 -1.386,2.239 -1.386,3.866 0,0.767 0.113,1.478 0.341,2.132 0.228,0.657 0.561,1.217 0.997,1.686 0.437,0.469 0.975,0.828 1.615,1.078 0.639,0.25 1.349,0.375 2.128,0.375 1.012,0 1.881,-0.213 2.606,-0.641 C 5.764,3.387 6.307,2.834 6.667,2.158 7.027,1.48 7.209,0.789 7.209,0.088 7.209,-0.566 7.022,-0.988 6.649,-1.182 6.276,-1.375 5.75,-1.473 5.071,-1.473" /></g><g
           transform="translate(311.7407,20.3027)"
           id="g30"><path
             id="path32"
             style="fill:#abadad;fill-opacity:1;fill-rule:nonzero;stroke:none"
             d="m 0,0 c 0,-0.715 -0.173,-1.328 -0.522,-1.838 -0.348,-0.51 -0.863,-0.896 -1.544,-1.16 -0.68,-0.262 -1.508,-0.393 -2.483,-0.393 -0.931,0 -1.729,0.143 -2.394,0.428 -0.664,0.283 -1.156,0.641 -1.472,1.067 -0.316,0.429 -0.475,0.857 -0.475,1.289 0,0.285 0.101,0.527 0.305,0.73 0.202,0.201 0.459,0.303 0.769,0.303 0.272,0 0.48,-0.067 0.626,-0.199 0.146,-0.133 0.286,-0.321 0.418,-0.559 0.266,-0.465 0.585,-0.807 0.955,-1.037 0.37,-0.227 0.875,-0.342 1.515,-0.342 0.519,0 0.945,0.117 1.278,0.348 0.332,0.232 0.498,0.496 0.498,0.793 0,0.457 -0.172,0.787 -0.518,0.996 -0.345,0.209 -0.914,0.41 -1.705,0.599 -0.893,0.221 -1.619,0.455 -2.18,0.7 -0.56,0.242 -1.008,0.564 -1.343,0.963 -0.336,0.398 -0.504,0.89 -0.504,1.472 0,0.518 0.155,1.01 0.465,1.473 0.311,0.461 0.769,0.83 1.374,1.105 0.604,0.276 1.333,0.414 2.188,0.414 0.671,0 1.275,-0.07 1.809,-0.211 0.536,-0.136 0.983,-0.326 1.34,-0.56 0.358,-0.233 0.63,-0.492 0.816,-0.777 0.187,-0.286 0.28,-0.563 0.28,-0.836 0,-0.297 -0.1,-0.541 -0.298,-0.733 C -1.001,3.848 -1.285,3.75 -1.653,3.75 c -0.266,0 -0.492,0.076 -0.679,0.23 -0.186,0.151 -0.4,0.379 -0.641,0.682 C -3.169,4.916 -3.399,5.119 -3.666,5.271 -3.932,5.424 -4.292,5.498 -4.749,5.498 -5.218,5.498 -5.606,5.4 -5.917,5.199 -6.227,5 -6.382,4.752 -6.382,4.455 c 0,-0.273 0.113,-0.496 0.341,-0.67 0.229,-0.176 0.535,-0.32 0.922,-0.433 0.387,-0.114 0.917,-0.252 1.596,-0.416 0.803,-0.198 1.46,-0.432 1.97,-0.704 0.51,-0.271 0.896,-0.593 1.16,-0.964 C -0.131,0.896 0,0.475 0,0" /></g><g
           transform="translate(315.6724,25.9824)"
           id="g34"><path
             id="path36"
             style="fill:#abadad;fill-opacity:1;fill-rule:nonzero;stroke:none"
             d="m 0,0 v -7.494 c 0,-0.52 -0.124,-0.912 -0.371,-1.178 -0.247,-0.266 -0.56,-0.398 -0.94,-0.398 -0.38,0 -0.689,0.134 -0.926,0.408 -0.238,0.271 -0.356,0.662 -0.356,1.168 v 7.418 c 0,0.512 0.118,0.898 0.356,1.158 0.237,0.26 0.546,0.391 0.926,0.391 0.38,0 0.693,-0.131 0.94,-0.391 C -0.124,0.822 0,0.461 0,0 m -1.283,2.678 c -0.361,0 -0.669,0.111 -0.925,0.332 -0.257,0.22 -0.385,0.535 -0.385,0.941 0,0.367 0.131,0.668 0.394,0.906 0.262,0.239 0.569,0.358 0.916,0.358 0.336,0 0.634,-0.108 0.893,-0.324 C -0.13,4.676 0,4.363 0,3.951 0,3.551 -0.127,3.24 -0.381,3.016 -0.634,2.791 -0.935,2.678 -1.283,2.678" /></g><g
           transform="translate(319.5181,22.2676)"
           id="g38"><path
             id="path40"
             style="fill:#abadad;fill-opacity:1;fill-rule:nonzero;stroke:none"
             d="m 0,0 c 0,-1.051 0.229,-1.846 0.688,-2.383 0.459,-0.539 1.053,-0.808 1.781,-0.808 0.43,0 0.837,0.117 1.22,0.347 0.384,0.231 0.695,0.58 0.936,1.045 0.24,0.465 0.361,1.029 0.361,1.695 0,1.057 -0.232,1.881 -0.698,2.469 C 3.822,2.953 3.21,3.248 2.45,3.248 1.708,3.248 1.115,2.967 0.669,2.402 0.223,1.84 0,1.039 0,0 M 7.513,3.287 V -4.244 C 7.513,-5.105 7.42,-5.848 7.236,-6.469 7.054,-7.088 6.759,-7.602 6.354,-8.006 5.948,-8.41 5.418,-8.713 4.763,-8.908 4.108,-9.105 3.292,-9.203 2.317,-9.203 c -0.893,0 -1.691,0.125 -2.394,0.375 -0.702,0.252 -1.243,0.574 -1.624,0.969 -0.379,0.396 -0.57,0.802 -0.57,1.22 0,0.317 0.108,0.577 0.324,0.774 0.215,0.201 0.475,0.301 0.778,0.301 0.38,0 0.712,-0.168 0.998,-0.504 0.138,-0.17 0.282,-0.344 0.431,-0.518 0.149,-0.176 0.315,-0.324 0.494,-0.447 0.181,-0.123 0.398,-0.215 0.651,-0.276 0.253,-0.058 0.545,-0.089 0.874,-0.089 0.671,0 1.192,0.093 1.563,0.281 0.37,0.185 0.63,0.447 0.779,0.783 0.149,0.334 0.235,0.693 0.261,1.078 0.025,0.383 0.044,0.998 0.056,1.848 C 4.539,-3.967 4.08,-4.391 3.556,-4.682 3.034,-4.973 2.412,-5.119 1.69,-5.119 c -0.867,0 -1.625,0.223 -2.275,0.666 -0.648,0.443 -1.147,1.062 -1.495,1.861 -0.349,0.799 -0.522,1.719 -0.522,2.764 0,0.777 0.105,1.482 0.317,2.107 0.213,0.629 0.515,1.157 0.908,1.588 0.392,0.43 0.845,0.754 1.357,0.973 0.513,0.219 1.077,0.328 1.691,0.328 0.734,0 1.371,-0.143 1.91,-0.422 0.537,-0.283 1.038,-0.725 1.5,-1.326 v 0.351 c 0,0.45 0.11,0.797 0.332,1.045 0.222,0.246 0.507,0.371 0.856,0.371 0.5,0 0.832,-0.164 0.996,-0.49 C 7.43,4.371 7.513,3.9 7.513,3.287" /></g><g
           transform="translate(331.1519,26.0195)"
           id="g42"><path
             id="path44"
             style="fill:#abadad;fill-opacity:1;fill-rule:nonzero;stroke:none"
             d="M 0,0 V -0.312 C 0.455,0.289 0.954,0.73 1.496,1.012 2.037,1.293 2.659,1.436 3.362,1.436 4.046,1.436 4.657,1.285 5.195,0.988 5.733,0.689 6.136,0.27 6.401,-0.273 6.573,-0.592 6.683,-0.934 6.733,-1.301 6.784,-1.668 6.811,-2.137 6.811,-2.707 v -4.824 c 0,-0.52 -0.12,-0.912 -0.357,-1.178 -0.238,-0.266 -0.546,-0.398 -0.926,-0.398 -0.387,0 -0.7,0.134 -0.941,0.408 -0.241,0.271 -0.36,0.662 -0.36,1.168 v 4.322 c 0,0.854 -0.12,1.508 -0.357,1.961 -0.238,0.451 -0.71,0.68 -1.42,0.68 -0.462,0 -0.883,-0.139 -1.263,-0.414 C 0.807,-1.258 0.528,-1.637 0.351,-2.117 0.225,-2.504 0.161,-3.225 0.161,-4.283 v -3.248 c 0,-0.526 -0.122,-0.92 -0.365,-1.184 -0.244,-0.262 -0.559,-0.392 -0.945,-0.392 -0.374,0 -0.681,0.134 -0.922,0.408 -0.24,0.271 -0.361,0.662 -0.361,1.168 v 7.494 c 0,0.494 0.108,0.863 0.323,1.107 0.215,0.242 0.51,0.366 0.883,0.366 0.228,0 0.434,-0.055 0.619,-0.163 0.182,-0.109 0.33,-0.269 0.441,-0.484 C -0.055,0.574 0,0.311 0,0" /></g><g
           transform="translate(341.855,23.0176)"
           id="g46"><path
             id="path48"
             style="fill:#abadad;fill-opacity:1;fill-rule:nonzero;stroke:none"
             d="M 0,0 H 4.701 C 4.638,0.887 4.399,1.551 3.984,1.99 3.569,2.432 3.023,2.65 2.346,2.65 1.7,2.65 1.169,2.428 0.754,1.982 0.339,1.535 0.089,0.875 0,0 M 5.071,-1.473 H 0 c 0.007,-0.588 0.125,-1.107 0.356,-1.556 0.231,-0.45 0.538,-0.789 0.922,-1.016 0.382,-0.228 0.805,-0.342 1.267,-0.342 0.31,0 0.594,0.035 0.851,0.108 0.255,0.074 0.504,0.187 0.746,0.343 0.239,0.155 0.461,0.321 0.665,0.498 0.201,0.178 0.464,0.42 0.787,0.723 0.133,0.113 0.323,0.172 0.57,0.172 0.266,0 0.482,-0.074 0.646,-0.221 0.165,-0.146 0.247,-0.349 0.247,-0.617 0,-0.234 -0.092,-0.506 -0.276,-0.82 C 6.597,-4.516 6.32,-4.816 5.95,-5.104 5.579,-5.393 5.115,-5.631 4.554,-5.82 3.994,-6.012 3.349,-6.105 2.621,-6.105 c -1.665,0 -2.96,0.474 -3.885,1.423 -0.924,0.95 -1.386,2.239 -1.386,3.866 0,0.767 0.114,1.478 0.341,2.132 0.228,0.657 0.561,1.217 0.998,1.686 0.437,0.469 0.976,0.828 1.615,1.078 0.639,0.25 1.349,0.375 2.128,0.375 1.012,0 1.88,-0.213 2.606,-0.641 C 5.763,3.387 6.306,2.834 6.667,2.158 7.028,1.48 7.209,0.789 7.209,0.088 7.209,-0.566 7.022,-0.988 6.648,-1.182 6.275,-1.375 5.75,-1.473 5.071,-1.473" /></g><g
           transform="translate(352.3965,22.2012)"
           id="g50"><path
             id="path52"
             style="fill:#abadad;fill-opacity:1;fill-rule:nonzero;stroke:none"
             d="M 0,0 C 0,-0.703 0.108,-1.301 0.327,-1.795 0.545,-2.289 0.845,-2.66 1.226,-2.91 1.605,-3.16 2.02,-3.287 2.469,-3.287 c 0.456,0 0.873,0.119 1.249,0.357 0.377,0.237 0.678,0.602 0.902,1.092 C 4.845,-1.348 4.958,-0.732 4.958,0 4.958,0.691 4.845,1.285 4.62,1.783 4.396,2.279 4.092,2.658 3.708,2.922 3.325,3.184 2.906,3.314 2.45,3.314 1.976,3.314 1.551,3.18 1.177,2.912 0.804,2.643 0.514,2.258 0.308,1.754 0.102,1.25 0,0.666 0,0 m 5.1,-3.809 v 0.258 C 4.751,-3.949 4.408,-4.275 4.069,-4.523 3.73,-4.775 3.364,-4.965 2.968,-5.094 2.573,-5.227 2.14,-5.289 1.672,-5.289 c -0.622,0 -1.196,0.131 -1.724,0.393 -0.529,0.263 -0.987,0.638 -1.373,1.126 -0.387,0.487 -0.679,1.059 -0.878,1.719 -0.2,0.658 -0.3,1.371 -0.3,2.137 0,1.621 0.396,2.885 1.187,3.791 0.792,0.904 1.834,1.357 3.125,1.357 C 2.457,5.234 3.087,5.105 3.6,4.85 4.112,4.594 4.613,4.197 5.1,3.668 V 7.494 C 5.1,8.027 5.206,8.428 5.418,8.701 5.63,8.973 5.933,9.109 6.326,9.109 6.718,9.109 7.02,8.984 7.232,8.734 7.444,8.482 7.551,8.115 7.551,7.627 V -3.809 C 7.551,-4.303 7.437,-4.672 7.209,-4.92 6.981,-5.166 6.687,-5.289 6.326,-5.289 5.971,-5.289 5.678,-5.162 5.447,-4.906 5.215,-4.648 5.1,-4.283 5.1,-3.809" /></g><g
           transform="translate(368.2178,22.125)"
           id="g54"><path
             id="path56"
             style="fill:#abadad;fill-opacity:1;fill-rule:nonzero;stroke:none"
             d="m 0,0 c 0,-1.031 0.236,-1.824 0.708,-2.377 0.471,-0.555 1.09,-0.834 1.856,-0.834 0.652,0 1.215,0.283 1.686,0.852 0.472,0.566 0.708,1.379 0.708,2.435 C 4.958,0.76 4.86,1.35 4.664,1.844 4.467,2.338 4.189,2.719 3.828,2.988 3.467,3.256 3.045,3.391 2.564,3.391 2.071,3.391 1.63,3.256 1.244,2.988 0.858,2.719 0.554,2.33 0.332,1.82 0.111,1.311 0,0.703 0,0 M -0.124,7.703 V 3.744 c 0.488,0.506 0.985,0.895 1.492,1.162 0.506,0.27 1.133,0.405 1.881,0.405 0.861,0 1.615,-0.206 2.265,-0.612 0.648,-0.41 1.152,-1.002 1.51,-1.777 0.357,-0.776 0.537,-1.695 0.537,-2.76 0,-0.785 -0.1,-1.504 -0.299,-2.16 C 7.062,-2.654 6.772,-3.223 6.393,-3.703 6.012,-4.184 5.552,-4.557 5.011,-4.82 4.469,-5.082 3.872,-5.213 3.22,-5.213 c -0.399,0 -0.775,0.047 -1.125,0.143 -0.352,0.093 -0.652,0.218 -0.898,0.375 -0.246,0.154 -0.457,0.314 -0.632,0.478 -0.174,0.164 -0.404,0.412 -0.689,0.742 v -0.257 c 0,-0.487 -0.117,-0.856 -0.351,-1.108 -0.233,-0.25 -0.531,-0.373 -0.893,-0.373 -0.367,0 -0.66,0.123 -0.878,0.373 -0.219,0.252 -0.328,0.621 -0.328,1.108 V 7.59 c 0,0.525 0.106,0.924 0.318,1.191 0.212,0.27 0.509,0.405 0.888,0.405 0.4,0 0.706,-0.129 0.922,-0.385 0.215,-0.258 0.322,-0.621 0.322,-1.098" /></g><g
           transform="translate(379.1401,16.5879)"
           id="g58"><path
             id="path60"
             style="fill:#abadad;fill-opacity:1;fill-rule:nonzero;stroke:none"
             d="m 0,0 0.237,0.58 -3.191,8.035 c -0.196,0.461 -0.295,0.799 -0.295,1.008 0,0.221 0.058,0.426 0.171,0.615 0.115,0.192 0.271,0.344 0.47,0.457 0.2,0.116 0.407,0.172 0.623,0.172 0.373,0 0.654,-0.119 0.845,-0.357 0.191,-0.237 0.358,-0.576 0.503,-1.02 l 2.195,-6.383 2.08,5.936 c 0.164,0.48 0.313,0.857 0.446,1.131 0.133,0.271 0.273,0.455 0.422,0.549 0.149,0.095 0.36,0.144 0.632,0.144 0.197,0 0.385,-0.053 0.566,-0.158 0.18,-0.104 0.319,-0.244 0.417,-0.422 C 6.219,10.109 6.269,9.924 6.269,9.727 6.243,9.607 6.203,9.436 6.145,9.213 6.087,8.992 6.019,8.766 5.937,8.539 L 2.555,-0.312 C 2.263,-1.092 1.979,-1.701 1.7,-2.145 1.421,-2.588 1.053,-2.93 0.593,-3.166 0.134,-3.404 -0.485,-3.523 -1.264,-3.523 c -0.759,0 -1.329,0.082 -1.708,0.246 -0.382,0.166 -0.57,0.466 -0.57,0.904 0,0.297 0.089,0.527 0.271,0.687 0.179,0.163 0.447,0.245 0.801,0.245 0.139,0 0.276,-0.02 0.409,-0.059 0.165,-0.037 0.307,-0.057 0.427,-0.057 0.297,0 0.532,0.043 0.703,0.133 0.171,0.088 0.324,0.242 0.461,0.461 C -0.334,-0.746 -0.177,-0.424 0,0" /></g><g
           transform="translate(416.7031,27.2305)"
           id="g62"><path
             id="path64"
             style="fill:#abadad;fill-opacity:1;fill-rule:nonzero;stroke:none"
             d="m 0,0 h 0.617 v 0.777 c 0,0.815 0.1,1.457 0.307,1.938 C 1.129,3.193 1.48,3.541 1.971,3.76 2.461,3.977 3.135,4.086 3.988,4.086 5.508,4.086 6.26,3.719 6.26,2.973 6.26,2.734 6.182,2.527 6.02,2.357 5.865,2.188 5.678,2.102 5.463,2.102 5.363,2.102 5.184,2.119 4.936,2.16 4.697,2.193 4.482,2.217 4.312,2.217 3.844,2.217 3.545,2.076 3.406,1.801 3.279,1.525 3.211,1.133 3.211,0.617 V 0 h 0.633 c 0.992,0 1.482,-0.297 1.482,-0.896 0,-0.418 -0.127,-0.69 -0.392,-0.805 -0.262,-0.113 -0.625,-0.17 -1.09,-0.17 H 3.211 v -6.871 c 0,-0.512 -0.119,-0.901 -0.369,-1.168 -0.24,-0.274 -0.553,-0.406 -0.942,-0.406 -0.367,0 -0.671,0.132 -0.918,0.406 -0.244,0.267 -0.365,0.656 -0.365,1.168 v 6.871 h -0.713 c -0.388,0 -0.683,0.084 -0.894,0.262 -0.209,0.17 -0.315,0.398 -0.315,0.677 C -1.305,-0.309 -0.869,0 0,0" /></g><g
           transform="translate(425.1914,20.6563)"
           id="g66"><path
             id="path68"
             style="fill:#abadad;fill-opacity:1;fill-rule:nonzero;stroke:none"
             d="m 0,0 v -2.168 c 0,-0.523 -0.133,-0.92 -0.373,-1.18 -0.248,-0.265 -0.559,-0.394 -0.938,-0.394 -0.382,0 -0.687,0.131 -0.927,0.4 -0.237,0.264 -0.36,0.656 -0.36,1.174 v 7.223 c 0,1.166 0.42,1.748 1.26,1.748 0.434,0 0.744,-0.135 0.934,-0.408 0.189,-0.274 0.295,-0.674 0.318,-1.208 0.307,0.534 0.623,0.934 0.947,1.208 0.332,0.273 0.764,0.408 1.311,0.408 0.549,0 1.072,-0.135 1.584,-0.408 C 4.271,6.121 4.527,5.758 4.527,5.311 4.527,4.996 4.418,4.73 4.201,4.529 3.982,4.32 3.748,4.217 3.496,4.217 3.396,4.217 3.164,4.279 2.803,4.396 2.438,4.51 2.115,4.57 1.84,4.57 1.461,4.57 1.148,4.467 0.908,4.271 0.666,4.066 0.479,3.775 0.344,3.385 0.215,2.99 0.125,2.52 0.072,1.98 0.023,1.439 0,0.777 0,0" /></g><g
           transform="translate(432.0391,23.0234)"
           id="g70"><path
             id="path72"
             style="fill:#abadad;fill-opacity:1;fill-rule:nonzero;stroke:none"
             d="M 0,0 H 4.701 C 4.639,0.885 4.402,1.549 3.986,1.986 3.568,2.428 3.027,2.646 2.346,2.646 1.701,2.646 1.17,2.426 0.754,1.977 0.34,1.531 0.086,0.873 0,0 M 5.074,-1.475 H 0 C 0.008,-2.063 0.123,-2.586 0.354,-3.033 0.59,-3.48 0.895,-3.82 1.279,-4.051 c 0.385,-0.226 0.803,-0.34 1.268,-0.34 0.31,0 0.594,0.034 0.849,0.112 0.254,0.07 0.506,0.185 0.747,0.341 0.242,0.153 0.459,0.319 0.664,0.5 0.201,0.174 0.466,0.417 0.789,0.719 0.134,0.114 0.324,0.174 0.568,0.174 0.27,0 0.482,-0.074 0.65,-0.223 0.166,-0.146 0.243,-0.349 0.243,-0.617 0,-0.234 -0.088,-0.508 -0.268,-0.818 C 6.602,-4.521 6.326,-4.82 5.953,-5.109 5.58,-5.395 5.115,-5.637 4.557,-5.824 3.996,-6.014 3.35,-6.109 2.625,-6.109 c -1.672,0 -2.965,0.472 -3.887,1.422 -0.924,0.951 -1.392,2.242 -1.392,3.867 0,0.767 0.117,1.478 0.347,2.134 0.225,0.659 0.559,1.217 1,1.688 0.436,0.471 0.969,0.828 1.612,1.078 0.638,0.25 1.347,0.375 2.129,0.375 1.009,0 1.88,-0.215 2.605,-0.646 C 5.764,3.387 6.312,2.832 6.668,2.154 7.029,1.475 7.211,0.787 7.211,0.08 7.211,-0.568 7.021,-0.99 6.648,-1.186 6.275,-1.379 5.752,-1.475 5.074,-1.475" /></g><g
           transform="translate(442.8262,23.0234)"
           id="g74"><path
             id="path76"
             style="fill:#abadad;fill-opacity:1;fill-rule:nonzero;stroke:none"
             d="M 0,0 H 4.701 C 4.639,0.885 4.398,1.549 3.986,1.986 3.566,2.428 3.025,2.646 2.344,2.646 1.699,2.646 1.168,2.426 0.752,1.977 0.338,1.531 0.084,0.873 0,0 M 5.074,-1.475 H 0 c 0.006,-0.588 0.125,-1.111 0.355,-1.558 0.231,-0.447 0.54,-0.787 0.92,-1.018 0.383,-0.226 0.807,-0.34 1.272,-0.34 0.308,0 0.594,0.034 0.846,0.112 0.257,0.07 0.505,0.185 0.75,0.341 0.242,0.153 0.459,0.319 0.664,0.5 0.199,0.174 0.463,0.417 0.787,0.719 0.135,0.114 0.326,0.174 0.568,0.174 0.27,0 0.484,-0.074 0.65,-0.223 0.167,-0.146 0.241,-0.349 0.241,-0.617 0,-0.234 -0.086,-0.508 -0.274,-0.818 C 6.604,-4.521 6.324,-4.82 5.949,-5.109 5.58,-5.395 5.109,-5.637 4.555,-5.824 3.996,-6.014 3.346,-6.109 2.619,-6.109 c -1.666,0 -2.959,0.472 -3.887,1.422 -0.923,0.951 -1.388,2.242 -1.388,3.867 0,0.767 0.117,1.478 0.347,2.134 0.227,0.659 0.559,1.217 0.997,1.688 C -0.877,3.473 -0.34,3.83 0.303,4.08 0.939,4.33 1.652,4.455 2.432,4.455 3.439,4.455 4.309,4.24 5.045,3.809 5.764,3.387 6.311,2.832 6.666,2.154 7.025,1.475 7.211,0.787 7.211,0.08 7.211,-0.568 7.02,-0.99 6.648,-1.186 6.273,-1.379 5.75,-1.475 5.074,-1.475" /></g><g
           transform="translate(458.6641,22.2324)"
           id="g78"><path
             id="path80"
             style="fill:#abadad;fill-opacity:1;fill-rule:nonzero;stroke:none"
             d="m 0,0 c 0,0.686 -0.107,1.273 -0.314,1.764 -0.209,0.492 -0.5,0.867 -0.868,1.127 -0.367,0.263 -0.781,0.396 -1.232,0.396 -0.713,0 -1.318,-0.283 -1.809,-0.844 -0.492,-0.566 -0.738,-1.394 -0.738,-2.492 0,-1.027 0.244,-1.834 0.734,-2.406 0.489,-0.574 1.086,-0.859 1.813,-0.859 0.43,0 0.83,0.126 1.197,0.373 0.371,0.252 0.666,0.627 0.885,1.127 C -0.111,-1.312 0,-0.707 0,0 M -5.084,3.768 V 3.457 c 0.486,0.602 0.994,1.043 1.523,1.324 0.52,0.285 1.12,0.428 1.784,0.428 C -0.982,5.209 -0.242,5 0.43,4.592 1.1,4.178 1.627,3.576 2.018,2.785 2.408,1.99 2.604,1.055 2.604,-0.029 2.604,-0.824 2.492,-1.561 2.268,-2.23 2.045,-2.898 1.73,-3.457 1.34,-3.91 0.945,-4.359 0.484,-4.711 -0.051,-4.955 c -0.541,-0.242 -1.111,-0.363 -1.726,-0.363 -0.739,0 -1.366,0.148 -1.866,0.447 -0.503,0.291 -0.982,0.732 -1.441,1.305 v -3.893 c 0,-1.135 -0.416,-1.709 -1.244,-1.709 -0.49,0 -0.809,0.147 -0.973,0.439 -0.15,0.299 -0.232,0.723 -0.232,1.292 V 3.756 c 0,0.494 0.105,0.859 0.32,1.107 0.215,0.239 0.512,0.364 0.885,0.364 0.369,0 0.666,-0.125 0.894,-0.373 0.237,-0.254 0.35,-0.612 0.35,-1.086" /></g><g
           transform="translate(465.1641,25.9883)"
           id="g82"><path
             id="path84"
             style="fill:#abadad;fill-opacity:1;fill-rule:nonzero;stroke:none"
             d="m 0,0 v -7.502 c 0,-0.516 -0.125,-0.908 -0.371,-1.172 -0.25,-0.269 -0.561,-0.4 -0.941,-0.4 -0.381,0 -0.684,0.133 -0.928,0.406 -0.233,0.275 -0.356,0.664 -0.356,1.166 v 7.428 c 0,0.51 0.123,0.894 0.356,1.154 0.244,0.264 0.547,0.391 0.928,0.391 0.38,0 0.691,-0.127 0.941,-0.391 C -0.125,0.82 0,0.457 0,0 m -1.285,2.678 c -0.361,0 -0.668,0.115 -0.922,0.336 -0.26,0.222 -0.389,0.531 -0.389,0.935 0,0.369 0.131,0.67 0.397,0.91 0.262,0.235 0.566,0.356 0.914,0.356 0.34,0 0.637,-0.106 0.894,-0.319 C -0.131,4.678 0,4.361 0,3.949 0,3.551 -0.127,3.238 -0.379,3.014 -0.633,2.793 -0.934,2.678 -1.285,2.678" /></g><g
           transform="translate(473.5234,18.0977)"
           id="g86"><path
             id="path88"
             style="fill:#abadad;fill-opacity:1;fill-rule:nonzero;stroke:none"
             d="M 0,0 -2.285,3.766 -3.693,2.438 V 0.371 c 0,-0.498 -0.133,-0.881 -0.397,-1.148 -0.256,-0.274 -0.566,-0.407 -0.906,-0.407 -0.399,0 -0.715,0.131 -0.94,0.401 -0.226,0.263 -0.343,0.656 -0.343,1.174 v 11.062 c 0,0.574 0.113,1.012 0.33,1.315 0.222,0.304 0.545,0.451 0.953,0.451 0.4,0 0.713,-0.137 0.949,-0.41 0.234,-0.272 0.354,-0.674 0.354,-1.204 V 5.312 l 2.916,3.063 C -0.414,8.752 -0.145,9.016 0.051,9.154 0.24,9.293 0.469,9.361 0.74,9.361 1.066,9.361 1.334,9.258 1.555,9.053 1.766,8.848 1.875,8.588 1.875,8.279 1.875,7.9 1.521,7.391 0.82,6.758 L -0.557,5.496 2.104,1.312 C 2.297,1 2.441,0.77 2.527,0.607 2.611,0.447 2.656,0.287 2.656,0.145 2.656,-0.268 2.543,-0.59 2.316,-0.83 2.092,-1.066 1.793,-1.184 1.43,-1.184 c -0.317,0 -0.563,0.08 -0.733,0.256 C 0.527,-0.756 0.289,-0.445 0,0" /></g><g
           transform="translate(479.1582,16.9141)"
           id="g90"><path
             id="path92"
             style="fill:#abadad;fill-opacity:1;fill-rule:nonzero;stroke:none"
             d="m 0,0 c -0.391,0 -0.727,0.125 -1.014,0.381 -0.283,0.248 -0.427,0.605 -0.427,1.064 0,0.385 0.136,0.719 0.41,0.994 0.273,0.28 0.607,0.42 1.008,0.42 0.396,0 0.734,-0.14 1.021,-0.412 C 1.277,2.172 1.42,1.834 1.42,1.445 1.42,0.992 1.277,0.637 0.998,0.385 0.711,0.125 0.379,0 0,0" /></g><g
           transform="translate(492.0566,20.123)"
           id="g94"><path
             id="path96"
             style="fill:#abadad;fill-opacity:1;fill-rule:nonzero;stroke:none"
             d="m 0,0 c 0,-0.32 -0.096,-0.668 -0.291,-1.033 -0.191,-0.371 -0.488,-0.719 -0.885,-1.051 -0.394,-0.332 -0.892,-0.602 -1.496,-0.803 -0.599,-0.203 -1.279,-0.306 -2.029,-0.306 -1.608,0 -2.86,0.468 -3.758,1.4 -0.896,0.936 -1.346,2.189 -1.346,3.76 0,1.068 0.203,2.006 0.619,2.824 0.407,0.814 1.004,1.447 1.782,1.895 0.779,0.447 1.715,0.669 2.793,0.669 0.673,0 1.289,-0.097 1.853,-0.294 0.561,-0.196 1.031,-0.452 1.424,-0.76 0.387,-0.315 0.686,-0.643 0.891,-0.992 0.207,-0.352 0.306,-0.68 0.306,-0.987 0,-0.308 -0.113,-0.572 -0.342,-0.787 -0.236,-0.215 -0.515,-0.324 -0.839,-0.324 -0.219,0 -0.397,0.057 -0.541,0.166 -0.143,0.111 -0.305,0.289 -0.479,0.541 -0.316,0.478 -0.646,0.842 -0.996,1.08 -0.342,0.242 -0.779,0.361 -1.312,0.361 -0.762,0 -1.385,-0.297 -1.854,-0.896 -0.469,-0.596 -0.703,-1.42 -0.703,-2.455 0,-0.488 0.062,-0.94 0.182,-1.348 0.117,-0.406 0.291,-0.756 0.521,-1.043 0.23,-0.287 0.504,-0.506 0.826,-0.654 0.324,-0.154 0.68,-0.227 1.063,-0.227 0.521,0 0.966,0.121 1.338,0.362 0.375,0.24 0.701,0.607 0.986,1.101 0.158,0.291 0.326,0.518 0.508,0.684 0.183,0.164 0.41,0.25 0.675,0.25 0.317,0 0.581,-0.123 0.788,-0.363 C -0.105,0.529 0,0.271 0,0" /></g><g
           transform="translate(500.6445,22.1836)"
           id="g98"><path
             id="path100"
             style="fill:#abadad;fill-opacity:1;fill-rule:nonzero;stroke:none"
             d="M 0,0 C 0,1.059 -0.234,1.881 -0.699,2.469 -1.162,3.064 -1.789,3.357 -2.572,3.357 -3.08,3.357 -3.527,3.225 -3.916,2.963 -4.303,2.701 -4.596,2.314 -4.805,1.799 -5.014,1.285 -5.121,0.686 -5.121,0 c 0,-0.678 0.103,-1.268 0.31,-1.773 0.207,-0.51 0.502,-0.897 0.885,-1.166 0.387,-0.266 0.836,-0.405 1.354,-0.405 0.783,0 1.41,0.297 1.873,0.893 C -0.234,-1.861 0,-1.041 0,0 M 2.604,0 C 2.604,-0.77 2.48,-1.484 2.248,-2.139 2,-2.791 1.656,-3.352 1.197,-3.816 0.742,-4.285 0.195,-4.645 -0.434,-4.896 c -0.64,-0.249 -1.349,-0.375 -2.138,-0.375 -0.785,0 -1.494,0.126 -2.121,0.382 -0.623,0.248 -1.172,0.614 -1.627,1.082 -0.461,0.477 -0.809,1.034 -1.051,1.676 -0.231,0.645 -0.352,1.356 -0.352,2.131 0,0.787 0.125,1.506 0.36,2.158 0.242,0.655 0.588,1.213 1.039,1.674 0.451,0.461 0.992,0.816 1.631,1.07 0.642,0.248 1.349,0.373 2.121,0.373 0.783,0 1.498,-0.125 2.138,-0.38 C 0.203,4.643 0.748,4.279 1.209,3.814 1.668,3.34 2.012,2.785 2.25,2.143 2.482,1.492 2.604,0.783 2.604,0" /></g><g
           transform="translate(513.1387,21.9941)"
           id="g102"><path
             id="path104"
             style="fill:#abadad;fill-opacity:1;fill-rule:nonzero;stroke:none"
             d="m 0,0 v -3.447 c 0,-0.547 -0.119,-0.951 -0.369,-1.227 -0.25,-0.273 -0.57,-0.408 -0.977,-0.408 -0.392,0 -0.715,0.135 -0.951,0.408 -0.248,0.276 -0.373,0.68 -0.373,1.227 v 4.131 c 0,0.654 -0.019,1.162 -0.062,1.525 -0.047,0.354 -0.168,0.654 -0.364,0.883 -0.195,0.234 -0.508,0.351 -0.929,0.351 -0.852,0 -1.409,-0.291 -1.678,-0.88 C -5.971,1.986 -6.109,1.148 -6.109,0.055 v -3.502 c 0,-0.537 -0.121,-0.946 -0.362,-1.223 -0.248,-0.273 -0.566,-0.412 -0.965,-0.412 -0.394,0 -0.716,0.139 -0.966,0.412 -0.252,0.277 -0.375,0.686 -0.375,1.223 v 7.42 c 0,0.488 0.111,0.859 0.334,1.111 0.23,0.256 0.527,0.381 0.89,0.381 0.356,0 0.651,-0.123 0.891,-0.356 0.236,-0.238 0.355,-0.566 0.355,-0.984 V 3.881 c 0.453,0.535 0.934,0.931 1.444,1.18 0.517,0.259 1.082,0.386 1.713,0.386 0.652,0 1.211,-0.131 1.677,-0.39 0.471,-0.26 0.854,-0.655 1.161,-1.176 0.439,0.527 0.91,0.922 1.41,1.18 0.5,0.257 1.052,0.386 1.662,0.386 0.707,0 1.322,-0.142 1.834,-0.42 C 5.104,4.75 5.486,4.348 5.742,3.832 5.963,3.359 6.072,2.623 6.072,1.615 v -5.062 c 0,-0.547 -0.123,-0.951 -0.367,-1.227 -0.246,-0.273 -0.576,-0.408 -0.98,-0.408 -0.395,0 -0.713,0.139 -0.965,0.412 -0.25,0.277 -0.375,0.686 -0.375,1.223 V 0.914 C 3.385,1.473 3.361,1.918 3.314,2.252 3.268,2.59 3.139,2.873 2.932,3.1 2.721,3.326 2.402,3.443 1.979,3.443 1.637,3.443 1.312,3.336 1.006,3.135 0.699,2.938 0.459,2.658 0.285,2.322 0.1,1.885 0,1.109 0,0" /></g><g
           transform="translate(392.4351,22.8125)"
           id="g106"><path
             id="path108"
             style="fill:#abadad;fill-opacity:1;fill-rule:nonzero;stroke:none"
             d="M 0,0 C -0.002,0.004 -0.002,0.01 -0.002,0.018 -0.002,0.01 -0.002,0.004 0,0" /></g><g
           transform="translate(392.5659,21.9824)"
           id="g110"><path
             id="path112"
             style="fill:#abadad;fill-opacity:1;fill-rule:nonzero;stroke:none"
             d="M 0,0 H 0.003 C -0.047,0.236 -0.085,0.471 -0.116,0.703 -0.085,0.469 -0.047,0.234 0,0" /></g><g
           transform="translate(393.4243,19.5762)"
           id="g114"><path
             id="path116"
             style="fill:#abadad;fill-opacity:1;fill-rule:nonzero;stroke:none"
             d="M 0,0 C -0.006,0.01 -0.011,0.021 -0.017,0.033 -0.011,0.021 -0.006,0.01 0,0" /></g><g
           transform="translate(393.3423,19.7363)"
           id="g118"><path
             id="path120"
             style="fill:#abadad;fill-opacity:1;fill-rule:nonzero;stroke:none"
             d="M 0,0 C -0.022,0.045 -0.044,0.09 -0.065,0.135 -0.044,0.088 -0.022,0.045 0,0" /></g><g
           transform="translate(392.8071,21.0566)"
           id="g122"><path
             id="path124"
             style="fill:#abadad;fill-opacity:1;fill-rule:nonzero;stroke:none"
             d="M 0,0 C 0.127,-0.4 0.28,-0.789 0.457,-1.158 0.277,-0.781 0.127,-0.393 0.003,0 Z" /></g><g
           transform="translate(402.4727,32.748)"
           id="g126"><path
             id="path128"
             style="fill:#abadad;fill-opacity:1;fill-rule:nonzero;stroke:none"
             d="m 0,0 c 0.5,0 0.871,-0.039 1.295,-0.111 l 0.119,0.763 c 0,0 -1.17,0.36 -2.709,0.235 l -0.121,0.414 c 0.479,0.101 0.838,0.527 0.838,1.035 0,0.582 -0.475,1.053 -1.058,1.053 -0.582,0 -1.055,-0.471 -1.055,-1.053 0,-0.508 0.358,-0.934 0.836,-1.035 L -1.722,0.838 C -3.356,0.613 -4.657,-0.023 -4.657,-0.023 l 0.231,-0.706 c 0.988,0.329 1.846,0.53 2.624,0.614 C -1.041,-0.035 -0.467,0 0,0" /></g><g
           transform="translate(393.4048,28.8906)"
           id="g130"><path
             id="path132"
             style="fill:#abadad;fill-opacity:1;fill-rule:nonzero;stroke:none"
             d="M 0,0 0.006,0.008 C 0.044,0.057 0.082,0.104 0.119,0.15 l -0.313,0.225 -0.488,0.357 c -0.027,-0.039 -0.795,-0.744 -1.401,-2.048 -0.025,0.041 -0.056,0.082 -0.09,0.119 -0.181,0.199 -0.435,0.301 -0.758,0.295 h -0.015 c -0.2,0 -0.337,0.066 -0.427,0.146 0.09,0.113 0.144,0.256 0.144,0.414 0,0.367 -0.3,0.668 -0.67,0.668 -0.369,0 -0.668,-0.301 -0.668,-0.668 0,-0.371 0.299,-0.67 0.668,-0.67 0.058,0 0.113,0.01 0.167,0.022 0.165,-0.184 0.425,-0.342 0.808,-0.334 0.196,0.002 0.341,-0.049 0.437,-0.156 0.111,-0.122 0.149,-0.295 0.16,-0.428 -10e-4,-0.002 -10e-4,-0.004 -0.003,-0.004 -0.436,-1.19 -0.311,-2.67 -0.311,-2.67 l 1.057,-0.043 c 0.022,0.539 0.099,1.482 0.372,2.23 C -0.686,-0.945 -0.027,-0.039 0,0" /></g><g
           transform="translate(411.6719,31.8652)"
           id="g134"><path
             id="path136"
             style="fill:#abadad;fill-opacity:1;fill-rule:nonzero;stroke:none"
             d="m 0,0 c -0.369,0 -0.67,-0.299 -0.67,-0.67 0,-0.057 0.01,-0.111 0.024,-0.164 C -0.83,-1 -0.988,-1.262 -0.982,-1.645 c 0.002,-0.197 -0.049,-0.339 -0.155,-0.437 -0.086,-0.074 -0.191,-0.115 -0.297,-0.141 -0.787,1.104 -1.755,1.776 -1.755,1.776 L -3.947,-1.26 c 0.572,-0.521 1.158,-1.176 1.728,-1.99 0.393,-0.564 0.799,-1.291 1.135,-2.016 l 1.025,0.487 c 0,0 -0.468,1.156 -1.127,2.191 0.116,0.041 0.231,0.104 0.332,0.193 0.2,0.18 0.299,0.436 0.293,0.758 -0.001,0.207 0.067,0.348 0.149,0.442 0.113,-0.088 0.256,-0.143 0.412,-0.143 0.371,0 0.67,0.299 0.67,0.668 C 0.67,-0.299 0.371,0 0,0" /></g><g
           transform="translate(409.0137,22.6621)"
           id="g138"><path
             id="path140"
             style="fill:#abadad;fill-opacity:1;fill-rule:nonzero;stroke:none"
             d="m 0,0 c -1.408,-0.686 -3.729,-1.594 -6.781,-2.02 -1.198,-0.166 -2.359,-0.226 -3.427,-0.226 -1.391,0 -2.62,0.103 -3.563,0.223 -1.076,0.134 -1.917,0.3 -2.432,0.418 0.123,-0.393 0.273,-0.782 0.453,-1.159 0.004,-0.009 0.008,-0.021 0.013,-0.027 0.022,-0.045 0.043,-0.09 0.066,-0.135 0.021,-0.043 0.043,-0.086 0.065,-0.127 0.006,-0.011 0.011,-0.023 0.017,-0.033 0.302,-0.57 0.666,-1.094 1.08,-1.549 1.44,-1.574 2.907,-1.824 2.921,-1.826 l 0.023,-0.002 0.022,-0.008 c 0.013,-0.006 1.314,-0.425 3.292,-0.425 1.944,0 3.853,0.392 5.673,1.167 1.348,0.69 2.621,1.737 3.254,2.67 0.488,0.723 0.84,1.493 1.049,2.293 C 1.836,-0.34 1.924,0.342 1.873,1.061 1.477,0.793 0.85,0.414 0,0" /></g><g
           transform="translate(397.8853,29.293)"
           id="g142"><path
             id="path144"
             style="fill:#abadad;fill-opacity:1;fill-rule:nonzero;stroke:none"
             d="m 0,0 c 1.557,0 2.816,-1.262 2.816,-2.818 0,-1.555 -1.259,-2.815 -2.816,-2.815 -1.555,0 -2.816,1.26 -2.816,2.815 C -2.816,-1.262 -1.555,0 0,0 m 8.242,-0.07 c 0.961,0 1.742,-0.782 1.742,-1.742 0,-0.963 -0.781,-1.745 -1.742,-1.745 -0.963,0 -1.742,0.782 -1.742,1.745 0,0.96 0.779,1.742 1.742,1.742 M -4.028,-0.736 C -4.069,-0.797 -4.68,-1.662 -5.163,-2.99 -5.525,-3.984 -5.509,-5.434 -5.509,-5.449 v -0.004 c 0,-0.34 0.019,-0.676 0.057,-1.01 0,-0.008 0,-0.014 0.002,-0.017 0.004,-0.043 0.011,-0.084 0.015,-0.127 0.03,-0.233 0.069,-0.467 0.119,-0.704 0.7,-0.177 4.878,-1.152 9.548,-0.501 2.926,0.408 5.148,1.273 6.498,1.927 1.121,0.543 1.842,1.035 2.121,1.239 C 12.574,-3.619 11.808,-2.006 11.107,-1 9.103,1.865 6.941,2.6 5.83,2.783 5.406,2.852 5.068,2.893 4.587,2.893 4.14,2.893 3.585,2.855 2.844,2.777 2.102,2.701 1.272,2.506 0.312,2.182 -1.036,1.73 -2.255,1.023 -3.215,0.135 L -3.248,0.104 c -0.142,-0.131 -0.439,-0.407 -0.78,-0.84" /></g><g
           transform="translate(444,511.4229)"
           id="g146"><path
             id="path148"
             style="fill:#2e3333;fill-opacity:1;fill-rule:nonzero;stroke:none"
             d="m 0,0 v 0.016 c 2,-1.638 3.193,-3.232 4.026,-4.64 0.706,-0.938 0.923,-1.475 0.811,-1.751 0.749,-2.003 0.45,-3.317 -0.151,-3.256 -1.098,0.11 -2.55,3.007 -4.339,4.89 -2.095,2.211 -6.372,6.371 -10.436,7.99 0,0 5.089,1.22 10.089,-3.249 m 130.021,-382.823 c -3.441,7.455 -12.617,24.085 -12.617,24.085 l 16.057,12.043 c 0,0 -23.512,24.658 -36.127,48.17 -12.616,23.511 -41.289,60.786 -53.332,74.549 -12.042,13.763 -18.924,51.612 -18.924,51.612 18.351,-23.512 67.095,-65.375 67.095,-65.375 9.748,8.029 29.246,21.792 29.246,21.792 C 1.566,-122.474 -7.035,-30.721 -7.035,-30.721 16.285,-53.277 48.304,-50.954 53.851,-45.25 64.073,-34.735 53.178,-4.533 46.296,11.141 39.414,26.815 15.902,63.326 15.902,63.326 c 20.072,5.447 23.799,23.799 32.401,38.135 8.602,14.336 1.147,26.092 -6.308,32.4 -7.455,6.308 -23.225,7.742 -32.687,2.868 -9.462,-4.875 -10.896,-12.903 -13.476,-17.491 -2.581,-4.588 -6.021,-6.308 -8.028,-11.469 -2.008,-5.162 1.433,-8.029 1.433,-8.029 0,-6.881 -11.565,-21.885 -11.565,-21.885 0,0 -7.63,4.272 -17.913,9.662 v -10e-4 l -0.003,0.002 c -4.596,2.408 -9.719,5.038 -14.932,7.612 -2.856,1.119 -5.421,1.801 -6.911,1.456 -4.97,-1.147 -3.059,-15.292 -4.588,-18.35 -1.529,-3.059 -1.529,5.734 -2.676,12.616 -0.828,4.97 -2.461,9.536 -5.316,13.276 -7.634,3.186 -14.011,5.277 -17.241,5.076 -10.738,-0.672 -25.598,-9.59 -35.794,-16.931 1.883,-2.038 4.101,-4.74 5.593,-7.538 3.059,-5.735 9.175,-15.293 -6.881,-22.174 0,0 -0.427,-1.927 4.321,-6.9 12.467,11.008 30.273,22.001 30.273,22.001 L -63.625,58.738 C -72.098,45.59 -80.075,24.853 -85.864,7.67 c 0.517,-5.127 0.468,-10.993 -0.308,-17.747 0,0 5.734,-5.734 22.555,-6.881 14.04,-0.958 30.046,-0.685 40.719,4.927 0.303,-0.257 0.615,-0.5 0.921,-0.753 2.545,-3.556 5.704,-6.658 9.138,-9.456 -9.678,-8.192 -31.82,-18.722 -78.304,-9.628 0,0 -0.764,-49.317 12.999,-85.445 10.864,-28.518 37.6,-87.646 73.144,-125.158 v 11.04 c 0,0 12.501,-15.231 27.26,-33.737 0.974,-0.593 1.952,-1.173 2.935,-1.724 0,0 41.524,-48.667 46.509,-64.808 0,0 -0.138,-0.392 -0.467,-1.024 7.915,-16.025 20.362,-39.777 20.362,-39.777 l 2.294,1.147 c 10.322,-34.981 28.672,-42.436 35.554,-37.848 6.881,4.588 4.014,18.924 0.574,26.379" /></g><g
           transform="translate(469.1953,244.5312)"
           id="g150"><path
             id="path152"
             style="fill:#85c3cb;fill-opacity:1;fill-rule:nonzero;stroke:none"
             d="m 0,0 c -0.983,0.551 -1.961,1.131 -2.936,1.724 -9.536,5.805 -18.655,13.617 -27.259,22.697 -35.544,37.512 -62.28,96.64 -73.144,125.158 -13.764,36.128 -12.999,85.444 -12.999,85.444 46.484,-9.094 68.626,1.436 78.304,9.628 -3.435,2.798 -6.593,5.901 -9.138,9.457 -0.307,0.252 -0.618,0.496 -0.922,0.752 -10.673,-5.611 -26.678,-5.884 -40.718,-4.926 -16.822,1.147 -22.556,6.881 -22.556,6.881 0.777,6.754 0.826,12.62 0.308,17.747 -2.79,27.67 -22.041,33.829 -32.039,41.893 -2.984,2.406 -5.167,4.424 -6.765,6.098 -4.748,4.973 -4.322,6.9 -4.322,6.9 16.057,6.881 9.94,16.439 6.882,22.173 -1.492,2.798 -3.71,5.5 -5.593,7.539 -1.976,2.14 -3.582,3.548 -3.582,3.548 0.765,15.292 6.116,32.114 6.116,32.114 0,0 41.289,-15.675 46.642,-19.88 1.487,-1.168 2.761,-2.489 3.859,-3.927 2.855,-3.741 4.488,-8.307 5.316,-13.277 1.147,-6.881 1.147,-15.675 2.676,-12.616 1.529,3.059 -0.382,17.204 4.587,18.351 1.491,0.344 4.055,-0.338 6.912,-1.457 6.648,-2.603 14.886,-7.584 14.932,-7.611 l 0.002,-0.002 v 0 c 0.055,6.987 -17.258,19.392 -21.081,21.303 -3.822,1.912 -9.175,5.352 -28.672,21.409 -19.498,16.057 -43.273,22.422 -48.936,20.645 -9.749,-3.059 -10.895,-33.069 -10.895,-33.069 -31.541,10.895 -44.73,-16.631 -41.29,-29.82 3.441,-13.189 17.778,-20.071 17.778,-20.071 2.867,-10.322 12.616,-8.602 12.616,-8.602 l 0.573,-7.454 c -5.161,-1.721 -8.601,-8.603 -9.748,-16.631 -1.147,-8.028 -0.574,-24.085 16.63,-47.023 17.203,-22.939 10.896,-43.583 2.867,-71.682 -8.029,-28.1 -1.72,-53.905 0.574,-70.536 2.293,-16.63 5.734,-29.246 -22.939,-79.137 -28.673,-49.89 -84.872,-51.037 -84.872,-51.037 -0.573,-36.128 15.484,-54.478 15.484,-54.478 0,0 -2.867,-13.763 13.189,-28.1 16.057,-14.336 44.157,-11.469 44.157,-11.469 0,0 20.071,-14.91 45.876,-17.204 25.806,-2.294 43.009,4.588 43.009,4.588 0,0 1.088,-0.113 3.041,-0.208 0.48,-2.403 1.34,-5.258 2.881,-8.202 v -10.161 h 9 v 10.543 c 0,0 3.148,1.912 13.089,-6.5 5.988,-5.067 21.274,-6.41 36.553,-5.042 22.175,1.984 4.517,9.63 -7.681,12.013 -7.137,1.394 -13.129,4.915 -17.474,10.824 2.31,0.548 4.662,1.174 7.041,1.894 24.659,7.455 28.673,20.071 28.673,20.071 0,0 22.365,-6.881 44.729,1.72 22.366,8.602 28.673,21.218 28.673,21.218 12.491,0.463 17.257,7.323 18.634,9.958 0.329,0.632 0.467,1.023 0.467,1.023 C 41.523,-48.667 0,0 0,0" /></g><g
           transform="translate(444.3467,506.6816)"
           id="g154"><path
             id="path156"
             style="fill:#85c3cb;fill-opacity:1;fill-rule:nonzero;stroke:none"
             d="M 0,0 C 1.789,-1.882 3.241,-4.78 4.339,-4.89 4.94,-4.951 5.239,-3.637 4.49,-1.634 4.603,-1.357 4.386,-0.821 3.68,0.118 2.847,1.525 1.653,3.119 -0.347,4.757 V 4.741 C -5.347,9.21 -10.436,7.99 -10.436,7.99 -6.372,6.371 -2.095,2.211 0,0" /></g></g></g></g></svg>