<?xml version="1.0" encoding="UTF-8" standalone="no"?>
<svg
   xmlns:dc="http://purl.org/dc/elements/1.1/"
   xmlns:cc="http://creativecommons.org/ns#"
   xmlns:rdf="http://www.w3.org/1999/02/22-rdf-syntax-ns#"
   xmlns:svg="http://www.w3.org/2000/svg"
   xmlns="http://www.w3.org/2000/svg"
   viewBox="0 0 666.66669 666.66669"
   height="666.66669"
   width="666.66669"
   xml:space="preserve"
   id="svg2"
   version="1.1"><metadata
     id="metadata8"><rdf:RDF><cc:Work
         rdf:about=""><dc:format>image/svg+xml</dc:format><dc:type
           rdf:resource="http://purl.org/dc/dcmitype/StillImage" /></cc:Work></rdf:RDF></metadata><defs
     id="defs6"><clipPath
       id="clipPath20"
       clipPathUnits="userSpaceOnUse"><path
         id="path18"
         d="M 0,500 H 500 V 0 H 0 Z" /></clipPath><clipPath
       id="clipPath28"
       clipPathUnits="userSpaceOnUse"><path
         id="path26"
         d="M 57.951,116.029 H 443.594 V 92.6667 H 57.951 Z" /></clipPath><clipPath
       id="clipPath46"
       clipPathUnits="userSpaceOnUse"><path
         id="path44"
         d="M 0,500 H 500 V 0 H 0 Z" /></clipPath><clipPath
       id="clipPath176"
       clipPathUnits="userSpaceOnUse"><path
         id="path174"
         d="m 160.195,138.092 c 0,-10.464 8.484,-18.947 18.948,-18.947 v 0 c 10.464,0 18.948,8.483 18.948,18.947 v 0 c 0,10.465 -8.484,18.948 -18.948,18.948 v 0 c -10.464,0 -18.948,-8.483 -18.948,-18.948" /></clipPath><clipPath
       id="clipPath224"
       clipPathUnits="userSpaceOnUse"><path
         id="path222"
         d="M 0,500 H 500 V 0 H 0 Z" /></clipPath><clipPath
       id="clipPath240"
       clipPathUnits="userSpaceOnUse"><path
         id="path238"
         d="m 105.944,138.092 c 0,-10.464 8.484,-18.947 18.948,-18.947 v 0 c 10.465,0 18.949,8.483 18.949,18.947 v 0 c 0,10.465 -8.484,18.948 -18.949,18.948 v 0 c -10.464,0 -18.948,-8.483 -18.948,-18.948" /></clipPath><clipPath
       id="clipPath288"
       clipPathUnits="userSpaceOnUse"><path
         id="path286"
         d="M 0,500 H 500 V 0 H 0 Z" /></clipPath><clipPath
       id="clipPath324"
       clipPathUnits="userSpaceOnUse"><path
         id="path322"
         d="M 324.293,282.849 H 427.655 V 220.465 H 324.293 Z" /></clipPath><clipPath
       id="clipPath340"
       clipPathUnits="userSpaceOnUse"><path
         id="path338"
         d="M 248.711,195.079 H 357.988 V 118.678 H 248.711 Z" /></clipPath><clipPath
       id="clipPath384"
       clipPathUnits="userSpaceOnUse"><path
         id="path382"
         d="m 226.986,310.521 h 25.89 v -31.562 h -25.89 z" /></clipPath><clipPath
       id="clipPath400"
       clipPathUnits="userSpaceOnUse"><path
         id="path398"
         d="m 226.847,261.137 h 51.381 v -34.325 h -51.381 z" /></clipPath><clipPath
       id="clipPath432"
       clipPathUnits="userSpaceOnUse"><path
         id="path430"
         d="m 253.971,263.62 h 98.425 v -32.242 h -98.425 z" /></clipPath><clipPath
       id="clipPath448"
       clipPathUnits="userSpaceOnUse"><path
         id="path446"
         d="m 256.1,255.239 h 89.541 V 168.995 H 256.1 Z" /></clipPath><clipPath
       id="clipPath476"
       clipPathUnits="userSpaceOnUse"><path
         id="path474"
         d="M 236.001,315.628 H 362.029 V 288.147 H 236.001 Z" /></clipPath><clipPath
       id="clipPath500"
       clipPathUnits="userSpaceOnUse"><path
         id="path498"
         d="m 284.916,328.16 h 29.43 v -31.834 h -29.43 z" /></clipPath><clipPath
       id="clipPath564"
       clipPathUnits="userSpaceOnUse"><path
         id="path562"
         d="m 285.355,255.427 c 1.4,-4.887 12.549,-12.418 20.656,-11.054 v 0 c 8.107,1.366 10.1,7.696 8.703,15.997 v 0 z" /></clipPath><clipPath
       id="clipPath576"
       clipPathUnits="userSpaceOnUse"><path
         id="path574"
         d="M 0,500 H 500 V 0 H 0 Z" /></clipPath><clipPath
       id="clipPath616"
       clipPathUnits="userSpaceOnUse"><path
         id="path614"
         d="m 227.616,284.429 h 90.639 v -44.107 h -90.639 z" /></clipPath><clipPath
       id="clipPath696"
       clipPathUnits="userSpaceOnUse"><path
         id="path694"
         d="M 0,500 H 500 V 0 H 0 Z" /></clipPath></defs><g
     transform="matrix(1.3333333,0,0,-1.3333333,0,666.66667)"
     id="g10"><path
       id="path12"
       style="fill:#fbf8c7;fill-opacity:1;fill-rule:nonzero;stroke:none"
       d="M 0,0 H 500 V 500 H 0 Z" /><g
       id="g14"><g
         clip-path="url(#clipPath20)"
         id="g16"><g
           id="g22"><g
             id="g24" /><g
             id="g36"><g
               style="opacity:0.10000598"
               id="g34"
               clip-path="url(#clipPath28)"><g
                 id="g32"
                 transform="translate(443.5937,104.3477)"><path
                   id="path30"
                   style="fill:#000000;fill-opacity:1;fill-rule:nonzero;stroke:none"
                   d="m 0,0 c 0,-6.451 -86.329,-11.681 -192.821,-11.681 -106.492,0 -192.822,5.23 -192.822,11.681 0,6.451 86.33,11.681 192.822,11.681 C -86.329,11.681 0,6.451 0,0" /></g></g></g></g></g></g><path
       id="path38"
       style="fill:#023a47;fill-opacity:1;fill-rule:nonzero;stroke:none"
       d="m 109.787,262.555 h -2.051 v 24.493 h 2.051 z" /><g
       id="g40"><g
         clip-path="url(#clipPath46)"
         id="g42"><g
           transform="translate(109.623,263.332)"
           id="g48"><path
             id="path50"
             style="fill:#023a47;fill-opacity:1;fill-rule:nonzero;stroke:none"
             d="m 0,0 c 0.66,-1.614 -0.729,-3.709 -3.103,-4.679 -2.373,-0.97 -4.832,-0.447 -5.491,1.167 -0.66,1.614 0.729,3.709 3.102,4.679 C -3.119,2.137 -0.66,1.615 0,0" /></g><path
           id="path52"
           style="fill:#023a47;fill-opacity:1;fill-rule:nonzero;stroke:none"
           d="m 124.927,265.663 h -2.051 v 24.493 h 2.051 z" /><g
           transform="translate(124.7627,266.7344)"
           id="g54"><path
             id="path56"
             style="fill:#023a47;fill-opacity:1;fill-rule:nonzero;stroke:none"
             d="m 0,0 c 0.66,-1.614 -0.729,-3.709 -3.103,-4.679 -2.373,-0.97 -4.832,-0.448 -5.492,1.166 -0.659,1.615 0.73,3.71 3.103,4.68 C -3.119,2.137 -0.66,1.614 0,0" /></g><path
           id="path58"
           style="fill:#023a47;fill-opacity:1;fill-rule:nonzero;stroke:none"
           d="m 140.066,268.918 h -2.051 v 24.493 h 2.051 z" /><g
           transform="translate(139.9019,269.9893)"
           id="g60"><path
             id="path62"
             style="fill:#023a47;fill-opacity:1;fill-rule:nonzero;stroke:none"
             d="m 0,0 c 0.66,-1.614 -0.729,-3.709 -3.103,-4.679 -2.373,-0.97 -4.832,-0.448 -5.491,1.166 -0.66,1.615 0.729,3.71 3.102,4.68 C -3.118,2.137 -0.66,1.614 0,0" /></g><g
           transform="translate(140.0664,287.6108)"
           id="g64"><path
             id="path66"
             style="fill:#023a47;fill-opacity:1;fill-rule:nonzero;stroke:none"
             d="M 0,0 -32.33,-6.609 V 0.468 L 0,7.078 Z" /></g><path
           id="path68"
           style="fill:#023a47;fill-opacity:1;fill-rule:nonzero;stroke:none"
           d="m 157.363,311.804 h -1.616 v 19.298 h 1.616 z" /><g
           transform="translate(157.2339,312.416)"
           id="g70"><path
             id="path72"
             style="fill:#023a47;fill-opacity:1;fill-rule:nonzero;stroke:none"
             d="m 0,0 c 0.52,-1.272 -0.575,-2.923 -2.445,-3.687 -1.869,-0.764 -3.807,-0.353 -4.326,0.919 -0.521,1.272 0.574,2.923 2.444,3.687 C -2.458,1.684 -0.52,1.272 0,0" /></g><path
           id="path74"
           style="fill:#023a47;fill-opacity:1;fill-rule:nonzero;stroke:none"
           d="m 170.058,313.59 h -1.616 v 19.298 h 1.616 z" /><g
           transform="translate(169.9287,314.4341)"
           id="g76"><path
             id="path78"
             style="fill:#023a47;fill-opacity:1;fill-rule:nonzero;stroke:none"
             d="m 0,0 c 0.52,-1.272 -0.575,-2.923 -2.445,-3.687 -1.869,-0.764 -3.807,-0.353 -4.326,0.919 -0.521,1.272 0.574,2.923 2.444,3.687 C -2.458,1.684 -0.52,1.272 0,0" /></g><g
           transform="translate(170.0576,329.3647)"
           id="g80"><path
             id="path82"
             style="fill:#023a47;fill-opacity:1;fill-rule:nonzero;stroke:none"
             d="M 0,0 -14.311,-3.027 V 2.549 L 0,5.576 Z" /></g><path
           id="path84"
           style="fill:#023a47;fill-opacity:1;fill-rule:nonzero;stroke:none"
           d="m 94.568,338.161 h -1.616 v 19.297 h 1.616 z" /><g
           transform="translate(94.439,338.7734)"
           id="g86"><path
             id="path88"
             style="fill:#023a47;fill-opacity:1;fill-rule:nonzero;stroke:none"
             d="m 0,0 c 0.52,-1.272 -0.574,-2.923 -2.444,-3.687 -1.87,-0.764 -3.807,-0.353 -4.327,0.919 -0.52,1.272 0.574,2.923 2.444,3.687 C -2.457,1.684 -0.52,1.272 0,0" /></g><path
           id="path90"
           style="fill:#023a47;fill-opacity:1;fill-rule:nonzero;stroke:none"
           d="m 107.263,339.947 h -1.616 v 19.298 h 1.616 z" /><g
           transform="translate(107.1338,340.7915)"
           id="g92"><path
             id="path94"
             style="fill:#023a47;fill-opacity:1;fill-rule:nonzero;stroke:none"
             d="m 0,0 c 0.52,-1.272 -0.574,-2.923 -2.444,-3.687 -1.87,-0.764 -3.807,-0.353 -4.327,0.919 -0.52,1.272 0.574,2.923 2.444,3.687 C -2.457,1.683 -0.52,1.271 0,0" /></g><g
           transform="translate(107.2632,355.7217)"
           id="g96"><path
             id="path98"
             style="fill:#023a47;fill-opacity:1;fill-rule:nonzero;stroke:none"
             d="M 0,0 -14.311,-3.027 V 2.55 L 0,5.577 Z" /></g><path
           id="path100"
           style="fill:#023a47;fill-opacity:1;fill-rule:nonzero;stroke:none"
           d="m 172.9,266.852 h -1.616 v 19.297 h 1.616 z" /><g
           transform="translate(172.7705,267.4634)"
           id="g102"><path
             id="path104"
             style="fill:#023a47;fill-opacity:1;fill-rule:nonzero;stroke:none"
             d="m 0,0 c 0.52,-1.271 -0.575,-2.922 -2.444,-3.687 -1.87,-0.764 -3.807,-0.352 -4.327,0.92 -0.52,1.272 0.574,2.922 2.444,3.686 C -2.457,1.684 -0.52,1.272 0,0" /></g><path
           id="path106"
           style="fill:#023a47;fill-opacity:1;fill-rule:nonzero;stroke:none"
           d="m 185.595,268.638 h -1.616 v 19.297 h 1.616 z" /><g
           transform="translate(185.4653,269.4819)"
           id="g108"><path
             id="path110"
             style="fill:#023a47;fill-opacity:1;fill-rule:nonzero;stroke:none"
             d="m 0,0 c 0.52,-1.272 -0.575,-2.923 -2.444,-3.687 -1.87,-0.764 -3.807,-0.353 -4.327,0.919 -0.521,1.272 0.574,2.923 2.444,3.687 C -2.457,1.683 -0.52,1.271 0,0" /></g><g
           transform="translate(185.5947,284.4121)"
           id="g112"><path
             id="path114"
             style="fill:#023a47;fill-opacity:1;fill-rule:nonzero;stroke:none"
             d="M 0,0 -14.311,-3.027 V 2.549 L 0,5.577 Z" /></g><path
           id="path116"
           style="fill:#023a47;fill-opacity:1;fill-rule:nonzero;stroke:none"
           d="m 149.867,229.719 h -2.051 v 24.493 h 2.051 z" /><g
           transform="translate(149.7026,230.4961)"
           id="g118"><path
             id="path120"
             style="fill:#023a47;fill-opacity:1;fill-rule:nonzero;stroke:none"
             d="m 0,0 c 0.66,-1.615 -0.729,-3.71 -3.103,-4.68 -2.373,-0.969 -4.832,-0.447 -5.492,1.167 -0.659,1.615 0.73,3.709 3.103,4.679 C -3.119,2.137 -0.66,1.614 0,0" /></g><g
           transform="translate(156.897,250.0859)"
           id="g122"><path
             id="path124"
             style="fill:#023a47;fill-opacity:1;fill-rule:nonzero;stroke:none"
             d="M 0,0 C -1.367,-1.921 -9.082,-1.921 -9.082,-1.921 V 5.157 C -1.367,5.964 -5.242,-0.286 0,0" /></g><path
           id="path126"
           style="fill:#023a47;fill-opacity:1;fill-rule:nonzero;stroke:none"
           d="m 120.465,318.457 h -1.467 v 17.521 h 1.467 z" /><g
           transform="translate(120.3481,319.0122)"
           id="g128"><path
             id="path130"
             style="fill:#023a47;fill-opacity:1;fill-rule:nonzero;stroke:none"
             d="m 0,0 c 0.472,-1.155 -0.522,-2.653 -2.22,-3.347 -1.697,-0.694 -3.456,-0.32 -3.928,0.834 -0.472,1.155 0.522,2.654 2.219,3.347 C -2.231,1.529 -0.472,1.155 0,0" /></g><g
           transform="translate(125.4946,333.0264)"
           id="g132"><path
             id="path134"
             style="fill:#023a47;fill-opacity:1;fill-rule:nonzero;stroke:none"
             d="M 0,0 C -0.978,-1.374 -6.497,-1.374 -6.497,-1.374 V 3.689 C -0.978,4.266 -3.75,-0.205 0,0" /></g><path
           id="path136"
           style="fill:#023a47;fill-opacity:1;fill-rule:nonzero;stroke:none"
           d="m 147.634,346.448 h -1.467 v 17.521 h 1.467 z" /><g
           transform="translate(147.5166,347.0039)"
           id="g138"><path
             id="path140"
             style="fill:#023a47;fill-opacity:1;fill-rule:nonzero;stroke:none"
             d="m 0,0 c 0.472,-1.155 -0.521,-2.654 -2.219,-3.348 -1.698,-0.694 -3.457,-0.319 -3.929,0.835 -0.472,1.155 0.522,2.654 2.219,3.347 C -2.23,1.528 -0.472,1.155 0,0" /></g><g
           transform="translate(152.6636,361.0181)"
           id="g142"><path
             id="path144"
             style="fill:#023a47;fill-opacity:1;fill-rule:nonzero;stroke:none"
             d="M 0,0 C -0.978,-1.375 -6.497,-1.375 -6.497,-1.375 V 3.688 C -0.978,4.266 -3.75,-0.205 0,0" /></g><g
           transform="translate(183.4766,188.5977)"
           id="g146"><path
             id="path148"
             style="fill:#023a47;fill-opacity:1;fill-rule:nonzero;stroke:none"
             d="m 0,0 v -12.442 h -5.167 v 3.859 c 0,8.53 -7.104,15.343 -15.626,14.986 L -74.46,4.158 c -8.034,-0.336 -14.373,-6.946 -14.373,-14.986 v -5.088 h -5.334 l -0.936,11.644 c -0.679,8.452 5.777,15.786 14.246,16.185 l 65.151,3.07 C -7.154,15.387 0,8.562 0,0" /></g><g
           transform="translate(187.4766,188.5977)"
           id="g150"><path
             id="path152"
             style="fill:#005c86;fill-opacity:1;fill-rule:nonzero;stroke:none"
             d="m 0,0 v -12.442 h -5.167 v 9.072 c 0,5.687 -4.736,10.229 -10.417,9.991 L -79.251,3.958 c -5.356,-0.224 -9.582,-4.631 -9.582,-9.991 v -9.883 h -5.334 l -0.936,11.644 c -0.679,8.452 5.777,15.786 14.246,16.185 l 65.151,3.07 C -7.154,15.387 0,8.562 0,0" /></g><g
           transform="translate(76.9404,103.9551)"
           id="g154"><path
             id="path156"
             style="fill:#023a47;fill-opacity:1;fill-rule:nonzero;stroke:none"
             d="M 0,0 H 113.035 L 14.37,70.148 -5.69,66.528 Z" /></g><g
           transform="translate(97.3101,103.9551)"
           id="g158"><path
             id="path160"
             style="fill:#014958;fill-opacity:1;fill-rule:nonzero;stroke:none"
             d="M 0,0 H 113.035 L 113.717,74.795 -6,70.148 Z" /></g><g
           transform="translate(156.1748,138.0928)"
           id="g162"><path
             id="path164"
             style="fill:#005c86;fill-opacity:1;fill-rule:nonzero;stroke:none"
             d="m 0,0 c 0,-12.686 10.283,-22.969 22.968,-22.969 12.686,0 22.969,10.283 22.969,22.969 0,12.685 -10.283,22.968 -22.969,22.968 C 10.283,22.968 0,12.685 0,0" /></g><g
           transform="translate(160.1953,138.0928)"
           id="g166"><path
             id="path168"
             style="fill:#023a47;fill-opacity:1;fill-rule:nonzero;stroke:none"
             d="m 0,0 c 0,-10.465 8.483,-18.948 18.948,-18.948 10.465,0 18.948,8.483 18.948,18.948 0,10.464 -8.483,18.947 -18.948,18.947 C 8.483,18.947 0,10.464 0,0" /></g></g></g><g
       id="g170"><g
         clip-path="url(#clipPath176)"
         id="g172"><g
           transform="translate(174.1196,164.8193)"
           id="g178"><path
             id="path180"
             style="fill:none;stroke:#000000;stroke-width:1;stroke-linecap:butt;stroke-linejoin:miter;stroke-miterlimit:10;stroke-dasharray:none;stroke-opacity:1"
             d="M 0,0 34.002,-34.002" /></g><g
           transform="translate(168.3081,159.0078)"
           id="g182"><path
             id="path184"
             style="fill:none;stroke:#000000;stroke-width:1;stroke-linecap:butt;stroke-linejoin:miter;stroke-miterlimit:10;stroke-dasharray:none;stroke-opacity:1"
             d="M 0,0 34.002,-34.002" /></g><g
           transform="translate(162.4966,153.1963)"
           id="g186"><path
             id="path188"
             style="fill:none;stroke:#000000;stroke-width:1;stroke-linecap:butt;stroke-linejoin:miter;stroke-miterlimit:10;stroke-dasharray:none;stroke-opacity:1"
             d="M 0,0 34.002,-34.002" /></g><g
           transform="translate(156.6851,147.3848)"
           id="g190"><path
             id="path192"
             style="fill:none;stroke:#000000;stroke-width:1;stroke-linecap:butt;stroke-linejoin:miter;stroke-miterlimit:10;stroke-dasharray:none;stroke-opacity:1"
             d="M 0,0 34.002,-34.002" /></g><g
           transform="translate(150.8735,141.5732)"
           id="g194"><path
             id="path196"
             style="fill:none;stroke:#000000;stroke-width:1;stroke-linecap:butt;stroke-linejoin:miter;stroke-miterlimit:10;stroke-dasharray:none;stroke-opacity:1"
             d="M 0,0 34.002,-34.002" /></g><g
           transform="translate(208.1216,141.5732)"
           id="g198"><path
             id="path200"
             style="fill:none;stroke:#000000;stroke-width:1;stroke-linecap:butt;stroke-linejoin:miter;stroke-miterlimit:10;stroke-dasharray:none;stroke-opacity:1"
             d="M 0,0 -34.002,-34.002" /></g><g
           transform="translate(202.3101,147.3848)"
           id="g202"><path
             id="path204"
             style="fill:none;stroke:#000000;stroke-width:1;stroke-linecap:butt;stroke-linejoin:miter;stroke-miterlimit:10;stroke-dasharray:none;stroke-opacity:1"
             d="M 0,0 -34.002,-34.002" /></g><g
           transform="translate(196.4985,153.1963)"
           id="g206"><path
             id="path208"
             style="fill:none;stroke:#000000;stroke-width:1;stroke-linecap:butt;stroke-linejoin:miter;stroke-miterlimit:10;stroke-dasharray:none;stroke-opacity:1"
             d="M 0,0 -34.002,-34.002" /></g><g
           transform="translate(190.687,159.0078)"
           id="g210"><path
             id="path212"
             style="fill:none;stroke:#000000;stroke-width:1;stroke-linecap:butt;stroke-linejoin:miter;stroke-miterlimit:10;stroke-dasharray:none;stroke-opacity:1"
             d="M 0,0 -34.002,-34.002" /></g><g
           transform="translate(184.8755,164.8193)"
           id="g214"><path
             id="path216"
             style="fill:none;stroke:#000000;stroke-width:1;stroke-linecap:butt;stroke-linejoin:miter;stroke-miterlimit:10;stroke-dasharray:none;stroke-opacity:1"
             d="M 0,0 -34.002,-34.002" /></g></g></g><g
       id="g218"><g
         clip-path="url(#clipPath224)"
         id="g220"><g
           transform="translate(101.9238,138.0928)"
           id="g226"><path
             id="path228"
             style="fill:#005c86;fill-opacity:1;fill-rule:nonzero;stroke:none"
             d="m 0,0 c 0,-12.686 10.283,-22.969 22.968,-22.969 12.686,0 22.969,10.283 22.969,22.969 0,12.685 -10.283,22.968 -22.969,22.968 C 10.283,22.968 0,12.685 0,0" /></g><g
           transform="translate(105.9443,138.0928)"
           id="g230"><path
             id="path232"
             style="fill:#023a47;fill-opacity:1;fill-rule:nonzero;stroke:none"
             d="m 0,0 c 0,-10.465 8.483,-18.948 18.948,-18.948 10.465,0 18.948,8.483 18.948,18.948 0,10.464 -8.483,18.947 -18.948,18.947 C 8.483,18.947 0,10.464 0,0" /></g></g></g><g
       id="g234"><g
         clip-path="url(#clipPath240)"
         id="g236"><g
           transform="translate(119.8687,164.8193)"
           id="g242"><path
             id="path244"
             style="fill:none;stroke:#000000;stroke-width:1;stroke-linecap:butt;stroke-linejoin:miter;stroke-miterlimit:10;stroke-dasharray:none;stroke-opacity:1"
             d="M 0,0 34.002,-34.002" /></g><g
           transform="translate(114.0571,159.0078)"
           id="g246"><path
             id="path248"
             style="fill:none;stroke:#000000;stroke-width:1;stroke-linecap:butt;stroke-linejoin:miter;stroke-miterlimit:10;stroke-dasharray:none;stroke-opacity:1"
             d="M 0,0 34.002,-34.002" /></g><g
           transform="translate(108.2456,153.1963)"
           id="g250"><path
             id="path252"
             style="fill:none;stroke:#000000;stroke-width:1;stroke-linecap:butt;stroke-linejoin:miter;stroke-miterlimit:10;stroke-dasharray:none;stroke-opacity:1"
             d="M 0,0 34.002,-34.002" /></g><g
           transform="translate(102.4341,147.3848)"
           id="g254"><path
             id="path256"
             style="fill:none;stroke:#000000;stroke-width:1;stroke-linecap:butt;stroke-linejoin:miter;stroke-miterlimit:10;stroke-dasharray:none;stroke-opacity:1"
             d="M 0,0 34.002,-34.002" /></g><g
           transform="translate(96.6226,141.5732)"
           id="g258"><path
             id="path260"
             style="fill:none;stroke:#000000;stroke-width:1;stroke-linecap:butt;stroke-linejoin:miter;stroke-miterlimit:10;stroke-dasharray:none;stroke-opacity:1"
             d="M 0,0 34.002,-34.002" /></g><g
           transform="translate(153.8706,141.5732)"
           id="g262"><path
             id="path264"
             style="fill:none;stroke:#000000;stroke-width:1;stroke-linecap:butt;stroke-linejoin:miter;stroke-miterlimit:10;stroke-dasharray:none;stroke-opacity:1"
             d="M 0,0 -34.002,-34.002" /></g><g
           transform="translate(148.0591,147.3848)"
           id="g266"><path
             id="path268"
             style="fill:none;stroke:#000000;stroke-width:1;stroke-linecap:butt;stroke-linejoin:miter;stroke-miterlimit:10;stroke-dasharray:none;stroke-opacity:1"
             d="M 0,0 -34.002,-34.002" /></g><g
           transform="translate(142.2476,153.1963)"
           id="g270"><path
             id="path272"
             style="fill:none;stroke:#000000;stroke-width:1;stroke-linecap:butt;stroke-linejoin:miter;stroke-miterlimit:10;stroke-dasharray:none;stroke-opacity:1"
             d="M 0,0 -34.002,-34.002" /></g><g
           transform="translate(136.436,159.0078)"
           id="g274"><path
             id="path276"
             style="fill:none;stroke:#000000;stroke-width:1;stroke-linecap:butt;stroke-linejoin:miter;stroke-miterlimit:10;stroke-dasharray:none;stroke-opacity:1"
             d="M 0,0 -34.002,-34.002" /></g><g
           transform="translate(130.6245,164.8193)"
           id="g278"><path
             id="path280"
             style="fill:none;stroke:#000000;stroke-width:1;stroke-linecap:butt;stroke-linejoin:miter;stroke-miterlimit:10;stroke-dasharray:none;stroke-opacity:1"
             d="M 0,0 -34.002,-34.002" /></g></g></g><g
       id="g282"><g
         clip-path="url(#clipPath288)"
         id="g284"><g
           transform="translate(139.3042,164.4883)"
           id="g290"><path
             id="path292"
             style="fill:#4cc4a8;fill-opacity:1;fill-rule:nonzero;stroke:none"
             d="M 0,0 24.439,0.476 V 8.193 L 0,6.995 Z" /></g><g
           transform="translate(373.2178,330.2661)"
           id="g294"><path
             id="path296"
             style="fill:#014958;fill-opacity:1;fill-rule:nonzero;stroke:none"
             d="m 0,0 c -0.815,-12.928 -19.709,-21.873 -42.199,-19.978 -22.49,1.895 -40.062,13.912 -39.245,26.841 0.815,12.929 19.708,21.873 42.199,19.978 C -16.755,24.946 0.815,12.929 0,0" /></g><g
           transform="translate(281.4502,117.7441)"
           id="g298"><path
             id="path300"
             style="fill:#efc4b1;fill-opacity:1;fill-rule:nonzero;stroke:none"
             d="m 0,0 h -21.308 l -1.708,5.899 h 21.18 z" /></g><g
           transform="translate(320.4307,249.314)"
           id="g302"><path
             id="path304"
             style="fill:#fdb996;fill-opacity:1;fill-rule:nonzero;stroke:none"
             d="M 0,0 C 0,0 70.102,33.464 76.736,35.195 83.371,36.925 87.41,26.54 77.891,19.617 68.37,12.693 4.327,-28.848 4.327,-28.848 Z" /></g><g
           transform="translate(354.0117,309.4946)"
           id="g306"><path
             id="path308"
             style="fill:#703d3a;fill-opacity:1;fill-rule:nonzero;stroke:none"
             d="m 0,0 c 3.318,-6.352 3.896,-13.256 1.856,-20.107 -1.912,-6.421 8.066,-9.308 9.974,-2.9 2.827,9.494 1.79,19.36 -2.79,28.124 C 5.946,11.038 -3.099,5.931 0,0" /></g><g
           transform="translate(418.4023,274.0244)"
           id="g310"><path
             id="path312"
             style="fill:#fdb996;fill-opacity:1;fill-rule:nonzero;stroke:none"
             d="M 0,0 C 1.155,0.492 2.282,1.048 3.378,1.66 5.236,2.698 7.605,3.893 8.772,5.739 9.2,6.416 9.327,7.345 8.873,8.004 8.371,8.731 7.358,8.897 6.48,8.798 5.604,8.698 4.742,8.398 3.86,8.447 c 1.508,0.639 2.917,1.511 4.165,2.571 2.803,2.381 5.695,5.779 6.43,9.482 0.108,0.54 0.168,1.104 0.039,1.64 -0.129,0.535 -0.476,1.043 -0.989,1.245 -0.907,0.358 -1.868,-0.318 -2.593,-0.97 0.655,1.257 1.166,2.66 1,4.068 -0.129,1.101 -0.727,2.188 -1.712,2.696 C 9.215,29.687 7.849,29.468 7.224,28.553 6.862,30.052 5.917,31.029 4.286,30.79 3.417,30.663 2.627,30.225 1.879,29.763 -1.097,27.926 -3.738,25.599 -6.619,23.617 -11.73,20.101 -17.82,17.21 -21.482,11.949 -23.765,8.67 -24.229,4.046 -21.592,0.778 c 1.15,-1.424 2.887,-2.062 4.605,-2.499 4.59,-1.167 9.435,-0.808 13.93,0.594 C -2.02,-0.803 -0.999,-0.426 0,0" /></g><g
           transform="translate(257.2344,122.6963)"
           id="g314"><path
             id="path316"
             style="fill:#014958;fill-opacity:1;fill-rule:nonzero;stroke:none"
             d="m 0,0 c 0,0 -8.523,16.706 -8.523,33.438 0,16.732 15.001,38.945 15.001,38.945 l 73.851,-8.944 c 0,0 8.907,-30.146 17.021,-37.791 8.113,-7.644 19.255,-22.104 19.255,-22.104 l -19.833,-5.59 -48.176,37.215 -20.482,4.61 c 0,0 -9.664,-6.052 -10.097,-15.573 -0.433,-9.519 7.206,-28.225 7.206,-28.225 z" /></g><g
           id="g318"><g
             id="g320" /><g
             id="g332"><g
               style="opacity:0.10000598"
               id="g330"
               clip-path="url(#clipPath324)"><g
                 id="g328"
                 transform="translate(424.9766,282.8223)"><path
                   id="path326"
                   style="fill:#000000;fill-opacity:1;fill-rule:nonzero;stroke:none"
                   d="m 0,0 c -0.735,-0.084 -1.46,-0.296 -2.194,-0.338 0.148,-0.579 0,-1.242 -0.327,-1.759 -1.167,-1.845 -3.537,-3.041 -5.395,-4.079 -1.096,-0.612 -2.223,-1.168 -3.377,-1.659 -1,-0.426 -2.02,-0.804 -3.058,-1.127 -4.393,-1.371 -9.12,-1.734 -13.617,-0.661 -0.855,-1.145 -1.975,-2.265 -3.407,-3.306 -8.029,-5.84 -54.847,-36.307 -69.309,-45.703 l 0.559,-3.724 c 0,0 64.043,41.541 73.563,48.464 1.432,1.041 2.551,2.162 3.408,3.307 4.497,-1.073 9.222,-0.71 13.617,0.66 1.037,0.324 2.058,0.701 3.057,1.127 1.155,0.492 2.282,1.048 3.377,1.66 1.859,1.038 4.228,2.233 5.395,4.079 0.428,0.677 0.555,1.606 0.1,2.265 C 1.891,-0.067 0.878,0.1 0,0" /></g></g></g></g><g
           id="g334"><g
             id="g336" /><g
             id="g352"><g
               style="opacity:0.10000598"
               id="g350"
               clip-path="url(#clipPath340)"><g
                 id="g344"
                 transform="translate(262.668,122.6963)"><path
                   id="path342"
                   style="fill:#000000;fill-opacity:1;fill-rule:nonzero;stroke:none"
                   d="m 0,0 c 0,0 -8.523,16.706 -8.523,33.438 0,15.106 12.223,34.673 14.6,38.335 l -5.033,0.61 c 0,0 -15.001,-22.213 -15.001,-38.945 C -13.957,16.706 -5.434,0 -5.434,0 l 25.223,-4.019 c 0,0 -0.136,0.335 -0.367,0.925 z" /></g><g
                 id="g348"
                 transform="translate(311.2637,157.8652)"><path
                   id="path346"
                   style="fill:#000000;fill-opacity:1;fill-rule:nonzero;stroke:none"
                   d="m 0,0 -20.481,4.61 c 0,0 -0.514,-0.322 -1.304,-0.929 L -5.434,0 l 48.177,-37.215 3.982,1.122 z" /></g></g></g></g><g
           transform="translate(374.9229,284.8125)"
           id="g354"><path
             id="path356"
             style="fill:#fdb996;fill-opacity:1;fill-rule:nonzero;stroke:none"
             d="m 0,0 c -0.632,-8.7 -6.917,-15.333 -14.038,-14.816 -7.12,0.517 -12.381,7.988 -11.749,16.689 0.632,8.7 6.916,15.334 14.037,14.816 C -4.629,16.172 0.632,8.7 0,0" /></g><g
           transform="translate(369.1152,285.2344)"
           id="g358"><path
             id="path360"
             style="fill:#fd927e;fill-opacity:1;fill-rule:nonzero;stroke:none"
             d="m 0,0 c -0.348,-4.781 -3.802,-8.427 -7.715,-8.143 -3.913,0.285 -6.805,4.391 -6.457,9.172 0.347,4.782 3.801,8.427 7.714,8.143 C -2.544,8.888 0.347,4.781 0,0" /></g><g
           transform="translate(252.8242,293.8037)"
           id="g362"><path
             id="path364"
             style="fill:#fdb996;fill-opacity:1;fill-rule:nonzero;stroke:none"
             d="m 0,0 c -0.631,-8.7 -6.916,-15.333 -14.037,-14.816 -7.121,0.516 -12.381,7.988 -11.75,16.689 0.632,8.7 6.916,15.333 14.037,14.816 C -4.628,16.172 0.632,8.7 0,0" /></g><g
           transform="translate(247.0171,294.2256)"
           id="g366"><path
             id="path368"
             style="fill:#fd927e;fill-opacity:1;fill-rule:nonzero;stroke:none"
             d="m 0,0 c -0.347,-4.781 -3.801,-8.427 -7.715,-8.143 -3.913,0.284 -6.804,4.391 -6.457,9.172 0.347,4.781 3.801,8.427 7.714,8.142 C -2.544,8.888 0.347,4.781 0,0" /></g><g
           transform="translate(318.5762,249.1343)"
           id="g370"><path
             id="path372"
             style="fill:#4cc4a8;fill-opacity:1;fill-rule:nonzero;stroke:none"
             d="M 0,0 33.992,14.486 40.335,-14.389 6.15,-33.428 Z" /></g><g
           transform="translate(265.8232,226.8125)"
           id="g374"><path
             id="path376"
             style="fill:#fdb996;fill-opacity:1;fill-rule:nonzero;stroke:none"
             d="m 0,0 c 0,0 -31.157,7.789 -37.503,18.463 -6.347,10.673 9.357,18.666 17.886,14.927 8.529,-3.739 32.021,-11.754 32.021,-11.754 z" /></g><g
           id="g378"><g
             id="g380" /><g
             id="g392"><g
               style="opacity:0.10000598"
               id="g390"
               clip-path="url(#clipPath384)"><g
                 id="g388"
                 transform="translate(252.8242,293.8037)"><path
                   id="path386"
                   style="fill:#000000;fill-opacity:1;fill-rule:nonzero;stroke:none"
                   d="m 0,0 c -0.631,-8.7 -6.916,-15.333 -14.037,-14.816 -7.121,0.516 -12.381,7.988 -11.75,16.689 0.632,8.7 6.916,15.333 14.037,14.816 C -4.628,16.172 0.632,8.7 0,0" /></g></g></g></g><g
           id="g394"><g
             id="g396" /><g
             id="g408"><g
               style="opacity:0.10000598"
               id="g406"
               clip-path="url(#clipPath400)"><g
                 id="g404"
                 transform="translate(265.8232,226.8125)"><path
                   id="path402"
                   style="fill:#000000;fill-opacity:1;fill-rule:nonzero;stroke:none"
                   d="m 0,0 c 0,0 -31.157,7.789 -37.503,18.463 -6.347,10.673 9.357,18.666 17.886,14.927 8.529,-3.739 32.021,-11.754 32.021,-11.754 z" /></g></g></g></g><g
           transform="translate(371.8867,125.8047)"
           id="g410"><path
             id="path412"
             style="fill:none;stroke:#206f80;stroke-width:1;stroke-linecap:butt;stroke-linejoin:miter;stroke-miterlimit:10;stroke-dasharray:none;stroke-opacity:1"
             d="m 0,0 c -3.89,3.836 -7.779,7.678 -11.969,11.181 -10.653,8.908 -19.165,19.84 -22.293,33.61" /></g><g
           transform="translate(296.2168,160.248)"
           id="g414"><path
             id="path416"
             style="fill:none;stroke:#206f80;stroke-width:1;stroke-linecap:butt;stroke-linejoin:miter;stroke-miterlimit:10;stroke-dasharray:none;stroke-opacity:1"
             d="M 0,0 C -1.843,5.504 -1.473,11.95 -0.046,17.494" /></g><g
           transform="translate(284.0225,247.3623)"
           id="g418"><path
             id="path420"
             style="fill:#4cc4a8;fill-opacity:1;fill-rule:nonzero;stroke:none"
             d="m 0,0 -19.98,5.221 -23.409,-22.381 27.622,-9.736 z" /></g><g
           transform="translate(345.6406,169.9814)"
           id="g422"><path
             id="path424"
             style="fill:#4cc4a8;fill-opacity:1;fill-rule:nonzero;stroke:none"
             d="m 0,0 c -2.619,16.04 -10.789,47.337 -14.609,56.089 -3.308,7.58 -6.326,15.777 -11.7,22.198 -22.261,26.596 -54.044,-6.166 -59.407,-29.717 -1.998,-8.775 -3.857,-23.472 -3.824,-36.899 0,0 6.746,-5.974 39.2,-10.301 C -17.886,-2.957 0,0 0,0" /></g><g
           id="g426"><g
             id="g428" /><g
             id="g440"><g
               style="opacity:0.10000598"
               id="g438"
               clip-path="url(#clipPath432)"><g
                 id="g436"
                 transform="translate(294.9736,231.3779)"><path
                   id="path434"
                   style="fill:#000000;fill-opacity:1;fill-rule:nonzero;stroke:none"
                   d="M 0,0 C 25.929,0 48.134,12.488 57.423,30.221 L 56.979,32.242 22.986,17.756 c -12.5,14.057 -27.818,9.991 -39.774,-0.407 l -14.76,3.856 -9.455,-9.04 C -30.065,4.599 -15.721,0 0,0" /></g></g></g></g><g
           id="g442"><g
             id="g444" /><g
             id="g456"><g
               style="opacity:0.10000598"
               id="g454"
               clip-path="url(#clipPath448)"><g
                 id="g452"
                 transform="translate(300.3818,174.3047)"><path
                   id="path450"
                   style="fill:#000000;fill-opacity:1;fill-rule:nonzero;stroke:none"
                   d="m 0,0 c -32.454,4.327 -36.956,18.683 -36.956,18.683 -2.071,13.775 -0.418,19.742 1.58,28.518 2.689,11.812 12.024,25.938 23.472,33.733 -13.691,-6.621 -25.475,-23.168 -28.553,-36.687 -1.998,-8.775 -3.857,-23.473 -3.824,-36.899 0,0 6.746,-5.974 39.2,-10.301 32.454,-4.327 50.34,-1.37 50.34,-1.37 -0.123,0.755 -0.263,1.554 -0.409,2.374 C 37.264,-2.52 21.978,-2.93 0,0" /></g></g></g></g><g
           transform="translate(362.1924,289.7012)"
           id="g458"><path
             id="path460"
             style="fill:#fdb996;fill-opacity:1;fill-rule:nonzero;stroke:none"
             d="m 0,0 c 0,-26.926 -27.793,-48.753 -62.078,-48.753 -34.284,0 -62.077,21.827 -62.077,48.753 0,26.926 27.793,48.753 62.077,48.753 C -27.793,48.753 0,26.926 0,0" /></g><g
           transform="translate(350.1025,302.9565)"
           id="g462"><path
             id="path464"
             style="fill:#703d3a;fill-opacity:1;fill-rule:nonzero;stroke:none"
             d="m 0,0 c 3.175,-6.425 3.454,-13.379 1.288,-20.158 -2.039,-6.382 7.985,-9.113 10.015,-2.761 3.027,9.477 2.049,19.288 -2.335,28.161 C 6.008,11.234 -2.953,5.978 0,0" /></g><g
           transform="translate(246.2236,295.291)"
           id="g466"><path
             id="path468"
             style="fill:#703d3a;fill-opacity:1;fill-rule:nonzero;stroke:none"
             d="M 0,0 C -0.966,7.067 1.3,13.828 5.461,19.475 9.43,24.86 0.42,30.046 -3.506,24.717 -9.443,16.661 -11.354,7.041 -10.015,-2.761 c 0.383,-2.8 3.937,-4.273 6.388,-3.627 C -0.622,-5.595 0.378,-2.766 0,0" /></g><g
           id="g470"><g
             id="g472" /><g
             id="g484"><g
               style="opacity:0.10000598"
               id="g482"
               clip-path="url(#clipPath476)"><g
                 id="g480"
                 transform="translate(300.8457,294.5532)"><path
                   id="path478"
                   style="fill:#000000;fill-opacity:1;fill-rule:nonzero;stroke:none"
                   d="m 0,0 c -34.231,-1.774 -63.676,13.94 -62.873,17.121 -1.252,-4.88 -2.112,-6.588 -1.953,-9.077 0.619,-9.677 28.464,-15.923 62.695,-14.149 33.907,1.757 63.366,14.098 63.315,27.18 C 54.15,11.518 28.286,1.466 0,0" /></g></g></g></g><g
           transform="translate(362.0293,315.6284)"
           id="g486"><path
             id="path488"
             style="fill:#f9a01b;fill-opacity:1;fill-rule:nonzero;stroke:none"
             d="m 0,0 c 0.163,-6.462 -26.96,-19.301 -61.192,-21.075 -34.232,-1.775 -62.8,11.88 -62.873,17.12 -0.346,24.994 25.769,46.654 60.002,48.428 C -29.832,46.247 -0.631,24.988 0,0" /></g><g
           transform="translate(314.3467,305.833)"
           id="g490"><path
             id="path492"
             style="fill:#703d3a;fill-opacity:1;fill-rule:nonzero;stroke:none"
             d="m 0,0 c 0,-12.331 -8.538,-9.904 -19.069,-9.904 -10.532,0 -19.07,-2.427 -19.07,9.904 0,12.331 8.538,22.327 19.07,22.327 C -8.538,22.327 0,12.331 0,0" /></g><g
           id="g494"><g
             id="g496" /><g
             id="g508"><g
               style="opacity:0.10000598"
               id="g506"
               clip-path="url(#clipPath500)"><g
                 id="g504"
                 transform="translate(295.2773,328.1602)"><path
                   id="path502"
                   style="fill:#000000;fill-opacity:1;fill-rule:nonzero;stroke:none"
                   d="m 0,0 c -3.821,0 -7.378,-1.321 -10.361,-3.588 2.191,1.029 4.582,1.601 7.088,1.601 10.532,0 19.069,-9.997 19.069,-22.327 0,-3.659 -0.756,-6.011 -2.088,-7.52 3.316,0.981 5.361,3.478 5.361,9.507 C 19.069,-9.996 10.531,0 0,0" /></g></g></g></g><g
           transform="translate(315.0303,295.7178)"
           id="g510"><path
             id="path512"
             style="fill:#d07f44;fill-opacity:1;fill-rule:nonzero;stroke:none"
             d="m 0,0 c -4.552,-0.521 -9.305,-0.873 -14.193,-1.165 -10.659,-0.636 -16.697,0.432 -24.162,1.197 l -0.467,10.645 c 7.466,-0.765 15.605,-1.64 24.163,-1.196 4.889,0.253 9.641,0.644 14.192,1.165 z" /></g><g
           transform="translate(282.9678,101.4668)"
           id="g514"><path
             id="path516"
             style="fill:#ffffff;fill-opacity:1;fill-rule:nonzero;stroke:none"
             d="m 0,0 h -34.942 c -1.374,0 -2.488,1.113 -2.488,2.488 0,1.374 1.114,2.489 2.488,2.489 H 0 C 1.375,4.977 2.488,3.862 2.488,2.488 2.488,1.113 1.375,0 0,0" /></g><g
           transform="translate(385.7402,101.4668)"
           id="g518"><path
             id="path520"
             style="fill:#ffffff;fill-opacity:1;fill-rule:nonzero;stroke:none"
             d="m 0,0 h -22.177 c -1.375,0 -2.488,1.113 -2.488,2.488 0,1.374 1.113,2.489 2.488,2.489 H 0 C 1.374,4.977 2.488,3.862 2.488,2.488 2.488,1.113 1.374,0 0,0" /></g><g
           transform="translate(386.6055,106.4434)"
           id="g522"><path
             id="path524"
             style="fill:#d07f44;fill-opacity:1;fill-rule:nonzero;stroke:none"
             d="m 0,0 h -23.908 l -3.895,12.088 19.473,2.353 z" /></g><g
           transform="translate(376.5449,120.3984)"
           id="g526"><path
             id="path528"
             style="fill:#efc4b1;fill-opacity:1;fill-rule:nonzero;stroke:none"
             d="M 0,0 -17.674,-2.079 -21.126,0.65 -3.841,5.521 Z" /></g><g
           transform="translate(378.5918,119.8564)"
           id="g530"><path
             id="path532"
             style="fill:#d07f44;fill-opacity:1;fill-rule:nonzero;stroke:none"
             d="m 0,0 c 0.309,-2.701 -3.253,-5.326 -7.956,-5.863 -4.702,-0.537 -8.765,1.217 -9.073,3.918 -0.308,2.701 3.254,5.326 7.957,5.863 C -4.37,4.455 -0.309,2.7 0,0" /></g><g
           transform="translate(284.1582,106.4434)"
           id="g534"><path
             id="path536"
             style="fill:#f9a01b;fill-opacity:1;fill-rule:nonzero;stroke:none"
             d="m 0,0 h -37.322 v 0.002 c 0,6.73 5.455,12.186 12.185,12.186 h 22.216 z" /></g><g
           transform="translate(386.6055,106.4434)"
           id="g538"><path
             id="path540"
             style="fill:#f9a01b;fill-opacity:1;fill-rule:nonzero;stroke:none"
             d="m 0,0 h -23.908 v 0.002 c 0,6.73 6.182,12.186 10.494,12.186 h 3.245 C -5.858,12.188 0,6.732 0,0.002 Z" /></g><g
           transform="translate(309.4053,284.29)"
           id="g542"><path
             id="path544"
             style="fill:#151d32;fill-opacity:1;fill-rule:nonzero;stroke:none"
             d="m 0,0 c 0.645,-1.041 1.187,-2.078 1.822,-2.815 0.309,-0.377 0.63,-0.597 0.842,-0.606 0.421,-0.169 0.803,-0.33 1.207,-0.406 1.546,-0.367 3.177,-0.106 5.218,0.285 l 1.622,0.297 c 0.531,0.073 0.966,0.153 1.455,0.245 0.956,0.178 1.907,0.422 2.88,0.691 1.952,0.552 3.885,1.316 6.131,2.317 C 20.518,-2.375 18.853,-4.394 16.813,-5.831 15.792,-6.56 14.656,-7.128 13.469,-7.567 12.886,-7.78 12.233,-7.949 11.67,-8.094 L 10.013,-8.453 C 8.837,-8.663 7.542,-8.817 6.163,-8.684 4.8,-8.575 3.337,-8.129 2.129,-7.307 c -0.605,0.405 -1.132,0.901 -1.572,1.438 -0.646,0.715 -0.871,1.511 -0.972,2.163 -0.097,0.676 -0.088,1.303 -0.001,1.919 C -0.34,-1.175 -0.209,-0.583 0,0" /></g><g
           transform="translate(257.7793,285.2827)"
           id="g546"><path
             id="path548"
             style="fill:#151d32;fill-opacity:1;fill-rule:nonzero;stroke:none"
             d="m 0,0 c 0.494,-1.12 0.889,-2.221 1.416,-3.04 0.253,-0.416 0.541,-0.678 0.75,-0.716 0.394,-0.225 0.75,-0.438 1.139,-0.569 1.48,-0.577 3.132,-0.543 5.207,-0.438 l 1.648,0.071 c 0.535,-10e-4 0.978,0.018 1.475,0.042 0.971,0.044 1.947,0.154 2.947,0.286 2.01,0.277 4.03,0.767 6.393,1.449 -0.983,-2.27 -2.91,-4.04 -5.128,-5.181 -1.113,-0.581 -2.316,-0.987 -3.552,-1.258 -0.607,-0.13 -1.277,-0.208 -1.855,-0.273 L 8.749,-9.754 C 7.556,-9.799 6.251,-9.773 4.905,-9.451 3.569,-9.155 2.183,-8.512 1.1,-7.531 0.557,-7.046 0.103,-6.482 -0.26,-5.889 -0.8,-5.092 -0.913,-4.272 -0.923,-3.613 -0.926,-2.93 -0.83,-2.31 -0.66,-1.712 -0.499,-1.117 -0.288,-0.549 0,0" /></g><g
           transform="translate(280.1914,265.5278)"
           id="g550"><path
             id="path552"
             style="fill:#fc937e;fill-opacity:1;fill-rule:nonzero;stroke:none"
             d="m 0,0 c 0.056,1.098 0.271,2.119 0.699,3.148 0.431,1.01 1.139,2.035 2.189,2.808 1.03,0.782 2.299,1.238 3.511,1.407 1.225,0.184 2.403,0.101 3.496,-0.091 1.093,-0.208 2.117,-0.525 3.067,-0.924 0.939,-0.403 1.832,-0.843 2.718,-1.4 1.739,-1.096 3.443,-2.586 4.294,-4.626 L 14.228,1.294 C 13.324,1.446 12.401,1.642 11.511,1.833 10.632,2.026 9.795,2.215 8.997,2.355 7.384,2.646 6.041,2.797 4.752,2.509 3.429,2.297 1.886,1.103 0,0" /></g><g
           transform="translate(314.7139,260.3701)"
           id="g554"><path
             id="path556"
             style="fill:#633a43;fill-opacity:1;fill-rule:nonzero;stroke:none"
             d="m 0,0 c 1.397,-8.301 -0.596,-14.632 -8.703,-15.997 -8.108,-1.364 -19.256,6.167 -20.656,11.054" /></g></g></g><g
       id="g558"><g
         clip-path="url(#clipPath564)"
         id="g560"><g
           transform="translate(312.7275,246.7295)"
           id="g566"><path
             id="path568"
             style="fill:#ed5a4f;fill-opacity:1;fill-rule:nonzero;stroke:none"
             d="m 0,0 c 0.547,-3.248 -3.582,-6.65 -9.223,-7.601 -5.639,-0.949 -10.655,0.914 -11.202,4.163 -0.547,3.248 3.582,6.65 9.222,7.6 C -5.562,5.112 -0.547,3.249 0,0" /></g></g></g><g
       id="g570"><g
         clip-path="url(#clipPath576)"
         id="g572"><g
           transform="translate(297.2109,299.6641)"
           id="g578"><path
             id="path580"
             style="fill:#f9a01b;fill-opacity:1;fill-rule:nonzero;stroke:none"
             d="m 0,0 c 0,-0.778 -0.631,-1.408 -1.408,-1.408 -0.779,0 -1.408,0.63 -1.408,1.408 0,0.778 0.629,1.408 1.408,1.408 C -0.631,1.408 0,0.778 0,0" /></g><g
           transform="translate(304.6855,300.2202)"
           id="g582"><path
             id="path584"
             style="fill:#f9a01b;fill-opacity:1;fill-rule:nonzero;stroke:none"
             d="m 0,0 c 0,-0.778 -0.631,-1.409 -1.408,-1.409 -0.779,0 -1.408,0.631 -1.408,1.409 0,0.777 0.629,1.408 1.408,1.408 C -0.631,1.408 0,0.777 0,0" /></g><g
           transform="translate(289.7363,299.9419)"
           id="g586"><path
             id="path588"
             style="fill:#f9a01b;fill-opacity:1;fill-rule:nonzero;stroke:none"
             d="m 0,0 c 0,-0.778 -0.631,-1.408 -1.408,-1.408 -0.779,0 -1.408,0.63 -1.408,1.408 0,0.778 0.629,1.408 1.408,1.408 C -0.631,1.408 0,0.778 0,0" /></g><g
           transform="translate(282.2617,300.498)"
           id="g590"><path
             id="path592"
             style="fill:#f9a01b;fill-opacity:1;fill-rule:nonzero;stroke:none"
             d="m 0,0 c 0,-0.778 -0.631,-1.408 -1.408,-1.408 -0.779,0 -1.408,0.63 -1.408,1.408 0,0.778 0.629,1.408 1.408,1.408 C -0.631,1.408 0,0.778 0,0" /></g><g
           transform="translate(338.4629,271.728)"
           id="g594"><path
             id="path596"
             style="fill:#fd927e;fill-opacity:1;fill-rule:nonzero;stroke:none"
             d="m 0,0 c 0.665,-2.215 -1.767,-4.904 -5.433,-6.005 -3.665,-1.101 -7.175,-0.198 -7.841,2.018 -0.665,2.215 1.766,4.904 5.432,6.005 C -4.177,3.119 -0.666,2.215 0,0" /></g><g
           transform="translate(260.542,267.6167)"
           id="g598"><path
             id="path600"
             style="fill:#fd927e;fill-opacity:1;fill-rule:nonzero;stroke:none"
             d="m 0,0 c -0.735,-2.193 -4.272,-2.986 -7.902,-1.771 -3.629,1.217 -5.975,3.98 -5.241,6.174 0.735,2.193 4.273,2.986 7.902,1.77 C -1.611,4.957 0.734,2.193 0,0" /></g><g
           transform="translate(227.8062,252.5723)"
           id="g602"><path
             id="path604"
             style="fill:#fdb996;fill-opacity:1;fill-rule:nonzero;stroke:none"
             d="m 0,0 c 0.973,2.757 2.977,5.431 5.392,7.366 9.842,7.888 20.979,13.848 32.692,18.481 8.514,3.368 17.824,7.237 26.961,8.316 1.095,0.129 2.214,0.206 3.291,-0.028 1.691,-0.366 3.043,-1.633 3.539,-3.29 C 74.349,22.558 64.409,16.986 58.977,12.885 50.597,6.558 41.788,0.807 32.682,-4.42 24.442,-9.151 15.332,-14.708 5.483,-11.086 -0.508,-8.883 -1.531,-4.338 0,0" /></g><g
           transform="translate(309.0957,275.6079)"
           id="g606"><path
             id="path608"
             style="fill:#fdb996;fill-opacity:1;fill-rule:nonzero;stroke:none"
             d="M 0,0 C 1.155,0.492 2.282,1.048 3.378,1.66 5.236,2.698 7.605,3.893 8.772,5.739 9.2,6.416 9.327,7.345 8.873,8.004 8.371,8.731 7.358,8.897 6.48,8.798 5.604,8.698 4.742,8.398 3.86,8.447 c 1.508,0.639 2.917,1.511 4.164,2.571 2.804,2.381 5.696,5.779 6.431,9.481 0.108,0.541 0.168,1.105 0.039,1.64 -0.129,0.536 -0.476,1.044 -0.989,1.246 -0.907,0.358 -1.868,-0.318 -2.593,-0.97 0.655,1.257 1.165,2.66 1,4.068 -0.129,1.101 -0.727,2.188 -1.712,2.696 C 9.215,29.687 7.849,29.468 7.224,28.553 6.862,30.052 5.917,31.028 4.286,30.79 3.417,30.663 2.627,30.225 1.879,29.763 -1.097,27.926 -3.738,25.599 -6.619,23.617 -11.73,20.101 -17.82,17.21 -21.482,11.949 -23.765,8.67 -24.229,4.046 -21.592,0.778 c 1.15,-1.424 2.887,-2.063 4.605,-2.499 4.59,-1.167 9.435,-0.808 13.93,0.594 C -2.02,-0.803 -0.999,-0.426 0,0" /></g><g
           id="g610"><g
             id="g612" /><g
             id="g624"><g
               style="opacity:0.10000598"
               id="g622"
               clip-path="url(#clipPath616)"><g
                 id="g620"
                 transform="translate(315.7529,284.4185)"><path
                   id="path618"
                   style="fill:#000000;fill-opacity:1;fill-rule:nonzero;stroke:none"
                   d="m 0,0 c -0.004,-0.007 -0.008,-0.015 -0.012,-0.022 -1.167,-1.846 -3.536,-3.041 -5.394,-4.08 -1.096,-0.611 -2.224,-1.168 -3.378,-1.659 -1,-0.426 -2.02,-0.803 -3.057,-1.127 -3.067,-0.957 -6.296,-1.411 -9.496,-1.244 -2.884,-3.109 -6.932,-5.644 -9.76,-7.78 -8.38,-6.327 -17.19,-12.078 -26.295,-17.305 -8.24,-4.731 -17.35,-10.287 -27.198,-6.666 -1.471,0.541 -2.639,1.224 -3.547,2.009 0.752,-2.085 2.519,-3.898 5.674,-5.058 9.848,-3.622 18.958,1.934 27.198,6.666 9.106,5.226 17.915,10.978 26.295,17.305 2.828,2.135 6.876,4.671 9.76,7.78 3.2,-0.168 6.43,0.287 9.496,1.243 1.037,0.324 2.058,0.702 3.057,1.127 1.155,0.492 2.282,1.048 3.378,1.66 1.858,1.038 4.227,2.234 5.394,4.079 0.428,0.677 0.555,1.606 0.101,2.265 C 1.747,-0.128 0.834,0.059 0,0" /></g></g></g></g><g
           transform="translate(300.8057,292.8999)"
           id="g626"><path
             id="path628"
             style="fill:#fc937e;fill-opacity:1;fill-rule:nonzero;stroke:none"
             d="m 0,0 c 1.173,0.531 2.484,0.681 3.775,0.592 1.294,-0.099 2.576,-0.466 3.744,-1.068 1.158,-0.595 2.326,-1.514 2.935,-2.85 0.308,-0.671 0.405,-1.406 0.324,-2.103 -0.101,-0.693 -0.408,-1.368 -0.935,-1.758 0.286,1.246 -0.15,2.306 -0.749,3.071 C 8.467,-3.333 7.582,-2.764 6.6,-2.251 5.608,-1.74 4.57,-1.307 3.479,-0.946 2.385,-0.574 1.245,-0.301 0,0" /></g><g
           transform="translate(318.4141,294.5991)"
           id="g630"><path
             id="path632"
             style="fill:#fc937e;fill-opacity:1;fill-rule:nonzero;stroke:none"
             d="m 0,0 c 0.099,-0.931 -0.337,-1.849 -0.9,-2.564 -0.579,-0.72 -1.315,-1.276 -2.098,-1.688 -0.786,-0.412 -1.632,-0.678 -2.498,-0.803 -0.866,-0.112 -1.765,-0.111 -2.64,0.192 0.754,0.527 1.46,0.917 2.158,1.305 l 2.056,1.079 c 0.671,0.351 1.327,0.695 1.97,1.077 C -1.302,-1.019 -0.685,-0.613 0,0" /></g><g
           transform="translate(314.6904,300.498)"
           id="g634"><path
             id="path636"
             style="fill:#fc937e;fill-opacity:1;fill-rule:nonzero;stroke:none"
             d="m 0,0 c 0.334,-1.077 -0.027,-2.301 -0.602,-3.257 -0.585,-0.972 -1.379,-1.756 -2.203,-2.413 -0.818,-0.654 -1.726,-1.239 -2.729,-1.662 -1.001,-0.411 -2.106,-0.68 -3.208,-0.538 0.877,0.669 1.649,1.263 2.408,1.892 l 2.284,1.872 c 0.775,0.615 1.53,1.191 2.22,1.822 C -1.134,-1.65 -0.514,-0.977 0,0" /></g><g
           transform="translate(276.6641,119.7266)"
           id="g638"><path
             id="path640"
             style="fill:none;stroke:#206f80;stroke-width:1;stroke-linecap:butt;stroke-linejoin:miter;stroke-miterlimit:10;stroke-dasharray:none;stroke-opacity:1"
             d="m 0,0 c -0.577,1.224 -1.086,2.479 -1.558,3.746 -2.73,7.342 -4.527,14.907 -4.863,22.745 -0.174,4.056 0.959,8.162 2.925,11.696 1.92,3.448 3.362,5.641 6.143,8.441" /></g><g
           transform="translate(314.3779,284.002)"
           id="g642"><path
             id="path644"
             style="fill:#fc937e;fill-opacity:1;fill-rule:nonzero;stroke:none"
             d="m 0,0 c -0.354,-0.625 -0.818,-1.053 -1.312,-1.425 -0.499,-0.36 -1.04,-0.636 -1.607,-0.833 -0.568,-0.199 -1.164,-0.316 -1.778,-0.341 -0.617,-0.014 -1.248,0.037 -1.913,0.312 0.472,0.541 0.971,0.888 1.476,1.199 0.507,0.299 1.025,0.535 1.561,0.719 0.536,0.184 1.089,0.319 1.673,0.397 C -1.311,0.094 -0.705,0.131 0,0" /></g><g
           transform="translate(429.1006,295.9292)"
           id="g646"><path
             id="path648"
             style="fill:#fc937e;fill-opacity:1;fill-rule:nonzero;stroke:none"
             d="m 0,0 c 0.099,-0.931 -0.337,-1.849 -0.901,-2.564 -0.579,-0.72 -1.314,-1.276 -2.097,-1.688 -0.786,-0.412 -1.632,-0.677 -2.498,-0.803 -0.867,-0.112 -1.765,-0.111 -2.64,0.192 0.754,0.528 1.46,0.917 2.158,1.305 l 2.055,1.079 c 0.671,0.351 1.328,0.696 1.971,1.077 C -1.302,-1.019 -0.685,-0.613 0,0" /></g><g
           transform="translate(425.3359,301.9707)"
           id="g650"><path
             id="path652"
             style="fill:#fc937e;fill-opacity:1;fill-rule:nonzero;stroke:none"
             d="m 0,0 c 0.334,-1.077 -0.026,-2.301 -0.602,-3.257 -0.585,-0.972 -1.379,-1.756 -2.202,-2.414 -0.818,-0.654 -1.727,-1.238 -2.73,-1.661 -1.001,-0.411 -2.105,-0.68 -3.208,-0.538 0.877,0.669 1.65,1.262 2.408,1.892 l 2.284,1.871 c 0.775,0.616 1.53,1.192 2.221,1.823 C -1.134,-1.651 -0.514,-0.977 0,0" /></g><g
           transform="translate(422.4951,282.4185)"
           id="g654"><path
             id="path656"
             style="fill:#fc937e;fill-opacity:1;fill-rule:nonzero;stroke:none"
             d="m 0,0 c -0.354,-0.624 -0.819,-1.053 -1.312,-1.425 -0.5,-0.36 -1.041,-0.636 -1.608,-0.833 -0.567,-0.199 -1.163,-0.316 -1.777,-0.341 -0.617,-0.014 -1.249,0.037 -1.913,0.312 0.471,0.541 0.97,0.888 1.475,1.199 0.507,0.299 1.026,0.535 1.562,0.719 0.536,0.184 1.089,0.319 1.673,0.397 C -1.312,0.094 -0.705,0.131 0,0" /></g><g
           transform="translate(287.5674,189.0928)"
           id="g658"><path
             id="path660"
             style="fill:#32a083;fill-opacity:1;fill-rule:nonzero;stroke:none"
             d="m 0,0 c 3.982,-0.231 7.895,-0.495 11.815,-0.782 1.963,-0.114 3.915,-0.303 5.874,-0.431 l 5.87,-0.471 c 3.913,-0.322 7.822,-0.708 11.735,-1.126 3.915,-0.417 7.824,-0.881 11.765,-1.517 -3.948,-0.613 -7.922,-0.8 -11.884,-0.82 -3.963,-0.015 -7.924,0.133 -11.87,0.476 -1.971,0.197 -3.944,0.39 -5.909,0.641 -1.962,0.292 -3.929,0.545 -5.877,0.934 C 7.619,-2.367 3.726,-1.446 0,0" /></g><g
           transform="translate(368.8818,115.3975)"
           id="g662"><path
             id="path664"
             style="fill:#ffffff;fill-opacity:1;fill-rule:nonzero;stroke:none"
             d="m 0,0 c 2.428,3.388 7.098,3.282 10.154,0.882 1.252,-0.983 3.034,0.774 1.769,1.767 C 7.524,6.103 1.278,6.059 -2.158,1.263 -3.098,-0.048 -0.93,-1.297 0,0" /></g><g
           transform="translate(266.21,118.2734)"
           id="g666"><path
             id="path668"
             style="fill:#f9a01b;fill-opacity:1;fill-rule:nonzero;stroke:none"
             d="m 0,0 c 0.504,-2.306 -0.64,-4.514 -2.555,-4.933 -1.915,-0.419 -3.876,1.112 -4.38,3.416 -0.503,2.306 0.64,4.515 2.555,4.933 C -2.465,3.835 -0.504,2.306 0,0" /></g><g
           transform="translate(254.459,116.5488)"
           id="g670"><path
             id="path672"
             style="fill:#ffffff;fill-opacity:1;fill-rule:nonzero;stroke:none"
             d="M 0,0 C 1.761,0.654 3.504,-0.396 4.124,-2.088 4.673,-3.587 7.09,-2.939 6.534,-1.424 5.479,1.455 2.437,3.563 -0.665,2.411 -2.16,1.856 -1.513,-0.562 0,0" /></g><g
           transform="translate(257.9209,117.1465)"
           id="g674"><path
             id="path676"
             style="fill:#ffffff;fill-opacity:1;fill-rule:nonzero;stroke:none"
             d="M 0,0 C 1.761,0.653 3.504,-0.396 4.124,-2.089 4.673,-3.587 7.09,-2.939 6.534,-1.424 5.479,1.454 2.437,3.562 -0.665,2.41 -2.16,1.855 -1.513,-0.562 0,0" /></g><g
           transform="translate(273.29,171.6162)"
           id="g678"><path
             id="path680"
             style="fill:#023a47;fill-opacity:1;fill-rule:nonzero;stroke:none"
             d="m 0,0 c 1.189,-1.452 2.625,-2.536 4.179,-3.441 1.531,-0.929 3.164,-1.683 4.819,-2.382 3.329,-1.362 6.774,-2.464 10.266,-3.432 3.492,-0.971 7.03,-1.807 10.6,-2.57 3.576,-0.744 7.174,-1.401 10.862,-2.031 -3.699,-0.62 -7.476,-0.609 -11.204,-0.286 -3.736,0.308 -7.439,0.994 -11.063,1.997 C 14.842,-11.129 11.279,-9.8 7.97,-7.917 6.311,-6.992 4.729,-5.896 3.301,-4.614 1.899,-3.324 0.612,-1.793 0,0" /></g><g
           transform="translate(328.4072,235.7539)"
           id="g682"><path
             id="path684"
             style="fill:#32a083;fill-opacity:1;fill-rule:nonzero;stroke:none"
             d="m 0,0 c 2.182,-3.24 3.67,-6.871 5.02,-10.479 0.7,-1.805 1.268,-3.648 1.87,-5.479 0.575,-1.84 1.086,-3.696 1.614,-5.547 1.009,-3.715 1.85,-7.47 2.574,-11.249 0.723,-3.78 1.32,-7.589 1.615,-11.465 -1.508,3.583 -2.739,7.23 -3.885,10.895 -1.144,3.665 -2.213,7.344 -3.2,11.041 L 4.164,-16.73 2.79,-11.163 C 1.866,-7.446 1.041,-3.734 0,0" /></g><g
           transform="translate(307.5107,357.7832)"
           id="g686"><path
             id="path688"
             style="fill:#014958;fill-opacity:1;fill-rule:nonzero;stroke:none"
             d="m 0,0 c 0,-2.071 -3.399,-3.75 -7.593,-3.75 -4.193,0 -7.593,1.679 -7.593,3.75 0,2.071 3.4,3.75 7.593,3.75 C -3.399,3.75 0,2.071 0,0" /></g></g></g><g
       id="g690"><g
         clip-path="url(#clipPath696)"
         id="g692"><g
           transform="translate(173.021,20.3486)"
           id="g698"><path
             id="path700"
             style="fill:#f9a01b;fill-opacity:1;fill-rule:nonzero;stroke:none"
             d="m 0,0 c 0,-0.466 0.073,-0.862 0.217,-1.189 0.145,-0.329 0.344,-0.576 0.595,-0.741 0.252,-0.166 0.527,-0.25 0.825,-0.25 0.302,0 0.578,0.079 0.828,0.238 0.25,0.157 0.45,0.398 0.598,0.723 C 3.212,-0.894 3.287,-0.486 3.287,0 3.287,0.458 3.212,0.852 3.063,1.182 2.915,1.511 2.713,1.762 2.459,1.937 2.205,2.11 1.927,2.197 1.625,2.197 1.31,2.197 1.029,2.107 0.781,1.93 0.533,1.752 0.341,1.496 0.205,1.162 0.068,0.828 0,0.44 0,0 m 3.382,-2.525 v 0.171 C 3.15,-2.619 2.923,-2.834 2.698,-2.999 2.474,-3.166 2.23,-3.292 1.968,-3.378 1.706,-3.465 1.419,-3.507 1.108,-3.507 c -0.411,0 -0.792,0.087 -1.143,0.261 -0.35,0.174 -0.653,0.424 -0.909,0.746 -0.257,0.323 -0.451,0.703 -0.583,1.14 -0.132,0.437 -0.198,0.909 -0.198,1.417 0,1.074 0.263,1.913 0.787,2.512 0.525,0.6 1.215,0.901 2.072,0.901 0.495,0 0.912,-0.086 1.253,-0.255 0.34,-0.17 0.671,-0.433 0.995,-0.784 v 2.537 c 0,0.353 0.07,0.619 0.211,0.8 0.14,0.18 0.34,0.27 0.601,0.27 0.26,0 0.46,-0.083 0.601,-0.248 C 4.936,5.623 5.006,5.38 5.006,5.057 v -7.582 c 0,-0.328 -0.075,-0.573 -0.227,-0.737 -0.151,-0.163 -0.346,-0.245 -0.585,-0.245 -0.236,0 -0.429,0.085 -0.583,0.254 -0.153,0.171 -0.229,0.413 -0.229,0.728" /></g><g
           transform="translate(180.6201,20.8896)"
           id="g702"><path
             id="path704"
             style="fill:#f9a01b;fill-opacity:1;fill-rule:nonzero;stroke:none"
             d="M 0,0 H 3.117 C 3.076,0.588 2.916,1.028 2.642,1.319 2.366,1.611 2.005,1.757 1.556,1.757 1.127,1.757 0.775,1.609 0.501,1.313 0.226,1.018 0.06,0.58 0,0 M 3.362,-0.977 H 0 c 0.004,-0.389 0.083,-0.733 0.237,-1.031 0.152,-0.299 0.356,-0.523 0.61,-0.674 0.254,-0.151 0.534,-0.226 0.84,-0.226 0.206,0 0.394,0.023 0.564,0.071 0.17,0.05 0.335,0.124 0.495,0.228 0.159,0.102 0.306,0.213 0.44,0.331 0.134,0.117 0.308,0.277 0.523,0.478 0.088,0.075 0.214,0.113 0.378,0.113 0.176,0 0.319,-0.048 0.428,-0.145 0.109,-0.097 0.164,-0.232 0.164,-0.409 0,-0.155 -0.062,-0.336 -0.182,-0.545 C 4.374,-2.993 4.19,-3.192 3.945,-3.384 3.699,-3.575 3.391,-3.732 3.019,-3.859 2.648,-3.985 2.221,-4.048 1.738,-4.048 c -1.104,0 -1.963,0.316 -2.575,0.944 -0.613,0.629 -0.919,1.484 -0.919,2.563 0,0.508 0.075,0.979 0.226,1.413 0.152,0.436 0.372,0.808 0.661,1.118 0.29,0.311 0.646,0.548 1.071,0.715 0.423,0.166 0.894,0.248 1.41,0.248 0.672,0 1.248,-0.14 1.728,-0.425 C 3.821,2.245 4.182,1.879 4.42,1.431 4.659,0.98 4.779,0.522 4.779,0.058 4.779,-0.375 4.655,-0.655 4.408,-0.784 4.161,-0.911 3.812,-0.977 3.362,-0.977" /></g><g
           transform="translate(191.8149,19.0898)"
           id="g706"><path
             id="path708"
             style="fill:#f9a01b;fill-opacity:1;fill-rule:nonzero;stroke:none"
             d="m 0,0 c 0,-0.475 -0.115,-0.881 -0.347,-1.219 -0.23,-0.338 -0.571,-0.594 -1.023,-0.768 -0.451,-0.174 -1,-0.261 -1.646,-0.261 -0.617,0 -1.146,0.095 -1.587,0.283 -0.44,0.189 -0.766,0.426 -0.976,0.708 -0.21,0.284 -0.315,0.568 -0.315,0.854 0,0.189 0.067,0.35 0.202,0.484 0.134,0.134 0.304,0.201 0.51,0.201 0.181,0 0.319,-0.044 0.415,-0.132 0.097,-0.088 0.19,-0.212 0.277,-0.371 0.177,-0.307 0.388,-0.534 0.634,-0.686 0.245,-0.152 0.579,-0.227 1.004,-0.227 0.344,0 0.626,0.077 0.847,0.23 0.22,0.154 0.33,0.329 0.33,0.526 0,0.303 -0.114,0.522 -0.343,0.66 -0.229,0.139 -0.606,0.272 -1.13,0.398 -0.592,0.146 -1.074,0.3 -1.445,0.463 -0.372,0.161 -0.669,0.374 -0.891,0.638 -0.223,0.265 -0.334,0.59 -0.334,0.977 0,0.344 0.103,0.669 0.308,0.975 0.206,0.306 0.51,0.551 0.911,0.734 0.4,0.182 0.884,0.274 1.451,0.274 0.444,0 0.845,-0.046 1.199,-0.139 C -1.594,4.511 -1.297,4.386 -1.061,4.23 -0.824,4.075 -0.644,3.903 -0.52,3.715 -0.396,3.525 -0.334,3.342 -0.334,3.16 -0.334,2.963 -0.4,2.802 -0.532,2.675 -0.664,2.55 -0.852,2.486 -1.096,2.486 c -0.176,0 -0.326,0.051 -0.45,0.153 -0.123,0.099 -0.265,0.251 -0.425,0.452 -0.13,0.168 -0.282,0.303 -0.459,0.403 -0.176,0.101 -0.416,0.152 -0.718,0.152 -0.311,0 -0.569,-0.067 -0.775,-0.2 C -4.128,3.314 -4.231,3.15 -4.231,2.953 -4.231,2.771 -4.156,2.624 -4.005,2.509 -3.854,2.393 -3.65,2.297 -3.394,2.222 -3.137,2.146 -2.786,2.055 -2.336,1.945 -1.803,1.814 -1.368,1.659 -1.029,1.479 -0.692,1.3 -0.436,1.086 -0.261,0.84 -0.087,0.595 0,0.314 0,0" /></g><g
           transform="translate(194.4214,22.8545)"
           id="g710"><path
             id="path712"
             style="fill:#f9a01b;fill-opacity:1;fill-rule:nonzero;stroke:none"
             d="m 0,0 v -4.968 c 0,-0.344 -0.082,-0.604 -0.246,-0.781 -0.164,-0.176 -0.371,-0.264 -0.623,-0.264 -0.253,0 -0.457,0.09 -0.614,0.271 -0.158,0.18 -0.236,0.438 -0.236,0.774 v 4.918 c 0,0.339 0.078,0.596 0.236,0.768 0.157,0.173 0.361,0.259 0.614,0.259 0.252,0 0.459,-0.086 0.623,-0.259 C -0.082,0.546 0,0.307 0,0 m -0.851,1.775 c -0.239,0 -0.443,0.074 -0.613,0.221 -0.17,0.147 -0.255,0.355 -0.255,0.623 0,0.244 0.087,0.444 0.261,0.602 0.174,0.158 0.377,0.236 0.607,0.236 0.223,0 0.42,-0.071 0.592,-0.214 C -0.086,3.1 0,2.893 0,2.619 0,2.354 -0.084,2.148 -0.252,1.999 -0.42,1.851 -0.62,1.775 -0.851,1.775" /></g><g
           transform="translate(196.9707,20.3926)"
           id="g714"><path
             id="path716"
             style="fill:#f9a01b;fill-opacity:1;fill-rule:nonzero;stroke:none"
             d="m 0,0 c 0,-0.696 0.152,-1.224 0.456,-1.58 0.304,-0.357 0.698,-0.535 1.181,-0.535 0.285,0 0.555,0.076 0.808,0.229 0.255,0.154 0.461,0.385 0.621,0.693 0.159,0.308 0.24,0.683 0.24,1.124 0,0.7 -0.155,1.247 -0.463,1.636 C 2.534,1.958 2.128,2.153 1.624,2.153 1.132,2.153 0.739,1.966 0.444,1.593 0.147,1.22 0,0.688 0,0 M 4.98,2.179 V -2.814 C 4.98,-3.385 4.919,-3.877 4.797,-4.288 4.676,-4.699 4.481,-5.039 4.212,-5.308 3.943,-5.576 3.592,-5.776 3.158,-5.905 2.723,-6.036 2.183,-6.101 1.536,-6.101 c -0.592,0 -1.12,0.082 -1.587,0.248 -0.465,0.166 -0.824,0.38 -1.076,0.643 -0.252,0.262 -0.379,0.532 -0.379,0.809 0,0.21 0.072,0.381 0.215,0.513 0.143,0.132 0.315,0.199 0.516,0.199 0.252,0 0.472,-0.112 0.661,-0.333 0.093,-0.114 0.188,-0.23 0.286,-0.344 0.099,-0.116 0.209,-0.215 0.328,-0.297 0.12,-0.081 0.264,-0.142 0.431,-0.182 0.168,-0.039 0.362,-0.059 0.58,-0.059 0.445,0 0.79,0.061 1.036,0.185 0.245,0.124 0.417,0.297 0.516,0.52 0.099,0.221 0.156,0.46 0.173,0.714 0.017,0.255 0.029,0.663 0.038,1.225 -0.265,-0.37 -0.569,-0.651 -0.917,-0.844 -0.346,-0.193 -0.758,-0.29 -1.236,-0.29 -0.576,0 -1.078,0.147 -1.509,0.441 -0.43,0.294 -0.76,0.705 -0.991,1.234 -0.231,0.53 -0.346,1.14 -0.346,1.832 0,0.516 0.07,0.983 0.21,1.398 0.141,0.417 0.342,0.766 0.602,1.052 0.26,0.286 0.56,0.5 0.9,0.645 0.34,0.145 0.714,0.218 1.121,0.218 0.486,0 0.909,-0.095 1.266,-0.28 C 2.73,2.958 3.062,2.665 3.368,2.267 V 2.5 c 0,0.298 0.073,0.528 0.22,0.693 0.148,0.163 0.337,0.245 0.568,0.245 0.331,0 0.551,-0.108 0.66,-0.324 C 4.926,2.897 4.98,2.586 4.98,2.179" /></g><g
           transform="translate(204.6831,22.8799)"
           id="g718"><path
             id="path720"
             style="fill:#f9a01b;fill-opacity:1;fill-rule:nonzero;stroke:none"
             d="m 0,0 v -0.208 c 0.302,0.399 0.632,0.691 0.991,0.879 0.36,0.186 0.771,0.28 1.238,0.28 0.453,0 0.858,-0.099 1.215,-0.297 C 3.8,0.457 4.068,0.178 4.243,-0.182 4.357,-0.393 4.43,-0.619 4.464,-0.862 4.498,-1.106 4.515,-1.416 4.515,-1.795 v -3.198 c 0,-0.344 -0.079,-0.605 -0.237,-0.781 -0.157,-0.176 -0.361,-0.264 -0.613,-0.264 -0.257,0 -0.464,0.09 -0.624,0.27 -0.16,0.181 -0.239,0.439 -0.239,0.775 v 2.865 c 0,0.566 -0.079,1 -0.237,1.3 -0.157,0.3 -0.47,0.451 -0.941,0.451 -0.306,0 -0.585,-0.092 -0.837,-0.274 C 0.535,-0.835 0.35,-1.086 0.233,-1.404 0.149,-1.66 0.107,-2.139 0.107,-2.84 v -2.153 c 0,-0.348 -0.082,-0.611 -0.242,-0.784 -0.162,-0.174 -0.37,-0.261 -0.627,-0.261 -0.248,0 -0.451,0.09 -0.611,0.27 -0.159,0.181 -0.239,0.439 -0.239,0.775 v 4.968 c 0,0.328 0.071,0.572 0.214,0.734 0.143,0.161 0.338,0.242 0.585,0.242 0.152,0 0.288,-0.036 0.41,-0.107 C -0.282,0.771 -0.184,0.665 -0.11,0.523 -0.037,0.38 0,0.205 0,0" /></g><g
           transform="translate(211.7783,20.8896)"
           id="g722"><path
             id="path724"
             style="fill:#f9a01b;fill-opacity:1;fill-rule:nonzero;stroke:none"
             d="M 0,0 H 3.117 C 3.075,0.588 2.917,1.028 2.642,1.319 2.367,1.611 2.004,1.757 1.556,1.757 1.127,1.757 0.775,1.609 0.5,1.313 0.225,1.018 0.059,0.58 0,0 M 3.362,-0.977 H 0 c 0.005,-0.389 0.083,-0.733 0.236,-1.031 0.154,-0.299 0.357,-0.523 0.611,-0.674 0.254,-0.151 0.534,-0.226 0.84,-0.226 0.206,0 0.394,0.023 0.564,0.071 0.17,0.05 0.334,0.124 0.495,0.228 0.159,0.102 0.305,0.213 0.441,0.331 0.133,0.117 0.308,0.277 0.522,0.478 0.088,0.075 0.214,0.113 0.377,0.113 0.177,0 0.32,-0.048 0.429,-0.145 0.109,-0.097 0.163,-0.232 0.163,-0.409 0,-0.155 -0.06,-0.336 -0.182,-0.545 C 4.374,-2.993 4.19,-3.192 3.944,-3.384 3.699,-3.575 3.391,-3.732 3.019,-3.859 2.648,-3.985 2.22,-4.048 1.738,-4.048 c -1.104,0 -1.963,0.316 -2.576,0.944 -0.612,0.629 -0.919,1.484 -0.919,2.563 0,0.508 0.076,0.979 0.227,1.413 0.151,0.436 0.372,0.808 0.661,1.118 0.29,0.311 0.647,0.548 1.071,0.715 0.423,0.166 0.894,0.248 1.41,0.248 0.672,0 1.247,-0.14 1.728,-0.425 C 3.821,2.245 4.181,1.879 4.42,1.431 4.659,0.98 4.779,0.522 4.779,0.058 4.779,-0.375 4.656,-0.655 4.408,-0.784 4.16,-0.911 3.812,-0.977 3.362,-0.977" /></g><g
           transform="translate(218.7666,20.3486)"
           id="g726"><path
             id="path728"
             style="fill:#f9a01b;fill-opacity:1;fill-rule:nonzero;stroke:none"
             d="m 0,0 c 0,-0.466 0.072,-0.862 0.217,-1.189 0.145,-0.329 0.343,-0.576 0.595,-0.741 0.252,-0.166 0.527,-0.25 0.825,-0.25 0.302,0 0.579,0.079 0.828,0.238 0.25,0.157 0.45,0.398 0.598,0.723 C 3.212,-0.894 3.287,-0.486 3.287,0 3.287,0.458 3.212,0.852 3.063,1.182 2.915,1.511 2.713,1.762 2.458,1.937 2.204,2.11 1.927,2.197 1.625,2.197 1.31,2.197 1.028,2.107 0.781,1.93 0.533,1.752 0.341,1.496 0.205,1.162 0.068,0.828 0,0.44 0,0 m 3.381,-2.525 v 0.171 C 3.15,-2.619 2.922,-2.834 2.698,-2.999 2.473,-3.166 2.23,-3.292 1.968,-3.378 1.706,-3.465 1.419,-3.507 1.108,-3.507 c -0.412,0 -0.792,0.087 -1.142,0.261 -0.351,0.174 -0.654,0.424 -0.91,0.746 -0.257,0.323 -0.451,0.703 -0.583,1.14 -0.132,0.437 -0.198,0.909 -0.198,1.417 0,1.074 0.262,1.913 0.787,2.512 0.524,0.6 1.215,0.901 2.071,0.901 0.496,0 0.914,-0.086 1.254,-0.255 0.34,-0.17 0.671,-0.433 0.994,-0.784 v 2.537 c 0,0.353 0.07,0.619 0.211,0.8 0.14,0.18 0.342,0.27 0.602,0.27 0.26,0 0.46,-0.083 0.601,-0.248 0.14,-0.167 0.211,-0.41 0.211,-0.733 v -7.582 c 0,-0.328 -0.075,-0.573 -0.227,-0.737 -0.151,-0.163 -0.346,-0.245 -0.585,-0.245 -0.236,0 -0.429,0.085 -0.583,0.254 -0.153,0.171 -0.23,0.413 -0.23,0.728" /></g><g
           transform="translate(229.2554,20.2979)"
           id="g730"><path
             id="path732"
             style="fill:#f9a01b;fill-opacity:1;fill-rule:nonzero;stroke:none"
             d="m 0,0 c 0,-0.684 0.156,-1.209 0.469,-1.576 0.313,-0.368 0.723,-0.553 1.231,-0.553 0.432,0 0.805,0.189 1.117,0.565 0.313,0.376 0.47,0.914 0.47,1.615 0,0.453 -0.065,0.844 -0.196,1.171 C 2.961,1.55 2.777,1.803 2.538,1.98 2.298,2.158 2.019,2.248 1.7,2.248 1.373,2.248 1.081,2.158 0.825,1.98 0.568,1.803 0.367,1.544 0.22,1.206 0.073,0.869 0,0.467 0,0 M -0.082,5.107 V 2.481 C 0.241,2.817 0.571,3.075 0.907,3.253 1.242,3.431 1.658,3.521 2.153,3.521 2.725,3.521 3.225,3.385 3.655,3.115 4.085,2.843 4.418,2.45 4.656,1.937 4.893,1.423 5.012,0.812 5.012,0.107 5.012,-0.413 4.946,-0.89 4.814,-1.325 4.682,-1.76 4.489,-2.136 4.238,-2.455 3.986,-2.773 3.68,-3.021 3.322,-3.195 2.962,-3.369 2.567,-3.456 2.135,-3.456 c -0.265,0 -0.514,0.031 -0.746,0.095 -0.234,0.062 -0.432,0.144 -0.596,0.248 -0.163,0.102 -0.303,0.209 -0.418,0.318 -0.116,0.108 -0.268,0.273 -0.457,0.491 v -0.171 c 0,-0.322 -0.078,-0.567 -0.233,-0.733 -0.155,-0.166 -0.352,-0.248 -0.592,-0.248 -0.243,0 -0.437,0.082 -0.582,0.248 -0.145,0.166 -0.217,0.411 -0.217,0.733 v 7.507 c 0,0.348 0.07,0.612 0.21,0.789 0.141,0.179 0.338,0.268 0.589,0.268 0.265,0 0.468,-0.085 0.611,-0.254 0.142,-0.171 0.214,-0.413 0.214,-0.728" /></g><g
           transform="translate(236.4961,16.627)"
           id="g734"><path
             id="path736"
             style="fill:#f9a01b;fill-opacity:1;fill-rule:nonzero;stroke:none"
             d="m 0,0 0.157,0.385 -2.115,5.327 c -0.13,0.306 -0.196,0.528 -0.196,0.667 0,0.147 0.038,0.283 0.114,0.409 0.075,0.126 0.179,0.227 0.311,0.302 0.132,0.076 0.27,0.114 0.413,0.114 0.247,0 0.434,-0.079 0.561,-0.236 0.126,-0.157 0.236,-0.383 0.333,-0.677 L 1.033,2.06 2.412,5.995 C 2.521,6.313 2.619,6.563 2.708,6.744 2.795,6.925 2.889,7.047 2.987,7.108 3.086,7.172 3.226,7.204 3.406,7.204 3.537,7.204 3.661,7.17 3.781,7.1 3.9,7.03 3.993,6.937 4.058,6.819 4.123,6.702 4.156,6.578 4.156,6.448 4.138,6.369 4.112,6.256 4.074,6.108 4.036,5.962 3.99,5.812 3.936,5.661 L 1.694,-0.207 C 1.5,-0.724 1.312,-1.128 1.127,-1.422 0.942,-1.716 0.698,-1.942 0.393,-2.099 0.089,-2.257 -0.321,-2.335 -0.838,-2.335 c -0.503,0 -0.881,0.054 -1.132,0.163 -0.253,0.109 -0.379,0.309 -0.379,0.599 0,0.196 0.06,0.349 0.18,0.456 0.119,0.107 0.297,0.161 0.531,0.161 0.093,0 0.183,-0.013 0.272,-0.039 0.109,-0.025 0.203,-0.037 0.283,-0.037 0.197,0 0.353,0.029 0.466,0.089 0.113,0.058 0.215,0.16 0.305,0.305 C -0.222,-0.494 -0.118,-0.28 0,0" /></g><g
           transform="translate(261.3975,23.6816)"
           id="g738"><path
             id="path740"
             style="fill:#f9a01b;fill-opacity:1;fill-rule:nonzero;stroke:none"
             d="m 0,0 h 0.41 v 0.517 c 0,0.54 0.066,0.965 0.203,1.284 C 0.749,2.118 0.981,2.349 1.308,2.493 1.633,2.638 2.078,2.71 2.645,2.71 3.651,2.71 4.15,2.467 4.15,1.971 4.15,1.813 4.099,1.677 3.991,1.563 3.889,1.451 3.765,1.394 3.622,1.394 3.556,1.394 3.438,1.406 3.272,1.433 3.115,1.455 2.973,1.47 2.859,1.47 2.549,1.47 2.351,1.377 2.259,1.194 2.175,1.013 2.13,0.751 2.13,0.409 V 0 h 0.419 c 0.657,0 0.982,-0.196 0.982,-0.594 0,-0.277 -0.084,-0.457 -0.26,-0.533 C 3.098,-1.202 2.857,-1.24 2.549,-1.24 H 2.13 v -4.555 c 0,-0.339 -0.08,-0.597 -0.245,-0.774 -0.16,-0.181 -0.367,-0.27 -0.625,-0.27 -0.243,0 -0.445,0.089 -0.609,0.27 -0.162,0.177 -0.241,0.435 -0.241,0.774 v 4.555 h -0.473 c -0.258,0 -0.453,0.055 -0.592,0.174 -0.139,0.113 -0.209,0.264 -0.209,0.449 C -0.864,-0.204 -0.576,0 0,0" /></g><g
           transform="translate(267.0254,19.3232)"
           id="g742"><path
             id="path744"
             style="fill:#f9a01b;fill-opacity:1;fill-rule:nonzero;stroke:none"
             d="m 0,0 v -1.437 c 0,-0.347 -0.088,-0.609 -0.248,-0.782 -0.164,-0.176 -0.37,-0.261 -0.621,-0.261 -0.253,0 -0.456,0.086 -0.614,0.265 -0.158,0.175 -0.24,0.435 -0.24,0.778 v 4.789 c 0,0.772 0.279,1.159 0.836,1.159 0.287,0 0.492,-0.089 0.619,-0.271 0.125,-0.181 0.196,-0.446 0.21,-0.801 0.204,0.355 0.414,0.62 0.629,0.801 0.22,0.182 0.505,0.271 0.868,0.271 C 1.803,4.511 2.15,4.422 2.49,4.24 2.832,4.059 3.001,3.818 3.001,3.521 3.001,3.313 2.928,3.137 2.785,3.003 2.64,2.864 2.484,2.797 2.317,2.797 2.251,2.797 2.098,2.838 1.858,2.916 1.616,2.991 1.401,3.03 1.22,3.03 0.968,3.03 0.761,2.962 0.603,2.833 0.441,2.697 0.316,2.503 0.228,2.245 0.143,1.983 0.083,1.671 0.047,1.314 0.015,0.955 0,0.517 0,0" /></g><g
           transform="translate(271.5645,20.8926)"
           id="g746"><path
             id="path748"
             style="fill:#f9a01b;fill-opacity:1;fill-rule:nonzero;stroke:none"
             d="M 0,0 H 3.116 C 3.075,0.587 2.919,1.027 2.644,1.317 2.366,1.61 2.008,1.755 1.556,1.755 1.128,1.755 0.775,1.609 0.5,1.312 0.226,1.016 0.058,0.579 0,0 M 3.363,-0.978 H 0 c 0.006,-0.389 0.082,-0.735 0.235,-1.033 0.156,-0.296 0.358,-0.52 0.613,-0.674 0.255,-0.15 0.533,-0.224 0.84,-0.224 0.207,0 0.394,0.021 0.564,0.073 0.169,0.046 0.335,0.123 0.494,0.226 0.16,0.101 0.305,0.212 0.441,0.332 0.133,0.116 0.309,0.275 0.523,0.476 0.09,0.075 0.215,0.115 0.377,0.115 0.178,0 0.319,-0.049 0.431,-0.147 0.109,-0.098 0.161,-0.232 0.161,-0.409 0,-0.155 -0.059,-0.336 -0.178,-0.543 C 4.377,-2.996 4.194,-3.194 3.947,-3.387 3.699,-3.575 3.391,-3.736 3.021,-3.86 2.649,-3.986 2.221,-4.05 1.74,-4.05 c -1.107,0 -1.965,0.314 -2.577,0.943 -0.612,0.631 -0.922,1.486 -0.922,2.564 0,0.509 0.077,0.98 0.231,1.415 0.148,0.437 0.369,0.807 0.662,1.119 0.289,0.312 0.642,0.549 1.068,0.715 0.423,0.165 0.894,0.248 1.411,0.248 0.67,0 1.247,-0.141 1.728,-0.428 C 3.82,2.246 4.186,1.879 4.421,1.43 4.66,0.978 4.78,0.522 4.78,0.055 4.78,-0.376 4.655,-0.655 4.408,-0.785 4.16,-0.913 3.813,-0.978 3.363,-0.978" /></g><g
           transform="translate(278.7158,20.8926)"
           id="g750"><path
             id="path752"
             style="fill:#f9a01b;fill-opacity:1;fill-rule:nonzero;stroke:none"
             d="M 0,0 H 3.117 C 3.075,0.587 2.915,1.027 2.643,1.317 2.364,1.61 2.005,1.755 1.554,1.755 1.126,1.755 0.774,1.609 0.498,1.312 0.225,1.016 0.056,0.579 0,0 M 3.363,-0.978 H 0 c 0.004,-0.389 0.083,-0.735 0.235,-1.033 0.154,-0.296 0.358,-0.52 0.611,-0.674 0.254,-0.15 0.534,-0.224 0.842,-0.224 0.205,0 0.394,0.021 0.561,0.073 0.171,0.046 0.335,0.123 0.497,0.226 0.16,0.101 0.305,0.212 0.441,0.332 0.131,0.116 0.306,0.275 0.522,0.476 0.089,0.075 0.216,0.115 0.376,0.115 0.179,0 0.321,-0.049 0.432,-0.147 0.109,-0.098 0.159,-0.232 0.159,-0.409 0,-0.155 -0.058,-0.336 -0.182,-0.543 C 4.377,-2.996 4.192,-3.194 3.944,-3.387 3.699,-3.575 3.388,-3.736 3.02,-3.86 2.649,-3.986 2.219,-4.05 1.736,-4.05 c -1.104,0 -1.962,0.314 -2.576,0.943 -0.612,0.631 -0.921,1.486 -0.921,2.564 0,0.509 0.077,0.98 0.231,1.415 0.15,0.437 0.37,0.807 0.66,1.119 0.289,0.312 0.644,0.549 1.07,0.715 0.423,0.165 0.896,0.248 1.411,0.248 0.669,0 1.245,-0.141 1.733,-0.428 C 3.821,2.246 4.183,1.879 4.419,1.43 4.657,0.978 4.78,0.522 4.78,0.055 4.78,-0.376 4.653,-0.655 4.407,-0.785 4.159,-0.913 3.812,-0.978 3.363,-0.978" /></g><g
           transform="translate(289.2148,20.3691)"
           id="g754"><path
             id="path756"
             style="fill:#f9a01b;fill-opacity:1;fill-rule:nonzero;stroke:none"
             d="M 0,0 C 0,0.454 -0.07,0.845 -0.208,1.169 -0.347,1.495 -0.539,1.744 -0.782,1.916 -1.026,2.091 -1.301,2.18 -1.6,2.18 c -0.473,0 -0.874,-0.189 -1.199,-0.56 -0.326,-0.376 -0.49,-0.926 -0.49,-1.653 0,-0.68 0.162,-1.215 0.488,-1.595 0.322,-0.38 0.72,-0.569 1.201,-0.569 0.285,0 0.55,0.084 0.794,0.247 0.246,0.167 0.441,0.415 0.586,0.747 C -0.074,-0.871 0,-0.469 0,0 M -3.37,2.498 V 2.292 c 0.322,0.398 0.659,0.69 1.011,0.878 0.343,0.188 0.741,0.283 1.181,0.283 0.527,0 1.018,-0.139 1.463,-0.409 C 0.729,2.77 1.079,2.37 1.338,1.846 1.597,1.319 1.727,0.699 1.727,-0.02 1.727,-0.547 1.652,-1.034 1.504,-1.479 1.355,-1.921 1.147,-2.292 0.889,-2.592 0.628,-2.891 0.321,-3.124 -0.033,-3.285 c -0.36,-0.16 -0.737,-0.241 -1.145,-0.241 -0.49,0 -0.905,0.098 -1.237,0.297 -0.333,0.193 -0.651,0.486 -0.955,0.865 v -2.58 c 0,-0.753 -0.276,-1.134 -0.825,-1.134 -0.326,0 -0.536,0.097 -0.644,0.291 -0.1,0.198 -0.155,0.479 -0.155,0.856 v 7.42 c 0,0.328 0.07,0.57 0.213,0.735 0.141,0.158 0.339,0.241 0.586,0.241 0.245,0 0.441,-0.083 0.593,-0.248 0.157,-0.168 0.232,-0.404 0.232,-0.719" /></g><g
           transform="translate(293.5244,22.8584)"
           id="g758"><path
             id="path760"
             style="fill:#f9a01b;fill-opacity:1;fill-rule:nonzero;stroke:none"
             d="m 0,0 v -4.974 c 0,-0.341 -0.083,-0.601 -0.246,-0.776 -0.165,-0.179 -0.371,-0.266 -0.624,-0.266 -0.252,0 -0.453,0.089 -0.614,0.27 -0.156,0.183 -0.237,0.44 -0.237,0.772 v 4.925 c 0,0.338 0.081,0.593 0.237,0.765 0.161,0.176 0.362,0.26 0.614,0.26 0.253,0 0.459,-0.084 0.624,-0.26 C -0.083,0.544 0,0.304 0,0 m -0.852,1.776 c -0.24,0 -0.443,0.076 -0.612,0.222 -0.172,0.148 -0.257,0.353 -0.257,0.621 0,0.244 0.087,0.444 0.263,0.604 0.174,0.155 0.376,0.235 0.606,0.235 0.225,0 0.421,-0.07 0.592,-0.212 C -0.087,3.102 0,2.892 0,2.619 0,2.354 -0.085,2.147 -0.251,1.999 -0.419,1.852 -0.618,1.776 -0.852,1.776" /></g><g
           transform="translate(299.0654,17.6279)"
           id="g762"><path
             id="path764"
             style="fill:#f9a01b;fill-opacity:1;fill-rule:nonzero;stroke:none"
             d="M 0,0 -1.514,2.496 -2.447,1.615 V 0.246 c 0,-0.331 -0.088,-0.584 -0.263,-0.762 -0.171,-0.18 -0.376,-0.269 -0.602,-0.269 -0.263,0 -0.473,0.087 -0.623,0.265 -0.15,0.175 -0.227,0.435 -0.227,0.779 v 7.334 c 0,0.38 0.075,0.67 0.219,0.871 0.147,0.202 0.361,0.3 0.631,0.3 0.266,0 0.473,-0.091 0.63,-0.273 0.156,-0.179 0.235,-0.447 0.235,-0.797 V 3.522 l 1.932,2.031 c 0.241,0.249 0.42,0.425 0.549,0.515 0.125,0.092 0.278,0.138 0.457,0.138 0.216,0 0.394,-0.068 0.54,-0.204 C 1.171,5.865 1.244,5.692 1.244,5.489 1.244,5.237 1.01,4.899 0.545,4.48 L -0.368,3.644 1.395,0.87 C 1.523,0.662 1.619,0.51 1.676,0.402 1.731,0.297 1.762,0.19 1.762,0.096 1.762,-0.178 1.687,-0.391 1.536,-0.551 1.387,-0.707 1.188,-0.785 0.948,-0.785 c -0.209,0 -0.373,0.054 -0.485,0.17 C 0.35,-0.501 0.192,-0.295 0,0" /></g><g
           transform="translate(302.8018,16.8428)"
           id="g766"><path
             id="path768"
             style="fill:#f9a01b;fill-opacity:1;fill-rule:nonzero;stroke:none"
             d="m 0,0 c -0.26,0 -0.482,0.084 -0.672,0.253 -0.188,0.165 -0.284,0.401 -0.284,0.705 0,0.256 0.091,0.477 0.271,0.66 0.183,0.185 0.404,0.278 0.668,0.278 0.264,0 0.489,-0.093 0.679,-0.274 C 0.847,1.439 0.941,1.217 0.941,0.958 0.941,0.658 0.847,0.423 0.662,0.256 0.472,0.084 0.251,0 0,0" /></g><g
           transform="translate(311.3525,18.9707)"
           id="g770"><path
             id="path772"
             style="fill:#f9a01b;fill-opacity:1;fill-rule:nonzero;stroke:none"
             d="m 0,0 c 0,-0.212 -0.064,-0.442 -0.193,-0.686 -0.127,-0.245 -0.324,-0.475 -0.587,-0.695 -0.262,-0.221 -0.591,-0.4 -0.991,-0.533 -0.399,-0.134 -0.849,-0.203 -1.346,-0.203 -1.066,0 -1.895,0.311 -2.491,0.929 -0.594,0.62 -0.893,1.451 -0.893,2.492 0,0.708 0.136,1.33 0.411,1.873 0.27,0.539 0.665,0.959 1.181,1.255 0.516,0.297 1.138,0.444 1.852,0.444 0.447,0 0.854,-0.065 1.228,-0.195 0.372,-0.13 0.684,-0.3 0.944,-0.504 0.257,-0.208 0.455,-0.426 0.59,-0.657 0.138,-0.234 0.204,-0.452 0.204,-0.655 0,-0.204 -0.075,-0.379 -0.227,-0.522 -0.156,-0.142 -0.341,-0.215 -0.556,-0.215 -0.146,0 -0.264,0.038 -0.358,0.11 -0.096,0.075 -0.203,0.193 -0.318,0.36 -0.21,0.317 -0.429,0.557 -0.66,0.715 -0.228,0.161 -0.518,0.24 -0.871,0.24 -0.505,0 -0.917,-0.198 -1.229,-0.595 -0.31,-0.395 -0.466,-0.941 -0.466,-1.627 0,-0.323 0.042,-0.623 0.121,-0.894 0.078,-0.269 0.193,-0.5 0.345,-0.691 0.153,-0.19 0.334,-0.335 0.548,-0.434 0.215,-0.102 0.451,-0.15 0.705,-0.15 0.346,0 0.641,0.08 0.886,0.239 0.249,0.161 0.466,0.403 0.654,0.731 0.105,0.193 0.217,0.344 0.337,0.453 0.121,0.108 0.272,0.166 0.449,0.166 0.21,0 0.384,-0.082 0.521,-0.24 C -0.07,0.352 0,0.18 0,0" /></g><g
           transform="translate(317.0449,20.3369)"
           id="g774"><path
             id="path776"
             style="fill:#f9a01b;fill-opacity:1;fill-rule:nonzero;stroke:none"
             d="M 0,0 C 0,0.702 -0.155,1.247 -0.463,1.637 -0.77,2.031 -1.186,2.225 -1.705,2.225 -2.042,2.225 -2.338,2.138 -2.596,1.964 -2.852,1.791 -3.047,1.533 -3.185,1.192 -3.323,0.852 -3.395,0.454 -3.395,0 c 0,-0.45 0.069,-0.84 0.207,-1.176 0.137,-0.339 0.333,-0.595 0.586,-0.772 0.256,-0.177 0.554,-0.269 0.897,-0.269 0.519,0 0.935,0.196 1.242,0.591 C -0.155,-1.234 0,-0.69 0,0 M 1.727,0 C 1.727,-0.51 1.646,-0.984 1.49,-1.418 1.326,-1.851 1.099,-2.222 0.795,-2.53 0.493,-2.842 0.13,-3.08 -0.287,-3.247 -0.711,-3.41 -1.182,-3.495 -1.705,-3.495 c -0.521,0 -0.99,0.085 -1.406,0.254 -0.413,0.165 -0.777,0.407 -1.078,0.717 -0.306,0.316 -0.537,0.685 -0.698,1.111 -0.151,0.427 -0.232,0.898 -0.232,1.413 0,0.521 0.082,0.998 0.238,1.431 0.16,0.433 0.39,0.803 0.689,1.109 0.298,0.306 0.658,0.542 1.081,0.709 0.426,0.165 0.894,0.248 1.406,0.248 0.519,0 0.993,-0.083 1.418,-0.253 C 0.136,3.078 0.497,2.837 0.803,2.528 1.105,2.214 1.334,1.847 1.492,1.42 1.646,0.988 1.727,0.519 1.727,0" /></g><g
           transform="translate(325.3281,20.2109)"
           id="g778"><path
             id="path780"
             style="fill:#f9a01b;fill-opacity:1;fill-rule:nonzero;stroke:none"
             d="m 0,0 v -2.285 c 0,-0.362 -0.079,-0.631 -0.244,-0.814 -0.166,-0.18 -0.379,-0.27 -0.649,-0.27 -0.259,0 -0.473,0.09 -0.629,0.27 -0.165,0.183 -0.248,0.452 -0.248,0.814 v 2.738 c 0,0.434 -0.013,0.771 -0.042,1.011 -0.03,0.234 -0.111,0.434 -0.24,0.586 C -2.182,2.205 -2.39,2.282 -2.669,2.282 -3.232,2.282 -3.602,2.09 -3.78,1.698 -3.958,1.316 -4.05,0.762 -4.05,0.037 v -2.322 c 0,-0.357 -0.081,-0.627 -0.239,-0.811 -0.165,-0.181 -0.376,-0.273 -0.64,-0.273 -0.262,0 -0.475,0.092 -0.641,0.273 -0.167,0.184 -0.249,0.454 -0.249,0.811 v 4.918 c 0,0.325 0.074,0.571 0.222,0.737 0.152,0.17 0.349,0.253 0.59,0.253 0.236,0 0.432,-0.081 0.591,-0.235 0.156,-0.159 0.235,-0.376 0.235,-0.653 V 2.572 c 0.3,0.356 0.619,0.618 0.957,0.783 0.343,0.172 0.718,0.256 1.136,0.256 0.432,0 0.803,-0.087 1.112,-0.258 C -0.665,3.18 -0.41,2.918 -0.207,2.572 0.084,2.923 0.396,3.185 0.728,3.355 1.06,3.525 1.426,3.611 1.83,3.611 2.298,3.611 2.706,3.517 3.046,3.333 3.384,3.148 3.638,2.883 3.807,2.541 3.953,2.228 4.025,1.738 4.025,1.071 v -3.356 c 0,-0.362 -0.081,-0.631 -0.243,-0.814 -0.163,-0.18 -0.382,-0.27 -0.649,-0.27 -0.262,0 -0.474,0.092 -0.64,0.273 -0.166,0.184 -0.25,0.454 -0.25,0.811 V 0.606 C 2.243,0.977 2.228,1.271 2.197,1.493 2.166,1.717 2.08,1.904 1.944,2.055 1.804,2.205 1.593,2.282 1.312,2.282 1.086,2.282 0.87,2.212 0.666,2.078 0.463,1.947 0.304,1.763 0.188,1.54 0.066,1.249 0,0.736 0,0" /></g><g
           transform="translate(245.3096,20.7529)"
           id="g782"><path
             id="path784"
             style="fill:#f9a01b;fill-opacity:1;fill-rule:nonzero;stroke:none"
             d="M 0,0 C -0.001,0.004 -0.001,0.007 -0.001,0.012 -0.001,0.007 -0.001,0.004 0,0" /></g><g
           transform="translate(245.3965,20.2031)"
           id="g786"><path
             id="path788"
             style="fill:#f9a01b;fill-opacity:1;fill-rule:nonzero;stroke:none"
             d="M 0,0 H 0.001 C -0.031,0.157 -0.057,0.312 -0.077,0.466 -0.057,0.312 -0.031,0.155 0,0" /></g><g
           transform="translate(245.9653,18.6084)"
           id="g790"><path
             id="path792"
             style="fill:#f9a01b;fill-opacity:1;fill-rule:nonzero;stroke:none"
             d="M 0,0 C -0.004,0.007 -0.007,0.015 -0.011,0.021 -0.007,0.015 -0.004,0.007 0,0" /></g><g
           transform="translate(245.9111,18.7148)"
           id="g794"><path
             id="path796"
             style="fill:#f9a01b;fill-opacity:1;fill-rule:nonzero;stroke:none"
             d="M 0,0 C -0.015,0.028 -0.029,0.06 -0.043,0.088 -0.029,0.058 -0.015,0.028 0,0" /></g><g
           transform="translate(245.5562,19.5889)"
           id="g798"><path
             id="path800"
             style="fill:#f9a01b;fill-opacity:1;fill-rule:nonzero;stroke:none"
             d="M 0,0 C 0.084,-0.266 0.186,-0.522 0.303,-0.768 0.184,-0.517 0.084,-0.26 0.002,0 Z" /></g><g
           transform="translate(251.9639,27.3408)"
           id="g802"><path
             id="path804"
             style="fill:#f9a01b;fill-opacity:1;fill-rule:nonzero;stroke:none"
             d="m 0,0 c 0.332,0 0.577,-0.027 0.858,-0.074 l 0.08,0.506 c 0,0 -0.776,0.238 -1.796,0.155 l -0.081,0.275 c 0.317,0.067 0.555,0.349 0.555,0.686 0,0.386 -0.314,0.698 -0.7,0.698 -0.387,0 -0.7,-0.312 -0.7,-0.698 0,-0.337 0.237,-0.619 0.554,-0.686 L -1.142,0.555 C -2.225,0.406 -3.087,-0.017 -3.087,-0.017 l 0.153,-0.467 c 0.655,0.218 1.224,0.351 1.739,0.407 C -0.689,-0.023 -0.31,0 0,0" /></g><g
           transform="translate(245.9526,24.7822)"
           id="g806"><path
             id="path808"
             style="fill:#f9a01b;fill-opacity:1;fill-rule:nonzero;stroke:none"
             d="M 0,0 0.004,0.006 C 0.029,0.038 0.054,0.069 0.079,0.1 l -0.207,0.15 -0.324,0.236 c -0.018,-0.025 -0.527,-0.494 -0.929,-1.358 -0.017,0.027 -0.037,0.054 -0.059,0.079 -0.121,0.132 -0.289,0.199 -0.503,0.195 h -0.01 c -0.132,0 -0.223,0.044 -0.283,0.098 0.059,0.075 0.095,0.17 0.095,0.273 0,0.245 -0.199,0.444 -0.444,0.444 -0.244,0 -0.443,-0.199 -0.443,-0.444 0,-0.245 0.199,-0.443 0.443,-0.443 0.039,0 0.075,0.007 0.111,0.014 0.109,-0.121 0.282,-0.227 0.535,-0.222 0.131,0.002 0.226,-0.032 0.29,-0.102 0.074,-0.081 0.099,-0.197 0.106,-0.284 0,-0.002 0,-0.004 -0.002,-0.004 -0.288,-0.788 -0.206,-1.769 -0.206,-1.769 l 0.701,-0.028 c 0.014,0.357 0.065,0.983 0.246,1.478 C -0.455,-0.626 -0.018,-0.025 0,0" /></g><g
           transform="translate(258.0625,26.7549)"
           id="g810"><path
             id="path812"
             style="fill:#f9a01b;fill-opacity:1;fill-rule:nonzero;stroke:none"
             d="m 0,0 c -0.244,0 -0.443,-0.198 -0.443,-0.443 0,-0.039 0.006,-0.076 0.015,-0.111 -0.122,-0.109 -0.227,-0.283 -0.223,-0.537 0.002,-0.131 -0.033,-0.224 -0.103,-0.289 -0.057,-0.05 -0.127,-0.076 -0.196,-0.094 -0.522,0.732 -1.164,1.178 -1.164,1.178 l -0.503,-0.54 c 0.38,-0.346 0.768,-0.778 1.146,-1.319 0.261,-0.373 0.53,-0.855 0.753,-1.335 l 0.679,0.322 c 0,0 -0.311,0.766 -0.746,1.453 0.075,0.027 0.151,0.068 0.219,0.127 0.132,0.12 0.198,0.289 0.194,0.503 -0.001,0.138 0.044,0.231 0.099,0.292 0.075,-0.058 0.169,-0.095 0.273,-0.095 0.246,0 0.443,0.2 0.443,0.445 C 0.443,-0.198 0.246,0 0,0" /></g><g
           transform="translate(256.3008,20.6543)"
           id="g814"><path
             id="path816"
             style="fill:#f9a01b;fill-opacity:1;fill-rule:nonzero;stroke:none"
             d="M 0,0 C -0.935,-0.455 -2.472,-1.057 -4.496,-1.339 -5.29,-1.449 -6.06,-1.49 -6.768,-1.49 c -0.922,0 -1.737,0.069 -2.362,0.148 -0.713,0.09 -1.271,0.199 -1.612,0.277 0.082,-0.26 0.181,-0.517 0.301,-0.768 0.002,-0.007 0.004,-0.014 0.008,-0.019 0.014,-0.028 0.028,-0.059 0.043,-0.087 0.015,-0.03 0.029,-0.058 0.043,-0.085 0.005,-0.007 0.008,-0.015 0.012,-0.022 0.2,-0.378 0.441,-0.725 0.716,-1.026 0.954,-1.045 1.927,-1.21 1.936,-1.211 l 0.016,-0.002 0.014,-0.005 c 0.008,-0.004 0.871,-0.282 2.182,-0.282 1.289,0 2.555,0.26 3.761,0.773 0.894,0.457 1.738,1.152 2.157,1.771 0.324,0.479 0.558,0.989 0.697,1.52 0.073,0.282 0.131,0.735 0.097,1.21 C 0.979,0.525 0.562,0.273 0,0" /></g><g
           transform="translate(248.9229,25.0488)"
           id="g818"><path
             id="path820"
             style="fill:#f9a01b;fill-opacity:1;fill-rule:nonzero;stroke:none"
             d="m 0,0 c 1.032,0 1.867,-0.836 1.867,-1.867 0,-1.031 -0.835,-1.866 -1.867,-1.866 -1.031,0 -1.867,0.835 -1.867,1.866 C -1.867,-0.836 -1.031,0 0,0 m 5.464,-0.046 c 0.637,0 1.155,-0.517 1.155,-1.155 0,-0.638 -0.518,-1.156 -1.155,-1.156 -0.638,0 -1.155,0.518 -1.155,1.156 0,0.638 0.517,1.155 1.155,1.155 M -2.67,-0.487 c -0.028,-0.04 -0.433,-0.614 -0.753,-1.494 -0.24,-0.66 -0.229,-1.62 -0.229,-1.631 v -0.002 c 0,-0.225 0.012,-0.448 0.038,-0.67 0,-0.005 0,-0.008 10e-4,-0.012 0.002,-0.028 0.007,-0.056 0.01,-0.084 0.02,-0.153 0.045,-0.308 0.079,-0.466 0.464,-0.117 3.233,-0.763 6.33,-0.332 1.939,0.27 3.413,0.844 4.307,1.278 0.744,0.36 1.222,0.686 1.407,0.82 C 8.335,-2.398 7.828,-1.329 7.363,-0.662 6.034,1.237 4.601,1.725 3.865,1.846 3.584,1.892 3.359,1.918 3.041,1.918 2.744,1.918 2.377,1.895 1.885,1.843 1.393,1.791 0.843,1.662 0.207,1.447 -0.687,1.148 -1.495,0.679 -2.131,0.09 L -2.153,0.069 C -2.247,-0.017 -2.444,-0.199 -2.67,-0.487" /></g></g></g></g></svg>