<?xml version="1.0" encoding="UTF-8" standalone="no"?>
<svg
   xmlns:dc="http://purl.org/dc/elements/1.1/"
   xmlns:cc="http://creativecommons.org/ns#"
   xmlns:rdf="http://www.w3.org/1999/02/22-rdf-syntax-ns#"
   xmlns:svg="http://www.w3.org/2000/svg"
   xmlns="http://www.w3.org/2000/svg"
   viewBox="0 0 625 625"
   height="625"
   width="625"
   xml:space="preserve"
   version="1.1"
   id="svg2"><metadata
     id="metadata8"><rdf:RDF><cc:Work
         rdf:about=""><dc:format>image/svg+xml</dc:format><dc:type
           rdf:resource="http://purl.org/dc/dcmitype/StillImage" /></cc:Work></rdf:RDF></metadata><defs
     id="defs6"><clipPath
       id="clipPath242"
       clipPathUnits="userSpaceOnUse"><path
         id="path244"
         d="M 0,0 500,0 500,500 0,500 0,0 Z" /></clipPath><clipPath
       id="clipPath250"
       clipPathUnits="userSpaceOnUse"><path
         id="path252"
         d="m 241.372,123.057 178.4,0 0,-10.362 -178.4,0 0,10.362 z" /></clipPath><clipPath
       id="clipPath266"
       clipPathUnits="userSpaceOnUse"><path
         id="path268"
         d="m 69.7282,123.282 178.4008,0 0,-10.362 -178.4008,0 0,10.362 z" /></clipPath><clipPath
       id="clipPath282"
       clipPathUnits="userSpaceOnUse"><path
         id="path284"
         d="M 0,500 500,500 500,0 0,0 0,500 Z" /></clipPath><clipPath
       id="clipPath614"
       clipPathUnits="userSpaceOnUse"><path
         id="path616"
         d="M 0,500 500,500 500,0 0,0 0,500 Z" /></clipPath></defs><g
     transform="matrix(1.25,0,0,-1.25,0,625)"
     id="g10"><path
       id="path12"
       style="fill:#78b8e5;fill-opacity:1;fill-rule:nonzero;stroke:none"
       d="M 0,0 500,0 500,500 0,500 0,0 Z" /><path
       id="path14"
       style="fill:#a4e4ed;fill-opacity:1;fill-rule:nonzero;stroke:none"
       d="M 0,0 500,0 500,500 0,500 0,0 Z" /><g
       transform="translate(338.1221,287.2568)"
       id="g16"><path
         id="path18"
         style="fill:#f2f2f2;fill-opacity:1;fill-rule:nonzero;stroke:none"
         d="m 0,0 -1.213,-16.316 15.104,-6.197 -15.856,-3.888 -1.209,-16.31 -8.584,13.91 -15.855,-3.878 10.545,12.481 -8.581,13.917 15.1,-6.201 L 0,0 Z" /></g><g
       transform="translate(28.02,350.0005)"
       id="g20"><path
         id="path22"
         style="fill:#f2f2f2;fill-opacity:1;fill-rule:nonzero;stroke:none"
         d="m 0,0 -0.815,-10.99 10.171,-4.176 -10.677,-2.617 -0.82,-10.991 -5.781,9.375 -10.68,-2.618 7.107,8.409 -5.783,9.376 L -7.107,-8.409 0,0 Z" /></g><g
       transform="translate(230.9595,381.2031)"
       id="g24"><path
         id="path26"
         style="fill:#f2f2f2;fill-opacity:1;fill-rule:nonzero;stroke:none"
         d="m 0,0 6.168,-12.708 13.961,1.954 -10.147,-9.81 6.168,-12.708 -12.44,6.648 -10.15,-9.81 2.455,13.919 -12.434,6.648 13.958,1.954 L 0,0 Z" /></g><g
       transform="translate(293.2871,347.7393)"
       id="g28"><path
         id="path30"
         style="fill:#f2f2f2;fill-opacity:1;fill-rule:nonzero;stroke:none"
         d="m 0,0 1.437,-7.945 7.989,-1.085 -7.101,-3.825 1.445,-7.948 -5.822,5.582 -7.095,-3.827 3.491,7.276 -5.822,5.578 L -3.496,-7.27 0,0 Z" /></g><g
       transform="translate(458.8125,241.2832)"
       id="g32"><path
         id="path34"
         style="fill:#f2f2f2;fill-opacity:1;fill-rule:nonzero;stroke:none"
         d="m 0,0 -1.639,-11.409 10.324,-5.088 -11.33,-1.971 -1.638,-11.409 -5.368,10.194 -11.329,-1.963 8.01,8.271 -5.365,10.192 L -8.019,-8.264 0,0 Z" /></g><g
       transform="translate(185.1772,243.0713)"
       id="g36"><path
         id="path38"
         style="fill:#f2f2f2;fill-opacity:1;fill-rule:nonzero;stroke:none"
         d="m 0,0 -1.632,-11.41 10.323,-5.081 -11.326,-1.97 -1.646,-11.412 -5.363,10.192 -11.326,-1.965 8.008,8.267 -5.37,10.196 L -8.008,-8.265 0,0 Z" /></g><g
       transform="translate(251.5576,256)"
       id="g40"><path
         id="path42"
         style="fill:#f2f2f2;fill-opacity:1;fill-rule:nonzero;stroke:none"
         d="m 0,0 2.948,-9.101 9.546,0 -7.723,-5.626 2.952,-9.099 -7.723,5.624 -7.724,-5.624 2.949,9.099 -7.721,5.626 9.544,0 L 0,0 Z" /></g><g
       transform="translate(448.0762,412.0542)"
       id="g44"><path
         id="path46"
         style="fill:#f2f2f2;fill-opacity:1;fill-rule:nonzero;stroke:none"
         d="m 0,0 5.076,-6.756 7.97,2.754 -4.832,-6.92 5.074,-6.756 -8.06,2.472 -4.834,-6.929 -0.156,8.457 -8.063,2.464 7.974,2.755 L 0,0 Z" /></g><g
       transform="translate(408.4834,459.3232)"
       id="g48"><path
         id="path50"
         style="fill:#f2f2f2;fill-opacity:1;fill-rule:nonzero;stroke:none"
         d="m 0,0 2.157,-6.682 7.006,0 -5.669,-4.127 2.17,-6.677 -5.664,4.127 -5.676,-4.127 2.169,6.677 -5.672,4.127 7.009,0 L 0,0 Z" /></g><g
       transform="translate(401.7979,383.8066)"
       id="g52"><path
         id="path54"
         style="fill:#f2f2f2;fill-opacity:1;fill-rule:nonzero;stroke:none"
         d="m 0,0 -1.17,-8.374 7.57,-3.709 -8.305,-1.466 -1.18,-8.37 -3.958,7.467 -8.303,-1.46 5.867,6.074 -3.956,7.472 7.579,-3.712 L 0,0 Z" /></g><g
       transform="translate(116.0801,453.6123)"
       id="g56"><path
         id="path58"
         style="fill:#f2f2f2;fill-opacity:1;fill-rule:nonzero;stroke:none"
         d="m 0,0 2.604,-8.042 8.437,0 -6.825,-4.967 2.605,-8.039 -6.821,4.971 -6.821,-4.971 2.612,8.039 -6.826,4.967 8.431,0 L 0,0 Z" /></g><g
       transform="translate(159.1836,387.4727)"
       id="g60"><path
         id="path62"
         style="fill:#f2f2f2;fill-opacity:1;fill-rule:nonzero;stroke:none"
         d="m 0,0 2.598,-8.042 8.432,0 -6.817,-4.975 2.601,-8.035 -6.814,4.971 -6.828,-4.971 2.611,8.035 -6.825,4.975 8.43,0 L 0,0 Z" /></g><g
       transform="translate(226.667,303.7715)"
       id="g64"><path
         id="path66"
         style="fill:#f2f2f2;fill-opacity:1;fill-rule:nonzero;stroke:none"
         d="m 0,0 2.612,-8.039 8.432,0 -6.824,-4.97 2.608,-8.039 -6.828,4.97 -6.821,-4.97 2.611,8.039 -6.821,4.97 8.433,0 L 0,0 Z" /></g><g
       transform="translate(390.4111,234.3672)"
       id="g68"><path
         id="path70"
         style="fill:#f2f2f2;fill-opacity:1;fill-rule:nonzero;stroke:none"
         d="m 0,0 2.605,-8.04 8.437,0 -6.824,-4.965 2.6,-8.043 -6.818,4.97 -6.817,-4.97 2.601,8.043 -6.817,4.965 8.432,0 L 0,0 Z" /></g><g
       transform="translate(44.0615,411.5615)"
       id="g72"><path
         id="path74"
         style="fill:#f2f2f2;fill-opacity:1;fill-rule:nonzero;stroke:none"
         d="m 0,0 2.611,-8.042 8.43,0 -6.824,-4.971 2.608,-8.038 -6.825,4.964 -6.815,-4.964 2.599,8.038 -6.815,4.971 8.427,0 L 0,0 Z" /></g><g
       transform="translate(82.8667,227.6113)"
       id="g76"><path
         id="path78"
         style="fill:#f2f2f2;fill-opacity:1;fill-rule:nonzero;stroke:none"
         d="m 0,0 -0.034,-8.455 8.013,-2.641 -8.026,-2.589 -0.029,-8.452 -4.933,6.858 -8.027,-2.587 4.977,6.822 -4.928,6.857 8.008,-2.639 L 0,0 Z" /></g><g
       transform="translate(452.6641,294.5737)"
       id="g80"><path
         id="path82"
         style="fill:#f2f2f2;fill-opacity:1;fill-rule:nonzero;stroke:none"
         d="m 0,0 2.604,-8.042 8.431,0 -6.817,-4.967 2.6,-8.042 -6.818,4.97 -6.817,-4.97 2.603,8.042 -6.824,4.967 8.431,0 L 0,0 Z" /></g><g
       transform="translate(416.5967,301.7847)"
       id="g84"><path
         id="path86"
         style="fill:#f2f2f2;fill-opacity:1;fill-rule:nonzero;stroke:none"
         d="m 0,0 1.479,-4.563 4.783,0 -3.868,-2.823 1.481,-4.568 -3.875,2.82 -3.885,-2.82 1.489,4.568 -3.879,2.823 4.79,0 L 0,0 Z" /></g><g
       transform="translate(27.8984,284.0913)"
       id="g88"><path
         id="path90"
         style="fill:#f2f2f2;fill-opacity:1;fill-rule:nonzero;stroke:none"
         d="m 0,0 1.485,-4.564 4.787,0 -3.878,-2.82 1.485,-4.567 -3.879,2.823 -3.864,-2.823 1.474,4.567 -3.875,2.82 4.787,0 L 0,0 Z" /></g><g
       transform="translate(49.978,366.959)"
       id="g92"><path
         id="path94"
         style="fill:#f2f2f2;fill-opacity:1;fill-rule:nonzero;stroke:none"
         d="m 0,0 1.207,-3.707 3.887,0 -3.147,-2.292 1.197,-3.71 -3.144,2.292 -3.145,-2.292 1.201,3.71 -3.155,2.292 3.898,0 L 0,0 Z" /></g><g
       transform="translate(60.1509,302.4741)"
       id="g96"><path
         id="path98"
         style="fill:#f2f2f2;fill-opacity:1;fill-rule:nonzero;stroke:none"
         d="m 0,0 1.2,-3.707 3.891,0 -3.147,-2.292 1.2,-3.714 -3.144,2.292 -3.147,-2.292 1.206,3.714 -3.151,2.292 3.888,0 L 0,0 Z" /></g><g
       transform="translate(46.9409,454.1763)"
       id="g100"><path
         id="path102"
         style="fill:#f2f2f2;fill-opacity:1;fill-rule:nonzero;stroke:none"
         d="m 0,0 1.197,-3.713 3.888,0 L 1.937,-6.002 3.141,-9.716 0,-7.424 l -3.151,-2.292 1.197,3.714 -3.144,2.289 3.888,0 L 0,0 Z" /></g><g
       transform="translate(19.3516,218.0205)"
       id="g104"><path
         id="path106"
         style="fill:#f2f2f2;fill-opacity:1;fill-rule:nonzero;stroke:none"
         d="m 0,0 1.485,-4.562 4.78,0 -3.869,-2.827 1.476,-4.562 -3.872,2.819 -3.878,-2.819 1.485,4.562 -3.876,2.827 4.793,0 L 0,0 Z" /></g><g
       transform="translate(440.5889,366.3066)"
       id="g108"><path
         id="path110"
         style="fill:#f2f2f2;fill-opacity:1;fill-rule:nonzero;stroke:none"
         d="m 0,0 1.479,-4.567 4.791,0 -3.876,-2.82 1.478,-4.567 -3.872,2.82 -3.877,-2.82 1.479,4.567 -3.87,2.82 4.79,0 L 0,0 Z" /></g><g
       transform="translate(492.7295,406.1138)"
       id="g112"><path
         id="path114"
         style="fill:#f2f2f2;fill-opacity:1;fill-rule:nonzero;stroke:none"
         d="m 0,0 1.484,-4.56 4.787,0 L 2.396,-7.386 3.874,-11.95 0,-9.127 l -3.871,-2.823 1.48,4.564 -3.874,2.826 4.786,0 L 0,0 Z" /></g><g
       transform="translate(479.7939,471.1069)"
       id="g116"><path
         id="path118"
         style="fill:#f2f2f2;fill-opacity:1;fill-rule:nonzero;stroke:none"
         d="m 0,0 1.476,-4.567 4.782,0 -3.864,-2.82 1.474,-4.568 -3.868,2.82 -3.874,-2.82 1.474,4.568 -3.875,2.82 4.794,0 L 0,0 Z" /></g><g
       transform="translate(485.1172,192.4111)"
       id="g120"><path
         id="path122"
         style="fill:#f2f2f2;fill-opacity:1;fill-rule:nonzero;stroke:none"
         d="m 0,0 1.479,-4.57 4.789,0 -3.879,-2.823 1.485,-4.56 L 0,-9.13 l -3.876,-2.823 1.479,4.56 -3.872,2.823 4.784,0 L 0,0 Z" /></g><g
       transform="translate(355.0859,446.6724)"
       id="g124"><path
         id="path126"
         style="fill:#f2f2f2;fill-opacity:1;fill-rule:nonzero;stroke:none"
         d="m 0,0 1.484,-4.567 4.781,0 -3.866,-2.824 1.473,-4.564 -3.872,2.82 -3.874,-2.82 1.481,4.564 -3.875,2.824 4.79,0 L 0,0 Z" /></g><g
       transform="translate(297.7383,389.1929)"
       id="g128"><path
         id="path130"
         style="fill:#f2f2f2;fill-opacity:1;fill-rule:nonzero;stroke:none"
         d="m 0,0 1.476,-4.567 4.792,0 L 2.39,-7.393 3.864,-11.958 0,-9.134 l -3.875,-2.824 1.475,4.565 -3.875,2.826 4.789,0 L 0,0 Z" /></g><g
       transform="translate(331.4336,412.9556)"
       id="g132"><path
         id="path134"
         style="fill:#f2f2f2;fill-opacity:1;fill-rule:nonzero;stroke:none"
         d="m 0,0 1.475,-4.567 4.793,0 L 2.39,-7.393 3.863,-11.958 0,-9.134 l -3.875,-2.824 1.474,4.565 -3.874,2.826 4.789,0 L 0,0 Z" /></g><g
       transform="translate(274.1934,424.9165)"
       id="g136"><path
         id="path138"
         style="fill:#f2f2f2;fill-opacity:1;fill-rule:nonzero;stroke:none"
         d="m 0,0 1.478,-4.57 4.788,0 -3.876,-2.827 1.489,-4.56 -3.879,2.819 -3.875,-2.819 1.481,4.56 -3.877,2.827 4.79,0 L 0,0 Z" /></g><g
       transform="translate(325.1826,341.5923)"
       id="g140"><path
         id="path142"
         style="fill:#f2f2f2;fill-opacity:1;fill-rule:nonzero;stroke:none"
         d="m 0,0 1.479,-4.56 4.786,0 -3.871,-2.82 1.485,-4.567 -3.879,2.823 -3.874,-2.823 1.481,4.567 -3.875,2.82 4.784,0 L 0,0 Z" /></g><g
       transform="translate(365.5439,389.7144)"
       id="g144"><path
         id="path146"
         style="fill:#f2f2f2;fill-opacity:1;fill-rule:nonzero;stroke:none"
         d="m 0,0 1.479,-4.564 4.786,0 L 2.39,-7.39 3.874,-11.951 0,-9.131 l -3.878,-2.82 1.478,4.561 -3.875,2.826 4.796,0 L 0,0 Z" /></g><g
       transform="translate(360.4102,327.6201)"
       id="g148"><path
         id="path150"
         style="fill:#f2f2f2;fill-opacity:1;fill-rule:nonzero;stroke:none"
         d="m 0,0 1.475,-4.557 4.782,0 L 2.394,-7.383 3.867,-11.954 0,-9.13 l -3.886,-2.824 1.49,4.571 -3.879,2.826 4.793,0 L 0,0 Z" /></g><g
       transform="translate(132.9126,244.9971)"
       id="g152"><path
         id="path154"
         style="fill:#f2f2f2;fill-opacity:1;fill-rule:nonzero;stroke:none"
         d="m 0,0 2.96,-3.778 4.497,1.653 -2.666,-3.983 2.962,-3.775 -4.616,1.306 -2.666,-3.984 -0.18,4.797 -4.603,1.312 4.497,1.653 L 0,0 Z" /></g><g
       transform="translate(214.2251,255.7773)"
       id="g156"><path
         id="path158"
         style="fill:#f2f2f2;fill-opacity:1;fill-rule:nonzero;stroke:none"
         d="m 0,0 1.481,-4.561 4.793,0 L 2.396,-7.38 3.885,-11.948 0,-9.131 l -3.872,-2.817 1.479,4.568 -3.876,2.819 4.79,0 L 0,0 Z" /></g><g
       transform="translate(188.2041,279.7827)"
       id="g160"><path
         id="path162"
         style="fill:#f2f2f2;fill-opacity:1;fill-rule:nonzero;stroke:none"
         d="m 0,0 1.478,-4.567 4.787,0 -3.875,-2.82 1.485,-4.567 -3.875,2.827 -3.875,-2.827 1.479,4.567 -3.872,2.82 4.783,0 L 0,0 Z" /></g><g
       transform="translate(162.4482,320.7422)"
       id="g164"><path
         id="path166"
         style="fill:#f2f2f2;fill-opacity:1;fill-rule:nonzero;stroke:none"
         d="m 0,0 1.478,-4.563 4.787,0 L 2.4,-7.39 3.881,-11.954 0,-9.134 l -3.872,-2.82 1.478,4.564 -3.872,2.827 4.79,0 L 0,0 Z" /></g><g
       transform="translate(139.7583,288.6875)"
       id="g168"><path
         id="path170"
         style="fill:#f2f2f2;fill-opacity:1;fill-rule:nonzero;stroke:none"
         d="m 0,0 3.045,-3.703 4.452,1.756 -2.576,-4.05 3.05,-3.705 -4.637,1.205 -2.575,-4.049 -0.289,4.794 -4.637,1.204 4.461,1.759 L 0,0 Z" /></g><g
       transform="translate(87.4048,332.8511)"
       id="g172"><path
         id="path174"
         style="fill:#f2f2f2;fill-opacity:1;fill-rule:nonzero;stroke:none"
         d="m 0,0 1.479,-4.567 4.783,0 -3.868,-2.83 1.481,-4.561 -3.875,2.824 -3.874,-2.824 1.475,4.561 -3.875,2.83 4.799,0 L 0,0 Z" /></g><g
       transform="translate(79.3442,257.3872)"
       id="g176"><path
         id="path178"
         style="fill:#f2f2f2;fill-opacity:1;fill-rule:nonzero;stroke:none"
         d="m 0,0 1.478,-4.561 4.787,0 -3.869,-2.826 1.479,-4.568 -3.875,2.82 -3.879,-2.82 1.482,4.568 -3.875,2.826 4.793,0 L 0,0 Z" /></g><g
       transform="translate(123.9644,202.2051)"
       id="g180"><path
         id="path182"
         style="fill:#f2f2f2;fill-opacity:1;fill-rule:nonzero;stroke:none"
         d="m 0,0 1.475,-4.568 4.797,0 -3.875,-2.821 1.478,-4.568 -3.875,2.822 -3.875,-2.822 1.481,4.568 -3.877,2.821 4.793,0 L 0,0 Z" /></g><g
       transform="translate(275.8301,243.1641)"
       id="g184"><path
         id="path186"
         style="fill:#f2f2f2;fill-opacity:1;fill-rule:nonzero;stroke:none"
         d="m 0,0 1.476,-4.567 4.789,0 L 2.391,-7.39 3.874,-11.957 0,-9.13 l -3.885,-2.827 1.485,4.567 -3.868,2.823 4.783,0 L 0,0 Z" /></g><g
       transform="translate(96.1333,397.3696)"
       id="g188"><path
         id="path190"
         style="fill:#f2f2f2;fill-opacity:1;fill-rule:nonzero;stroke:none"
         d="m 0,0 1.472,-4.563 4.79,0 -3.871,-2.824 1.474,-4.567 -3.865,2.819 -3.878,-2.819 1.475,4.567 -3.865,2.824 4.783,0 L 0,0 Z" /></g><g
       transform="translate(189.3643,415.1646)"
       id="g192"><path
         id="path194"
         style="fill:#f2f2f2;fill-opacity:1;fill-rule:nonzero;stroke:none"
         d="m 0,0 1.478,-4.574 4.787,0 -3.876,-2.813 1.486,-4.567 -3.875,2.819 -3.875,-2.819 1.481,4.567 -3.875,2.813 4.784,0 L 0,0 Z" /></g><g
       transform="translate(220.4429,437.4219)"
       id="g196"><path
         id="path198"
         style="fill:#f2f2f2;fill-opacity:1;fill-rule:nonzero;stroke:none"
         d="m 0,0 1.481,-4.566 4.787,0 L 2.39,-7.39 3.868,-11.954 0,-9.134 l -3.868,-2.82 1.478,4.564 -3.879,2.824 4.79,0 L 0,0 Z" /></g><g
       transform="translate(199.4497,457.7446)"
       id="g200"><path
         id="path202"
         style="fill:#f2f2f2;fill-opacity:1;fill-rule:nonzero;stroke:none"
         d="m 0,0 1.485,-4.557 4.786,0 -3.875,-2.83 1.479,-4.564 -3.875,2.826 -3.872,-2.826 1.482,4.564 -3.878,2.83 4.793,0 L 0,0 Z" /></g><g
       transform="translate(490.5264,356.0029)"
       id="g204"><path
         id="path206"
         style="fill:#f2f2f2;fill-opacity:1;fill-rule:nonzero;stroke:none"
         d="m 0,0 0.861,-2.675 2.803,0 L 1.401,-4.322 2.259,-6.997 0,-5.343 l -2.266,-1.654 0.863,2.675 -2.271,1.647 2.81,0 L 0,0 Z" /></g><g
       transform="translate(289.8408,475.3105)"
       id="g208"><path
         id="path210"
         style="fill:#f2f2f2;fill-opacity:1;fill-rule:nonzero;stroke:none"
         d="m 0,0 0.864,-2.665 2.803,0 L 1.397,-4.318 2.267,-6.99 0,-5.343 -2.26,-6.99 l 0.86,2.672 -2.27,1.653 2.802,0 L 0,0 Z" /></g><g
       transform="translate(304.5381,446.0625)"
       id="g212"><path
         id="path214"
         style="fill:#f2f2f2;fill-opacity:1;fill-rule:nonzero;stroke:none"
         d="m 0,0 0.869,-2.671 2.803,0 L 1.401,-4.319 2.274,-6.997 0,-5.344 l -2.265,-1.653 0.868,2.678 -2.268,1.648 2.805,0 L 0,0 Z" /></g><g
       transform="translate(277.9014,313.3965)"
       id="g216"><path
         id="path218"
         style="fill:#f2f2f2;fill-opacity:1;fill-rule:nonzero;stroke:none"
         d="m 0,0 0.861,-2.672 2.803,0 L 1.401,-4.329 2.262,-6.997 0,-5.351 l -2.27,-1.646 0.87,2.668 -2.27,1.657 2.802,0 L 0,0 Z" /></g><g
       transform="translate(291.2187,266.2021)"
       id="g220"><path
         id="path222"
         style="fill:#f2f2f2;fill-opacity:1;fill-rule:nonzero;stroke:none"
         d="m 0,0 0.868,-2.672 2.799,0 L 1.4,-4.326 2.269,-6.994 0,-5.347 l -2.27,-1.647 0.869,2.668 -2.263,1.654 2.802,0 L 0,0 Z" /></g><g
       transform="translate(109.1357,313.3965)"
       id="g224"><path
         id="path226"
         style="fill:#f2f2f2;fill-opacity:1;fill-rule:nonzero;stroke:none"
         d="m 0,0 0.868,-2.679 2.802,0 -2.265,-1.65 0.871,-2.668 -2.276,1.646 -2.259,-1.646 0.861,2.668 -2.266,1.65 2.806,0 L 0,0 Z" /></g><g
       transform="translate(115.3569,348.1187)"
       id="g228"><path
         id="path230"
         style="fill:#f2f2f2;fill-opacity:1;fill-rule:nonzero;stroke:none"
         d="m 0,0 0.868,-2.675 2.802,0 -2.269,-1.65 0.868,-2.672 -2.269,1.65 -2.263,-1.65 0.862,2.672 -2.263,1.65 2.802,0 L 0,0 Z" /></g><g
       transform="translate(469.7207,329.645)"
       id="g232"><path
         id="path234"
         style="fill:#f2f2f2;fill-opacity:1;fill-rule:nonzero;stroke:none"
         d="m 0,0 1.481,-4.564 4.784,0 -3.867,-2.82 1.477,-4.57 -3.875,2.823 -3.871,-2.823 1.478,4.57 -3.875,2.82 4.789,0 L 0,0 Z" /></g><path
       id="path236"
       style="fill:#7abdbf;fill-opacity:1;fill-rule:nonzero;stroke:none"
       d="M 0,0 500,0 500,127 0,127 0,0 Z" /><g
       id="g238"><g
         clip-path="url(#clipPath242)"
         id="g240"><g
           id="g246"><g
             id="g248" /><g
             id="g254"><g
               id="g256"
               clip-path="url(#clipPath250)"><g
                 id="g258"
                 transform="translate(330.5713,112.6943)"><path
                   id="path260"
                   style="fill:#f2f2f2;fill-opacity:1;fill-rule:evenodd;stroke:none"
                   d="m 0,0 c 49.131,0 89.201,2.327 89.201,5.182 0,2.853 -40.07,5.18 -89.201,5.18 -49.13,0 -89.2,-2.327 -89.2,-5.18 C -89.2,2.327 -49.13,0 0,0" /></g></g></g></g><g
           id="g262"><g
             id="g264" /><g
             id="g270"><g
               id="g272"
               clip-path="url(#clipPath266)"><g
                 id="g274"
                 transform="translate(158.9287,112.9199)"><path
                   id="path276"
                   style="fill:#f2f2f2;fill-opacity:1;fill-rule:evenodd;stroke:none"
                   d="m 0,0 c 49.13,0 89.201,2.327 89.201,5.181 0,2.853 -40.071,5.18 -89.201,5.18 -49.13,0 -89.201,-2.327 -89.201,-5.18 C -89.201,2.327 -49.13,0 0,0" /></g></g></g></g></g></g><g
       id="g278"><g
         clip-path="url(#clipPath282)"
         id="g280"><g
           transform="translate(371.2432,320.6367)"
           id="g286"><path
             id="path288"
             style="fill:#f8a770;fill-opacity:1;fill-rule:evenodd;stroke:none"
             d="M 0,0 C 0,0 6.563,-3.414 9.477,-10.717 12.39,-18.021 11.225,-27.514 9.235,-37.956 7.247,-48.397 3.043,-57.85 6.59,-68.739 c 3.548,-10.889 5.687,-13.142 5.687,-13.142 0,0 -7.321,6.87 -7.208,6.082 0.113,-0.789 0.338,-5.181 5.406,-11.263 5.068,-6.082 7.997,-6.871 6.983,-6.645 -1.014,0.226 -15.093,1.915 -34.239,6.758 -19.147,4.844 -27.026,-0.824 -42.853,21.494 -15.827,22.318 -12.673,42.14 -12.673,42.14 0,0 18.921,15.768 34.914,24.328 C -21.4,9.572 0,0 0,0" /></g><g
           transform="translate(321.6836,257.4497)"
           id="g290"><path
             id="path292"
             style="fill:#efc2af;fill-opacity:1;fill-rule:evenodd;stroke:none"
             d="m 0,0 c -1.127,0.338 -15.208,3.113 -15.208,3.113 l -5.429,-11.708 16.244,-3.569 c 2.227,-0.488 -3.24,-36.172 -5.857,-46.178 0,0 20.724,-3.604 34.689,-3.942 13.966,-0.338 19.142,5.367 19.142,5.367 0,0 -1.348,47.568 0.68,49.145 2.027,1.577 15.655,7.394 15.655,7.394 L 48.665,11.237 c 0,0 -16.567,-5.607 -18.82,-5.607 C 27.593,5.63 0,0 0,0" /></g><g
           transform="translate(114.3345,298.9785)"
           id="g294"><path
             id="path296"
             style="fill:#a15641;fill-opacity:1;fill-rule:evenodd;stroke:none"
             d="M 0,0 C -0.226,-0.789 -1.577,-6.871 -0.057,-13.684 1.464,-20.498 8.615,-25.06 8.39,-24.553 8.165,-24.046 1.52,0.958 1.52,0.958 L 0,0 Z" /></g><g
           transform="translate(203.8818,160.1006)"
           id="g298"><path
             id="path300"
             style="fill:#fbd2c0;fill-opacity:1;fill-rule:evenodd;stroke:none"
             d="m 0,0 c 1.915,-6.194 -0.338,-36.041 -0.338,-36.041 l -4.618,-1.464 -6.532,0.112 c 0,0 -5.632,38.069 -4.956,37.505 C -15.768,-0.45 0,0 0,0" /></g><g
           transform="translate(198.9829,126.5938)"
           id="g302"><path
             id="path304"
             style="fill:#485e87;fill-opacity:1;fill-rule:evenodd;stroke:none"
             d="m 0,0 c 0.507,0.45 5.294,2.703 7.603,2.309 2.309,-0.394 21.286,-9.122 18.865,-10.925 -2.422,-1.802 -39.251,-0.788 -39.307,0 -0.057,0.788 2.322,10.537 3.829,10.756 1.508,0.219 3.098,-3.097 5.801,-3.21 C -0.507,-1.183 0,0 0,0" /></g><g
           transform="translate(186.7021,120.7734)"
           id="g306"><path
             id="path308"
             style="fill:#f48366;fill-opacity:1;fill-rule:evenodd;stroke:none"
             d="m 0,0 c 4.951,-0.169 16.802,-0.581 25.405,-0.715 5.132,-0.079 9.083,0.077 11.83,0.267 1.416,-1.049 2.107,-1.906 1.514,-2.348 -2.422,-1.802 -39.251,-0.788 -39.308,0 C -0.576,-2.55 -0.356,-1.43 0,0" /></g><g
           transform="translate(202.0078,131.6621)"
           id="g310"><path
             id="path312"
             style="fill:#b4c5e5;fill-opacity:1;fill-rule:evenodd;stroke:none"
             d="m 0,0 c 0.109,-0.102 0.909,-3.013 2.058,-3.632 3.291,-1.775 9.456,-4.861 10.5,-4.59 1.407,0.366 1.662,1.325 1.662,1.325 -1.121,0.511 -7.057,3.739 -10.6,5.493 0,0 -0.641,2.225 -1.521,2.674 C 1.627,1.511 0,0 0,0" /></g><g
           transform="translate(207.8643,129.375)"
           id="g314"><path
             id="path316"
             style="fill:#3f4a6b;fill-opacity:1;fill-rule:evenodd;stroke:none"
             d="M 0,0 C 0.104,0.156 0.062,0.367 -0.093,0.472 -0.249,0.575 -0.459,0.534 -0.564,0.378 l -2.281,-3.407 c -0.104,-0.156 -0.062,-0.367 0.093,-0.471 0.156,-0.104 0.367,-0.063 0.471,0.093 L 0,0 Z" /></g><g
           transform="translate(211.0513,127.9609)"
           id="g318"><path
             id="path320"
             style="fill:#3f4a6b;fill-opacity:1;fill-rule:evenodd;stroke:none"
             d="M 0,0 C 0.1,0.159 0.052,0.369 -0.106,0.469 -0.265,0.568 -0.475,0.521 -0.575,0.362 l -2.083,-3.323 c -0.1,-0.158 -0.052,-0.368 0.106,-0.468 0.159,-0.099 0.369,-0.051 0.469,0.107 L 0,0 Z" /></g><g
           transform="translate(214.356,126.0117)"
           id="g322"><path
             id="path324"
             style="fill:#3f4a6b;fill-opacity:1;fill-rule:evenodd;stroke:none"
             d="m 0,0 c 0.104,0.156 0.061,0.367 -0.096,0.471 -0.156,0.103 -0.367,0.06 -0.47,-0.096 l -1.915,-2.886 c -0.104,-0.156 -0.061,-0.367 0.095,-0.47 0.157,-0.104 0.368,-0.061 0.471,0.095 L 0,0 Z" /></g><g
           transform="translate(113.0928,160.1006)"
           id="g326"><path
             id="path328"
             style="fill:#fbd2c0;fill-opacity:1;fill-rule:evenodd;stroke:none"
             d="m 0,0 c -1.915,-6.194 0.338,-36.041 0.338,-36.041 l 4.617,-1.464 6.533,0.112 c 0,0 5.632,38.069 4.955,37.505 C 15.768,-0.45 0,0 0,0" /></g><g
           transform="translate(117.9912,126.5938)"
           id="g330"><path
             id="path332"
             style="fill:#485e87;fill-opacity:1;fill-rule:evenodd;stroke:none"
             d="m 0,0 c -0.507,0.45 -5.293,2.703 -7.603,2.309 -2.308,-0.394 -21.286,-9.122 -18.864,-10.925 2.421,-1.802 39.25,-0.788 39.306,0 C 12.896,-7.828 10.517,1.921 9.01,2.14 7.503,2.359 5.913,-0.957 3.209,-1.07 0.507,-1.183 0,0 0,0" /></g><g
           transform="translate(130.272,120.7734)"
           id="g334"><path
             id="path336"
             style="fill:#f48366;fill-opacity:1;fill-rule:evenodd;stroke:none"
             d="m 0,0 c -4.951,-0.169 -16.802,-0.581 -25.405,-0.715 -5.132,-0.079 -9.083,0.077 -11.83,0.267 -1.415,-1.049 -2.106,-1.906 -1.513,-2.348 2.421,-1.802 39.25,-0.788 39.307,0 C 0.576,-2.55 0.356,-1.43 0,0" /></g><g
           transform="translate(114.9663,131.6621)"
           id="g338"><path
             id="path340"
             style="fill:#b4c5e5;fill-opacity:1;fill-rule:evenodd;stroke:none"
             d="m 0,0 c -0.109,-0.102 -0.909,-3.013 -2.057,-3.632 -3.292,-1.775 -9.457,-4.861 -10.501,-4.59 -1.407,0.366 -1.661,1.325 -1.661,1.325 1.12,0.511 7.056,3.739 10.599,5.493 0,0 0.641,2.225 1.521,2.674 C -1.626,1.511 0,0 0,0" /></g><g
           transform="translate(109.1099,129.375)"
           id="g342"><path
             id="path344"
             style="fill:#3f4a6b;fill-opacity:1;fill-rule:evenodd;stroke:none"
             d="M 0,0 C -0.104,0.156 -0.062,0.367 0.093,0.472 0.249,0.575 0.46,0.534 0.564,0.378 L 2.845,-3.029 C 2.949,-3.185 2.908,-3.396 2.752,-3.5 2.596,-3.604 2.385,-3.563 2.281,-3.407 L 0,0 Z" /></g><g
           transform="translate(105.9229,127.9609)"
           id="g346"><path
             id="path348"
             style="fill:#3f4a6b;fill-opacity:1;fill-rule:evenodd;stroke:none"
             d="M 0,0 C -0.1,0.159 -0.052,0.369 0.106,0.469 0.265,0.568 0.475,0.521 0.575,0.362 L 2.659,-2.961 C 2.758,-3.119 2.711,-3.329 2.552,-3.429 2.394,-3.528 2.184,-3.48 2.084,-3.322 L 0,0 Z" /></g><g
           transform="translate(102.6182,126.0117)"
           id="g350"><path
             id="path352"
             style="fill:#3f4a6b;fill-opacity:1;fill-rule:evenodd;stroke:none"
             d="M 0,0 C -0.104,0.156 -0.061,0.367 0.096,0.471 0.252,0.574 0.463,0.531 0.567,0.375 L 2.481,-2.511 C 2.585,-2.667 2.542,-2.878 2.386,-2.981 2.229,-3.085 2.019,-3.042 1.915,-2.886 L 0,0 Z" /></g><g
           transform="translate(188.3437,268.687)"
           id="g354"><path
             id="path356"
             style="fill:#fbd2c0;fill-opacity:1;fill-rule:evenodd;stroke:none"
             d="m 0,0 c 0,0 56.821,15.88 59.017,16.106 2.196,0.226 9.575,6.42 12.362,7.068 2.787,0.648 10.333,1.295 10.868,0.084 0.535,-1.21 -7.574,-4.561 -7.968,-4.899 -0.394,-0.338 -3.942,-3.097 -3.379,-3.266 0.563,-0.169 7.941,-0.732 7.856,-2.197 -0.084,-1.463 -8.025,-2.167 -8.025,-2.167 0,0 -0.52,-1.507 -4.518,-2.015 -3.999,-0.506 -6.139,0.282 -6.139,0.282 L 11.25,-11.615 0,0 Z" /></g><g
           transform="translate(130.5503,201.4346)"
           id="g358"><path
             id="path360"
             style="fill:#57535f;fill-opacity:1;fill-rule:evenodd;stroke:none"
             d="m 0,0 c -6.295,-4.137 -29.761,-53.077 -23.313,-54.286 1.801,-0.338 26.804,-2.929 26.804,-2.929 0,0 3.605,15.543 12.727,25.454 25.687,27.907 34.347,-27.907 36.266,-26.58 0.874,0.604 26.353,4.064 26.353,4.064 3.237,16.532 -13.871,45.425 -26.128,53.376 L 0,0 Z" /></g><g
           transform="translate(104.7607,266.8701)"
           id="g362"><path
             id="path364"
             style="fill:#efc2af;fill-opacity:1;fill-rule:evenodd;stroke:none"
             d="m 0,0 c -0.628,-0.066 0.807,-14.646 0.903,-14.872 0,0 14.865,-4.274 14.865,-2.923 0,1.352 6.532,11.713 6.532,11.713 L 0,0 Z" /></g><g
           transform="translate(147.6855,258.8896)"
           id="g366"><path
             id="path368"
             style="fill:#0eade4;fill-opacity:1;fill-rule:evenodd;stroke:none"
             d="m 0,0 c -0.789,0 -28.607,3.83 -28.607,3.83 l -6.082,-20.724 17.006,-2.252 c 0,0 -1.126,-9.574 -2.702,-24.779 -1.577,-15.205 -4.054,-22.187 -4.054,-22.187 0,0 4.954,-6.758 24.889,-8.785 19.935,-2.028 47.416,7.883 47.416,7.883 -5.579,31.056 -6.555,37.49 -8.222,55.412 0,0 17.007,9.01 16.67,9.686 C 55.976,-1.24 48.993,14.302 47.979,14.302 46.965,14.302 12.727,5.067 9.348,3.49 5.97,1.913 0,0 0,0" /></g><g
           transform="translate(147.6855,258.8896)"
           id="g370"><path
             id="path372"
             style="fill:#009fd2;fill-opacity:1;fill-rule:evenodd;stroke:none"
             d="m 0,0 c -0.789,0 -28.607,3.83 -28.607,3.83 l -1.36,-4.633 c 0,0 13.397,-3.308 14.354,-3.477 0.958,-0.169 4.168,-5.857 12.671,-9.461 8.504,-3.604 28.326,5.125 32.324,11.939 3.15,5.368 4.971,10.735 5.602,12.771 C 24.57,8.156 11.38,4.438 9.348,3.49 5.97,1.913 0,0 0,0" /></g><g
           transform="translate(119.457,248.8213)"
           id="g374"><path
             id="path376"
             style="fill:#247b9f;fill-opacity:1;fill-rule:evenodd;stroke:none"
             d="M 0,0 3.463,13.37 C 1.236,13.917 -1.739,9.265 -1.739,9.265 L -4.247,0.718 -6.461,-6.825 -1.953,-7.423 0,0 Z" /></g><g
           transform="translate(156.1152,270.3809)"
           id="g378"><path
             id="path380"
             style="fill:#efc2af;fill-opacity:1;fill-rule:evenodd;stroke:none"
             d="m 0,0 c 8.988,1.302 16.852,-1.635 17.565,-6.561 0.713,-4.925 -5.995,-9.972 -14.982,-11.273 -8.988,-1.302 -16.852,1.635 -17.565,6.561 C -15.696,-6.349 -8.988,-1.301 0,0" /></g><g
           transform="translate(188.1196,283.5552)"
           id="g382"><path
             id="path384"
             style="fill:#fbd2c0;fill-opacity:1;fill-rule:evenodd;stroke:none"
             d="m 0,0 c 2.016,-8.977 -12.335,-21.196 -28.817,-24.789 -16.335,-3.561 -40.923,1.046 -42.025,34.137 0,0 15.092,12.501 28.945,15.543 13.853,3.041 37.167,6.194 44.149,-0.789 C 9.235,17.119 7.659,3.379 0,0" /></g><g
           transform="translate(155.4756,295.6538)"
           id="g386"><path
             id="path388"
             style="fill:#7f432d;fill-opacity:1;fill-rule:evenodd;stroke:none"
             d="m 0,0 13.142,3.156 c 1.144,0.275 2.305,-0.436 2.58,-1.581 0.275,-1.144 -0.436,-2.305 -1.581,-2.58 L 1,-4.162 C -0.145,-4.436 -1.306,-3.725 -1.581,-2.58 -1.856,-1.436 -1.145,-0.275 0,0" /></g><g
           transform="translate(127.3618,288.5117)"
           id="g390"><path
             id="path392"
             style="fill:#7f432d;fill-opacity:1;fill-rule:evenodd;stroke:none"
             d="M 0,0 13.142,3.156 C 14.286,3.431 15.447,2.719 15.722,1.575 15.997,0.43 15.286,-0.73 14.141,-1.006 L 1,-4.162 C -0.145,-4.436 -1.306,-3.725 -1.581,-2.58 -1.856,-1.436 -1.145,-0.275 0,0" /></g><g
           transform="translate(179.8989,330.9712)"
           id="g394"><path
             id="path396"
             style="fill:#a15641;fill-opacity:1;fill-rule:evenodd;stroke:none"
             d="m 0,0 c 2.129,12.182 -32.077,11.474 -42.686,7.236 -1.958,-0.78 -23.728,-10.494 -18.245,-11.178 0.9,-0.112 5.068,-0.788 3.829,-0.788 -3.361,0 -15.934,-18.432 -13.741,-17.457 1.014,0.45 5.069,1.577 4.393,1.013 -0.676,-0.563 -1.197,-1.605 -2.253,-8.559 -1.056,-6.955 -1.257,-12.553 -1.633,-12.671 -0.375,-0.118 11.833,-0.643 24.834,12.558 -0.176,-1.048 -2.366,-9.236 -1.126,-8.673 1.239,0.564 6.645,0.113 13.628,4.618 6.982,4.505 7.884,5.294 7.884,5.294 0,0 0.113,-7.771 1.013,-7.208 0.901,0.563 11.714,5.406 14.529,7.883 2.816,2.478 3.491,2.591 3.491,1.465 0,-1.127 6.42,-14.417 6.758,-13.403 0.338,1.014 0.563,12.953 7.997,9.912 7.433,-3.042 5.068,-10.926 2.928,-13.291 -2.14,-2.365 -3.942,-4.279 -3.942,-4.279 0.539,-2.06 -0.254,-4.534 -1.745,-7.776 -1.492,-3.243 11.431,3.947 14.022,19.489 2.589,15.542 -0.676,25.679 -7.771,30.634 C 5.068,-0.226 0,0 0,0" /></g><g
           transform="translate(136.3223,148.3193)"
           id="g398"><path
             id="path400"
             style="fill:#6b6874;fill-opacity:1;fill-rule:evenodd;stroke:none"
             d="m 0,0 c 0,-0.423 -2.168,-5.125 -2.168,-5.125 0,0 -29.734,3.295 -29.847,3.857 -0.112,0.564 1.408,6.477 1.408,6.477 L 0,0 Z" /></g><g
           transform="translate(180.1445,147.9111)"
           id="g402"><path
             id="path404"
             style="fill:#6b6874;fill-opacity:1;fill-rule:evenodd;stroke:none"
             d="m 0,0 c 0,-0.423 2.167,-5.125 2.167,-5.125 0,0 29.735,3.295 29.848,3.858 0.112,0.563 -1.409,6.476 -1.409,6.476 L 0,0 Z" /></g><g
           transform="translate(184.3306,296.3408)"
           id="g406"><path
             id="path408"
             style="fill:#d09e8c;fill-opacity:1;fill-rule:evenodd;stroke:none"
             d="M 0,0 C 0.451,0.788 2.309,3.604 4.899,1.408 7.49,-0.789 6.504,-5.322 5.744,-7.349 4.983,-9.376 2.45,-10.869 1.886,-9.517 1.323,-8.166 3.154,-5.209 2.196,-4.618 1.239,-4.026 0.422,-6.251 -0.338,-4.365 -1.098,-2.478 0,0 0,0" /></g><g
           transform="translate(142.2793,268.1069)"
           id="g410"><path
             id="path412"
             style="fill:#5f3933;fill-opacity:1;fill-rule:evenodd;stroke:none"
             d="m 0,0 c -0.118,0.146 -0.094,0.36 0.052,0.478 0.146,0.117 0.36,0.094 0.477,-0.052 2.67,-3.327 19.821,-0.749 21.477,7.736 0.036,0.185 0.215,0.305 0.399,0.269 C 22.589,8.395 22.709,8.216 22.674,8.032 21.59,2.479 16.304,-1.641 11.276,-2.558 9.05,-2.963 1.653,-2.058 0,0" /></g><g
           transform="translate(150.3013,281.1279)"
           id="g414"><path
             id="path416"
             style="fill:#f9b79d;fill-opacity:1;fill-rule:evenodd;stroke:none"
             d="m 0,0 c 0.043,-0.37 -3.727,-3.938 -3.155,-4.434 0.572,-0.496 1.674,-2.435 4.721,-2.108 3.048,0.326 4.808,3.129 4.271,3.129 -0.537,0 -2.549,0.092 -4.075,1.046 C 0.236,-1.413 0,0 0,0" /></g><g
           transform="translate(103.5791,270.2681)"
           id="g418"><path
             id="path420"
             style="fill:#fde2d6;fill-opacity:1;fill-rule:evenodd;stroke:none"
             d="m 0,0 c 0,0 47.91,18.158 50.097,18.457 2.187,0.298 9.356,6.734 12.12,7.474 2.764,0.74 10.284,1.638 10.86,0.446 0.575,-1.192 -7.418,-4.811 -7.802,-5.162 -0.382,-0.351 -3.837,-3.226 -3.268,-3.376 0.569,-0.151 7.96,-0.468 7.925,-1.934 C 69.896,14.438 61.983,13.471 61.983,13.471 56.966,9.463 51.909,11.635 51.39,11.385 41.893,6.828 21.767,-8.747 3.057,-18.434 -9.574,-15.307 -9.254,-4.539 0,0" /></g><g
           transform="translate(123.3428,277.252)"
           id="g422"><path
             id="path424"
             style="fill:#fbc9b6;fill-opacity:1;fill-rule:evenodd;stroke:none"
             d="m 0,0 c -2.089,3.59 -3.663,7.968 -4.522,13.263 -0.139,-0.055 -0.277,-0.107 -0.414,-0.158 -0.526,-0.198 -1.035,-0.374 -1.526,-0.532 0.415,-5.176 1.443,-9.593 2.941,-13.343 0.057,-0.14 0.113,-0.279 0.17,-0.417 0.071,0.025 0.143,0.05 0.214,0.076 0.609,0.215 1.226,0.434 1.848,0.655 C -0.861,-0.305 -0.432,-0.153 0,0" /></g><g
           transform="translate(111.1958,301.2378)"
           id="g426"><path
             id="path428"
             style="fill:#9a5847;fill-opacity:1;fill-rule:evenodd;stroke:none"
             d="m 0,0 c -1.035,-6.817 -1.249,-12.332 -1.611,-12.657 0.007,-0.011 0.013,-0.022 0.019,-0.033 0.284,-0.039 1.776,-0.045 4.099,0.434 0.933,0.193 2.001,0.464 3.178,0.843 0.184,0.059 0.369,0.121 0.558,0.185 0.316,0.108 0.639,0.223 0.968,0.347 0.137,0.051 0.275,0.104 0.414,0.158 4.39,1.708 9.907,4.855 15.576,10.61 -0.176,-1.048 -2.366,-9.235 -1.126,-8.672 1.239,0.563 6.645,0.113 13.628,4.618 6.983,4.504 7.884,5.293 7.884,5.293 0,0 0.054,-3.733 0.387,-5.837 0.148,-0.932 0.35,-1.543 0.627,-1.371 0.44,0.275 3.247,1.573 6.332,3.117 3.227,1.615 6.757,3.5 8.196,4.767 2.816,2.478 3.492,2.59 3.492,1.464 0,-1.126 6.42,-14.416 6.757,-13.403 0.338,1.014 0.563,12.953 7.997,9.912 7.433,-3.041 5.068,-10.925 2.928,-13.291 -2.14,-2.364 -3.942,-4.279 -3.942,-4.279 0.539,-2.059 -0.254,-4.534 -1.745,-7.776 -0.194,-0.42 -0.145,-0.665 0.092,-0.739 1.148,-0.362 6.729,3.293 10.589,10.45 0.697,4.937 1.314,11.399 0.552,15.414 C 84.481,6.762 80.833,13.52 80.833,13.52 L 77.675,7.617 77.649,7.567 c 0,0 -0.031,0.043 -0.087,0.121 C 76.968,8.519 73.518,13.353 73.31,13.97 73.217,14.246 72.386,12.295 71.434,9.887 70.049,6.386 68.408,1.919 68.408,1.919 l -1.745,8.567 -1.902,9.341 c 0,0 -5.928,-5.518 -6.726,-6.195 -0.798,-0.675 -1.254,9.912 -1.254,9.912 0,0 -1.367,-1.915 -5.586,-6.533 C 48,13.513 40.923,9.881 37.795,7.791 37.315,7.469 36.927,7.184 36.662,6.941 c 0.054,0.191 0.112,0.412 0.171,0.653 0.505,2.044 1.139,5.588 1.139,5.588 l -18.125,-9.799 3.761,9.011 c 0,0 -3.305,-0.226 -6.838,-1.803 C 13.236,9.015 3.546,0.23 3.546,0.23 L 1.566,7.549 C 1.144,6.529 0.684,4.505 0,0 M 36.662,6.941 C 36.479,6.303 36.33,5.99 36.262,6.312 c -0.033,0.155 0.112,0.367 0.4,0.629" /></g><g
           transform="translate(193.646,270.1665)"
           id="g430"><path
             id="path432"
             style="fill:#247b9f;fill-opacity:1;fill-rule:evenodd;stroke:none"
             d="m 0,0 6.365,-12.918 1.137,-2.308 c 1.766,1.059 2.942,1.85 2.852,2.033 -0.062,0.122 -0.339,0.727 -0.758,1.638 C 8.219,-8.564 5.31,-2.284 3.488,0.972 2.789,2.222 2.25,3.025 2.019,3.025 1.844,3.025 0.686,2.752 -1.129,2.292 L 0,0 Z" /></g><g
           transform="translate(155.8872,192.668)"
           id="g434"><path
             id="path436"
             style="fill:#009fd2;fill-opacity:1;fill-rule:evenodd;stroke:none"
             d="m 0,0 c -11.727,-3.381 -22.487,-1.41 -30.748,1.729 -0.427,0.163 -0.848,0.328 -1.262,0.496 -0.386,-1.423 -0.631,-2.116 -0.631,-2.116 0,0 0.165,-0.226 0.558,-0.608 1.755,-1.706 8.042,-6.521 24.332,-8.177 16.336,-1.661 37.74,4.695 44.935,7.043 1.585,0.518 2.48,0.841 2.48,0.841 -5.579,31.056 -6.555,37.489 -8.222,55.412 0,0 9.054,4.797 13.819,7.652 l -1.137,2.308 -1.375,2.791 -1.31,-0.625 -23.756,-11.334 9.123,-3.717 c 0,0 -1.155,-28.5 -14.436,-43.573 C 9.058,4.363 4.991,1.438 0,0" /></g><g
           transform="translate(203.2417,258.6118)"
           id="g438"><path
             id="path440"
             style="fill:#fbc9b6;fill-opacity:1;fill-rule:evenodd;stroke:none"
             d="m 0,0 45.176,19.071 c 0,0 2.14,-0.788 6.139,-0.281 3.998,0.507 4.518,2.014 4.518,2.014 0,0 7.127,0.632 7.949,1.943 -2.244,-0.133 -7.569,-0.448 -7.968,-0.448 -0.506,0 -1.014,-1.238 -3.829,-1.858 -2.816,-0.62 -8.335,0.281 -8.335,0.281 L 5.976,6.475 -1.375,2.968 C -0.841,1.825 -0.366,0.796 0,0" /></g><g
           transform="translate(118.2744,263.1846)"
           id="g442"><path
             id="path444"
             style="fill:#fbc9b6;fill-opacity:1;fill-rule:evenodd;stroke:none"
             d="m 0,0 c -5.861,-3.031 -10.813,-5.211 -13.195,-5.375 -3.216,-0.221 -5.806,0.248 -7.777,0.908 0.989,-2.762 3.69,-5.24 8.342,-6.615 0.321,-0.094 0.651,-0.185 0.992,-0.269 3.67,1.901 7.394,4.027 11.082,6.253 1.672,1.009 3.336,2.038 4.985,3.076 0.3,0.189 0.601,0.378 0.901,0.568 0.158,0.101 0.316,0.202 0.475,0.302 1.514,0.963 3.013,1.929 4.49,2.891 6.924,4.511 13.357,8.912 18.611,12.236 1.399,0.885 2.715,1.693 3.933,2.408 1.424,0.834 2.716,1.539 3.855,2.086 0.52,0.249 5.577,-1.922 10.594,2.086 0,0 4.007,0.489 6.331,1.3 1.042,0.728 1.617,1.133 1.617,1.133 0,0 -4.837,-0.589 -6.864,-0.42 -2.028,0.169 -1.859,1.802 -1.112,2.388 -0.227,0.357 2.954,3.007 3.321,3.343 0.321,0.294 6.024,2.9 7.489,4.43 -0.622,0.181 -1.997,-0.374 -4.856,-1.207 -4.054,-1.183 -8.39,-3.83 -9.235,-4.449 -0.845,-0.619 -8.898,-6.532 -8.898,-6.532 0,0 -14.117,-8.96 -27.318,-16.346 C 5.097,2.704 2.468,1.276 0,0" /></g><g
           transform="translate(123.8042,192.1689)"
           id="g446"><path
             id="path448"
             style="fill:#4f4e5a;fill-opacity:1;fill-rule:evenodd;stroke:none"
             d="m 0,0 c -3.145,-5.383 -6.717,-12.393 -9.824,-19.273 3.923,3.519 8.247,6.429 13.529,8.112 10.249,3.266 37.504,2.477 46.853,-3.491 4.259,-2.72 10.436,-10.21 15.899,-17.558 2.405,-3.236 4.672,-6.445 6.576,-9.207 l 7.796,1.327 5.121,0.871 C 85.38,-27.195 77.632,-11.61 69.267,-1.134 62.072,-3.482 40.668,-9.838 24.332,-8.177 8.042,-6.521 1.755,-1.706 0,0" /></g><g
           transform="translate(204.6328,152.0791)"
           id="g450"><path
             id="path452"
             style="fill:#65636c;fill-opacity:1;fill-rule:evenodd;stroke:none"
             d="m 0,0 -7.795,-1.327 c 1.295,-1.878 2.421,-3.549 3.309,-4.882 0.221,-0.332 0.427,-0.644 0.618,-0.932 1.336,0.165 2.631,0.329 3.841,0.486 4.304,0.558 7.516,1.036 7.553,1.22 0.113,0.563 -1.408,6.476 -1.408,6.476 L 5.122,0.871 0,0 Z" /></g><g
           transform="translate(125.3496,127.958)"
           id="g454"><path
             id="path456"
             style="fill:#fbc9b6;fill-opacity:1;fill-rule:evenodd;stroke:none"
             d="m 0,0 c 0.606,4.167 1.48,10.229 2.277,15.976 -2.564,0.294 -5.618,0.649 -8.658,1.014 0.531,-1.908 0.937,-4.627 0.658,-8.201 -0.288,-3.69 -2.048,-6.784 -3.848,-9.04 1.131,-0.469 2.011,-0.934 2.213,-1.113 0,0 0.506,-1.183 3.209,-1.071 C -2.389,-2.36 -1.101,-0.93 0,0" /></g><g
           transform="translate(195.1406,144.2588)"
           id="g458"><path
             id="path460"
             style="fill:#fbc9b6;fill-opacity:1;fill-rule:evenodd;stroke:none"
             d="m 0,0 c 1.523,-1.818 3.325,-4.656 3.325,-7.907 0,-2.635 -2.243,-6.699 -4.493,-10.268 0.543,-0.312 1.139,-0.532 1.801,-0.56 2.702,-0.113 3.209,1.07 3.209,1.07 0.328,0.291 2.445,1.336 4.525,1.932 -0.845,1.039 -1.409,3.051 -1.5,3.136 0,0 1.627,1.511 2.099,1.27 0.205,3.743 0.409,8.219 0.499,12.492 C 8.255,1.008 6.96,0.845 5.625,0.68 3.785,0.453 1.871,0.223 0,0" /></g><g
           transform="translate(137.2129,338.2075)"
           id="g462"><path
             id="path464"
             style="fill:#ae6753;fill-opacity:1;fill-rule:evenodd;stroke:none"
             d="m 0,0 c -1.205,-0.481 -9.918,-4.346 -15.16,-7.407 3.936,-1.534 17.001,0.831 15.874,0.042 -1.126,-0.788 -18.02,-14.191 -12.501,-12.163 5.518,2.027 24.214,11.488 23.876,10.587 -0.338,-0.901 0.901,-6.645 5.182,-3.717 4.279,2.929 4.955,6.42 11.375,3.154 6.419,-3.267 10.812,-3.267 9.348,-1.014 -1.464,2.252 -5.857,6.081 -4.505,5.631 1.351,-0.45 9.46,-0.676 5.743,1.577 -1.762,1.068 -5.119,3.275 -9.135,5.374 C 19.809,3.688 6.058,2.42 0,0" /></g><g
           transform="translate(370.3486,268.687)"
           id="g466"><path
             id="path468"
             style="fill:#fbd2c0;fill-opacity:1;fill-rule:evenodd;stroke:none"
             d="m 0,0 c 0,0 56.821,15.88 59.017,16.106 2.196,0.226 9.575,6.42 12.362,7.068 2.787,0.648 10.333,1.295 10.868,0.084 0.535,-1.21 -7.573,-4.561 -7.968,-4.899 -0.394,-0.338 -3.942,-3.097 -3.379,-3.266 0.563,-0.169 7.941,-0.732 7.856,-2.197 -0.084,-1.463 -8.025,-2.167 -8.025,-2.167 0,0 -0.52,-1.507 -4.518,-2.015 -3.999,-0.506 -6.139,0.282 -6.139,0.282 L 11.251,-11.615 0,0 Z" /></g><g
           transform="translate(286.7656,266.8701)"
           id="g470"><path
             id="path472"
             style="fill:#efc2af;fill-opacity:1;fill-rule:evenodd;stroke:none"
             d="m 0,0 c -0.628,-0.066 0.807,-14.646 0.902,-14.872 0,0 14.866,-4.274 14.866,-2.923 0,1.352 6.533,11.713 6.533,11.713 L 0,0 Z" /></g><g
           transform="translate(343.3369,255.2544)"
           id="g474"><path
             id="path476"
             style="fill:#e2626b;fill-opacity:1;fill-rule:evenodd;stroke:none"
             d="m 0,0 -9.461,-0.958 c 2.331,-6.032 5.898,-11.352 5.898,-11.352 0,0 2.718,2.715 3.563,12.31 m 25.818,14.752 c 8.447,1.915 10.847,1.372 10.847,1.372 L 40.164,2.62 c 0,0 -5.167,-6.452 -9.108,-9.099 -3.943,-2.646 -7.322,-3.604 -6.984,-3.548 0.338,0.057 0.675,-30.635 1.632,-35.928 0.957,-5.294 1.352,-6.87 1.352,-6.87 0,0 -16.331,-0.113 -30.41,-0.451 -14.079,-0.337 -29.396,3.098 -29.396,3.098 0,0 2.927,28.044 3.489,32.831 0.564,4.786 0.395,5.574 0.395,5.574 -5.272,0.01 -12.339,2.076 -17.002,6.002 l 6.464,12.705 c 0,0 4.971,1.652 14.761,-1.418 6.307,0.619 10.925,0.056 19.597,0.281 12.135,0.315 20.948,6.708 30.864,8.955" /></g><g
           transform="translate(353.4268,265.0288)"
           id="g478"><path
             id="path480"
             style="fill:#fff8ad;fill-opacity:1;fill-rule:evenodd;stroke:none"
             d="M 0,0 C 0.495,0.227 7.648,-0.199 7.456,-3.563 7.265,-6.926 0.562,-8.213 0.9,-8.459 c 0.339,-0.245 2.817,-3.617 0.958,-5.333 -1.858,-1.716 -6.588,0.981 -6.588,0.981 0,0 -0.01,-3.913 -3.333,-5.301 -3.323,-1.388 -2.293,6.07 -2.293,6.07 L 0,0 Z" /></g><g
           transform="translate(324.0439,261.813)"
           id="g482"><path
             id="path484"
             style="fill:#fff8ad;fill-opacity:1;fill-rule:evenodd;stroke:none"
             d="m 0,0 c -0.495,0.208 -7.648,-0.182 -7.456,-3.272 0.191,-3.091 6.894,-4.273 6.556,-4.499 -0.339,-0.225 -2.817,-3.323 -0.958,-4.899 1.858,-1.577 7.49,1.014 7.49,1.014 0,0 1.013,-5.069 5.181,-5.012 4.167,0.055 -0.156,7.152 -0.156,7.152 L 0,0 Z" /></g><g
           transform="translate(338.1201,270.3809)"
           id="g486"><path
             id="path488"
             style="fill:#efc2af;fill-opacity:1;fill-rule:evenodd;stroke:none"
             d="m 0,0 c 8.988,1.302 16.852,-1.635 17.565,-6.561 0.713,-4.925 -5.995,-9.972 -14.982,-11.273 -8.988,-1.302 -16.852,1.635 -17.565,6.561 C -15.695,-6.349 -8.987,-1.301 0,0" /></g><g
           transform="translate(370.125,283.5552)"
           id="g490"><path
             id="path492"
             style="fill:#fbd2c0;fill-opacity:1;fill-rule:evenodd;stroke:none"
             d="m 0,0 c 1.168,-5.203 -3.163,-11.497 -10.221,-16.568 -5.118,-3.677 -11.669,-6.711 -18.596,-8.221 -16.335,-3.561 -40.924,1.046 -42.026,34.137 0,0 15.092,12.501 28.946,15.543 13.852,3.041 37.167,6.194 44.149,-0.789 C 9.235,17.119 7.658,3.379 0,0" /></g><g
           transform="translate(337.4805,295.6538)"
           id="g494"><path
             id="path496"
             style="fill:#df9b6d;fill-opacity:1;fill-rule:evenodd;stroke:none"
             d="M 0,0 13.142,3.156 C 14.286,3.431 15.447,2.72 15.723,1.575 15.997,0.431 15.286,-0.73 14.142,-1.005 L 1,-4.162 C -0.145,-4.436 -1.306,-3.725 -1.581,-2.58 -1.855,-1.436 -1.145,-0.275 0,0" /></g><g
           transform="translate(309.3672,288.5117)"
           id="g498"><path
             id="path500"
             style="fill:#df9b6d;fill-opacity:1;fill-rule:evenodd;stroke:none"
             d="M 0,0 13.142,3.156 C 14.286,3.431 15.446,2.719 15.722,1.575 15.997,0.43 15.285,-0.73 14.141,-1.006 L 0.999,-4.162 C -0.146,-4.436 -1.307,-3.725 -1.581,-2.58 -1.856,-1.436 -1.145,-0.275 0,0" /></g><g
           transform="translate(366.3359,296.3408)"
           id="g502"><path
             id="path504"
             style="fill:#d09e8c;fill-opacity:1;fill-rule:evenodd;stroke:none"
             d="m 0,0 c 0.45,0.788 2.309,3.604 4.899,1.408 2.59,-2.197 1.605,-6.73 0.844,-8.757 -0.76,-2.027 -3.294,-3.52 -3.857,-2.168 -0.564,1.351 1.267,4.308 0.31,4.899 C 1.238,-4.026 0.422,-6.251 -0.339,-4.365 -1.099,-2.478 0,0 0,0" /></g><g
           transform="translate(326.9268,269.4585)"
           id="g506"><path
             id="path508"
             style="fill:#5f3933;fill-opacity:1;fill-rule:evenodd;stroke:none"
             d="M 0,0 C -0.063,0.105 -0.029,0.242 0.077,0.306 0.183,0.369 0.319,0.334 0.383,0.229 1.816,-2.176 13.2,-2.057 15.048,3.309 15.088,3.426 15.215,3.488 15.331,3.448 15.448,3.408 15.51,3.28 15.47,3.164 14.261,-0.348 10.45,-2.546 7.099,-2.686 5.614,-2.748 0.889,-1.488 0,0" /></g><g
           transform="translate(332.3057,281.1279)"
           id="g510"><path
             id="path512"
             style="fill:#f9b79d;fill-opacity:1;fill-rule:evenodd;stroke:none"
             d="m 0,0 c 0.043,-0.37 -3.726,-3.938 -3.154,-4.434 0.572,-0.496 1.674,-2.435 4.721,-2.108 3.047,0.326 4.807,3.129 4.271,3.129 -0.537,0 -2.55,0.092 -4.075,1.046 C 0.236,-1.413 0,0 0,0" /></g><g
           transform="translate(285.584,270.2681)"
           id="g514"><path
             id="path516"
             style="fill:#fde2d6;fill-opacity:1;fill-rule:evenodd;stroke:none"
             d="m 0,0 c 0,0 47.909,18.158 50.097,18.457 2.187,0.298 9.356,6.734 12.12,7.474 2.764,0.74 10.285,1.638 10.86,0.446 0.574,-1.192 -7.419,-4.811 -7.802,-5.162 -0.382,-0.351 -3.837,-3.226 -3.268,-3.376 0.568,-0.151 7.961,-0.468 7.925,-1.934 C 69.896,14.438 61.983,13.471 61.983,13.471 56.967,9.463 51.909,11.635 51.39,11.385 41.893,6.828 21.767,-8.747 3.058,-18.434 -9.573,-15.307 -9.254,-4.539 0,0" /></g><g
           transform="translate(305.3477,277.252)"
           id="g518"><path
             id="path520"
             style="fill:#fbc9b6;fill-opacity:1;fill-rule:evenodd;stroke:none"
             d="m 0,0 c -2.089,3.59 -3.663,7.968 -4.522,13.263 -0.139,-0.055 -0.277,-0.107 -0.414,-0.158 -0.526,-0.198 -1.035,-0.374 -1.526,-0.532 0.415,-5.176 1.443,-9.593 2.941,-13.343 0.056,-0.14 0.113,-0.279 0.17,-0.417 0.072,0.025 0.143,0.05 0.214,0.076 0.609,0.215 1.226,0.434 1.849,0.655 C -0.861,-0.305 -0.432,-0.153 0,0" /></g><g
           transform="translate(385.2471,258.6118)"
           id="g522"><path
             id="path524"
             style="fill:#fbc9b6;fill-opacity:1;fill-rule:evenodd;stroke:none"
             d="m 0,0 45.176,19.071 c 0,0 2.139,-0.788 6.138,-0.281 3.999,0.507 4.519,2.014 4.519,2.014 0,0 7.127,0.632 7.948,1.943 -2.244,-0.133 -7.568,-0.448 -7.967,-0.448 -0.506,0 -1.014,-1.238 -3.83,-1.858 -2.815,-0.62 -8.334,0.281 -8.334,0.281 L 5.976,6.475 -1.376,2.968 C -0.841,1.825 -0.366,0.796 0,0" /></g><g
           transform="translate(300.2793,263.1846)"
           id="g526"><path
             id="path528"
             style="fill:#fbc9b6;fill-opacity:1;fill-rule:evenodd;stroke:none"
             d="m 0,0 c -5.861,-3.031 -10.813,-5.211 -13.194,-5.375 -3.216,-0.221 -5.807,0.248 -7.778,0.908 0.99,-2.762 3.691,-5.24 8.341,-6.615 0.322,-0.094 0.652,-0.185 0.993,-0.269 3.67,1.901 7.395,4.027 11.082,6.253 1.672,1.009 3.336,2.038 4.985,3.076 0.3,0.189 0.601,0.378 0.901,0.568 0.158,0.101 0.316,0.202 0.476,0.302 1.513,0.963 3.012,1.929 4.489,2.891 6.924,4.511 13.357,8.912 18.61,12.236 1.401,0.885 2.716,1.693 3.935,2.408 1.424,0.834 2.716,1.539 3.854,2.086 0.52,0.249 5.577,-1.922 10.594,2.086 0,0 4.007,0.489 6.331,1.3 1.042,0.728 1.617,1.133 1.617,1.133 0,0 -4.837,-0.589 -6.864,-0.42 -2.027,0.169 -1.858,1.802 -1.112,2.388 -0.228,0.357 2.954,3.007 3.321,3.343 0.321,0.294 6.023,2.9 7.489,4.43 -0.622,0.181 -1.997,-0.374 -4.855,-1.207 -4.055,-1.183 -8.391,-3.83 -9.236,-4.449 -0.845,-0.619 -8.898,-6.532 -8.898,-6.532 0,0 -14.117,-8.96 -27.317,-16.346 C 5.097,2.704 2.468,1.276 0,0" /></g><g
           transform="translate(300.4062,319.1733)"
           id="g530"><path
             id="path532"
             style="fill:#f8a770;fill-opacity:1;fill-rule:evenodd;stroke:none"
             d="m 0,0 c -7.218,-9.595 -6.82,-36.973 -6.532,-36.829 4.06,2.033 5.518,-0.901 17.682,11.938 -0.113,-0.675 -3.041,-10.136 -3.041,-10.136 20.827,5.681 29.236,5.579 38.631,28.607 0.194,-13.423 12.17,-18.931 11.264,-17.345 -0.451,0.788 -1.352,8.673 -1.352,8.673 l 4.505,-5.745 0.113,6.645 c 0,0 1.239,-11.6 1.915,-13.852 0.675,-2.253 0.789,-2.929 0.901,-1.915 0.112,1.013 -1.014,13.177 4.955,13.74 5.97,0.563 7.434,-2.703 7.658,-7.433 0.226,-4.731 -6.644,-10.812 -6.644,-10.812 0,0 -0.113,-10.249 0.338,-9.574 0.45,0.676 3.942,6.982 9.235,18.132 5.294,11.151 -1.688,28.384 -12.5,37.507 C 46.475,29.026 15.424,20.504 0,0" /></g><g
           transform="translate(296.6475,310.6694)"
           id="g534"><path
             id="path536"
             style="fill:#e9a06d;fill-opacity:1;fill-rule:evenodd;stroke:none"
             d="m 0,0 c -3.288,-11.872 -2.998,-28.437 -2.773,-28.325 4.06,2.033 5.518,-0.902 17.682,11.938 -0.113,-0.675 -3.041,-10.136 -3.041,-10.136 20.826,5.681 29.236,5.579 38.631,28.607 0.193,-13.423 12.17,-18.931 11.264,-17.345 -0.451,0.788 -1.352,8.673 -1.352,8.673 l 4.505,-5.745 0.112,6.645 c 0,0 1.24,-11.6 1.915,-13.853 0.344,-1.146 0.542,-1.884 0.669,-2.199 l 0.233,0.284 c 0,0 -0.015,11.457 -1.141,15.399 -1.126,3.942 -6.42,4.844 -6.758,5.519 -0.338,0.676 -1.801,-5.406 -1.801,-6.082 0,-0.675 -7.772,15.994 -7.884,17.12 -0.114,1.126 -18.471,-23.765 -19.147,-24.328 -0.676,-0.563 1.014,14.867 1.014,14.867 0,0 -8.673,-7.434 -9.573,-8.447 C 21.653,-8.421 25.37,7.233 25.482,8.36 25.595,9.486 1.268,-19.234 1.268,-19.234 L 0,0 Z" /></g><g
           transform="translate(298.1982,315.2056)"
           id="g538"><path
             id="path540"
             style="fill:#f38480;fill-opacity:1;fill-rule:evenodd;stroke:none"
             d="m 0,0 c 1.599,9.766 16.337,20.652 27.96,22.419 43.102,6.554 43,-36.845 39.789,-35.011 C 61.216,2.032 42.451,29.404 0,0" /></g><g
           transform="translate(312.2988,202.8428)"
           id="g542"><path
             id="path544"
             style="fill:#7e4a51;fill-opacity:1;fill-rule:evenodd;stroke:none"
             d="m 0,0 c -19.328,-25.479 -20.312,-59.103 -16.375,-78.985 l 13.14,-0.981 c 0,0 -3.373,18.997 2.477,37.336 10.501,32.91 35.334,32.627 53.154,0.994 9.01,-15.993 10.271,-36.66 10.271,-36.66 l 11.483,-0.6 c 0,0 2.626,14.935 -1.793,36.122 C 67.939,-21.588 52.966,-2.31 52.966,-2.31 37.812,-4.084 13.225,-8.22 0,0" /></g><g
           transform="translate(382.6689,126.5391)"
           id="g546"><path
             id="path548"
             style="fill:#e2626b;fill-opacity:1;fill-rule:evenodd;stroke:none"
             d="m 0,0 c 0.507,0.45 5.293,2.702 7.603,2.309 2.308,-0.395 21.286,-9.123 18.864,-10.925 -2.421,-1.803 -39.25,-0.789 -39.307,0 -0.056,0.788 2.322,10.537 3.829,10.756 1.508,0.218 3.098,-3.098 5.801,-3.21 C -0.507,-1.184 0,0 0,0" /></g><g
           transform="translate(370.3877,120.7188)"
           id="g550"><path
             id="path552"
             style="fill:#f48366;fill-opacity:1;fill-rule:evenodd;stroke:none"
             d="m 0,0 c 4.951,-0.17 16.802,-0.582 25.405,-0.715 5.132,-0.079 9.083,0.077 11.83,0.266 1.415,-1.049 2.107,-1.905 1.513,-2.347 -2.421,-1.803 -39.25,-0.789 -39.307,0 C -0.576,-2.55 -0.356,-1.431 0,0" /></g><g
           transform="translate(387.751,127.9746)"
           id="g554"><path
             id="path556"
             style="fill:#b4c5e5;fill-opacity:1;fill-rule:evenodd;stroke:none"
             d="m 0,0 c 3.292,-1.774 9.457,-4.86 10.5,-4.59 1.407,0.366 1.662,1.324 1.662,1.324 -1.121,0.512 -7.057,3.741 -10.6,5.495 0,0 -0.641,2.225 -1.52,2.673 C -1.659,5.77 -3.037,1.638 0,0" /></g><g
           transform="translate(391.5498,129.3203)"
           id="g558"><path
             id="path560"
             style="fill:#3f4a6b;fill-opacity:1;fill-rule:evenodd;stroke:none"
             d="M 0,0 C 0.104,0.155 0.062,0.366 -0.093,0.471 -0.248,0.575 -0.46,0.533 -0.563,0.378 l -2.282,-3.407 c -0.104,-0.156 -0.062,-0.367 0.093,-0.471 0.155,-0.104 0.367,-0.063 0.471,0.093 L 0,0 Z" /></g><g
           transform="translate(394.7373,127.9063)"
           id="g562"><path
             id="path564"
             style="fill:#3f4a6b;fill-opacity:1;fill-rule:evenodd;stroke:none"
             d="m 0,0 c 0.1,0.158 0.052,0.368 -0.106,0.469 -0.16,0.099 -0.37,0.052 -0.469,-0.108 l -2.084,-3.322 c -0.1,-0.159 -0.052,-0.368 0.106,-0.469 0.159,-0.099 0.369,-0.051 0.469,0.108 L 0,0 Z" /></g><g
           transform="translate(398.042,125.957)"
           id="g566"><path
             id="path568"
             style="fill:#3f4a6b;fill-opacity:1;fill-rule:evenodd;stroke:none"
             d="m 0,0 c 0.104,0.156 0.061,0.367 -0.096,0.471 -0.156,0.103 -0.368,0.06 -0.471,-0.096 l -1.914,-2.886 c -0.104,-0.156 -0.061,-0.368 0.095,-0.471 0.157,-0.104 0.367,-0.061 0.471,0.095 L 0,0 Z" /></g><g
           transform="translate(299.9961,126.5938)"
           id="g570"><path
             id="path572"
             style="fill:#e2626b;fill-opacity:1;fill-rule:evenodd;stroke:none"
             d="m 0,0 c -0.507,0.45 -5.294,2.703 -7.603,2.309 -2.308,-0.394 -21.286,-9.122 -18.864,-10.925 2.421,-1.802 39.25,-0.788 39.307,0 C 12.896,-7.828 10.518,1.921 9.01,2.14 7.503,2.359 5.913,-0.957 3.21,-1.07 0.507,-1.183 0,0 0,0" /></g><g
           transform="translate(312.2773,120.7734)"
           id="g574"><path
             id="path576"
             style="fill:#f48366;fill-opacity:1;fill-rule:evenodd;stroke:none"
             d="m 0,0 c -4.951,-0.169 -16.802,-0.581 -25.405,-0.715 -5.132,-0.079 -9.083,0.077 -11.83,0.267 -1.415,-1.049 -2.107,-1.906 -1.513,-2.348 2.421,-1.802 39.25,-0.788 39.307,0 C 0.576,-2.55 0.356,-1.43 0,0" /></g><g
           transform="translate(294.9141,128.0303)"
           id="g578"><path
             id="path580"
             style="fill:#b4c5e5;fill-opacity:1;fill-rule:evenodd;stroke:none"
             d="m 0,0 c -3.292,-1.775 -9.457,-4.861 -10.5,-4.59 -1.407,0.365 -1.662,1.324 -1.662,1.324 1.121,0.512 7.057,3.74 10.6,5.494 0,0 0.641,2.225 1.52,2.673 C 1.659,5.77 3.037,1.637 0,0" /></g><g
           transform="translate(291.1152,129.375)"
           id="g582"><path
             id="path584"
             style="fill:#3f4a6b;fill-opacity:1;fill-rule:evenodd;stroke:none"
             d="M 0,0 C -0.104,0.156 -0.062,0.367 0.093,0.472 0.248,0.575 0.459,0.534 0.563,0.378 L 2.845,-3.029 C 2.949,-3.185 2.907,-3.396 2.752,-3.5 2.596,-3.604 2.385,-3.563 2.28,-3.407 L 0,0 Z" /></g><g
           transform="translate(287.9277,127.9609)"
           id="g586"><path
             id="path588"
             style="fill:#3f4a6b;fill-opacity:1;fill-rule:evenodd;stroke:none"
             d="m 0,0 c -0.1,0.159 -0.052,0.369 0.106,0.469 0.16,0.099 0.37,0.052 0.469,-0.107 L 2.659,-2.961 C 2.759,-3.119 2.711,-3.329 2.552,-3.429 2.394,-3.528 2.184,-3.48 2.084,-3.322 L 0,0 Z" /></g><g
           transform="translate(284.623,126.0117)"
           id="g590"><path
             id="path592"
             style="fill:#3f4a6b;fill-opacity:1;fill-rule:evenodd;stroke:none"
             d="m 0,0 c -0.104,0.156 -0.061,0.367 0.096,0.471 0.156,0.103 0.367,0.06 0.47,-0.096 L 2.481,-2.511 C 2.585,-2.667 2.542,-2.878 2.386,-2.981 2.229,-3.085 2.019,-3.042 1.915,-2.886 L 0,0 Z" /></g><g
           transform="translate(294.2725,137.0469)"
           id="g594"><path
             id="path596"
             style="fill:#70474d;fill-opacity:1;fill-rule:evenodd;stroke:none"
             d="m 0,0 c 0.088,-1.468 0.204,-2.902 0.345,-4.298 0.082,0.075 0.168,0.138 0.255,0.183 1.558,0.795 2.844,-2.606 0.716,-4.441 2.041,-0.6 4.086,-1.611 4.408,-1.897 0,0 0.506,-1.183 3.21,-1.07 2.339,0.097 3.845,2.596 5.185,3.123 -0.555,7.018 -0.721,19.436 3.15,31.566 10.501,32.91 35.334,32.627 53.154,0.994 6.618,-11.748 9.056,-26.017 9.883,-32.765 1.265,-0.739 2.716,-2.883 4.881,-2.973 1.369,-0.058 2.174,0.218 2.635,0.504 C 84.036,22.787 58.396,75.825 22.882,47.196 11.845,38.3 14.098,20.616 6.439,7.663 4.132,3.762 1.999,1.394 0,0" /></g><g
           transform="translate(370.3926,282.3418)"
           id="g598"><path
             id="path600"
             style="fill:#e6e7e8;fill-opacity:1;fill-rule:evenodd;stroke:none"
             d="M 0,0 C 0.993,0 1.803,0.828 1.803,1.844 1.803,2.86 0.993,3.688 0,3.688 -0.992,3.688 -1.802,2.86 -1.802,1.844 -1.802,0.828 -0.992,0 0,0" /></g><g
           transform="translate(340.207,237.0371)"
           id="g602"><path
             id="path604"
             style="fill:#a44685;fill-opacity:1;fill-rule:evenodd;stroke:none"
             d="M 0,0 C 0.899,0 1.634,0.695 1.634,1.549 1.634,2.401 0.899,3.098 0,3.098 -0.899,3.098 -1.633,2.401 -1.633,1.549 -1.633,0.695 -0.899,0 0,0" /></g><g
           transform="translate(350.9707,325.1812)"
           id="g606"><path
             id="path608"
             style="fill:#df7674;fill-opacity:1;fill-rule:evenodd;stroke:none"
             d="m 0,0 c -10.781,7.426 -27.12,9.453 -51.148,-6.847 -0.315,-0.214 -0.631,-0.431 -0.954,-0.65 -0.309,-0.83 -0.537,-1.658 -0.67,-2.479 21.685,15.021 37.19,15.226 48.041,9.882 6.445,-3.174 11.248,-8.305 14.729,-13.452 2.13,-3.15 3.766,-6.306 4.979,-9.021 0.551,-0.315 1.011,0.704 1.176,2.575 -0.153,-0.162 -0.322,-0.2 -0.501,-0.098 -0.855,1.916 -1.922,4.051 -3.222,6.248 C 9.541,-8.966 5.491,-3.782 0,0" /></g></g></g><g
       id="g610"><g
         clip-path="url(#clipPath614)"
         id="g612"><g
           transform="translate(182.1274,15.3916)"
           id="g618"><path
             id="path620"
             style="fill:#231f20;fill-opacity:1;fill-rule:nonzero;stroke:none"
             d="m 0,0 c 0,-0.409 0.063,-0.757 0.191,-1.045 0.127,-0.287 0.302,-0.504 0.522,-0.648 0.222,-0.147 0.463,-0.22 0.724,-0.22 0.266,0 0.507,0.068 0.728,0.208 0.219,0.138 0.394,0.351 0.525,0.635 C 2.821,-0.784 2.885,-0.427 2.885,0 2.885,0.402 2.821,0.748 2.69,1.037 2.559,1.326 2.382,1.548 2.159,1.701 1.936,1.853 1.692,1.929 1.427,1.929 1.151,1.929 0.904,1.851 0.686,1.694 0.467,1.538 0.301,1.313 0.18,1.021 0.06,0.728 0,0.388 0,0 m 2.97,-2.217 0,0.15 C 2.766,-2.299 2.566,-2.488 2.369,-2.634 2.171,-2.779 1.958,-2.891 1.727,-2.965 1.498,-3.042 1.247,-3.079 0.973,-3.079 c -0.361,0 -0.695,0.076 -1.003,0.229 -0.308,0.153 -0.574,0.371 -0.799,0.655 -0.226,0.284 -0.395,0.617 -0.511,1.001 -0.117,0.383 -0.175,0.798 -0.175,1.244 0,0.943 0.231,1.679 0.691,2.206 0.46,0.526 1.068,0.79 1.819,0.79 0.434,0 0.802,-0.075 1.1,-0.223 0.3,-0.149 0.591,-0.38 0.875,-0.688 l 0,2.227 c 0,0.31 0.06,0.543 0.184,0.702 0.124,0.159 0.3,0.238 0.529,0.238 0.227,0 0.403,-0.073 0.526,-0.218 0.125,-0.147 0.186,-0.36 0.186,-0.645 l 0,-6.656 c 0,-0.287 -0.067,-0.503 -0.199,-0.646 -0.133,-0.144 -0.304,-0.216 -0.513,-0.216 -0.207,0 -0.378,0.074 -0.512,0.224 -0.134,0.15 -0.201,0.362 -0.201,0.638" /></g><g
           transform="translate(188.7998,15.8672)"
           id="g622"><path
             id="path624"
             style="fill:#231f20;fill-opacity:1;fill-rule:nonzero;stroke:none"
             d="M 0,0 2.736,0 C 2.7,0.516 2.559,0.902 2.319,1.158 2.077,1.415 1.76,1.542 1.365,1.542 0.989,1.542 0.68,1.413 0.44,1.153 0.198,0.894 0.052,0.509 0,0 m 2.951,-0.857 -2.951,0 c 0.003,-0.343 0.073,-0.645 0.207,-0.907 0.135,-0.261 0.314,-0.459 0.536,-0.591 0.223,-0.133 0.469,-0.199 0.738,-0.199 0.18,0 0.346,0.021 0.495,0.063 0.15,0.043 0.294,0.108 0.435,0.199 0.139,0.09 0.269,0.188 0.387,0.29 0.117,0.105 0.27,0.246 0.458,0.422 0.077,0.065 0.187,0.1 0.332,0.1 0.154,0 0.279,-0.044 0.375,-0.128 0.096,-0.086 0.144,-0.204 0.144,-0.36 0,-0.136 -0.053,-0.295 -0.16,-0.478 C 3.839,-2.629 3.679,-2.804 3.464,-2.972 3.247,-3.139 2.977,-3.277 2.651,-3.389 2.325,-3.499 1.95,-3.555 1.525,-3.555 c -0.969,0 -1.723,0.278 -2.26,0.829 -0.538,0.553 -0.808,1.303 -0.808,2.25 0,0.448 0.067,0.861 0.199,1.242 0.133,0.381 0.327,0.709 0.581,0.981 0.255,0.273 0.567,0.482 0.94,0.628 C 0.549,2.521 0.961,2.593 1.415,2.593 2.004,2.593 2.51,2.469 2.932,2.22 3.354,1.971 3.671,1.649 3.88,1.256 4.09,0.861 4.196,0.458 4.196,0.051 4.196,-0.33 4.087,-0.575 3.87,-0.688 3.654,-0.801 3.347,-0.857 2.951,-0.857" /></g><g
           transform="translate(198.6274,14.2871)"
           id="g626"><path
             id="path628"
             style="fill:#231f20;fill-opacity:1;fill-rule:nonzero;stroke:none"
             d="m 0,0 c 0,-0.417 -0.1,-0.774 -0.303,-1.07 -0.203,-0.297 -0.502,-0.523 -0.899,-0.675 -0.396,-0.153 -0.877,-0.23 -1.444,-0.23 -0.542,0 -1.008,0.083 -1.394,0.249 -0.387,0.165 -0.673,0.374 -0.857,0.622 -0.185,0.25 -0.276,0.499 -0.276,0.75 0,0.166 0.059,0.306 0.177,0.424 0.118,0.118 0.267,0.177 0.448,0.177 0.158,0 0.279,-0.038 0.363,-0.115 0.086,-0.077 0.167,-0.187 0.244,-0.326 0.154,-0.27 0.341,-0.47 0.556,-0.603 0.216,-0.133 0.509,-0.199 0.882,-0.199 0.303,0 0.551,0.067 0.744,0.201 0.193,0.136 0.289,0.29 0.289,0.463 0,0.266 -0.099,0.458 -0.301,0.579 -0.201,0.122 -0.531,0.238 -0.993,0.349 -0.519,0.129 -0.942,0.265 -1.267,0.407 -0.327,0.141 -0.588,0.328 -0.783,0.56 -0.196,0.233 -0.293,0.519 -0.293,0.858 0,0.302 0.09,0.587 0.27,0.857 0.182,0.268 0.447,0.483 0.8,0.643 0.351,0.161 0.776,0.241 1.273,0.241 0.391,0 0.743,-0.04 1.053,-0.122 0.313,-0.08 0.572,-0.189 0.78,-0.326 0.209,-0.136 0.368,-0.287 0.475,-0.452 0.109,-0.166 0.164,-0.328 0.164,-0.488 0,-0.172 -0.059,-0.315 -0.174,-0.425 -0.116,-0.11 -0.281,-0.166 -0.495,-0.166 -0.155,0 -0.287,0.044 -0.395,0.133 C -1.465,2.404 -1.589,2.536 -1.73,2.713 -1.844,2.86 -1.978,2.979 -2.132,3.068 -2.287,3.156 -2.498,3.2 -2.764,3.2 -3.036,3.2 -3.263,3.143 -3.443,3.025 -3.624,2.91 -3.714,2.766 -3.714,2.593 c 0,-0.16 0.066,-0.289 0.199,-0.391 C -3.382,2.101 -3.203,2.017 -2.979,1.95 -2.753,1.885 -2.445,1.804 -2.049,1.708 -1.583,1.593 -1.2,1.456 -0.902,1.299 -0.607,1.141 -0.381,0.953 -0.229,0.737 -0.075,0.522 0,0.276 0,0" /></g><g
           transform="translate(200.916,17.5918)"
           id="g630"><path
             id="path632"
             style="fill:#231f20;fill-opacity:1;fill-rule:nonzero;stroke:none"
             d="m 0,0 0,-4.361 c 0,-0.302 -0.071,-0.532 -0.215,-0.686 -0.144,-0.155 -0.326,-0.232 -0.548,-0.232 -0.22,0 -0.4,0.079 -0.539,0.237 -0.138,0.159 -0.206,0.386 -0.206,0.681 l 0,4.318 c 0,0.297 0.068,0.522 0.206,0.674 0.139,0.151 0.319,0.226 0.539,0.226 0.222,0 0.404,-0.075 0.548,-0.226 C -0.071,0.479 0,0.27 0,0 m -0.746,1.559 c -0.21,0 -0.39,0.065 -0.539,0.194 -0.148,0.128 -0.223,0.31 -0.223,0.547 0,0.215 0.076,0.39 0.229,0.528 0.153,0.139 0.331,0.208 0.533,0.208 0.196,0 0.369,-0.063 0.52,-0.188 C -0.075,2.723 0,2.54 0,2.3 0,2.067 -0.074,1.887 -0.22,1.756 -0.368,1.625 -0.543,1.559 -0.746,1.559" /></g><g
           transform="translate(203.1543,15.4307)"
           id="g634"><path
             id="path636"
             style="fill:#231f20;fill-opacity:1;fill-rule:nonzero;stroke:none"
             d="m 0,0 c 0,-0.612 0.134,-1.074 0.401,-1.388 0.268,-0.313 0.613,-0.469 1.037,-0.469 0.25,0 0.487,0.067 0.71,0.202 0.224,0.134 0.404,0.337 0.545,0.607 0.14,0.272 0.211,0.599 0.211,0.986 0,0.616 -0.135,1.096 -0.407,1.438 C 2.225,1.719 1.87,1.89 1.427,1.89 0.997,1.89 0.65,1.726 0.391,1.398 0.131,1.07 0,0.604 0,0 m 4.374,1.912 0,-4.383 C 4.374,-2.973 4.319,-3.404 4.212,-3.766 4.107,-4.126 3.935,-4.425 3.7,-4.661 3.463,-4.896 3.155,-5.071 2.773,-5.186 2.393,-5.3 1.918,-5.357 1.35,-5.357 c -0.52,0 -0.985,0.073 -1.393,0.218 -0.409,0.147 -0.724,0.334 -0.946,0.564 -0.221,0.23 -0.332,0.468 -0.332,0.711 0,0.183 0.063,0.335 0.189,0.45 0.125,0.116 0.276,0.175 0.452,0.175 0.222,0 0.416,-0.099 0.581,-0.293 0.081,-0.1 0.164,-0.201 0.252,-0.302 0.086,-0.102 0.182,-0.188 0.287,-0.261 0.105,-0.071 0.231,-0.124 0.379,-0.159 0.147,-0.034 0.317,-0.053 0.509,-0.053 0.39,0 0.693,0.054 0.909,0.163 0.215,0.109 0.367,0.261 0.454,0.456 0.086,0.196 0.137,0.405 0.151,0.628 0.015,0.223 0.027,0.581 0.033,1.076 -0.231,-0.326 -0.5,-0.573 -0.804,-0.742 -0.304,-0.17 -0.666,-0.253 -1.086,-0.253 -0.505,0 -0.946,0.128 -1.325,0.386 -0.377,0.259 -0.667,0.619 -0.87,1.083 -0.203,0.466 -0.304,1.001 -0.304,1.61 0,0.452 0.061,0.862 0.184,1.226 0.125,0.366 0.3,0.673 0.53,0.924 0.227,0.25 0.491,0.439 0.789,0.566 0.299,0.127 0.627,0.191 0.984,0.191 0.428,0 0.798,-0.082 1.112,-0.245 C 2.398,2.597 2.69,2.34 2.958,1.989 l 0,0.205 c 0,0.262 0.064,0.465 0.193,0.61 0.13,0.142 0.296,0.215 0.498,0.215 0.291,0 0.486,-0.095 0.58,-0.286 C 4.326,2.544 4.374,2.27 4.374,1.912" /></g><g
           transform="translate(209.9268,17.6143)"
           id="g638"><path
             id="path640"
             style="fill:#231f20;fill-opacity:1;fill-rule:nonzero;stroke:none"
             d="m 0,0 0,-0.183 c 0.265,0.351 0.556,0.608 0.871,0.772 0.315,0.164 0.676,0.246 1.086,0.246 0.398,0 0.754,-0.087 1.067,-0.261 0.312,-0.173 0.548,-0.418 0.701,-0.734 0.1,-0.185 0.166,-0.384 0.193,-0.597 0.03,-0.215 0.046,-0.487 0.046,-0.818 l 0,-2.809 c 0,-0.302 -0.069,-0.531 -0.208,-0.685 -0.139,-0.156 -0.317,-0.233 -0.538,-0.233 -0.226,0 -0.408,0.079 -0.548,0.238 -0.141,0.159 -0.21,0.385 -0.21,0.68 l 0,2.516 c 0,0.497 -0.069,0.878 -0.207,1.141 -0.139,0.263 -0.414,0.396 -0.826,0.396 -0.27,0 -0.515,-0.08 -0.736,-0.241 C 0.47,-0.732 0.307,-0.953 0.205,-1.232 0.131,-1.458 0.093,-1.878 0.093,-2.493 l 0,-1.891 c 0,-0.305 -0.071,-0.536 -0.213,-0.688 -0.14,-0.154 -0.325,-0.23 -0.548,-0.23 -0.219,0 -0.397,0.079 -0.537,0.238 -0.14,0.159 -0.211,0.385 -0.211,0.68 l 0,4.362 c 0,0.288 0.063,0.502 0.188,0.644 0.126,0.142 0.297,0.213 0.514,0.213 0.133,0 0.254,-0.031 0.36,-0.095 C -0.248,0.678 -0.162,0.584 -0.097,0.459 -0.032,0.334 0,0.18 0,0" /></g><g
           transform="translate(216.1562,15.8672)"
           id="g642"><path
             id="path644"
             style="fill:#231f20;fill-opacity:1;fill-rule:nonzero;stroke:none"
             d="M 0,0 2.737,0 C 2.7,0.516 2.561,0.902 2.319,1.158 2.077,1.415 1.761,1.542 1.366,1.542 0.99,1.542 0.681,1.413 0.439,1.153 0.198,0.894 0.051,0.509 0,0 m 2.953,-0.857 -2.953,0 c 0.003,-0.343 0.073,-0.645 0.208,-0.907 0.134,-0.261 0.313,-0.459 0.537,-0.591 0.222,-0.133 0.468,-0.199 0.736,-0.199 0.182,0 0.346,0.021 0.497,0.063 0.147,0.043 0.293,0.108 0.434,0.199 0.138,0.09 0.268,0.188 0.386,0.29 0.117,0.105 0.271,0.246 0.458,0.422 0.077,0.065 0.188,0.1 0.332,0.1 0.155,0 0.281,-0.044 0.378,-0.128 0.094,-0.086 0.143,-0.204 0.143,-0.36 0,-0.136 -0.055,-0.295 -0.162,-0.478 C 3.84,-2.629 3.679,-2.804 3.464,-2.972 3.248,-3.139 2.978,-3.277 2.651,-3.389 2.325,-3.499 1.95,-3.555 1.526,-3.555 c -0.968,0 -1.724,0.278 -2.261,0.829 -0.538,0.553 -0.807,1.303 -0.807,2.25 0,0.448 0.066,0.861 0.198,1.242 0.134,0.381 0.328,0.709 0.582,0.981 0.253,0.273 0.567,0.482 0.94,0.628 0.371,0.146 0.785,0.218 1.238,0.218 0.588,0 1.095,-0.124 1.517,-0.373 C 3.355,1.971 3.671,1.649 3.881,1.256 4.09,0.861 4.196,0.458 4.196,0.051 4.196,-0.33 4.087,-0.575 3.87,-0.688 3.653,-0.801 3.347,-0.857 2.953,-0.857" /></g><g
           transform="translate(222.292,15.3916)"
           id="g646"><path
             id="path648"
             style="fill:#231f20;fill-opacity:1;fill-rule:nonzero;stroke:none"
             d="m 0,0 c 0,-0.409 0.063,-0.757 0.191,-1.045 0.127,-0.287 0.301,-0.504 0.523,-0.648 0.221,-0.147 0.463,-0.22 0.724,-0.22 0.265,0 0.507,0.068 0.727,0.208 0.219,0.138 0.394,0.351 0.525,0.635 C 2.82,-0.784 2.886,-0.427 2.886,0 2.886,0.402 2.82,0.748 2.69,1.037 2.559,1.326 2.382,1.548 2.159,1.701 1.936,1.853 1.691,1.929 1.427,1.929 1.15,1.929 0.904,1.851 0.686,1.694 0.468,1.538 0.3,1.313 0.18,1.021 0.059,0.728 0,0.388 0,0 m 2.969,-2.217 0,0.15 C 2.766,-2.299 2.566,-2.488 2.368,-2.634 2.171,-2.779 1.96,-2.891 1.728,-2.965 1.499,-3.042 1.246,-3.079 0.973,-3.079 c -0.361,0 -0.696,0.076 -1.003,0.229 -0.308,0.153 -0.575,0.371 -0.799,0.655 -0.225,0.284 -0.395,0.617 -0.511,1.001 -0.116,0.383 -0.174,0.798 -0.174,1.244 0,0.943 0.229,1.679 0.691,2.206 0.46,0.526 1.066,0.79 1.819,0.79 0.434,0 0.801,-0.075 1.099,-0.223 0.299,-0.149 0.59,-0.38 0.874,-0.688 l 0,2.227 c 0,0.31 0.062,0.543 0.184,0.702 0.124,0.159 0.301,0.238 0.529,0.238 0.229,0 0.404,-0.073 0.528,-0.218 0.123,-0.147 0.185,-0.36 0.185,-0.645 l 0,-6.656 c 0,-0.287 -0.066,-0.503 -0.198,-0.646 -0.133,-0.144 -0.304,-0.216 -0.515,-0.216 -0.205,0 -0.376,0.074 -0.512,0.224 -0.133,0.15 -0.201,0.362 -0.201,0.638" /></g><g
           transform="translate(231.5015,15.3477)"
           id="g650"><path
             id="path652"
             style="fill:#231f20;fill-opacity:1;fill-rule:nonzero;stroke:none"
             d="m 0,0 c 0,-0.601 0.138,-1.062 0.412,-1.385 0.275,-0.322 0.634,-0.484 1.082,-0.484 0.379,0 0.706,0.165 0.98,0.495 0.275,0.33 0.411,0.803 0.411,1.418 0,0.398 -0.056,0.741 -0.17,1.028 C 2.6,1.36 2.438,1.582 2.228,1.738 2.018,1.895 1.772,1.973 1.494,1.973 1.205,1.973 0.948,1.895 0.724,1.738 0.499,1.582 0.323,1.355 0.193,1.059 0.063,0.763 0,0.409 0,0 m -0.073,4.483 0,-2.304 C 0.211,2.473 0.501,2.699 0.796,2.855 1.09,3.012 1.455,3.09 1.891,3.09 2.392,3.09 2.831,2.972 3.209,2.734 3.587,2.496 3.88,2.151 4.088,1.7 4.296,1.249 4.401,0.713 4.401,0.094 4.401,-0.363 4.343,-0.782 4.227,-1.164 4.111,-1.545 3.941,-1.877 3.721,-2.155 3.5,-2.436 3.231,-2.653 2.917,-2.806 2.602,-2.959 2.253,-3.035 1.875,-3.035 c -0.233,0 -0.452,0.027 -0.655,0.083 -0.206,0.056 -0.38,0.128 -0.523,0.219 -0.143,0.089 -0.266,0.182 -0.368,0.278 -0.101,0.096 -0.236,0.24 -0.402,0.432 l 0,-0.15 c 0,-0.283 -0.067,-0.498 -0.204,-0.644 -0.136,-0.146 -0.308,-0.218 -0.52,-0.218 -0.214,0 -0.383,0.072 -0.51,0.218 -0.128,0.146 -0.192,0.361 -0.192,0.644 l 0,6.591 c 0,0.306 0.062,0.537 0.186,0.693 0.123,0.157 0.295,0.235 0.516,0.235 0.233,0 0.412,-0.075 0.538,-0.224 0.124,-0.15 0.186,-0.362 0.186,-0.639" /></g><g
           transform="translate(237.8584,12.124)"
           id="g654"><path
             id="path656"
             style="fill:#231f20;fill-opacity:1;fill-rule:nonzero;stroke:none"
             d="m 0,0 0.139,0.338 -1.857,4.677 c -0.115,0.268 -0.172,0.464 -0.172,0.587 0,0.128 0.033,0.248 0.099,0.358 0.067,0.11 0.158,0.199 0.273,0.266 0.117,0.066 0.237,0.099 0.363,0.099 0.218,0 0.38,-0.069 0.491,-0.207 0.112,-0.139 0.209,-0.336 0.294,-0.595 L 0.907,1.81 2.119,5.264 C 2.214,5.543 2.3,5.763 2.377,5.922 2.455,6.08 2.537,6.187 2.623,6.242 2.71,6.298 2.833,6.325 2.992,6.325 3.106,6.325 3.215,6.295 3.32,6.233 3.425,6.173 3.507,6.091 3.563,5.987 3.62,5.885 3.649,5.776 3.649,5.662 3.633,5.593 3.611,5.492 3.578,5.363 3.542,5.234 3.504,5.103 3.456,4.971 L 1.487,-0.182 C 1.318,-0.635 1.152,-0.99 0.991,-1.248 0.828,-1.507 0.613,-1.705 0.346,-1.843 0.079,-1.981 -0.282,-2.051 -0.735,-2.051 c -0.443,0 -0.773,0.048 -0.994,0.144 -0.223,0.096 -0.332,0.271 -0.332,0.526 0,0.172 0.052,0.307 0.157,0.4 0.105,0.094 0.26,0.142 0.467,0.142 0.081,0 0.161,-0.012 0.238,-0.034 0.095,-0.022 0.178,-0.033 0.248,-0.033 0.173,0 0.31,0.025 0.41,0.078 0.099,0.051 0.187,0.141 0.269,0.268 0.078,0.126 0.17,0.314 0.272,0.56" /></g><g
           transform="translate(259.7227,18.3184)"
           id="g658"><path
             id="path660"
             style="fill:#231f20;fill-opacity:1;fill-rule:nonzero;stroke:none"
             d="m 0,0 0.36,0 0,0.453 c 0,0.475 0.058,0.849 0.177,1.128 0.119,0.278 0.324,0.481 0.61,0.608 0.286,0.126 0.678,0.19 1.174,0.19 0.885,0 1.324,-0.214 1.324,-0.649 C 3.645,1.592 3.599,1.472 3.504,1.372 3.413,1.274 3.305,1.224 3.181,1.224 3.121,1.224 3.018,1.234 2.872,1.258 2.733,1.278 2.608,1.29 2.51,1.29 2.238,1.29 2.064,1.209 1.983,1.049 1.909,0.889 1.87,0.659 1.87,0.359 L 1.87,0 2.238,0 C 2.813,0 3.1,-0.173 3.1,-0.521 3.1,-0.766 3.025,-0.923 2.871,-0.989 2.721,-1.056 2.509,-1.088 2.238,-1.088 l -0.368,0 0,-4 C 1.87,-5.386 1.8,-5.612 1.654,-5.769 1.514,-5.927 1.332,-6.005 1.105,-6.005 0.892,-6.005 0.716,-5.927 0.571,-5.769 0.43,-5.612 0.36,-5.386 0.36,-5.088 l 0,4 -0.416,0 c -0.225,0 -0.397,0.048 -0.52,0.151 -0.121,0.1 -0.183,0.233 -0.183,0.395 C -0.759,-0.179 -0.506,0 0,0" /></g><g
           transform="translate(264.6641,14.4922)"
           id="g662"><path
             id="path664"
             style="fill:#231f20;fill-opacity:1;fill-rule:nonzero;stroke:none"
             d="m 0,0 0,-1.262 c 0,-0.304 -0.078,-0.535 -0.219,-0.687 -0.142,-0.155 -0.325,-0.23 -0.545,-0.23 -0.221,0 -0.4,0.076 -0.539,0.234 -0.138,0.153 -0.21,0.382 -0.21,0.683 l 0,4.203 c 0,0.679 0.244,1.019 0.735,1.019 0.252,0 0.431,-0.078 0.543,-0.238 C -0.126,3.563 -0.063,3.33 -0.052,3.019 0.128,3.33 0.312,3.563 0.501,3.722 0.693,3.882 0.943,3.96 1.264,3.96 1.584,3.96 1.887,3.882 2.187,3.722 2.486,3.563 2.634,3.352 2.634,3.091 2.634,2.908 2.57,2.752 2.445,2.636 2.316,2.515 2.181,2.455 2.034,2.455 1.976,2.455 1.841,2.491 1.631,2.559 1.419,2.625 1.23,2.659 1.072,2.659 0.85,2.659 0.668,2.601 0.528,2.486 0.388,2.368 0.278,2.197 0.201,1.971 0.125,1.741 0.072,1.466 0.041,1.153 0.014,0.837 0,0.453 0,0" /></g><g
           transform="translate(268.6484,15.8701)"
           id="g666"><path
             id="path668"
             style="fill:#231f20;fill-opacity:1;fill-rule:nonzero;stroke:none"
             d="M 0,0 2.736,0 C 2.701,0.515 2.563,0.901 2.32,1.156 2.077,1.413 1.763,1.539 1.366,1.539 0.99,1.539 0.682,1.412 0.44,1.15 0.199,0.891 0.052,0.508 0,0 m 2.954,-0.858 -2.954,0 c 0.006,-0.343 0.071,-0.647 0.206,-0.908 0.139,-0.259 0.315,-0.458 0.539,-0.591 0.224,-0.133 0.467,-0.199 0.738,-0.199 0.181,0 0.346,0.02 0.496,0.066 0.146,0.04 0.292,0.107 0.432,0.197 0.143,0.09 0.269,0.187 0.387,0.291 0.118,0.103 0.271,0.243 0.461,0.419 0.077,0.066 0.188,0.102 0.33,0.102 0.157,0 0.28,-0.043 0.378,-0.129 0.096,-0.086 0.141,-0.204 0.141,-0.36 0,-0.136 -0.05,-0.296 -0.156,-0.476 C 3.844,-2.632 3.684,-2.806 3.465,-2.975 3.248,-3.141 2.978,-3.281 2.653,-3.39 2.327,-3.501 1.951,-3.557 1.528,-3.557 c -0.972,0 -1.725,0.276 -2.262,0.828 -0.537,0.554 -0.81,1.305 -0.81,2.251 0,0.448 0.068,0.862 0.203,1.244 0.131,0.382 0.323,0.707 0.58,0.981 0.255,0.274 0.565,0.482 0.94,0.628 0.37,0.146 0.783,0.218 1.238,0.218 0.588,0 1.095,-0.124 1.517,-0.376 C 3.354,1.971 3.676,1.648 3.883,1.254 4.092,0.858 4.197,0.458 4.197,0.047 4.197,-0.331 4.088,-0.576 3.87,-0.689 3.654,-0.803 3.349,-0.858 2.954,-0.858" /></g><g
           transform="translate(274.9287,15.8701)"
           id="g670"><path
             id="path672"
             style="fill:#231f20;fill-opacity:1;fill-rule:nonzero;stroke:none"
             d="M 0,0 2.736,0 C 2.698,0.515 2.559,0.901 2.32,1.156 2.074,1.413 1.76,1.539 1.364,1.539 0.987,1.539 0.68,1.412 0.437,1.15 0.196,0.891 0.049,0.508 0,0 m 2.952,-0.858 -2.952,0 c 0.003,-0.343 0.072,-0.647 0.205,-0.908 0.136,-0.259 0.315,-0.458 0.536,-0.591 0.223,-0.133 0.47,-0.199 0.741,-0.199 0.18,0 0.344,0.02 0.493,0.066 0.15,0.04 0.293,0.107 0.436,0.197 0.141,0.09 0.267,0.187 0.387,0.291 0.115,0.103 0.269,0.243 0.458,0.419 0.078,0.066 0.189,0.102 0.331,0.102 0.156,0 0.281,-0.043 0.378,-0.129 0.097,-0.086 0.139,-0.204 0.139,-0.36 0,-0.136 -0.049,-0.296 -0.159,-0.476 C 3.844,-2.632 3.681,-2.806 3.463,-2.975 3.246,-3.141 2.974,-3.281 2.65,-3.39 2.326,-3.501 1.947,-3.557 1.524,-3.557 c -0.97,0 -1.723,0.276 -2.263,0.828 -0.536,0.554 -0.807,1.305 -0.807,2.251 0,0.448 0.067,0.862 0.201,1.244 0.133,0.382 0.326,0.707 0.58,0.981 0.253,0.274 0.566,0.482 0.94,0.628 0.371,0.146 0.787,0.218 1.24,0.218 0.587,0 1.093,-0.124 1.522,-0.376 C 3.354,1.971 3.673,1.648 3.879,1.254 4.088,0.858 4.197,0.458 4.197,0.047 4.197,-0.331 4.084,-0.576 3.869,-0.689 3.651,-0.803 3.346,-0.858 2.952,-0.858" /></g><g
           transform="translate(284.1455,15.4102)"
           id="g674"><path
             id="path676"
             style="fill:#231f20;fill-opacity:1;fill-rule:nonzero;stroke:none"
             d="m 0,0 c 0,0.397 -0.061,0.741 -0.182,1.025 -0.121,0.287 -0.291,0.505 -0.505,0.658 -0.214,0.152 -0.456,0.23 -0.715,0.23 -0.417,0 -0.77,-0.165 -1.054,-0.491 -0.287,-0.33 -0.431,-0.813 -0.431,-1.451 0,-0.598 0.142,-1.067 0.428,-1.401 0.284,-0.334 0.632,-0.5 1.057,-0.5 0.249,0 0.481,0.074 0.694,0.217 0.216,0.148 0.388,0.364 0.517,0.655 C -0.063,-0.766 0,-0.412 0,0 m -2.959,2.192 0,-0.18 c 0.283,0.349 0.579,0.606 0.888,0.771 0.301,0.165 0.651,0.248 1.037,0.248 0.463,0 0.894,-0.121 1.285,-0.359 C 0.642,2.431 0.948,2.081 1.176,1.62 1.402,1.157 1.516,0.613 1.516,-0.018 1.516,-0.48 1.451,-0.908 1.321,-1.298 1.19,-1.687 1.009,-2.013 0.781,-2.276 0.552,-2.538 0.282,-2.743 -0.029,-2.885 c -0.315,-0.14 -0.646,-0.212 -1.005,-0.212 -0.429,0 -0.795,0.087 -1.086,0.261 -0.292,0.17 -0.571,0.427 -0.839,0.76 l 0,-2.266 c 0,-0.661 -0.242,-0.995 -0.723,-0.995 -0.285,0 -0.471,0.085 -0.566,0.255 -0.088,0.175 -0.137,0.422 -0.137,0.752 l 0,6.516 c 0,0.288 0.062,0.5 0.187,0.644 0.127,0.139 0.298,0.212 0.516,0.212 0.214,0 0.388,-0.073 0.52,-0.218 0.139,-0.147 0.203,-0.355 0.203,-0.632" /></g><g
           transform="translate(287.9297,17.5957)"
           id="g678"><path
             id="path680"
             style="fill:#231f20;fill-opacity:1;fill-rule:nonzero;stroke:none"
             d="m 0,0 0,-4.367 c 0,-0.3 -0.072,-0.529 -0.215,-0.682 -0.145,-0.157 -0.328,-0.233 -0.549,-0.233 -0.221,0 -0.397,0.077 -0.539,0.236 -0.136,0.161 -0.207,0.387 -0.207,0.679 l 0,4.324 c 0,0.296 0.071,0.521 0.207,0.672 0.142,0.153 0.318,0.227 0.539,0.227 0.221,0 0.404,-0.074 0.549,-0.227 C -0.072,0.478 0,0.267 0,0 m -0.747,1.559 c -0.211,0 -0.391,0.066 -0.537,0.195 -0.153,0.13 -0.226,0.309 -0.226,0.545 0,0.215 0.075,0.39 0.231,0.53 0.152,0.136 0.33,0.207 0.532,0.207 0.197,0 0.369,-0.062 0.519,-0.186 C -0.076,2.723 0,2.538 0,2.299 0,2.066 -0.074,1.885 -0.22,1.755 -0.367,1.625 -0.544,1.559 -0.747,1.559" /></g><g
           transform="translate(292.7959,13.0029)"
           id="g682"><path
             id="path684"
             style="fill:#231f20;fill-opacity:1;fill-rule:nonzero;stroke:none"
             d="m 0,0 -1.329,2.191 -0.82,-0.772 0,-1.202 c 0,-0.291 -0.078,-0.514 -0.231,-0.67 -0.15,-0.158 -0.33,-0.236 -0.528,-0.236 -0.232,0 -0.416,0.076 -0.548,0.233 -0.131,0.153 -0.2,0.382 -0.2,0.684 l 0,6.439 c 0,0.333 0.067,0.588 0.193,0.765 0.129,0.176 0.317,0.262 0.555,0.262 0.233,0 0.415,-0.079 0.553,-0.239 0.136,-0.157 0.206,-0.393 0.206,-0.699 l 0,-3.663 1.697,1.782 c 0.21,0.219 0.368,0.373 0.481,0.453 0.11,0.081 0.244,0.121 0.401,0.121 0.19,0 0.345,-0.06 0.475,-0.179 C 1.028,5.149 1.092,4.998 1.092,4.819 1.092,4.599 0.886,4.302 0.478,3.934 L -0.324,3.199 1.224,0.765 C 1.337,0.582 1.421,0.448 1.47,0.354 1.519,0.261 1.546,0.167 1.546,0.084 1.546,-0.156 1.48,-0.343 1.348,-0.483 1.218,-0.621 1.043,-0.689 0.832,-0.689 0.648,-0.689 0.504,-0.642 0.406,-0.54 0.306,-0.439 0.167,-0.259 0,0" /></g><g
           transform="translate(296.0742,12.3135)"
           id="g686"><path
             id="path688"
             style="fill:#231f20;fill-opacity:1;fill-rule:nonzero;stroke:none"
             d="m 0,0 c -0.227,0 -0.423,0.073 -0.589,0.222 -0.165,0.145 -0.25,0.352 -0.25,0.62 0,0.224 0.08,0.418 0.24,0.579 0.16,0.162 0.353,0.244 0.587,0.244 0.231,0 0.429,-0.082 0.594,-0.24 C 0.745,1.265 0.828,1.068 0.828,0.842 0.828,0.578 0.745,0.371 0.582,0.225 0.417,0.073 0.222,0 0,0" /></g><g
           transform="translate(303.582,14.1826)"
           id="g690"><path
             id="path692"
             style="fill:#231f20;fill-opacity:1;fill-rule:nonzero;stroke:none"
             d="m 0,0 c 0,-0.187 -0.056,-0.39 -0.169,-0.603 -0.11,-0.214 -0.283,-0.418 -0.515,-0.611 -0.23,-0.192 -0.518,-0.349 -0.87,-0.468 -0.35,-0.117 -0.746,-0.177 -1.181,-0.177 -0.936,0 -1.664,0.273 -2.188,0.815 -0.521,0.544 -0.784,1.273 -0.784,2.189 0,0.621 0.12,1.167 0.362,1.643 0.237,0.475 0.583,0.843 1.036,1.103 0.454,0.26 0.998,0.39 1.627,0.39 0.392,0 0.748,-0.057 1.078,-0.173 0.327,-0.113 0.6,-0.262 0.829,-0.441 0.225,-0.183 0.399,-0.375 0.518,-0.577 0.121,-0.205 0.179,-0.396 0.179,-0.575 0,-0.179 -0.068,-0.332 -0.199,-0.458 -0.138,-0.125 -0.3,-0.189 -0.489,-0.189 -0.128,0 -0.232,0.033 -0.315,0.097 -0.084,0.065 -0.177,0.169 -0.278,0.315 -0.185,0.278 -0.376,0.49 -0.581,0.628 -0.2,0.142 -0.454,0.211 -0.763,0.211 -0.443,0 -0.806,-0.174 -1.08,-0.522 -0.273,-0.347 -0.409,-0.826 -0.409,-1.429 0,-0.284 0.036,-0.546 0.106,-0.784 0.069,-0.238 0.17,-0.44 0.303,-0.608 0.134,-0.167 0.293,-0.294 0.481,-0.38 0.189,-0.09 0.397,-0.132 0.62,-0.132 0.302,0 0.561,0.07 0.777,0.21 0.22,0.14 0.409,0.353 0.574,0.641 0.092,0.17 0.19,0.302 0.297,0.399 0.105,0.094 0.238,0.144 0.393,0.144 0.184,0 0.338,-0.071 0.457,-0.211 C -0.062,0.308 0,0.157 0,0" /></g><g
           transform="translate(308.5811,15.3818)"
           id="g694"><path
             id="path696"
             style="fill:#231f20;fill-opacity:1;fill-rule:nonzero;stroke:none"
             d="m 0,0 c 0,0.616 -0.136,1.095 -0.406,1.437 -0.27,0.346 -0.634,0.517 -1.09,0.517 -0.297,0 -0.556,-0.077 -0.782,-0.229 C -2.505,1.572 -2.675,1.347 -2.797,1.047 -2.918,0.748 -2.979,0.398 -2.979,0 c 0,-0.396 0.058,-0.738 0.179,-1.032 0.121,-0.298 0.293,-0.523 0.516,-0.679 0.224,-0.155 0.485,-0.235 0.788,-0.235 0.456,0 0.82,0.172 1.09,0.518 C -0.136,-1.084 0,-0.606 0,0 m 1.516,0 c 0,-0.449 -0.071,-0.864 -0.207,-1.245 -0.145,-0.38 -0.345,-0.707 -0.611,-0.978 -0.266,-0.272 -0.585,-0.481 -0.95,-0.628 -0.372,-0.144 -0.785,-0.218 -1.244,-0.218 -0.458,0 -0.87,0.074 -1.235,0.222 -0.364,0.146 -0.682,0.358 -0.947,0.63 -0.268,0.278 -0.471,0.603 -0.612,0.977 -0.134,0.374 -0.205,0.788 -0.205,1.24 0,0.458 0.073,0.876 0.21,1.256 0.14,0.381 0.343,0.705 0.605,0.973 0.261,0.269 0.577,0.476 0.949,0.624 0.374,0.144 0.785,0.217 1.235,0.217 0.456,0 0.871,-0.073 1.244,-0.222 C 0.118,2.702 0.437,2.49 0.705,2.22 0.971,1.943 1.172,1.621 1.31,1.247 1.446,0.867 1.516,0.455 1.516,0" /></g><g
           transform="translate(315.8545,15.2705)"
           id="g698"><path
             id="path700"
             style="fill:#231f20;fill-opacity:1;fill-rule:nonzero;stroke:none"
             d="m 0,0 0,-2.006 c 0,-0.318 -0.069,-0.554 -0.215,-0.715 -0.145,-0.158 -0.332,-0.237 -0.569,-0.237 -0.228,0 -0.415,0.079 -0.553,0.237 -0.144,0.161 -0.219,0.397 -0.219,0.715 l 0,2.404 c 0,0.381 -0.009,0.677 -0.036,0.888 -0.026,0.206 -0.096,0.381 -0.211,0.514 -0.114,0.137 -0.295,0.204 -0.54,0.204 -0.497,0 -0.82,-0.168 -0.976,-0.512 -0.157,-0.336 -0.236,-0.823 -0.236,-1.46 l 0,-2.038 c 0,-0.313 -0.073,-0.551 -0.212,-0.712 -0.145,-0.159 -0.329,-0.24 -0.561,-0.24 -0.23,0 -0.417,0.081 -0.563,0.24 -0.146,0.161 -0.218,0.399 -0.218,0.712 l 0,4.319 c 0,0.285 0.064,0.5 0.194,0.646 0.134,0.149 0.307,0.223 0.518,0.223 0.208,0 0.379,-0.072 0.519,-0.207 0.137,-0.139 0.206,-0.33 0.206,-0.574 l 0,-0.142 c 0.264,0.311 0.544,0.542 0.841,0.687 0.299,0.151 0.63,0.225 0.997,0.225 0.379,0 0.705,-0.076 0.977,-0.227 0.273,-0.152 0.497,-0.381 0.675,-0.685 0.256,0.307 0.529,0.537 0.821,0.687 0.292,0.15 0.611,0.225 0.967,0.225 0.411,0 0.769,-0.083 1.068,-0.244 C 2.971,2.765 3.193,2.531 3.341,2.231 3.47,1.956 3.533,1.527 3.533,0.94 l 0,-2.946 c 0,-0.318 -0.07,-0.554 -0.214,-0.715 -0.142,-0.158 -0.334,-0.237 -0.569,-0.237 -0.229,0 -0.415,0.081 -0.562,0.24 -0.145,0.161 -0.218,0.399 -0.218,0.712 l 0,2.539 C 1.97,0.857 1.955,1.116 1.929,1.312 1.902,1.508 1.827,1.673 1.706,1.805 1.584,1.937 1.397,2.004 1.151,2.004 0.952,2.004 0.764,1.942 0.585,1.825 0.406,1.71 0.266,1.548 0.165,1.352 0.058,1.098 0,0.646 0,0" /></g><g
           transform="translate(245.5972,15.7471)"
           id="g702"><path
             id="path704"
             style="fill:#231f20;fill-opacity:1;fill-rule:nonzero;stroke:none"
             d="M 0,0 0,0.01 0,0 Z" /></g><g
           transform="translate(245.6733,15.2646)"
           id="g706"><path
             id="path708"
             style="fill:#231f20;fill-opacity:1;fill-rule:nonzero;stroke:none"
             d="M 0,0 0.001,0 C -0.027,0.138 -0.049,0.273 -0.068,0.408 -0.049,0.272 -0.027,0.136 0,0" /></g><g
           transform="translate(246.1733,13.8643)"
           id="g710"><path
             id="path712"
             style="fill:#231f20;fill-opacity:1;fill-rule:nonzero;stroke:none"
             d="M 0,0 C -0.003,0.005 -0.007,0.012 -0.01,0.019 -0.007,0.012 -0.003,0.005 0,0" /></g><g
           transform="translate(246.1255,13.957)"
           id="g714"><path
             id="path716"
             style="fill:#231f20;fill-opacity:1;fill-rule:nonzero;stroke:none"
             d="M 0,0 C -0.014,0.025 -0.026,0.053 -0.039,0.078 -0.026,0.051 -0.014,0.025 0,0" /></g><g
           transform="translate(245.813,14.7246)"
           id="g718"><path
             id="path720"
             style="fill:#231f20;fill-opacity:1;fill-rule:nonzero;stroke:none"
             d="M 0,0 C 0.075,-0.232 0.164,-0.458 0.266,-0.674 0.162,-0.454 0.075,-0.228 0.002,0 L 0,0 Z" /></g><g
           transform="translate(251.4395,21.5303)"
           id="g722"><path
             id="path724"
             style="fill:#231f20;fill-opacity:1;fill-rule:nonzero;stroke:none"
             d="M 0,0 C 0.292,0 0.507,-0.022 0.755,-0.064 L 0.824,0.38 c 0,0 -0.681,0.209 -1.578,0.136 l -0.07,0.242 c 0.278,0.058 0.487,0.305 0.487,0.601 0,0.339 -0.276,0.614 -0.616,0.614 -0.339,0 -0.614,-0.275 -0.614,-0.614 0,-0.296 0.21,-0.543 0.488,-0.601 l 0.078,-0.27 C -1.953,0.357 -2.71,-0.014 -2.71,-0.014 l 0.134,-0.41 c 0.575,0.192 1.074,0.308 1.528,0.357 C -0.606,-0.021 -0.271,0 0,0" /></g><g
           transform="translate(246.1621,19.2852)"
           id="g726"><path
             id="path728"
             style="fill:#231f20;fill-opacity:1;fill-rule:nonzero;stroke:none"
             d="m 0,0 0.003,0.004 c 0.022,0.029 0.045,0.058 0.066,0.083 l -0.182,0.132 -0.284,0.207 c -0.017,-0.022 -0.464,-0.433 -0.816,-1.192 -0.015,0.024 -0.033,0.048 -0.052,0.07 -0.106,0.115 -0.254,0.174 -0.442,0.171 l -0.008,0 c -0.117,0 -0.196,0.038 -0.248,0.086 0.052,0.066 0.083,0.148 0.083,0.24 0,0.214 -0.174,0.389 -0.391,0.389 -0.214,0 -0.388,-0.175 -0.388,-0.389 0,-0.216 0.174,-0.39 0.388,-0.39 0.035,0 0.066,0.006 0.099,0.012 0.095,-0.107 0.246,-0.198 0.47,-0.194 0.114,0 0.197,-0.029 0.254,-0.09 0.065,-0.071 0.086,-0.172 0.093,-0.249 0,-10e-4 0,-0.003 -0.001,-0.003 -0.255,-0.693 -0.182,-1.555 -0.182,-1.555 l 0.616,-0.023 c 0.012,0.313 0.057,0.862 0.216,1.297 C -0.399,-0.55 -0.016,-0.022 0,0" /></g><g
           transform="translate(256.7939,21.0166)"
           id="g730"><path
             id="path732"
             style="fill:#231f20;fill-opacity:1;fill-rule:nonzero;stroke:none"
             d="m 0,0 c -0.214,0 -0.389,-0.174 -0.389,-0.39 0,-0.033 0.005,-0.065 0.014,-0.095 -0.107,-0.097 -0.199,-0.249 -0.196,-0.473 0.002,-0.114 -0.028,-0.197 -0.091,-0.254 -0.049,-0.044 -0.11,-0.066 -0.173,-0.082 -0.458,0.643 -1.02,1.034 -1.02,1.034 l -0.443,-0.473 c 0.334,-0.304 0.676,-0.684 1.006,-1.159 0.23,-0.329 0.466,-0.751 0.662,-1.172 l 0.596,0.283 c 0,0 -0.272,0.672 -0.656,1.275 0.067,0.024 0.135,0.06 0.193,0.111 0.117,0.106 0.174,0.255 0.171,0.442 -0.002,0.121 0.039,0.203 0.087,0.257 0.066,-0.051 0.149,-0.083 0.239,-0.083 0.216,0 0.39,0.175 0.39,0.389 C 0.39,-0.174 0.216,0 0,0" /></g><g
           transform="translate(255.248,15.6602)"
           id="g734"><path
             id="path736"
             style="fill:#231f20;fill-opacity:1;fill-rule:nonzero;stroke:none"
             d="m 0,0 c -0.82,-0.399 -2.171,-0.928 -3.947,-1.176 -0.699,-0.096 -1.374,-0.132 -1.997,-0.132 -0.809,0 -1.523,0.06 -2.072,0.13 -0.627,0.078 -1.117,0.175 -1.417,0.242 0.072,-0.227 0.16,-0.454 0.265,-0.673 10e-4,-0.006 0.003,-0.012 0.007,-0.016 0.013,-0.025 0.025,-0.053 0.038,-0.078 0.012,-0.026 0.026,-0.051 0.038,-0.074 0.003,-0.007 0.007,-0.014 0.01,-0.019 0.176,-0.332 0.388,-0.638 0.629,-0.902 0.839,-0.916 1.692,-1.062 1.699,-1.063 l 0.014,-0.002 0.013,-0.004 c 0.008,-0.004 0.765,-0.247 1.915,-0.247 1.132,0 2.244,0.228 3.304,0.679 0.784,0.401 1.525,1.011 1.893,1.554 0.284,0.421 0.49,0.869 0.611,1.336 0.065,0.247 0.116,0.644 0.086,1.061 C 0.857,0.461 0.494,0.24 0,0" /></g><g
           transform="translate(248.77,19.5186)"
           id="g738"><path
             id="path740"
             style="fill:#231f20;fill-opacity:1;fill-rule:nonzero;stroke:none"
             d="m 0,0 c 0.906,0 1.639,-0.734 1.639,-1.64 0,-0.905 -0.733,-1.637 -1.639,-1.637 -0.906,0 -1.64,0.732 -1.64,1.637 C -1.64,-0.734 -0.906,0 0,0 m 4.796,-0.04 c 0.561,0 1.015,-0.454 1.015,-1.015 0,-0.559 -0.454,-1.014 -1.015,-1.014 -0.557,0 -1.014,0.455 -1.014,1.014 0,0.561 0.457,1.015 1.014,1.015 m -7.141,-0.388 c -0.024,-0.035 -0.38,-0.539 -0.66,-1.312 -0.21,-0.578 -0.201,-1.422 -0.201,-1.431 l 0,-0.002 c 0,-0.198 0.009,-0.394 0.033,-0.589 l 0,-0.009 c 0.002,-0.026 0.007,-0.049 0.009,-0.075 0.018,-0.134 0.04,-0.27 0.071,-0.408 0.405,-0.103 2.837,-0.671 5.555,-0.292 1.705,0.236 2.998,0.74 3.784,1.121 0.652,0.317 1.072,0.604 1.233,0.721 C 7.318,-2.105 6.873,-1.167 6.465,-0.581 5.297,1.086 4.041,1.515 3.393,1.62 3.147,1.661 2.95,1.685 2.669,1.685 2.409,1.685 2.086,1.664 1.655,1.617 1.223,1.572 0.74,1.459 0.181,1.271 -0.604,1.009 -1.313,0.596 -1.871,0.079 l -0.02,-0.017 c -0.083,-0.077 -0.255,-0.237 -0.454,-0.49" /></g></g></g></g></svg>