<svg class="leaf" xmlns="http://www.w3.org/2000/svg" width="81.2" height="149" viewBox="0 0 81.2 149"><g id="Calque_2_1_"><path d="M79.9 113.4c-5.6 0-11.1.7-16.6 2 2-1.9 3.5-4.2 4.3-6.8 0-.1.1-.2.1-.4l-1.8-.8c-.1.2-.1.4-.2.5-.6 1.8-2.4 7.2-10.6 9.8-7 2.2-16.6 10-21.7 14.4 1.7-5.7 2.1-11.7 1.2-17.6.1-.1.1-.1.1-.2 1.8-3.8 4.6-7 8.1-9.3 8-5.2 18.4-8.5 23.8-17.7 2.1-3.5 3.7-7.3 4.9-11.2.1-.5-.2-1.1-.7-1.2-.3-.1-.7 0-1 .3-3.5 4-8.1 6.9-13.3 8.1-12.6 3.3-20.7 11.8-22.3 17.7-.5 2-.8 4-.9 6-.2-.7-.3-1.4-.5-2.1-.5-1.9-1.1-4.1-1.8-6.5s-1.4-4.7-2-7.4c.6-2.1 4.9-15.2 14-19 10.3-4.3 17.3-6.9 17.4-7l-.7-1.9c-.1 0-7.1 2.7-17.4 7-7.9 3.3-12.3 12.3-14.2 17.3-1.4-6.6-2.2-13.8-.9-21 1.9-.1 6.6-.1 12.6-5.2 2.9-2.4 5.4-5.1 7.6-8.2.6-.8.4-2-.5-2.6-.5-.4-1.2-.4-1.7-.2-4.3 1.7-10.2 4.5-11.5 7.1-1.7 3-3.8 5.7-6.3 8.1 1.1-5.1 3.4-9.9 6.6-14 5.1-6.5 9.8-13.3 14-20.4.2.1.5.1.8.1 2.7-.5 6.3-1.2 10.2-1.9 7.9-1.2 17.5-9.5 19.9-18.8.9-3.5 1.6-6.3 2.3-8.5.2-.8-.2-1.6-1-1.8-.5-.1-1.1 0-1.4.4-3.3 3.1-7.8 7.3-11.4 9.2-3.6 1.9-10 8.4-15.3 13.9 2.7-5.1 4-8.3 4-8.3l-1.8-.7c-2.7 6-5.8 11.9-9.3 17.5.4-6 0-17.1-6.9-24.5-.8-.8-2.1-.7-2.8.1-.3.3-.5.7-.5 1.2 0 4.1-.3 10.4-1.8 15.3-1.9 5.9 2.8 12.9 5.4 16.2.2.3.6.5.9.6-2.1 3-4.4 6.1-6.9 9.2-1 1.2-1.9 2.5-2.7 3.9.6-7.5-1-14.9-4.7-21.5l-1.7 1.1c3.9 7.1 5.3 15.2 4 23.1-1.8-3.8-5.7-10-12-10.6-7.2-.7-9.4 1.8-10 2.8-.1.2-.1.5.1.7 1.4 1.2 7.2 6.1 11.4 5.6 3.4-.4 8 2.1 10.4 3.5h.2c-3 7.3-3.3 14.9-2.4 22L12.9 70l-1.3 1.5 4.3 3.9c-3.3.3-9.6 1.3-12.4 3.9-1.4 1.3-2.4 2.9-3.1 4.6-.9 2.2.1 4.7 2.3 5.6.4.2.9.3 1.3.3 2.9.2 5.7-1 7.5-3.2 2.7-2.8 4.7-6.2 6-9.8l7.9 7C26.3 89 27.6 94 29.1 99c.1.4.2.8.3 1.1-3.1-2.8-7.3-4.1-11.5-3.6-4.3.4-8.4 1.2-12.5 2.5-1.8.6-2.8 2.6-2.2 4.4.2.6.6 1.1 1 1.5 3.3 2.8 7.5 4.4 11.9 4.5 4.5 0 9-.3 13.5-.9.6-.1 1.2-.3 1.8-.8 1.7 7.3 3.3 17.3-1.5 27.4-.1.3-.3.6-.4.9.5-4.3-.1-10.1-5.9-13.4-4.8-2.8-10-4.7-15.4-5.7-.8-.1-1.6.4-1.8 1.2-1 3.1-2.5 10.9 5.7 14.3 5 2 9.8 4.6 14.3 7.6.2.1.4.2.6.2-1.9 2.7-4.1 5.1-6.5 7.3l1.3 1.5c4.1-3.5 7.5-7.9 9.9-12.7 2.5-2.3 15.5-14 24-16.7l.3-.1c.1.3.4.5.7.6 3.9 1.4 8.1 1.7 12.1.8 4.3-.9 8.3-2.7 11.9-5.2.6-.4.7-1.3.2-1.8-.3-.3-.6-.5-1-.5z" fill="#ebf1f9" id="Calque_3_1_"></path></g><g id="Calque_2"><g id="Calque_3"><path class="st1" d="M53.7 4.2s-7.2-3.5-10 0-.5 11.7 9.2 13 9.8-9.6.8-13zM22.3 26.9s-8.2-2.5-9.2 6.8 5.2 10.7 9.7 5.3 4.4-10.9-.5-12.1zM64.5 53.4s-7.5 1-5.8 8.2 8.7 7 11 2.7.3-10.2-5.2-10.9zM14.9 61.6c.2.4 1.3 6.7-2.5 9.7s-9.8 6.2-12.2 1 10.9-17.6 14.7-10.7zM77 99.7s-10-5.2-14.5 2 3.2 9.8 10.5 7.3 9-6.3 4-9.3z"></path></g></g></svg>
