<?xml version="1.0" standalone="no"?>
<!DOCTYPE svg PUBLIC "-//W3C//DTD SVG 20010904//EN"
 "http://www.w3.org/TR/2001/REC-SVG-20010904/DTD/svg10.dtd">
<svg version="1.0" xmlns="http://www.w3.org/2000/svg"
 width="532.000000pt" height="161.000000pt" viewBox="0 0 532.000000 161.000000"
 preserveAspectRatio="xMidYMid meet">
<metadata>
</metadata>
<g transform="translate(0.000000,161.000000) scale(0.100000,-0.100000)"
fill="#C5CAE9" stroke="none">
<path d="M1256 1008 c-134 -349 -174 -461 -169 -474 7 -20 40 -18 52 4 22 42
201 523 201 542 0 14 -7 20 -24 20 -21 0 -28 -11 -60 -92z"/>
<path d="M2546 1061 c-24 -26 -36 -115 -36 -262 0 -113 -2 -129 -21 -153 -11
-14 -29 -26 -40 -26 -15 0 -19 7 -19 34 0 46 -32 85 -57 70 -28 -17 -28 -66 0
-96 23 -25 24 -28 8 -42 -23 -21 -54 -20 -74 2 -24 26 -21 59 8 88 24 24 32
44 18 44 -17 -1 -41 -27 -75 -81 -55 -87 -107 -85 -94 4 15 99 -53 103 -111 7
l-33 -55 0 58 c0 44 -4 59 -16 64 -24 9 -45 -7 -80 -61 -17 -25 -33 -49 -36
-51 -2 -3 -2 21 0 53 4 61 -10 88 -40 77 -17 -7 -52 -75 -43 -84 6 -6 14 3 42
46 10 15 12 3 12 -64 1 -68 4 -83 16 -83 9 0 24 14 33 31 43 77 73 120 82 114
6 -3 10 -37 10 -76 0 -83 18 -93 51 -27 30 60 69 109 80 103 5 -4 9 -32 9 -64
0 -31 5 -62 12 -69 19 -19 55 -14 85 12 l28 24 22 -24 c31 -33 86 -33 117 1
13 14 34 25 47 25 13 0 31 5 39 10 12 8 16 3 20 -22 7 -43 26 -46 49 -6 76
130 91 139 91 54 0 -84 41 -110 96 -62 l28 23 19 -23 c22 -29 46 -30 79 -5 24
20 25 20 41 0 9 -10 26 -19 37 -19 30 0 83 53 109 109 13 28 27 48 31 46 4 -2
5 -39 2 -81 -4 -70 -3 -76 14 -72 11 2 30 24 44 50 27 50 58 88 72 88 4 0 8
-24 8 -54 0 -85 40 -110 98 -61 32 27 59 81 47 93 -4 4 -10 1 -13 -6 -2 -8
-18 -29 -34 -48 -49 -55 -86 -40 -72 31 3 18 1 42 -5 54 -23 42 -61 21 -110
-61 -13 -21 -24 -38 -25 -38 -1 0 -1 26 1 58 7 105 -28 109 -82 10 -42 -77
-54 -89 -84 -86 -21 2 -28 11 -35 41 -11 42 -22 47 -32 15 -15 -51 -65 -77
-78 -42 -11 28 -6 51 16 79 19 25 26 27 65 21 50 -7 57 12 11 28 -37 13 -83
-9 -110 -53 -64 -108 -131 -121 -111 -21 6 34 -12 70 -36 70 -21 0 -49 -30
-84 -90 l-27 -45 0 36 c0 20 15 69 34 110 60 132 80 286 41 329 -23 25 -37 25
-59 1z m50 -37 c15 -60 -24 -257 -58 -289 -14 -13 -3 238 13 283 13 39 36 42
45 6z"/>
<path d="M3661 1021 c-25 -25 -41 -104 -41 -204 l0 -83 -33 -12 c-39 -14 -67
-57 -67 -104 0 -36 24 -68 52 -68 17 0 68 47 68 63 0 5 10 -5 23 -24 29 -43
65 -49 97 -16 l24 25 19 -24 c23 -29 46 -30 79 -4 25 19 26 19 43 0 37 -41 94
-10 137 74 19 38 21 39 35 20 7 -10 13 -32 11 -49 -3 -27 -6 -30 -35 -27 -38
2 -42 -10 -11 -32 29 -21 87 -20 116 0 25 17 82 91 82 106 0 20 -29 5 -40 -21
-14 -34 -46 -66 -77 -75 -20 -7 -21 -5 -10 23 9 25 7 38 -11 78 -12 26 -23 62
-24 78 -4 41 -34 42 -31 1 2 -30 -45 -134 -71 -155 -28 -24 -60 -10 -69 32 -9
35 -27 52 -27 23 0 -22 -40 -66 -60 -66 -37 0 -36 72 1 106 14 13 28 15 60 10
31 -5 40 -3 37 6 -3 7 -16 17 -30 22 -44 16 -82 -9 -127 -80 -33 -52 -45 -64
-66 -64 -20 0 -29 8 -41 36 -14 33 -14 40 1 77 25 63 55 197 55 250 0 78 -32
115 -69 78z"/>
<path d="M905 939 c-135 -109 -145 -117 -145 -129 0 -5 53 -52 119 -105 121
-97 161 -115 161 -72 0 17 -24 41 -95 96 -52 40 -95 77 -95 81 0 4 43 42 95
84 94 75 114 107 79 120 -9 3 -16 6 -17 6 -1 -1 -47 -37 -102 -81z"/>
<path d="M1391 1006 c-18 -22 -5 -38 95 -115 52 -41 93 -77 92 -81 -2 -4 -47
-42 -101 -85 -98 -77 -117 -106 -71 -113 28 -4 254 173 254 199 0 16 -230 209
-249 209 -5 0 -14 -6 -20 -14z"/>
</g>
</svg>
