<svg version="1.1" id="Layer_1" xmlns="http://www.w3.org/2000/svg" xmlns:xlink="http://www.w3.org/1999/xlink" x="0px" y="0px" viewBox="0 0 235.1 231.9" style="enable-background:new 0 0 235.1 231.9;" xml:space="preserve">
<style type="text/css">
	.st0{fill:#8555A2;}
	.st1{fill:#F0EFEF;}
	.st2{fill:#A5A5A5;}
	.st3{opacity:0.3;fill:#FFFFFF;}
	.st4{fill:#CDCCCC;}
	.st5{fill:#223766;}
	.st6{fill:#E2E2E2;}
	.st7{fill:#F05B79;}
	.st8{fill:#F4EC55;}
	.st9{fill:#AFC645;}
	.st10{fill:#F2AE1D;}
	.st11{fill:#DD4226;}
	.st12{fill:#BDDEDE;}
	.st13{fill:#364A5E;}
	.st14{fill:#E2E1E0;}
	.st15{fill:#F16253;}
	.st16{fill:#90CA6E;}
	.st17{fill:#6C61AB;}
	.st18{fill-rule:evenodd;clip-rule:evenodd;fill:#092E44;}
	.st19{opacity:0.8;fill-rule:evenodd;clip-rule:evenodd;fill:#FFFFFF;}
	.st20{opacity:0.1;fill-rule:evenodd;clip-rule:evenodd;fill:#010101;}
	.st21{fill:#EDF0F1;}
	.st22{fill:#F49626;}
	.st23{fill:#C84427;}
	.st24{fill:#6CB5CE;}
	.st25{opacity:0.1;fill:#010101;}
	.st26{fill:#EDEDED;}
</style>
<g id="Responsive_Web">
	<g id="Background_7_">
		<circle id="Background_2_7_" class="st0" cx="120.9" cy="116.1" r="106.6"/>
	</g>
	<g id="Responsive_Web_1_">
		<g id="Line_7_">
			<g id="XMLID_385_">
				<g id="XMLID_394_">
					<path id="XMLID_181_" class="st1" d="M113.3,60.1l1-2c0,0-1.5-0.8-3-1.4c-0.8-0.3-1.5-0.7-2.1-0.9c-0.3-0.1-0.5-0.2-0.7-0.3       c-0.2-0.1-0.3-0.1-0.3-0.1l-0.8,2.1c0,0,0.4,0.2,0.9,0.4c0.6,0.2,1.3,0.6,2,0.9C111.9,59.3,113.3,60.1,113.3,60.1z"/>
					<path id="XMLID_180_" class="st1" d="M121.8,64.8l1.2-1.9c0,0-1.4-0.9-2.8-1.7c-1.4-0.8-2.9-1.6-2.9-1.6l-1.1,2       c0,0,1.4,0.8,2.8,1.6C120.4,63.9,121.8,64.8,121.8,64.8z"/>
					<path id="XMLID_179_" class="st1" d="M129.7,70.3l1.4-1.8c0,0-0.3-0.3-0.8-0.6c-0.5-0.4-1.2-0.9-1.8-1.4       c-1.4-1-2.7-1.9-2.7-1.9l-1.3,1.9c0,0,1.4,0.9,2.7,1.9c0.7,0.5,1.3,1,1.8,1.3C129.4,70.1,129.7,70.3,129.7,70.3z"/>
					<path id="XMLID_178_" class="st1" d="M137,76.6l1.6-1.6c0,0-0.3-0.3-0.8-0.7c-0.5-0.4-1.1-1-1.7-1.5c-0.6-0.5-1.3-1.1-1.7-1.5       c-0.5-0.4-0.8-0.7-0.8-0.7l-1.5,1.8c0,0,0.3,0.3,0.8,0.6c0.5,0.4,1.1,0.9,1.7,1.5c0.6,0.5,1.2,1.1,1.6,1.5       C136.8,76.3,137,76.6,137,76.6z"/>
					<path id="XMLID_177_" class="st1" d="M143.5,83.8l1.8-1.4c0,0-0.3-0.3-0.7-0.8c-0.4-0.5-0.9-1.1-1.5-1.8       c-0.6-0.6-1.1-1.3-1.5-1.7c-0.4-0.5-0.7-0.8-0.7-0.8l-1.6,1.6c0,0,0.3,0.3,0.7,0.7c0.4,0.4,1,1,1.5,1.7c0.5,0.6,1,1.2,1.4,1.7       C143.3,83.4,143.5,83.8,143.5,83.8z"/>
					<path id="XMLID_176_" class="st1" d="M148.9,91.7l2-1.1c0,0-0.8-1.5-1.7-2.9c-0.4-0.7-0.9-1.4-1.3-1.9       c-0.2-0.3-0.3-0.5-0.4-0.6c-0.1-0.1-0.2-0.2-0.2-0.2l-1.9,1.3c0,0,0.1,0.1,0.2,0.2c0.1,0.1,0.3,0.3,0.4,0.6       c0.3,0.5,0.8,1.2,1.2,1.8C148.1,90.3,148.9,91.7,148.9,91.7z"/>
					<path id="XMLID_175_" class="st1" d="M152.8,100.5l2.2-0.7c0,0-0.1-0.4-0.4-1c-0.1-0.3-0.2-0.6-0.4-1c-0.1-0.4-0.3-0.8-0.5-1.1       c-0.2-0.4-0.3-0.8-0.5-1.1c-0.2-0.4-0.3-0.7-0.5-1c-0.3-0.6-0.4-1-0.4-1l-2,1c0,0,0.2,0.4,0.4,0.9c0.1,0.3,0.3,0.6,0.4,0.9       c0.1,0.3,0.3,0.7,0.5,1.1c0.2,0.4,0.3,0.7,0.4,1.1c0.1,0.4,0.2,0.7,0.4,1C152.7,100.1,152.8,100.5,152.8,100.5z"/>
				</g>
				<g id="XMLID_386_">
					<path id="XMLID_174_" class="st1" d="M155,109.8l2.3-0.3c0,0,0-0.1,0-0.3c0-0.2-0.1-0.4-0.1-0.8c-0.1-0.6-0.2-1.5-0.4-2.3       c-0.2-0.8-0.3-1.7-0.5-2.3c-0.2-0.6-0.3-1-0.3-1l-2.2,0.6c0,0,0.1,0.4,0.3,1c0.2,0.6,0.3,1.4,0.5,2.2c0.2,0.8,0.3,1.6,0.4,2.2       c0,0.3,0.1,0.5,0.1,0.7C155,109.7,155,109.8,155,109.8z"/>
					<path id="XMLID_173_" class="st1" d="M155.4,119.3l2.3,0.1c0,0,0-0.4,0-1c0-0.6,0.1-1.5,0-2.3c0-0.8,0-1.7-0.1-2.3       c0-0.6-0.1-1-0.1-1l-2.3,0.2c0,0,0,0.4,0.1,1c0.1,0.6,0,1.4,0.1,2.2c0,0.8,0,1.6,0,2.2C155.4,118.9,155.4,119.3,155.4,119.3z"/>
					<path id="XMLID_172_" class="st1" d="M154,128.8l2.2,0.5c0,0,0.1-0.4,0.2-1c0.1-0.6,0.3-1.4,0.4-2.3c0.2-0.8,0.3-1.7,0.3-2.3       c0.1-0.6,0.1-1,0.1-1l-2.3-0.3c0,0-0.1,0.4-0.1,1c-0.1,0.6-0.2,1.4-0.3,2.2c-0.1,0.8-0.3,1.6-0.4,2.2       C154.1,128.4,154,128.8,154,128.8z"/>
					<path id="XMLID_171_" class="st1" d="M151.2,138.1l2.1,0.8c0,0,0.1-0.4,0.4-1c0.2-0.6,0.5-1.4,0.7-2.2c0.3-0.8,0.5-1.6,0.7-2.2       c0.2-0.6,0.3-1,0.3-1l-2.2-0.6c0,0-0.1,0.4-0.3,1c-0.1,0.6-0.4,1.4-0.7,2.1c-0.2,0.8-0.5,1.5-0.7,2.1       C151.4,137.7,151.2,138.1,151.2,138.1z"/>
					<path id="XMLID_170_" class="st1" d="M147.3,146.9l2,1c0,0,0.2-0.4,0.5-0.9c0.3-0.6,0.6-1.3,1-2.1c0.3-0.8,0.7-1.5,1-2.1       c0.2-0.6,0.4-1,0.4-1L150,141c0,0-0.2,0.4-0.4,0.9c-0.2,0.6-0.6,1.3-0.9,2c-0.4,0.7-0.7,1.5-1,2       C147.5,146.5,147.3,146.9,147.3,146.9z"/>
					<path id="XMLID_169_" class="st1" d="M142.5,155.3l1.9,1.2c0,0,0.9-1.4,1.7-2.8c0.4-0.7,0.8-1.4,1.1-2c0.3-0.5,0.5-0.9,0.5-0.9       l-2-1.1c0,0-0.2,0.4-0.5,0.9c-0.3,0.5-0.7,1.2-1.1,1.9C143.3,153.9,142.5,155.3,142.5,155.3z"/>
					<path id="XMLID_168_" class="st1" d="M137,163.3l1.8,1.4c0,0,0.2-0.3,0.6-0.8c0.4-0.5,0.8-1.2,1.3-1.9c0.5-0.7,1-1.4,1.3-1.9       c0.3-0.5,0.6-0.9,0.6-0.9l-1.9-1.3c0,0-0.2,0.3-0.6,0.9c-0.4,0.5-0.8,1.2-1.3,1.8c-0.5,0.7-0.9,1.3-1.3,1.8       C137.2,163,137,163.3,137,163.3z"/>
				</g>
			</g>
			<g id="XMLID_368_">
				<g id="XMLID_377_">
					<path id="XMLID_167_" class="st1" d="M156.1,64.3l0.6-2.9c0,0-2.2-0.5-4.4-0.8c-1.1-0.2-2.2-0.4-3-0.5c-0.4-0.1-0.8-0.1-1-0.1       c-0.3,0-0.4,0-0.4,0l-0.3,3c0,0,0.5,0.1,1.3,0.2c0.8,0.1,1.9,0.3,2.9,0.5C153.9,63.9,156.1,64.3,156.1,64.3z"/>
					<path id="XMLID_166_" class="st1" d="M168.6,67.6l0.9-2.8c0,0-2.1-0.7-4.3-1.2c-2.1-0.6-4.3-1.1-4.3-1.1l-0.7,2.9       c0,0,2.1,0.5,4.2,1.1C166.6,66.9,168.6,67.6,168.6,67.6z"/>
					<path id="XMLID_165_" class="st1" d="M180.8,71.9l1.2-2.7c0,0-0.5-0.2-1.3-0.5c-0.8-0.3-1.8-0.7-2.8-1.1       c-2.1-0.8-4.2-1.5-4.2-1.5l-1,2.8c0,0,2.1,0.7,4.1,1.5c1,0.4,2,0.8,2.8,1.1C180.3,71.7,180.8,71.9,180.8,71.9z"/>
					<path id="XMLID_164_" class="st1" d="M192.4,77.5l1.5-2.6c0,0-0.5-0.3-1.2-0.7c-0.7-0.4-1.7-0.9-2.7-1.4c-1-0.5-2-1-2.8-1.3       c-0.8-0.3-1.3-0.6-1.3-0.6l-1.3,2.7c0,0,0.5,0.2,1.2,0.6c0.7,0.3,1.7,0.8,2.7,1.3c1,0.5,1.9,1,2.6,1.4       C192,77.2,192.4,77.5,192.4,77.5z"/>
					<path id="XMLID_163_" class="st1" d="M203.3,84.3l1.8-2.4c0,0-0.4-0.3-1.1-0.8c-0.7-0.5-1.6-1.1-2.5-1.7       c-0.9-0.6-1.9-1.2-2.6-1.6c-0.7-0.4-1.2-0.7-1.2-0.7l-1.6,2.5c0,0,0.5,0.3,1.1,0.7c0.7,0.4,1.6,1,2.5,1.6       c0.9,0.6,1.8,1.2,2.4,1.7C202.8,84,203.3,84.3,203.3,84.3z"/>
					<path id="XMLID_162_" class="st1" d="M212.9,92.6l2.2-2.1c0,0-1.5-1.6-3.2-3.1c-0.8-0.8-1.7-1.5-2.3-2       c-0.3-0.3-0.6-0.5-0.8-0.6c-0.2-0.2-0.3-0.2-0.3-0.2l-2,2.3c0,0,0.1,0.1,0.3,0.2c0.2,0.1,0.4,0.4,0.7,0.6       c0.6,0.5,1.4,1.2,2.2,1.9C211.4,91.1,212.9,92.6,212.9,92.6z"/>
					<path id="XMLID_161_" class="st1" d="M220.9,102.4l2.6-1.6c0,0-0.3-0.4-0.8-1.1c-0.2-0.3-0.5-0.7-0.8-1.2       c-0.3-0.4-0.7-0.8-1-1.3c-0.3-0.4-0.7-0.9-1-1.3c-0.3-0.4-0.6-0.8-0.9-1.1c-0.5-0.6-0.9-1.1-0.9-1.1l-2.3,1.9       c0,0,0.3,0.4,0.9,1c0.3,0.3,0.6,0.7,0.9,1c0.3,0.4,0.6,0.8,1,1.2c0.3,0.4,0.7,0.8,0.9,1.2c0.3,0.4,0.6,0.8,0.8,1.1       C220.6,101.9,220.9,102.4,220.9,102.4z"/>
				</g>
				<g id="XMLID_369_">
					<path id="XMLID_160_" class="st1" d="M226.9,113.4l2.8-1.1c0,0,0-0.1-0.1-0.3c-0.1-0.2-0.2-0.5-0.4-0.9       c-0.4-0.7-0.8-1.8-1.3-2.7c-0.5-1-1-2-1.4-2.7c-0.4-0.7-0.7-1.2-0.7-1.2l-2.7,1.5c0,0,0.3,0.5,0.7,1.1c0.4,0.7,0.9,1.6,1.4,2.6       c0.5,0.9,0.9,1.9,1.2,2.6c0.2,0.4,0.3,0.7,0.4,0.9C226.9,113.3,226.9,113.4,226.9,113.4z"/>
					<path id="XMLID_159_" class="st1" d="M230.6,125.3l3-0.6c0,0-0.1-0.5-0.3-1.3c-0.2-0.8-0.4-1.9-0.7-2.9       c-0.3-1.1-0.6-2.1-0.9-2.9c-0.3-0.8-0.4-1.3-0.4-1.3l-2.9,0.9c0,0,0.2,0.5,0.4,1.2c0.3,0.7,0.5,1.8,0.8,2.8       c0.3,1,0.5,2,0.7,2.8C230.5,124.8,230.6,125.3,230.6,125.3z"/>
					<path id="XMLID_158_" class="st1" d="M232,137.7l3.1-0.1c0,0,0-0.5,0-1.4c0-0.8-0.1-1.9-0.2-3c-0.1-1.1-0.2-2.2-0.3-3       c-0.1-0.8-0.2-1.4-0.2-1.4l-3,0.4c0,0,0.1,0.5,0.2,1.3c0.1,0.8,0.3,1.8,0.3,2.9c0.1,1,0.2,2.1,0.2,2.9       C232,137.2,232,137.7,232,137.7z"/>
					<path id="XMLID_157_" class="st1" d="M231.5,150.3l3,0.3c0,0,0.1-0.5,0.1-1.4c0.1-0.8,0.2-1.9,0.2-3c0.1-1.1,0.2-2.2,0.2-3       c0-0.8,0-1.4,0-1.4l-3.1-0.1c0,0,0,0.5,0,1.3c0,0.8-0.1,1.8-0.2,2.9c-0.1,1.1-0.1,2.1-0.2,2.9       C231.5,149.8,231.5,150.3,231.5,150.3z"/>
					<path id="XMLID_156_" class="st1" d="M229.3,162.7l3,0.6c0,0,0.1-0.5,0.3-1.3c0.2-0.8,0.4-1.9,0.6-2.9c0.2-1.1,0.4-2.1,0.5-2.9       c0.1-0.8,0.2-1.3,0.2-1.3l-3-0.4c0,0-0.1,0.5-0.2,1.3c-0.1,0.8-0.3,1.8-0.5,2.9c-0.2,1-0.4,2.1-0.6,2.9       C229.5,162.2,229.3,162.7,229.3,162.7z"/>
					<path id="XMLID_155_" class="st1" d="M225.9,174.9l2.9,0.9c0,0,0.6-2.1,1.3-4.1c0.3-1,0.6-2.1,0.8-2.9c0.2-0.8,0.4-1.3,0.4-1.3       l-3-0.7c0,0-0.1,0.5-0.4,1.3c-0.2,0.8-0.5,1.8-0.8,2.8C226.6,172.8,225.9,174.9,225.9,174.9z"/>
					<path id="XMLID_154_" class="st1" d="M221.5,186.8l2.8,1.1c0,0,0.2-0.5,0.5-1.2c0.3-0.8,0.7-1.8,1.1-2.8c0.4-1,0.8-2,1.1-2.8       c0.3-0.8,0.4-1.3,0.4-1.3l-2.9-1c0,0-0.2,0.5-0.4,1.3c-0.3,0.7-0.7,1.7-1.1,2.7c-0.4,1-0.8,2-1.1,2.7       C221.7,186.3,221.5,186.8,221.5,186.8z"/>
				</g>
			</g>
			<g id="XMLID_343_">
				<g id="XMLID_360_">
					<path id="XMLID_153_" class="st1" d="M46.7,166.6l-2.2,0.7c0,0,0.4,1.3,0.8,2.6c0.2,0.6,0.4,1.3,0.6,1.8       c0.2,0.5,0.3,0.8,0.3,0.8l2.1-0.8c0,0-0.1-0.3-0.3-0.8c-0.2-0.5-0.4-1.1-0.6-1.7C47.1,167.9,46.7,166.6,46.7,166.6z"/>
					<path id="XMLID_152_" class="st1" d="M44.6,158.9l-2.2,0.5c0,0,0.1,0.3,0.2,0.8c0.1,0.5,0.3,1.2,0.5,1.8       c0.4,1.3,0.7,2.6,0.7,2.6l2.2-0.6c0,0-0.4-1.3-0.7-2.6c-0.2-0.6-0.3-1.3-0.5-1.8C44.7,159.2,44.6,158.9,44.6,158.9z"/>
					<path id="XMLID_151_" class="st1" d="M42.9,151.1l-2.2,0.4c0,0,0.1,0.3,0.2,0.8c0.1,0.5,0.2,1.2,0.4,1.8       c0.1,0.7,0.3,1.3,0.4,1.8c0.1,0.5,0.2,0.8,0.2,0.8l2.2-0.5c0,0-0.1-0.3-0.2-0.8c-0.1-0.5-0.3-1.1-0.4-1.8       c-0.1-0.7-0.3-1.3-0.4-1.8C43,151.4,42.9,151.1,42.9,151.1z"/>
					<path id="XMLID_150_" class="st1" d="M41.6,143.3l-2.3,0.3c0,0,0.2,1.3,0.4,2.7c0.1,0.7,0.2,1.3,0.3,1.8       c0.1,0.5,0.1,0.8,0.1,0.8l2.2-0.4c0,0-0.1-0.3-0.1-0.8c-0.1-0.5-0.2-1.2-0.3-1.8C41.8,144.6,41.6,143.3,41.6,143.3z"/>
					<path id="XMLID_149_" class="st1" d="M40.7,135.3l-2.3,0.2c0,0,0,0.3,0.1,0.8c0,0.5,0.1,1.2,0.2,1.9c0.1,0.7,0.2,1.4,0.2,1.9       c0.1,0.5,0.1,0.8,0.1,0.8l2.3-0.3c0,0,0-0.3-0.1-0.8c-0.1-0.5-0.1-1.2-0.2-1.8c-0.1-0.7-0.1-1.3-0.2-1.8       C40.7,135.7,40.7,135.3,40.7,135.3z"/>
					<path id="XMLID_148_" class="st1" d="M40.3,127.4l-2.3,0c0,0,0,0.3,0,0.9c0,0.5,0,1.2,0.1,1.9c0,0.7,0.1,1.4,0.1,1.9       c0,0.5,0,0.8,0,0.8l2.3-0.1c0,0,0-0.3,0-0.8c0-0.5-0.1-1.2-0.1-1.8c0-0.7-0.1-1.3-0.1-1.8C40.3,127.7,40.3,127.4,40.3,127.4z"/>
					<path id="XMLID_147_" class="st1" d="M40.4,119.4l-2.3-0.1c0,0,0,0.3,0,0.9c0,0.5,0,1.2-0.1,1.9c0,0.7,0,1.4,0,1.9       c0,0.5,0,0.9,0,0.9l2.3,0c0,0,0-0.3,0-0.8c0-0.5,0-1.2,0-1.8c0-0.7,0-1.3,0.1-1.8C40.4,119.7,40.4,119.4,40.4,119.4z"/>
				</g>
				<g id="XMLID_352_">
					<path id="XMLID_146_" class="st1" d="M41.1,111.5l-2.3-0.3c0,0-0.1,0.3-0.1,0.8c-0.1,0.5-0.1,1.2-0.2,1.9       c-0.1,0.7-0.1,1.4-0.2,1.9c0,0.5-0.1,0.8-0.1,0.8l2.3,0.2c0,0,0-0.3,0.1-0.8c0-0.5,0.1-1.2,0.2-1.8c0.1-0.7,0.1-1.3,0.2-1.8       C41,111.8,41.1,111.5,41.1,111.5z"/>
					<path id="XMLID_145_" class="st1" d="M42.4,103.7l-2.2-0.5c0,0-0.3,1.3-0.5,2.7c-0.2,1.3-0.5,2.7-0.5,2.7l2.3,0.3       c0,0,0.2-1.3,0.4-2.6C42.2,105,42.4,103.7,42.4,103.7z"/>
					<path id="XMLID_144_" class="st1" d="M44.5,96l-2.2-0.7c0,0-0.1,0.3-0.3,0.8c-0.2,0.5-0.4,1.1-0.5,1.8       c-0.2,0.7-0.4,1.3-0.5,1.8c-0.1,0.2-0.1,0.5-0.2,0.6c0,0.1-0.1,0.2-0.1,0.2l2.2,0.6c0,0,0-0.1,0.1-0.2c0-0.1,0.1-0.3,0.2-0.6       c0.1-0.5,0.3-1.1,0.5-1.8c0.2-0.6,0.4-1.3,0.5-1.8C44.4,96.3,44.5,96,44.5,96z"/>
					<path id="XMLID_143_" class="st1" d="M47.3,88.6l-2.1-0.9c0,0-0.1,0.3-0.4,0.8c-0.2,0.5-0.5,1.1-0.7,1.7       c-0.3,0.6-0.5,1.3-0.7,1.8c-0.2,0.5-0.3,0.8-0.3,0.8l2.1,0.8c0,0,0.1-0.3,0.3-0.8c0.2-0.5,0.4-1.1,0.7-1.7       c0.3-0.6,0.5-1.2,0.7-1.7C47.2,89,47.3,88.6,47.3,88.6z"/>
					<path id="XMLID_142_" class="st1" d="M51,81.6l-2-1.2c0,0,0,0.1-0.1,0.2c-0.1,0.1-0.2,0.3-0.3,0.5c-0.3,0.4-0.6,1-0.9,1.6       c-0.3,0.6-0.6,1.2-0.9,1.7c-0.2,0.5-0.4,0.8-0.4,0.8l2,1c0,0,0.1-0.3,0.4-0.7c0.2-0.4,0.5-1,0.8-1.6c0.3-0.6,0.6-1.2,0.9-1.6       c0.1-0.2,0.2-0.4,0.3-0.5C50.9,81.7,51,81.6,51,81.6z"/>
					<path id="XMLID_141_" class="st1" d="M55.4,75.1l-1.8-1.4c0,0-0.2,0.3-0.5,0.7c-0.3,0.4-0.7,0.9-1.1,1.5       c-0.8,1.1-1.6,2.3-1.6,2.3l1.9,1.2c0,0,0.7-1.1,1.5-2.2c0.4-0.5,0.8-1.1,1.1-1.5C55.2,75.4,55.4,75.1,55.4,75.1z"/>
					<path id="XMLID_140_" class="st1" d="M60.6,69.2L59,67.6c0,0-0.2,0.2-0.6,0.6c-0.4,0.4-0.8,0.9-1.3,1.4       c-0.2,0.3-0.5,0.5-0.7,0.7c-0.1,0.1-0.2,0.2-0.3,0.3c-0.1,0.1-0.2,0.2-0.3,0.3c-0.3,0.4-0.6,0.7-0.6,0.7l1.7,1.5       c0,0,0.2-0.3,0.5-0.6c0.1-0.1,0.2-0.2,0.3-0.3c0.1-0.1,0.2-0.2,0.3-0.3c0.2-0.2,0.4-0.5,0.7-0.7c0.4-0.5,0.9-1,1.2-1.3       C60.4,69.4,60.6,69.2,60.6,69.2z"/>
				</g>
				<g id="XMLID_344_">
					<path id="XMLID_139_" class="st1" d="M66.5,64l-1.4-1.8c0,0-0.3,0.2-0.7,0.5c-0.4,0.3-0.9,0.7-1.5,1.2c-1,0.9-2,1.8-2,1.8       l1.5,1.7c0,0,1-0.9,2-1.8c0.5-0.4,1-0.8,1.4-1.2C66.3,64.2,66.5,64,66.5,64z"/>
					<path id="XMLID_138_" class="st1" d="M73,59.4l-1.2-1.9c0,0-1.1,0.8-2.3,1.5c-0.3,0.2-0.6,0.4-0.8,0.6       c-0.3,0.2-0.5,0.4-0.7,0.5c-0.4,0.3-0.7,0.5-0.7,0.5l1.3,1.8c0,0,0.3-0.2,0.7-0.5c0.2-0.1,0.4-0.3,0.7-0.5       c0.3-0.2,0.5-0.4,0.8-0.5C71.9,60.1,73,59.4,73,59.4z"/>
					<path id="XMLID_137_" class="st1" d="M79.9,55.5l-1-2c0,0-0.1,0-0.2,0.1c-0.1,0.1-0.3,0.2-0.6,0.3c-0.5,0.2-1.1,0.6-1.7,0.9       c-0.6,0.3-1.2,0.6-1.7,0.9c-0.4,0.3-0.7,0.4-0.7,0.4l1.1,2c0,0,0.3-0.2,0.7-0.4c0.4-0.3,1-0.6,1.6-0.9c0.6-0.3,1.2-0.6,1.6-0.9       c0.2-0.1,0.4-0.2,0.5-0.3C79.8,55.6,79.9,55.5,79.9,55.5z"/>
					<path id="XMLID_136_" class="st1" d="M87.2,52.3l-0.8-2.1c0,0-0.1,0-0.2,0.1c-0.1,0.1-0.3,0.1-0.6,0.2       c-0.5,0.2-1.1,0.5-1.7,0.7c-0.6,0.3-1.3,0.5-1.7,0.7c-0.2,0.1-0.4,0.2-0.6,0.3c-0.1,0.1-0.2,0.1-0.2,0.1l0.9,2.1       c0,0,0.1,0,0.2-0.1c0.1-0.1,0.3-0.2,0.5-0.3c0.5-0.2,1.1-0.5,1.7-0.7c0.6-0.3,1.2-0.5,1.7-0.7c0.2-0.1,0.4-0.2,0.6-0.2       C87.1,52.4,87.2,52.3,87.2,52.3z"/>
					<path id="XMLID_135_" class="st1" d="M94.7,49.7L94,47.6c0,0-0.1,0-0.2,0.1c-0.1,0-0.3,0.1-0.6,0.2c-0.5,0.2-1.1,0.4-1.8,0.6       c-0.6,0.2-1.3,0.4-1.8,0.6c-0.5,0.2-0.8,0.3-0.8,0.3l0.8,2.1c0,0,0.3-0.1,0.8-0.3c0.5-0.2,1.1-0.4,1.7-0.6       c0.6-0.2,1.3-0.4,1.7-0.6c0.2-0.1,0.4-0.1,0.6-0.2C94.6,49.8,94.7,49.7,94.7,49.7z"/>
					<path id="XMLID_134_" class="st1" d="M102.4,47.7l-0.5-2.2c0,0-1.3,0.3-2.6,0.6c-0.3,0.1-0.7,0.2-1,0.2       c-0.3,0.1-0.6,0.2-0.8,0.2c-0.5,0.1-0.8,0.2-0.8,0.2l0.6,2.2c0,0,0.3-0.1,0.8-0.2c0.2-0.1,0.5-0.2,0.8-0.2       c0.3-0.1,0.6-0.2,1-0.2C101.1,48,102.4,47.7,102.4,47.7z"/>
					<path id="XMLID_133_" class="st1" d="M110.2,46.2l-0.4-2.2c0,0-0.3,0.1-0.8,0.1c-0.5,0.1-1.2,0.2-1.8,0.3       c-1.3,0.3-2.7,0.5-2.7,0.5l0.5,2.2c0,0,1.3-0.3,2.6-0.5c0.7-0.1,1.3-0.2,1.8-0.3C109.9,46.2,110.2,46.2,110.2,46.2z"/>
				</g>
			</g>
		</g>
		<g id="Blooming_2_">
			<path id="XMLID_132_" class="st2" d="M162,223.3c-6.2-5.5-3.4-18.4-3.4-18.4h-9.3h-9.3c0,0,2.8,12.9-3.4,18.4     c-6.3,5.5-13.6,5.5-13.6,5.5v3.1h26.3h26.3v-3.1C175.5,228.8,168.2,228.8,162,223.3z"/>
			<rect id="XMLID_131_" x="123" y="228.8" class="st3" width="52.5" height="3.1"/>
			<path id="XMLID_130_" class="st4" d="M218.7,196.6c0,4.6-3.7,8.3-8.3,8.3H88.1c-4.6,0-8.3-3.7-8.3-8.3V129c0-4.6,3.7-8.3,8.3-8.3     h122.3c4.6,0,8.3,3.7,8.3,8.3V196.6z"/>
			<path id="XMLID_129_" class="st5" d="M79.8,129v67.6c0,1.6,0.5,3.1,1.3,4.4h136.4c0.8-1.3,1.3-2.8,1.3-4.4V129     c0-2.1-0.8-4.1-2.2-5.6H81.9C80.6,124.9,79.8,126.8,79.8,129z"/>
			<rect id="XMLID_128_" x="85.8" y="126.2" class="st6" width="126.9" height="71.9"/>
			<g id="XMLID_305_">
				<rect id="XMLID_127_" x="93.4" y="142.4" class="st7" width="19.9" height="18.4"/>
				<rect id="XMLID_126_" x="141.4" y="142.4" class="st8" width="19.9" height="18.4"/>
				<rect id="XMLID_125_" x="183.9" y="142.4" class="st0" width="19.9" height="18.4"/>
				<g id="XMLID_311_">
					<rect id="XMLID_124_" x="93.4" y="164.7" class="st9" width="31.9" height="1.3"/>
					<rect id="XMLID_123_" x="93.4" y="168.7" class="st10" width="31.9" height="1.3"/>
					<rect id="XMLID_122_" x="93.4" y="172.4" class="st11" width="31.9" height="1.3"/>
					<rect id="XMLID_121_" x="124.9" y="181" class="st10" width="26.2" height="1.3"/>
					<rect id="XMLID_120_" x="97.4" y="181" class="st9" width="24.2" height="1.3"/>
					<rect id="XMLID_119_" x="97.4" y="184.7" class="st10" width="24.2" height="1.3"/>
					<rect id="XMLID_118_" x="124.9" y="184.7" class="st9" width="12.3" height="1.3"/>
					<rect id="XMLID_117_" x="97.4" y="191.9" class="st9" width="24.2" height="1.3"/>
					<rect id="XMLID_116_" x="124.9" y="191.9" class="st10" width="12.3" height="1.3"/>
					<rect id="XMLID_115_" x="151.4" y="188.3" class="st10" width="8.8" height="1.3"/>
					<rect id="XMLID_114_" x="97.4" y="176.6" class="st12" width="52.3" height="1.3"/>
					<rect id="XMLID_113_" x="97.4" y="188.3" class="st12" width="52.3" height="1.3"/>
					<rect id="XMLID_112_" x="151.4" y="196.2" class="st9" width="8.8" height="1.3"/>
					<rect id="XMLID_111_" x="97.4" y="196.2" class="st9" width="52.3" height="1.3"/>
					<rect id="XMLID_110_" x="186.6" y="181.4" class="st10" width="21.2" height="1.3"/>
					<rect id="XMLID_109_" x="164.4" y="181.4" class="st9" width="19.6" height="1.3"/>
					<rect id="XMLID_108_" x="164.4" y="185.1" class="st10" width="19.6" height="1.3"/>
					<rect id="XMLID_107_" x="186.6" y="185.1" class="st9" width="10" height="1.3"/>
					<rect id="XMLID_106_" x="164.4" y="192.4" class="st9" width="19.6" height="1.3"/>
					<rect id="XMLID_105_" x="186.6" y="192.4" class="st10" width="10" height="1.3"/>
					<rect id="XMLID_104_" x="164.4" y="177.1" class="st12" width="42.3" height="1.3"/>
					<rect id="XMLID_103_" x="164.4" y="188.7" class="st12" width="42.3" height="1.3"/>
					<rect id="XMLID_102_" x="164.4" y="196.6" class="st9" width="42.3" height="1.3"/>
				</g>
				<rect id="XMLID_101_" x="85.8" y="126.2" class="st13" width="127" height="12.6"/>
				<path id="XMLID_100_" class="st14" d="M151.3,131.6c0,1.5-1.2,2.8-2.8,2.8H93.9c-1.5,0-2.8-1.3-2.8-2.8l0,0      c0-1.5,1.2-2.8,2.8-2.8h54.7C150.1,128.8,151.3,130,151.3,131.6L151.3,131.6z"/>
				<path id="XMLID_99_" class="st15" d="M195.7,130.6c0,1-0.8,1.8-1.8,1.8c-1,0-1.8-0.8-1.8-1.8c0-1,0.8-1.8,1.8-1.8      C194.9,128.8,195.7,129.6,195.7,130.6z"/>
				<path id="XMLID_98_" class="st16" d="M201.6,130.6c0,1-0.8,1.8-1.8,1.8c-1,0-1.8-0.8-1.8-1.8c0-1,0.8-1.8,1.8-1.8      C200.8,128.8,201.6,129.6,201.6,130.6z"/>
				<path id="XMLID_97_" class="st17" d="M207.8,130.6c0,1-0.8,1.8-1.8,1.8c-1,0-1.8-0.8-1.8-1.8c0-1,0.8-1.8,1.8-1.8      C207,128.8,207.8,129.6,207.8,130.6z"/>
			</g>
		</g>
		<g id="Phone_5_">
			<path id="XMLID_96_" class="st18" d="M228.7,226.9c0,1.2-1,2.2-2.2,2.2H193c-1.2,0-2.2-1-2.2-2.2v-61.6c0-1.2,1-2.2,2.2-2.2h33.5     c1.2,0,2.2,1,2.2,2.2V226.9z"/>
			<rect id="XMLID_95_" x="194.3" y="171" class="st19" width="30.9" height="45.1"/>
			<g id="XMLID_270_">
				<rect id="XMLID_94_" x="196.2" y="178" class="st7" width="4.9" height="8.1"/>
				<rect id="XMLID_93_" x="207.9" y="178" class="st8" width="4.9" height="8.1"/>
				<rect id="XMLID_92_" x="218.2" y="178" class="st0" width="4.9" height="8.1"/>
				<g id="XMLID_276_">
					<rect id="XMLID_91_" x="196.2" y="187.8" class="st9" width="7.8" height="0.6"/>
					<rect id="XMLID_90_" x="196.2" y="189.6" class="st10" width="7.8" height="0.6"/>
					<rect id="XMLID_89_" x="196.2" y="191.2" class="st11" width="7.8" height="0.6"/>
					<rect id="XMLID_88_" x="203.8" y="195" class="st10" width="6.4" height="0.6"/>
					<rect id="XMLID_87_" x="197.1" y="195" class="st9" width="5.9" height="0.6"/>
					<rect id="XMLID_86_" x="197.1" y="196.6" class="st10" width="5.9" height="0.6"/>
					<rect id="XMLID_85_" x="203.8" y="196.6" class="st9" width="3" height="0.6"/>
					<rect id="XMLID_84_" x="197.1" y="199.8" class="st9" width="5.9" height="0.6"/>
					<rect id="XMLID_83_" x="203.8" y="199.8" class="st10" width="3" height="0.6"/>
					<rect id="XMLID_82_" x="210.3" y="198.2" class="st10" width="2.1" height="0.6"/>
					<rect id="XMLID_81_" x="197.1" y="193.1" class="st12" width="12.7" height="0.6"/>
					<rect id="XMLID_80_" x="197.1" y="198.2" class="st12" width="12.7" height="0.6"/>
					<rect id="XMLID_79_" x="210.3" y="201.7" class="st9" width="2.1" height="0.6"/>
					<rect id="XMLID_78_" x="197.1" y="201.7" class="st9" width="12.7" height="0.6"/>
					<rect id="XMLID_77_" x="218.9" y="195.2" class="st10" width="5.2" height="0.6"/>
					<rect id="XMLID_76_" x="213.5" y="195.2" class="st9" width="4.8" height="0.6"/>
					<rect id="XMLID_75_" x="213.5" y="196.8" class="st10" width="4.8" height="0.6"/>
					<rect id="XMLID_74_" x="218.9" y="196.8" class="st9" width="2.4" height="0.6"/>
					<rect id="XMLID_73_" x="213.5" y="200" class="st9" width="4.8" height="0.6"/>
					<rect id="XMLID_72_" x="218.9" y="200" class="st10" width="2.4" height="0.6"/>
					<rect id="XMLID_71_" x="213.5" y="193.3" class="st12" width="10.3" height="0.6"/>
					<rect id="XMLID_70_" x="213.5" y="198.4" class="st12" width="10.3" height="0.6"/>
					<rect id="XMLID_69_" x="213.5" y="201.9" class="st9" width="10.3" height="0.6"/>
				</g>
				<rect id="XMLID_68_" x="194.3" y="170.9" class="st13" width="31" height="5.5"/>
				<path id="XMLID_67_" class="st14" d="M210.3,173.3c0,0.7-0.3,1.2-0.7,1.2h-13.3c-0.4,0-0.7-0.6-0.7-1.2l0,0      c0-0.7,0.3-1.2,0.7-1.2h13.3C210,172,210.3,172.6,210.3,173.3L210.3,173.3z"/>
				<ellipse id="XMLID_66_" class="st15" cx="220.7" cy="172.8" rx="0.4" ry="0.8"/>
				<ellipse id="XMLID_65_" class="st16" cx="222.1" cy="172.8" rx="0.4" ry="0.8"/>
				<ellipse id="XMLID_64_" class="st17" cx="223.6" cy="172.8" rx="0.4" ry="0.8"/>
			</g>
			<polygon id="XMLID_63_" class="st20" points="225.2,171 224.7,171 194.3,214.3 194.3,216.1 225.2,216.1    "/>
		</g>
		<g id="Web_4_">
			<path id="XMLID_62_" class="st21" d="M156.7,77.8c0,2-1.1,3.6-2.4,3.6H95.5c-1.3,0-2.4-1.6-2.4-3.6V14.6c0-2,1.1-3.6,2.4-3.6     h58.8c1.3,0,2.4,1.6,2.4,3.6V77.8z"/>
			<path id="XMLID_61_" class="st13" d="M154.3,0H95.5C94.1,0,93,1.4,93,3.2v12.5h63.7V3.2C156.7,1.4,155.6,0,154.3,0z"/>
			<ellipse id="XMLID_60_" class="st15" cx="145.4" cy="2.6" rx="1.2" ry="1.3"/>
			<ellipse id="XMLID_59_" class="st16" cx="149.4" cy="2.6" rx="1.2" ry="1.3"/>
			<ellipse id="XMLID_58_" class="st17" cx="153.6" cy="2.6" rx="1.2" ry="1.3"/>
			<path id="XMLID_57_" class="st14" d="M137.2,4.2c0,1.1-0.8,2.1-1.9,2.1H98.1c-1,0-1.9-0.9-1.9-2.1l0,0c0-1.1,0.8-2.1,1.9-2.1     h37.2C136.4,2.1,137.2,3.1,137.2,4.2L137.2,4.2z"/>
			<rect id="XMLID_56_" x="97.9" y="21.2" class="st7" width="13.6" height="13.6"/>
			<rect id="XMLID_55_" x="118.1" y="21.2" class="st8" width="13.6" height="13.6"/>
			<rect id="XMLID_54_" x="137.4" y="21.2" class="st22" width="13.6" height="13.6"/>
			<g id="XMLID_240_">
				<rect id="XMLID_53_" x="98.7" y="39.5" class="st9" width="15.5" height="0.8"/>
				<rect id="XMLID_52_" x="98.7" y="41.8" class="st10" width="15.5" height="0.8"/>
				<rect id="XMLID_51_" x="98.7" y="43.9" class="st11" width="15.5" height="0.8"/>
				<rect id="XMLID_50_" x="98.7" y="63.8" class="st9" width="15.5" height="0.8"/>
				<rect id="XMLID_49_" x="98.7" y="61.3" class="st9" width="15.5" height="0.8"/>
				<rect id="XMLID_48_" x="98.7" y="66.4" class="st9" width="15.5" height="0.8"/>
				<rect id="XMLID_47_" x="117.2" y="48.8" class="st10" width="15.5" height="0.8"/>
				<rect id="XMLID_46_" x="100.9" y="48.8" class="st9" width="15.5" height="0.8"/>
				<rect id="XMLID_45_" x="100.9" y="50.9" class="st10" width="15.5" height="0.8"/>
				<rect id="XMLID_44_" x="117.2" y="50.9" class="st9" width="7.3" height="0.8"/>
				<rect id="XMLID_43_" x="100.9" y="55.1" class="st9" width="15.5" height="0.8"/>
				<rect id="XMLID_42_" x="117.2" y="55.1" class="st10" width="7.3" height="0.8"/>
				<rect id="XMLID_41_" x="135.6" y="53" class="st10" width="7.3" height="0.8"/>
				<rect id="XMLID_40_" x="100.9" y="46.3" class="st12" width="33.4" height="0.8"/>
				<rect id="XMLID_39_" x="100.9" y="53" class="st12" width="33.4" height="0.8"/>
				<rect id="XMLID_38_" x="135.6" y="57.5" class="st9" width="7.3" height="0.8"/>
				<rect id="XMLID_37_" x="100.9" y="57.5" class="st9" width="33.4" height="0.8"/>
				<rect id="XMLID_36_" x="133.5" y="68.5" class="st23" width="7.3" height="0.8"/>
				<rect id="XMLID_35_" x="98.7" y="68.5" class="st24" width="33.4" height="0.8"/>
			</g>
			<path id="XMLID_34_" class="st25" d="M154.3,0h-29.4v81.4h29.4c1.3,0,2.4-1.6,2.4-3.6V15.7v-1.1V3.2C156.7,1.4,155.6,0,154.3,0z"/>
		</g>
		<g id="Tablet_2_">
			<g id="Acces_1_">
				<g id="Tablet_3_">
					<path id="XMLID_33_" class="st13" d="M104.7,213.3c0,7.5-1,7.1-8.5,7.1H8.2c-7.5,0-8.2-0.7-8.2-8.2v-58.9c0-7.5,1.6-8,9.1-8       l84.5-0.1c7.5,0,11-1.5,11,6L104.7,213.3z"/>
					<rect id="XMLID_32_" x="6.5" y="152.3" class="st26" width="91.7" height="60.9"/>
				</g>
			</g>
			<rect id="XMLID_31_" x="12" y="165" class="st7" width="14.4" height="14.4"/>
			<rect id="XMLID_30_" x="46.6" y="165" class="st8" width="14.4" height="14.4"/>
			<rect id="XMLID_29_" x="77.4" y="165" class="st0" width="14.4" height="14.4"/>
			<g id="XMLID_206_">
				<rect id="XMLID_28_" x="12" y="182.4" class="st9" width="23.1" height="1"/>
				<rect id="XMLID_27_" x="12" y="185.5" class="st10" width="23.1" height="1"/>
				<rect id="XMLID_26_" x="12" y="188.4" class="st11" width="23.1" height="1"/>
				<rect id="XMLID_25_" x="34.7" y="195.1" class="st10" width="18.9" height="1"/>
				<rect id="XMLID_24_" x="14.9" y="195.1" class="st9" width="17.5" height="1"/>
				<rect id="XMLID_23_" x="14.9" y="198" class="st10" width="17.5" height="1"/>
				<rect id="XMLID_22_" x="34.7" y="198" class="st9" width="8.9" height="1"/>
				<rect id="XMLID_21_" x="14.9" y="203.6" class="st9" width="17.5" height="1"/>
				<rect id="XMLID_20_" x="34.7" y="203.6" class="st10" width="8.9" height="1"/>
				<rect id="XMLID_19_" x="53.9" y="200.8" class="st10" width="6.4" height="1"/>
				<rect id="XMLID_18_" x="14.9" y="191.7" class="st12" width="37.7" height="1"/>
				<rect id="XMLID_17_" x="14.9" y="200.8" class="st12" width="37.7" height="1"/>
				<rect id="XMLID_16_" x="53.9" y="206.9" class="st9" width="6.4" height="1"/>
				<rect id="XMLID_15_" x="14.9" y="206.9" class="st9" width="37.7" height="1"/>
				<rect id="XMLID_14_" x="79.2" y="195.4" class="st10" width="15.3" height="1"/>
				<rect id="XMLID_13_" x="63.2" y="195.4" class="st9" width="14.1" height="1"/>
				<rect id="XMLID_12_" x="63.2" y="198.3" class="st10" width="14.1" height="1"/>
				<rect id="XMLID_11_" x="79.2" y="198.3" class="st9" width="7.2" height="1"/>
				<rect id="XMLID_10_" x="63.2" y="204" class="st9" width="14.1" height="1"/>
				<rect id="XMLID_9_" x="79.2" y="204" class="st10" width="7.2" height="1"/>
				<rect id="XMLID_8_" x="63.2" y="192" class="st12" width="30.5" height="1"/>
				<rect id="XMLID_7_" x="63.2" y="201.1" class="st12" width="30.5" height="1"/>
				<rect id="XMLID_6_" x="63.2" y="207.3" class="st9" width="30.5" height="1"/>
			</g>
			<rect id="XMLID_5_" x="6.5" y="152.3" class="st13" width="91.7" height="9.8"/>
			<path id="XMLID_4_" class="st14" d="M53.8,156.5c0,1.2-0.9,2.2-2,2.2H12.3c-1.1,0-2-1-2-2.2l0,0c0-1.2,0.9-2.2,2-2.2h39.5     C52.9,154.3,53.8,155.3,53.8,156.5L53.8,156.5z"/>
			<ellipse id="XMLID_182_" class="st15" cx="84.5" cy="155.7" rx="1.3" ry="1.4"/>
			<ellipse id="XMLID_183_" class="st16" cx="88.8" cy="155.7" rx="1.3" ry="1.4"/>
			<ellipse id="XMLID_184_" class="st17" cx="93.3" cy="155.7" rx="1.3" ry="1.4"/>
		</g>
	</g>
</g>
</svg>





