<svg viewBox="-20 -20 522 416" xmlns="http://www.w3.org/2000/svg" xmlns:xlink="http://www.w3.org/1999/xlink">
  <title>Product Dashboard</title>
  <defs>
    <filter x="-13.2%" y="-13.5%" width="126.1%" height="136.1%" filterUnits="objectBoundingBox" id="filter-1">
      <feOffset dx="0" dy="5" in="SourceAlpha" result="shadowOffsetOuter1"/>
      <feGaussianBlur stdDeviation="7.5" in="shadowOffsetOuter1" result="shadowBlurOuter1"/>
      <feColorMatrix values="0 0 0 0 0.243137255 0 0 0 0 0.223529412 0 0 0 0 0.419607843 0 0 0 0.199416893 0" type="matrix" in="shadowBlurOuter1" result="shadowMatrixOuter1"/>
      <feMerge>
        <feMergeNode in="shadowMatrixOuter1"/>
        <feMergeNode in="SourceGraphic"/>
      </feMerge>
    </filter>
    <rect id="a821" width="301.813" height="222.564" rx="6"/>
    <linearGradient x1="64.533%" y1="2.447%" x2="35.972%" y2="96.745%" id="b821">
      <stop stop-color="#00AEFF" offset="0%"/>
      <stop stop-color="#3369E6" offset="34.64%"/>
      <stop stop-color="#913FE6" offset="100%"/>
    </linearGradient>
    <rect id="d821" width="301.813" height="222.564" rx="6"/>
    <rect id="f821" width="301.813" height="222.564" rx="6"/>
    <rect id="h821" width="301.809" height="222.645" rx="6"/>
    <linearGradient x1="39.26%" y1="96.745%" x2="61.127%" y2="2.447%" id="i821">
      <stop stop-color="#00AEFF" offset="0%"/>
      <stop stop-color="#3369E6" offset="34.64%"/>
      <stop stop-color="#913FE6" offset="100%"/>
    </linearGradient>
    <rect id="k821" width="301.809" height="222.645" rx="6"/>
    <rect id="m821" width="301.809" height="222.645" rx="6"/>
  </defs>
  <g fill="none" fill-rule="evenodd">
    <rect width="301.813" height="222.564" rx="6" fill="#FFF" filter="url(#filter-1)"/>
    <mask id="c821" fill="#fff">
      <use xlink:href="#a821"/>
    </mask>
    <path d="M20.894 170.463c24.377 0 25.248-40.575 51.076-40.575s24.667 27.74 49.914 27.74c25.248 0 24.668-65.003 50.495-65.003 25.827 0 24.376 55.066 49.624 55.066 25.247 0 24.957-113.03 50.785-113.03" stroke="url(#b821)" stroke-width="3" stroke-linecap="round" mask="url(#c821)"/>
    <g>
      <mask id="e821" fill="#fff">
        <use xlink:href="#d821"/>
      </mask>
      <path d="M25.375 30.15h1.556v6.714h3.506v1.403h-5.06V30.15zm12.738 8.117l-.72-1.716h-3.97l-.72 1.717H31.09l3.564-8.117h1.613l3.518 8.117h-1.672zm-4.132-3.05h2.856l-1.416-3.41-1.44 3.41zm10.945-3.57c-.437-.14-.822-.21-1.155-.21-.37 0-.665.07-.882.21-.217.138-.325.33-.325.58 0 .223.075.41.226.56.15.152.34.275.568.372.228.096.54.202.934.318.55.162 1 .325 1.353.487.352.162.652.402.9.72.247.316.37.733.37 1.25 0 .496-.133.927-.4 1.294-.267.366-.634.647-1.102.84-.47.193-1.005.29-1.608.29-.635 0-1.254-.118-1.857-.354-.604-.236-1.13-.55-1.58-.945l.65-1.32c.41.378.872.676 1.382.892.51.217.987.325 1.428.325.433 0 .774-.083 1.022-.25.247-.166.37-.392.37-.678 0-.233-.074-.424-.225-.575-.15-.15-.343-.272-.575-.365-.232-.093-.55-.197-.952-.313-.55-.163-.998-.32-1.346-.476-.35-.153-.646-.387-.894-.7-.248-.313-.372-.725-.372-1.235 0-.472.126-.884.378-1.235.25-.352.607-.625 1.068-.818.46-.193.992-.29 1.596-.29.526 0 1.046.078 1.56.232.516.155.974.364 1.377.626l-.627 1.357c-.418-.255-.846-.452-1.283-.59zm2.947-1.497H54.5v1.38h-2.53v6.737H50.4V31.53h-2.53v-1.38zm11.348 0h1.776l2.693 5.23 2.67-5.23h1.775v8.117h-1.427v-5.82l-2.53 4.985h-1l-2.54-4.986v5.82H59.22V30.15zm17.19.44c.662.364 1.182.862 1.56 1.496.38.634.57 1.338.57 2.11 0 .774-.19 1.48-.57 2.117-.378.638-.898 1.142-1.56 1.513-.662.372-1.395.557-2.2.557-.805 0-1.538-.185-2.2-.557-.66-.37-1.182-.875-1.56-1.513-.38-.638-.57-1.343-.57-2.116 0-.773.19-1.477.57-2.11.378-.635.9-1.133 1.56-1.497.662-.363 1.395-.545 2.2-.545.805 0 1.538.182 2.2.545zm-3.558 1.212c-.426.244-.762.576-1.01.998-.247.42-.37.887-.37 1.397s.124.978.376 1.403c.25.425.588.76 1.01 1.01.422.246.88.37 1.375.37.488 0 .94-.124 1.36-.37.416-.25.747-.585.99-1.01.245-.425.367-.893.367-1.403s-.122-.976-.366-1.397c-.244-.422-.575-.754-.992-.998-.418-.243-.87-.365-1.36-.365-.494 0-.954.122-1.38.365zm13.11-1.652h1.508v8.117h-1.474l-4.18-5.59v5.59h-1.52V30.15h1.475l4.19 5.6v-5.6zm2.987 0h6.627v1.38h-2.53v6.737h-1.568V31.53h-2.53v-1.38zm8.116 0h1.556v3.467h4.05V30.15h1.557v8.117h-1.557v-3.293h-4.05v3.293h-1.557V30.15z" fill="#A6B0D8" fill-rule="nonzero" mask="url(#e821)"/>
    </g>
    <g>
      <mask id="g821" fill="#fff">
        <use xlink:href="#f821"/>
      </mask>
      <path d="M39.755 62.904l1.05 1.836c-1.09.988-2.583 1.553-3.914 1.553-1.815 0-3.428-1.13-4.497-3.046-4.216-.04-7.443-3.146-7.443-7.18 0-4.075 3.268-7.14 7.523-7.14 4.256 0 7.524 3.085 7.524 7.14 0 3.186-2.017 5.808-4.942 6.777.666.746 1.392 1.19 2.158 1.19.726 0 1.634-.424 2.542-1.13zm-12.042-6.837c0 2.662 2.2 4.76 4.8 4.76 2.582 0 4.72-2.098 4.72-4.76 0-2.663-2.138-4.72-4.72-4.72-2.62 0-4.8 2.057-4.8 4.72zm22.833-3.732v5.325c0 1.735-1.01 3.066-2.703 3.086-1.452 0-2.32-.908-2.32-2.42v-5.99H42.88v6.756c0 2.54 1.494 4.135 3.914 4.135 1.714 0 3.005-.666 3.752-2.098v1.996h2.642v-10.79h-2.642zm11.214-.08c3.792 0 5.426 2.48 5.163 6.393h-7.967c.343 1.533 1.513 2.46 3.086 2.46 1.11 0 2.138-.423 2.905-1.21l1.412 1.473c-1.07 1.17-2.644 1.857-4.54 1.857-3.348 0-5.546-2.22-5.546-5.466 0-3.287 2.26-5.506 5.486-5.506zm-2.864 4.64h5.647c-.06-1.595-1.13-2.603-2.763-2.603-1.553 0-2.642 1.008-2.884 2.602zm13.736-2.482v-2.078H70.01v10.79h2.622v-5.203c0-1.956 1.39-3.287 3.67-3.146v-2.542c-1.674.02-2.944.767-3.67 2.18zm11.436 10.064l4.84-12.142h-2.642l-2.803 7.846-3.066-7.845h-2.723l4.458 10.61-.323.705c-.344.747-.89 1.09-1.574 1.09-.485 0-.888-.162-1.392-.545l-1.13 1.997c.827.665 1.634.968 2.683.968 1.714 0 2.985-.887 3.67-2.683zm19.726-3.993c-.585.282-1.09.444-1.533.444-.705 0-1.128-.343-1.128-1.372v-4.86h3.086v-1.917h-3.086v-2.966H98.53v2.965h-1.533l.02 1.915h1.513v5.325c0 2.22 1.412 3.227 3.166 3.227.948 0 1.876-.282 2.703-.787l-.606-1.976zm6.09-6.07v-2.08h-2.62v10.792h2.62v-5.204c0-1.956 1.393-3.287 3.672-3.146v-2.542c-1.674.02-2.945.767-3.67 2.18zm10.812-2.16c3.792 0 5.426 2.48 5.164 6.394h-7.967c.343 1.533 1.512 2.46 3.086 2.46 1.108 0 2.137-.423 2.903-1.21l1.412 1.473c-1.07 1.17-2.642 1.857-4.538 1.857-3.348 0-5.547-2.22-5.547-5.466 0-3.287 2.26-5.506 5.486-5.506zm-2.864 4.64h5.648c-.06-1.594-1.13-2.602-2.764-2.602-1.553 0-2.642 1.008-2.884 2.602zm17.608-4.66c-1.754.02-3.106.686-3.872 2.118v-2.017h-2.622v10.79h2.622v-5.304c0-1.774 1.05-3.085 2.824-3.105 1.492 0 2.4.928 2.4 2.44v5.97h2.642V56.39c0-2.562-1.513-4.156-3.994-4.156zm15.53-4.074h2.623v14.966h-2.622V61.39c-.765 1.19-2.016 1.857-3.63 1.857-3.085 0-5.143-2.26-5.143-5.547 0-3.267 2.058-5.466 5.083-5.466 1.654 0 2.905.666 3.69 1.876v-5.95zm-3.065 12.89c1.816 0 3.066-1.353 3.066-3.29 0-1.935-1.25-3.287-3.065-3.287-1.795 0-3.045 1.372-3.065 3.288.02 1.937 1.25 3.29 3.065 3.29zm16.257-5.79l.948-1.896c-1.07-.726-2.54-1.15-3.953-1.15-2.178 0-4.074 1.03-4.074 3.247-.02 3.834 5.607 2.745 5.607 4.74 0 .707-.686 1.01-1.594 1.01-1.17 0-2.662-.484-3.65-1.33l-.908 1.834c1.13.988 2.824 1.513 4.458 1.513 2.3 0 4.255-1.07 4.255-3.268 0-3.873-5.707-2.925-5.707-4.74 0-.666.606-.95 1.453-.95.927 0 2.117.365 3.166.99z" fill="#201C38" mask="url(#g821)"/>
    </g>
    <g>
      <rect width="301.809" height="222.645" rx="6" fill="#FFF" transform="translate(160.19 133.355)" filter="url(#filter-1)"/>
      <g transform="translate(160.19 133.355)">
        <mask id="j821" fill="#fff">
          <use xlink:href="#h821"/>
        </mask>
        <path d="M27.86 185.537c0-2.56 2.083-4.638 4.643-4.638 2.564 0 4.643 2.08 4.643 4.637v8.118c0 2.56-2.084 4.638-4.643 4.638-2.565 0-4.644-2.08-4.644-4.638v-8.118zm37.145-17.395c0-2.56 2.084-4.637 4.643-4.637 2.565 0 4.643 2.072 4.643 4.637v25.514c0 2.56-2.083 4.637-4.642 4.637-2.564 0-4.643-2.072-4.643-4.637v-25.514zm-18.573 9.29c0-2.57 2.084-4.65 4.643-4.65 2.565 0 4.644 2.087 4.644 4.65v16.212c0 2.567-2.085 4.65-4.645 4.65-2.564 0-4.643-2.09-4.643-4.65V177.43zm37.146-2.327c0-2.564 2.084-4.642 4.643-4.642 2.565 0 4.644 2.07 4.644 4.642v18.546c0 2.565-2.084 4.643-4.643 4.643-2.563 0-4.642-2.07-4.642-4.642v-18.545zm18.573-13.91c0-2.567 2.085-4.648 4.644-4.648 2.564 0 4.643 2.07 4.643 4.647v32.452c0 2.567-2.084 4.647-4.643 4.647-2.564 0-4.643-2.07-4.643-4.647v-32.452zm18.574-6.958c0-2.567 2.084-4.647 4.643-4.647 2.564 0 4.643 2.077 4.643 4.647v39.408c0 2.567-2.084 4.648-4.643 4.648-2.565 0-4.643-2.077-4.643-4.648v-39.408zm18.572-4.645c0-2.563 2.085-4.64 4.644-4.64 2.564 0 4.643 2.074 4.643 4.64v44.06c0 2.564-2.084 4.64-4.643 4.64-2.565 0-4.644-2.074-4.644-4.64v-44.06zm18.573-26.664c0-2.567 2.083-4.648 4.643-4.648 2.564 0 4.643 2.08 4.643 4.648v70.717c0 2.567-2.084 4.648-4.643 4.648-2.565 0-4.644-2.078-4.644-4.648v-70.717zm18.572 16.225c0-2.562 2.084-4.638 4.643-4.638 2.565 0 4.644 2.085 4.644 4.638v54.502c0 2.562-2.085 4.638-4.645 4.638-2.564 0-4.643-2.086-4.643-4.638v-54.502zm18.573 4.64c0-2.562 2.084-4.64 4.643-4.64 2.565 0 4.644 2.07 4.644 4.64v49.86c0 2.562-2.085 4.64-4.644 4.64-2.564 0-4.643-2.07-4.643-4.64v-49.86zm18.573-24.354c0-2.562 2.084-4.64 4.643-4.64 2.566 0 4.644 2.086 4.644 4.64v74.215c0 2.562-2.084 4.638-4.643 4.638-2.563 0-4.642-2.085-4.642-4.638V119.44zm18.573 11.592c0-2.56 2.085-4.635 4.644-4.635 2.564 0 4.643 2.075 4.643 4.635v62.627c0 2.558-2.084 4.633-4.643 4.633-2.564 0-4.643-2.074-4.643-4.634V131.03zm18.574-23.176c0-2.57 2.084-4.65 4.643-4.65 2.564 0 4.643 2.074 4.643 4.65v85.787c0 2.568-2.084 4.65-4.643 4.65-2.564 0-4.643-2.074-4.643-4.65v-85.787zm18.573-23.206c0-2.56 2.084-4.637 4.643-4.637 2.564 0 4.643 2.078 4.643 4.637v109.006c0 2.56-2.084 4.637-4.643 4.637-2.565 0-4.643-2.078-4.643-4.637V84.65z" fill="url(#i821)" fill-rule="nonzero" mask="url(#j821)"/>
      </g>
      <g transform="translate(160.19 133.355)">
        <mask id="l821" fill="#fff">
          <use xlink:href="#k821"/>
        </mask>
        <path d="M28.858 30.15h1.555v6.714h3.506v1.403h-5.062V30.15zm12.737 8.117l-.72-1.716h-3.97l-.72 1.717h-1.612l3.563-8.117h1.614l3.517 8.117h-1.672zm-4.132-3.05h2.856l-1.418-3.41-1.44 3.41zm10.944-3.57c-.437-.14-.822-.21-1.155-.21-.37 0-.665.07-.882.21-.216.138-.325.33-.325.58 0 .223.076.41.227.56.15.152.34.275.568.372.23.096.54.202.935.318.55.162 1 .325 1.352.487.352.162.652.402.9.72.247.316.37.733.37 1.25 0 .496-.132.927-.4 1.294-.266.366-.634.647-1.102.84-.468.193-1.004.29-1.608.29-.634 0-1.253-.118-1.857-.354-.604-.236-1.13-.55-1.58-.945l.65-1.32c.412.378.872.676 1.383.892.51.217.986.325 1.428.325.434 0 .774-.083 1.022-.25.248-.166.37-.392.37-.678 0-.233-.074-.424-.225-.575-.15-.15-.342-.272-.574-.365-.233-.093-.55-.197-.952-.313-.55-.163-.998-.32-1.346-.476-.348-.153-.646-.387-.894-.7-.247-.313-.37-.725-.37-1.235 0-.472.125-.884.376-1.235.252-.352.608-.625 1.068-.818.46-.193.993-.29 1.596-.29.526 0 1.047.078 1.56.232.516.155.975.364 1.377.626l-.627 1.357c-.418-.255-.845-.452-1.283-.59zm2.947-1.497h6.628v1.38h-2.53v6.737h-1.567V31.53h-2.53v-1.38zm11.35 0h1.775l2.692 5.23 2.67-5.23h1.776v8.117H70.19v-5.82l-2.53 4.985h-1l-2.54-4.986v5.82h-1.417V30.15zm17.188.44c.662.364 1.182.862 1.562 1.496.38.634.568 1.338.568 2.11 0 .774-.19 1.48-.568 2.117-.38.638-.9 1.142-1.562 1.513-.66.372-1.395.557-2.2.557-.804 0-1.537-.185-2.2-.557-.66-.37-1.18-.875-1.56-1.513-.38-.638-.57-1.343-.57-2.116 0-.773.19-1.477.57-2.11.38-.635.9-1.133 1.56-1.497.663-.363 1.396-.545 2.2-.545.805 0 1.54.182 2.2.545zm-3.558 1.212c-.425.244-.762.576-1.01.998-.247.42-.37.887-.37 1.397s.125.978.376 1.403c.252.425.59.76 1.01 1.01.422.246.88.37 1.376.37.487 0 .94-.124 1.358-.37.418-.25.75-.585.992-1.01.244-.425.366-.893.366-1.403s-.122-.976-.366-1.397c-.243-.422-.574-.754-.992-.998-.418-.243-.87-.365-1.358-.365-.495 0-.956.122-1.382.365zm13.11-1.652h1.51v8.117h-1.475l-4.18-5.59v5.59h-1.52V30.15h1.473l4.19 5.6v-5.6zm2.987 0h6.63v1.38h-2.53v6.737H94.96V31.53h-2.53v-1.38zm8.12 0h1.554v3.467h4.052V30.15h1.555v8.117h-1.554v-3.293h-4.052v3.293h-1.555V30.15z" fill="#A6B0D8" fill-rule="nonzero" mask="url(#l821)"/>
      </g>
      <g transform="translate(160.19 133.355)">
        <mask id="n821" fill="#fff">
          <use xlink:href="#m821"/>
        </mask>
        <path d="M39.853 50.327h2.716v14.61h-2.655l-7.522-10.06v10.06h-2.737v-14.61h2.654l7.543 10.082V50.326zm17.224 3.444V64.94H54.34v-2.066c-.753 1.447-2.048 2.17-3.887 2.17-1.253 0-2.242-.382-2.967-1.148-.724-.765-1.086-1.81-1.086-3.13V53.77h2.737v6.2c0 .78.212 1.392.637 1.837.425.445 1.013.668 1.766.668.863-.014 1.546-.32 2.047-.918.502-.6.753-1.357.753-2.275v-5.51h2.737zm21.716 1.055c.724.772 1.087 1.82 1.087 3.142v6.97h-2.738V58.76c0-.793-.22-1.416-.658-1.868-.44-.453-1.034-.68-1.786-.68-.864.03-1.55.342-2.058.94-.51.6-.763 1.357-.763 2.276v5.51H69.14V58.76c0-.793-.216-1.416-.648-1.868-.432-.453-1.024-.68-1.776-.68-.878.03-1.57.342-2.08.94-.507.6-.762 1.357-.762 2.276v5.51h-2.716V53.77h2.716v2.067c.74-1.42 2.048-2.142 3.93-2.17.974 0 1.792.233 2.454.7.66.465 1.124 1.123 1.39 1.97.71-1.752 2.096-2.642 4.157-2.67 1.268 0 2.264.386 2.988 1.158zm14.163-.417c.8.48 1.42 1.15 1.86 2.014.438.863.658 1.858.658 2.985 0 1.113-.216 2.094-.648 2.943-.432.85-1.045 1.51-1.84 1.983-.793.473-1.712.71-2.757.71-.836 0-1.575-.164-2.216-.49-.64-.328-1.17-.805-1.587-1.43v1.815H83.71V49.45h2.717v6.158c.403-.626.922-1.103 1.556-1.43.634-.327 1.37-.49 2.205-.49 1.044 0 1.967.24 2.768.72zm-1.118 7.347c.585-.633.878-1.444.878-2.432s-.293-1.795-.878-2.42c-.585-.627-1.337-.94-2.256-.94-.934 0-1.693.313-2.278.94-.585.625-.877 1.432-.877 2.42 0 1.002.292 1.816.877 2.442.585.627 1.344.94 2.278.94.92 0 1.67-.317 2.256-.95zm15.375-6.544c.898 1.017 1.348 2.443 1.348 4.28 0 .362-.006.633-.02.814h-8.253c.18.793.553 1.416 1.117 1.868.565.453 1.258.68 2.08.68.57 0 1.117-.11 1.64-.325.522-.215.978-.525 1.368-.93l1.463 1.525c-.557.612-1.236 1.086-2.037 1.42-.8.333-1.69.5-2.664.5-1.143 0-2.15-.236-3.02-.71-.87-.472-1.542-1.137-2.016-1.993-.474-.856-.71-1.84-.71-2.954 0-1.113.24-2.1.72-2.964.48-.863 1.153-1.534 2.017-2.014.863-.48 1.845-.72 2.946-.72 1.784 0 3.125.507 4.023 1.523zm-1.14 3.278c-.027-.82-.298-1.475-.814-1.962-.516-.487-1.2-.73-2.048-.73-.794 0-1.46.24-1.996.72s-.867 1.137-.992 1.972h5.85zm9.776-4.226c.647-.383 1.403-.58 2.266-.595v2.63c-1.156-.07-2.08.198-2.768.803-.69.606-1.034 1.423-1.034 2.453v5.385h-2.717V53.77h2.717v2.15c.376-.723.888-1.276 1.535-1.658zm18.63.135c.885.473 1.574 1.138 2.07 1.994.493.856.74 1.84.74 2.954 0 1.127-.247 2.122-.74 2.985-.496.862-1.185 1.53-2.07 2.003-.884.473-1.905.71-3.06.71-1.17 0-2.202-.237-3.093-.71-.892-.473-1.585-1.14-2.08-2.004-.494-.864-.74-1.86-.74-2.986 0-1.113.246-2.098.74-2.953.495-.855 1.188-1.52 2.08-1.993.89-.473 1.922-.71 3.092-.71 1.155 0 2.176.237 3.06.71zm-5.36 2.547c-.584.626-.877 1.44-.877 2.442 0 1.002.293 1.816.878 2.442.586.626 1.352.94 2.3.94.92 0 1.67-.314 2.256-.94.585-.626.877-1.44.877-2.442 0-1.002-.292-1.816-.877-2.442-.585-.626-1.337-.94-2.257-.94-.948 0-1.714.314-2.3.94zm14.728-4.926c-.272.236-.407.59-.407 1.064v1.148h2.8v1.983h-2.8v8.725h-2.716v-8.725h-1.462V54.23h1.462v-1.064c0-.82.18-1.52.544-2.098.362-.577.846-1.012 1.452-1.305.606-.292 1.264-.438 1.974-.438.697 0 1.38.16 2.048.48l-.48 2.192c-.558-.223-1.018-.334-1.38-.334-.418 0-.762.118-1.034.355zm21.295 1.753v15.217h-2.716v-5.844c-.404.626-.923 1.103-1.557 1.43-.634.327-1.37.49-2.204.49-1.06 0-1.99-.24-2.79-.72s-1.424-1.155-1.87-2.024c-.446-.87-.668-1.87-.668-2.997 0-1.113.22-2.097.658-2.953.44-.856 1.058-1.52 1.86-1.994.8-.473 1.716-.71 2.747-.71.85 0 1.595.168 2.236.502.64.334 1.17.814 1.587 1.44V53.77h2.716zm-3.604 8.068c.59-.633.887-1.45.887-2.452s-.296-1.82-.888-2.453c-.593-.633-1.356-.95-2.29-.95-.933 0-1.692.317-2.277.95-.585.633-.884 1.45-.898 2.453.014 1.002.313 1.82.898 2.452.585.634 1.344.95 2.278.95.934 0 1.697-.316 2.29-.95zm18.11-8.067V64.94h-2.737v-2.066c-.752 1.447-2.047 2.17-3.886 2.17-1.254 0-2.243-.382-2.967-1.148-.724-.765-1.086-1.81-1.086-3.13V53.77h2.737v6.2c0 .78.213 1.392.638 1.837.425.445 1.013.668 1.766.668.863-.014 1.546-.32 2.047-.918.503-.6.753-1.357.753-2.275v-5.51h2.738zm12.764 1.44c.898 1.017 1.347 2.443 1.347 4.28 0 .362-.006.633-.02.814h-8.253c.18.793.554 1.416 1.118 1.868.564.453 1.257.68 2.08.68.57 0 1.117-.11 1.64-.325.522-.215.978-.525 1.368-.93l1.462 1.525c-.557.612-1.236 1.086-2.037 1.42-.8.333-1.69.5-2.664.5-1.142 0-2.148-.236-3.02-.71-.87-.472-1.542-1.137-2.015-1.993-.475-.856-.712-1.84-.712-2.954 0-1.113.24-2.1.72-2.964.482-.863 1.154-1.534 2.017-2.014.864-.48 1.846-.72 2.947-.72 1.783 0 3.123.507 4.022 1.523zm-1.14 3.278c-.027-.82-.3-1.475-.814-1.962-.515-.487-1.198-.73-2.048-.73-.794 0-1.46.24-1.995.72-.536.48-.867 1.137-.992 1.972h5.85zm9.776-4.226c.648-.383 1.404-.58 2.267-.595v2.63c-1.156-.07-2.08.198-2.768.803-.69.606-1.036 1.423-1.036 2.453v5.385h-2.716V53.77h2.716v2.15c.376-.723.888-1.276 1.536-1.658zm4.865-.49h2.716v11.166h-2.715V53.77zm2.445-4.343c.292.306.438.695.438 1.168 0 .46-.146.842-.438 1.148-.293.307-.662.46-1.108.46-.445 0-.815-.153-1.107-.46-.293-.306-.44-.688-.44-1.148 0-.473.147-.862.44-1.17.292-.305.662-.458 1.107-.458.446 0 .815.153 1.108.46zm13.013 5.78c.9 1.017 1.348 2.443 1.348 4.28 0 .362-.006.633-.02.814h-8.253c.18.793.554 1.416 1.118 1.868.564.453 1.257.68 2.08.68.57 0 1.117-.11 1.64-.325.52-.215.978-.525 1.368-.93l1.462 1.525c-.557.612-1.236 1.086-2.037 1.42-.8.333-1.69.5-2.664.5-1.142 0-2.15-.236-3.02-.71-.87-.472-1.542-1.137-2.016-1.993-.473-.856-.71-1.84-.71-2.954 0-1.113.24-2.1.72-2.964.48-.863 1.154-1.534 2.017-2.014.864-.48 1.846-.72 2.946-.72 1.784 0 3.125.507 4.023 1.523zm-1.138 3.278c-.028-.82-.3-1.475-.815-1.962-.516-.487-1.198-.73-2.048-.73-.794 0-1.46.24-1.995.72-.537.48-.867 1.137-.993 1.972h5.85zm10.464-2.442c-.58-.18-1.112-.27-1.6-.27-.46 0-.824.08-1.096.24-.272.16-.407.406-.407.74 0 .348.17.616.51.804.343.187.882.386 1.62.594.78.237 1.422.47 1.923.7.502.23.937.57 1.306 1.022.37.453.554 1.048.554 1.785 0 1.086-.418 1.92-1.254 2.506-.836.584-1.887.876-3.155.876-.863 0-1.705-.135-2.527-.407-.822-.27-1.52-.657-2.09-1.158l.94-1.9c.502.432 1.1.77 1.797 1.013.697.243 1.36.365 1.985.365.502 0 .902-.087 1.202-.26.3-.175.45-.436.45-.783 0-.39-.175-.682-.523-.877-.35-.195-.913-.41-1.693-.647-.75-.223-1.364-.442-1.837-.658-.474-.215-.885-.542-1.233-.98-.348-.44-.523-1.013-.523-1.723 0-1.1.4-1.937 1.202-2.515.8-.577 1.806-.866 3.018-.866.738 0 1.466.104 2.184.313.717.208 1.354.5 1.91.876l-.98 1.962c-.544-.32-1.105-.57-1.683-.752z" fill="#201C38" fill-rule="nonzero" mask="url(#n821)"/>
      </g>
    </g>
  </g>
</svg>
