<svg version="1.1" id="Layer_1" xmlns="http://www.w3.org/2000/svg" xmlns:xlink="http://www.w3.org/1999/xlink" x="0px" y="0px" viewBox="0 0 567.3 244.7" style="enable-background:new 0 0 567.3 244.7;" xml:space="preserve">
<style type="text/css">
	.st0{clip-path:url(#XMLID_6_);}
	.st1{fill:#321651;}
	.st2{fill:#7C459B;}
	.st3{fill:#9F6FB0;}
	.st4{opacity:0.3;fill:#9F6FB0;}
	.st5{opacity:0.7;fill:#9F6FB0;}
	.st6{opacity:0.5;fill:url(#XMLID_8_);}
	.st7{opacity:0.2;fill:url(#XMLID_11_);}
</style>
<g id="XMLID_2_">
	<defs>
		<rect id="XMLID_3_" x="-23" y="-148.8" width="590.3" height="393.5"/>
	</defs>
	<clipPath id="XMLID_6_">
		<use xlink:href="#XMLID_3_" style="overflow:visible;"/>
	</clipPath>
	<g id="XMLID_4_" class="st0">
		<path id="XMLID_26_" class="st1" d="M-6.6,284c4.8-22.4,14.8-45.8,29.5-63.4c14.3-17,35.3-31.6,56.9-36.1c25-5.2,50.8-1.7,75.4,4    c28.7,6.6,68.2,3.3,96.4-14.8c27.1-17.4,45-41,66-65c30.5-34.9,69.3-64.9,118.1-61.4c38.7,2.8,71.4,26.4,93.6,57.1    c14.1,19.4,24.3,41.5,31.9,64.2c28.8,86,15.1,114.6,15.1,114.6L-6.6,284z"/>
		<path id="XMLID_23_" class="st2" d="M491.2,129.5c-3.9,18.6,4.6,33.2,8.7,51.1c2.8,12.2-2,26.3-10.9,34.8    c-12,11.3-30,13.2-46.4,12.1c-27.4-1.9-59.1-9.9-77,17.1c-10.5,15.9-10.7,37.4-3.5,54.7c8.4,20.1,27.4,32.9,49.5,28.7    c37.5-7.1,202.1-37.9,214-73.9c10.9-32.9,20-85.5-30.9-130.9c-18.3-16.3-44.9-30.9-70.3-27.3c-16.9,2.4-28.7,15.8-32.7,31.9    C491.5,128.3,491.3,128.9,491.2,129.5z"/>
		<path id="XMLID_22_" class="st3" d="M391.6,3.7c-29.3,0.6-49.3,21.9-55.4,28.4c-6.4,6.8-37,41.4-24.7,79.3    c11.6,35.8,54.8,54.7,91.7,48.5c33.7-5.7,67.2-33.2,70.2-71.3C477,41.5,431.8,2.9,391.6,3.7z"/>
		<path id="XMLID_20_" class="st4" d="M66.9,171.8c-7.8,10.2-6,22.8-5.4,26.7c0.6,4,4,23.9,20.3,30.1c15.4,5.8,33.6-3.8,41.6-18.1    c7.3-13,7-32-5.2-43.4C103.1,153,77.6,157.9,66.9,171.8z"/>
		<g id="XMLID_5_">
			<path id="XMLID_17_" class="st5" d="M82.5,163.8c0.2,0.5,0.4,1.1,0.8,1.6c3,4.7,9.9,10.5,15.8,7.7c0.7-0.3,1.4-0.8,2-1.3     c9.2-7.4,7.9-14.3,1.3-18.8c-3.9-2.7-9.7-3.7-14.1-2c-2.4,0.9-4.3,2.8-5.3,5.2C82,158.7,81.6,161.3,82.5,163.8z"/>
			<path id="XMLID_15_" class="st3" d="M360.9,218.2c-2.5,0.5-4.9,5-3.5,8.3c1.9,4.5,6.7,5.9,10.8,0.2     C370.1,224.2,369.3,216.5,360.9,218.2z"/>
			<path id="XMLID_14_" class="st3" d="M9.1,186.3c-5.3,1.1-10.4,10.6-7.4,17.7c4,9.6,14.3,12.6,22.8,0.5     C28.5,198.9,26.9,182.5,9.1,186.3z"/>
			
				<linearGradient id="XMLID_8_" gradientUnits="userSpaceOnUse" x1="1724.1436" y1="-438.4999" x2="1724.1436" y2="-471.3467" gradientTransform="matrix(-0.6485 -0.7612 0.7612 -0.6485 1907.5773 1101.2238)">
				<stop offset="0" style="stop-color:#A34098"/>
				<stop offset="1" style="stop-color:#77C9F1"/>
			</linearGradient>
			<path id="XMLID_10_" class="st6" d="M457.5,99.8c7.1-6.3,4.2-21.2-3.8-28.8c-5.8-5.5-16.4-9.3-23.1-4.6     c-7.6,5.4-6.8,19.9,0.1,28.1C437.4,102.5,450.9,105.7,457.5,99.8z"/>
			
				<linearGradient id="XMLID_11_" gradientUnits="userSpaceOnUse" x1="1697.1316" y1="-470.7825" x2="1697.1316" y2="-485.6894" gradientTransform="matrix(-0.6485 -0.7612 0.7612 -0.6485 1907.5773 1101.2238)">
				<stop offset="0" style="stop-color:#A34098"/>
				<stop offset="1" style="stop-color:#77C9F1"/>
			</linearGradient>
			<path id="XMLID_9_" class="st7" d="M442.1,127.1c3.7,0.2,10.6-6.9,7.3-11.5c-2.1-2.9-7.8-3.5-10.5-1.2     C434.5,118.2,435.8,126.8,442.1,127.1z"/>
			<path id="XMLID_7_" class="st2" d="M607.7,68.7c12.1-17.5-1.2-71.9-33.9-69.7c-20.3,1.4-40.6,27.2-37.2,47.3     C542.1,78.6,587.4,98.1,607.7,68.7z"/>
		</g>
	</g>
</g>
</svg>
